<?xml version="1.0" encoding="UTF-8" standalone="no"?>
<svg
   xmlns:dc="http://purl.org/dc/elements/1.1/"
   xmlns:cc="http://creativecommons.org/ns#"
   xmlns:rdf="http://www.w3.org/1999/02/22-rdf-syntax-ns#"
   xmlns:svg="http://www.w3.org/2000/svg"
   xmlns="http://www.w3.org/2000/svg"
   xmlns:sodipodi="http://sodipodi.sourceforge.net/DTD/sodipodi-0.dtd"
   xmlns:inkscape="http://www.inkscape.org/namespaces/inkscape"
   version="1.1"
   id="svg2"
   xml:space="preserve"
   width="857.45331"
   height="682.32001"
   viewBox="0 0 857.45331 682.32001"
   sodipodi:docname="chestnut-publicdomainvectors.org.svg"
   inkscape:version="1.0.1 (3bc2e813f5, 2020-09-07)"><metadata
     id="metadata8"><rdf:RDF><cc:Work
         rdf:about=""><dc:format>image/svg+xml</dc:format><dc:type
           rdf:resource="http://purl.org/dc/dcmitype/StillImage" /></cc:Work></rdf:RDF></metadata><defs
     id="defs6"><clipPath
       clipPathUnits="userSpaceOnUse"
       id="clipPath57"><rect
         style="fill-rule:evenodd;stroke-width:7.5"
         id="rect59"
         width="6056.6055"
         height="4071.5823"
         x="-157.38036"
         y="-5188.4756"
         transform="scale(1,-1)" /></clipPath></defs><sodipodi:namedview
     pagecolor="#ffffff"
     bordercolor="#666666"
     borderopacity="1"
     objecttolerance="10"
     gridtolerance="10"
     guidetolerance="10"
     inkscape:pageopacity="0"
     inkscape:pageshadow="2"
     inkscape:window-width="2400"
     inkscape:window-height="1271"
     id="namedview4"
     inkscape:document-rotation="0"
     showgrid="false"
     inkscape:zoom="1.4773127"
     inkscape:cx="559.84738"
     inkscape:cy="341.16"
     inkscape:window-x="-9"
     inkscape:window-y="454"
     inkscape:window-maximized="1"
     inkscape:current-layer="g10" /><g
     id="g10"
     inkscape:groupmode="layer"
     inkscape:label="ink_ext_XXXXXX"
     transform="matrix(1.3333333,0,0,-1.3333333,0,682.32)"><g
       id="g12"
       transform="scale(0.1)"
       clip-path="url(#clipPath57)"><path
         d="m 2258.95,87.5508 c 0,6.5586 -0.95,12.1992 -2.89,16.8512 -1.88,4.707 -4.54,8.309 -7.96,10.868 -3.4,2.492 -7.12,3.761 -11.27,3.761 -6.55,0 -12.07,-2.761 -16.58,-8.101 -4.5,-5.438 -6.75,-13.3284 -6.75,-23.8206 0,-9.8672 2.25,-17.5391 6.69,-22.9688 4.49,-5.4804 10.05,-8.2695 16.64,-8.2695 3.95,0 7.61,1.1992 10.99,3.6406 3.33,2.3789 6.05,5.9492 8.07,10.7071 2.06,4.8125 3.06,10.5703 3.06,17.332 z m -46.56,36.1092 v -2.98 c 4.46,5.73 9.09,10 13.9,12.652 4.82,2.707 10.31,4.078 16.4,4.078 7.3,0 14.03,-2 20.18,-5.93 6.14,-3.929 10.99,-9.648 14.57,-17.238 3.57,-7.59 5.34,-16.5232 5.34,-26.8826 0,-7.6172 -1.01,-14.6875 -3.07,-21 -2.05,-6.4102 -4.88,-11.7891 -8.49,-16.1094 -3.6,-4.3281 -7.86,-7.6797 -12.74,-9.9687 -4.92,-2.3711 -10.19,-3.5196 -15.79,-3.5196 -6.82,0 -12.52,1.4102 -17.13,4.2578 -4.65,2.8399 -9.01,6.9922 -13.17,12.5196 V 16.3516 C 2212.39,5.42188 2208.58,0 2200.99,0 c -4.46,0 -7.44,1.37891 -8.85,4.19141 -1.46,2.82812 -2.17,6.92969 -2.17,12.32029 V 123.5 c 0,4.719 0.94,8.262 2.94,10.582 1.99,2.309 4.68,3.508 8.08,3.508 3.37,0 6.12,-1.199 8.23,-3.61 2.11,-2.417 3.17,-5.859 3.17,-10.32"
         style="fill:#231f20;fill-opacity:1;fill-rule:nonzero;stroke:none"
         id="path14" /><path
         d="m 2363.58,50.7813 v 3.1289 c -2.87,-3.75 -5.85,-6.8789 -9,-9.3907 -3.13,-2.5976 -6.55,-4.4804 -10.24,-5.7109 -3.74,-1.2188 -7.98,-1.8398 -12.72,-1.8398 -5.73,0 -10.88,1.25 -15.43,3.7031 -4.57,2.4804 -8.08,5.9101 -10.57,10.25 -2.98,5.2773 -4.44,12.8476 -4.44,22.6797 v 49.1404 c 0,4.918 1.07,8.649 3.22,11.078 2.15,2.45 4.98,3.7 8.52,3.7 3.6,0 6.49,-1.25 8.71,-3.75 2.19,-2.481 3.29,-6.18 3.29,-11.028 V 83.0313 c 0,-5.7227 0.47,-10.5508 1.35,-14.4219 0.98,-3.9375 2.63,-6.9883 5.07,-9.2188 2.37,-2.1992 5.64,-3.2812 9.74,-3.2812 4.05,0 7.82,1.25 11.32,3.7226 3.57,2.4571 6.16,5.6875 7.77,9.6797 1.35,3.5274 1.99,11.1992 1.99,23.0703 v 30.16 c 0,4.848 1.11,8.547 3.32,11.028 2.19,2.5 5.04,3.75 8.59,3.75 3.54,0 6.38,-1.25 8.52,-3.7 2.14,-2.429 3.2,-6.16 3.2,-11.078 V 50.9219 c 0,-4.7227 -1,-8.2735 -3.08,-10.6016 -2.03,-2.3906 -4.68,-3.539 -7.94,-3.539 -3.24,0 -5.91,1.25 -8.04,3.6484 -2.11,2.4805 -3.15,5.8789 -3.15,10.3516"
         style="fill:#231f20;fill-opacity:1;fill-rule:nonzero;stroke:none"
         id="path16" /><path
         d="m 2432.46,86.5703 c 0,-9.8711 2.15,-17.418 6.45,-22.7383 4.33,-5.2734 10,-7.9609 17.03,-7.9609 5.99,0 11.11,2.7383 15.46,8.1484 4.34,5.4219 6.48,13.1407 6.48,23.2618 0,6.5976 -0.9,12.2187 -2.69,16.9097 -1.82,4.75 -4.38,8.391 -7.65,10.95 -3.36,2.57 -7.18,3.89 -11.6,3.89 -4.56,0 -8.53,-1.32 -12.09,-3.89 -3.55,-2.559 -6.32,-6.301 -8.37,-11.172 -2.02,-4.8401 -3.02,-10.6292 -3.02,-17.3987 z m -1.14,73.6797 v -37.879 c 4.42,4.879 9,8.551 13.64,11.18 4.64,2.558 10.4,3.859 17.25,3.859 7.87,0 14.77,-2 20.74,-5.847 5.93,-3.973 10.57,-9.594 13.83,-17.004 3.29,-7.418 4.92,-16.1996 4.92,-26.3676 0,-7.5312 -0.91,-14.4101 -2.71,-20.6992 -1.85,-6.25 -4.49,-11.6602 -7.96,-16.293 -3.51,-4.5781 -7.73,-8.0976 -12.68,-10.6992 -4.98,-2.4687 -10.44,-3.7383 -16.4,-3.7383 -3.64,0 -7.09,0.4571 -10.33,1.3672 -3.23,0.9024 -5.98,2.082 -8.21,3.6016 -2.28,1.4218 -4.2,2.9883 -5.79,4.5312 -1.61,1.6094 -3.68,3.9375 -6.3,7.0899 v -2.4297 c 0,-4.6797 -1.09,-8.1914 -3.24,-10.6016 -2.13,-2.3906 -4.88,-3.5586 -8.15,-3.5586 -3.39,0 -6.05,1.168 -8.07,3.5586 -1.99,2.461 -2.99,5.9414 -2.99,10.6016 V 159.16 c 0,4.992 0.97,8.789 2.92,11.36 1.94,2.601 4.63,3.871 8.14,3.871 3.61,0 6.45,-1.231 8.4,-3.7 2,-2.429 2.99,-5.902 2.99,-10.441"
         style="fill:#231f20;fill-opacity:1;fill-rule:nonzero;stroke:none"
         id="path18" /><path
         d="M 2518.46,51.8516 V 159.32 c 0,4.981 1.06,8.711 3.16,11.27 2.13,2.531 4.98,3.801 8.58,3.801 3.59,0 6.48,-1.25 8.7,-3.77 2.17,-2.5 3.3,-6.301 3.3,-11.301 V 51.8516 c 0,-5.0313 -1.14,-8.8203 -3.36,-11.3516 -2.21,-2.4687 -5.11,-3.7383 -8.64,-3.7383 -3.49,0 -6.28,1.2969 -8.47,3.9102 -2.19,2.6094 -3.27,6.3203 -3.27,11.1797"
         style="fill:#231f20;fill-opacity:1;fill-rule:nonzero;stroke:none"
         id="path20" /><path
         d="M 2590.47,123.43 V 51.8516 c 0,-5 -1.15,-8.75 -3.37,-11.293 -2.28,-2.5 -5.17,-3.7969 -8.62,-3.7969 -3.49,0 -6.31,1.2969 -8.48,3.8906 -2.17,2.629 -3.27,6.3399 -3.27,11.1993 v 70.8904 c 0,4.848 1.1,8.547 3.27,11.028 2.17,2.5 4.99,3.75 8.48,3.75 3.45,0 6.34,-1.25 8.62,-3.75 2.22,-2.481 3.37,-5.911 3.37,-10.34 z m -11.75,25.64 c -3.29,0 -6.11,1.039 -8.5,3.219 -2.3,2.102 -3.49,5.141 -3.49,9 0,3.5 1.19,6.359 3.61,8.672 2.38,2.281 5.18,3.348 8.38,3.348 3.07,0 5.82,-1 8.19,-3.039 2.36,-2.051 3.56,-5.09 3.56,-8.981 0,-3.84 -1.18,-6.797 -3.48,-8.93 -2.32,-2.16 -5.07,-3.289 -8.27,-3.289"
         style="fill:#231f20;fill-opacity:1;fill-rule:nonzero;stroke:none"
         id="path22" /><path
         d="m 2700.07,67.4492 c 0,-3.0781 -0.88,-6.3906 -2.63,-9.8906 -1.81,-3.5078 -4.49,-6.8398 -8.12,-10.0195 -3.61,-3.168 -8.18,-5.7383 -13.69,-7.6485 -5.49,-1.9804 -11.73,-2.9218 -18.6,-2.9218 -14.69,0 -26.13,4.4609 -34.37,13.3828 -8.24,8.9297 -12.35,20.8593 -12.35,35.8789 0,10.1601 1.87,19.1795 5.62,26.9685 3.78,7.77 9.27,13.84 16.37,18.09 7.12,4.293 15.66,6.422 25.55,6.422 6.17,0 11.83,-0.961 16.96,-2.801 5.13,-1.898 9.48,-4.328 13.03,-7.269 3.57,-2.969 6.29,-6.129 8.2,-9.489 1.91,-3.351 2.81,-6.492 2.81,-9.402 0,-2.93 -1.08,-5.43 -3.17,-7.52 -2.13,-2.0581 -4.67,-3.0894 -7.7,-3.0894 -1.98,0 -3.61,0.5703 -4.93,1.6289 -1.28,1.0195 -2.77,2.6915 -4.38,5.1015 -2.91,4.578 -5.94,8.051 -9.1,10.399 -3.16,2.281 -7.19,3.46 -12.02,3.46 -7.05,0 -12.71,-2.898 -16.99,-8.609 -4.29,-5.762 -6.42,-13.5585 -6.42,-23.4999 0,-4.6406 0.56,-8.9727 1.65,-12.8594 1.1,-3.9101 2.71,-7.2109 4.77,-9.9922 2.1,-2.7578 4.6,-4.8398 7.58,-6.25 2.95,-1.4375 6.21,-2.1484 9.71,-2.1484 4.8,0 8.84,1.1289 12.24,3.4375 3.41,2.332 6.41,5.832 9,10.5117 1.47,2.8399 3.03,5 4.72,6.6016 1.69,1.5703 3.75,2.3203 6.18,2.3203 2.89,0 5.3,-1.1211 7.23,-3.4102 1.87,-2.3515 2.85,-4.7812 2.85,-7.3828"
         style="fill:#231f20;fill-opacity:1;fill-rule:nonzero;stroke:none"
         id="path24" /><path
         d="m 2739.19,87.2813 c 0,-6.711 1,-12.4024 3,-17.1524 2,-4.7266 4.7,-8.2383 8.17,-10.6172 3.52,-2.4414 7.31,-3.6406 11.39,-3.6406 4.2,0 8.01,1.1602 11.44,3.4102 3.46,2.289 6.19,5.7695 8.28,10.4609 2.06,4.6797 3.07,10.5469 3.07,17.5391 0,6.6406 -1.01,12.2773 -3.07,17.0507 -2.09,4.777 -4.84,8.379 -8.35,10.938 -3.51,2.492 -7.35,3.761 -11.51,3.761 -4.33,0 -8.21,-1.32 -11.66,-3.89 -3.39,-2.559 -6.06,-6.27 -7.94,-11.078 -1.87,-4.8442 -2.82,-10.3638 -2.82,-16.7817 z m 46.66,-36.3594 v 2.4297 c -3.17,-3.8203 -6.33,-6.9024 -9.45,-9.2696 -3.07,-2.4218 -6.45,-4.2226 -10.07,-5.4726 -3.61,-1.1992 -7.59,-1.8477 -11.87,-1.8477 -5.66,0 -10.95,1.2696 -15.78,3.7383 -4.82,2.6016 -9.02,6.1289 -12.55,10.7891 -3.53,4.6523 -6.21,10.1406 -8.06,16.4609 -1.84,6.2695 -2.74,13.0703 -2.74,20.4414 0,15.4606 3.63,27.5896 10.87,36.2386 7.27,8.652 16.8,12.98 28.61,12.98 6.85,0 12.63,-1.25 17.31,-3.75 4.69,-2.41 9.28,-6.191 13.73,-11.289 v 36.59 c 0,5.09 0.98,8.918 2.93,11.519 1.93,2.61 4.68,3.911 8.28,3.911 3.59,0 6.35,-1.2 8.32,-3.571 1.94,-2.379 2.94,-5.918 2.94,-10.57 V 50.9219 c 0,-4.7227 -1.06,-8.2735 -3.15,-10.6016 -2.09,-2.3906 -4.79,-3.5586 -8.11,-3.5586 -3.2,0 -5.92,1.2188 -8.05,3.668 -2.11,2.4414 -3.16,5.9101 -3.16,10.4922"
         style="fill:#231f20;fill-opacity:1;fill-rule:nonzero;stroke:none"
         id="path26" /><path
         d="m 2897.2,87.0898 c 0,10.0704 -2.15,17.9612 -6.4,23.5902 -4.26,5.59 -10,8.441 -17.17,8.441 -4.67,0 -8.73,-1.269 -12.29,-3.769 -3.51,-2.539 -6.25,-6.243 -8.16,-11.161 -1.92,-4.8512 -2.87,-10.5387 -2.87,-17.1012 0,-6.4804 0.95,-12.1289 2.83,-16.9609 1.87,-4.8281 4.57,-8.5391 8.11,-11.1289 3.47,-2.5508 7.65,-3.8203 12.38,-3.8203 7.17,0 12.91,2.8008 17.17,8.4726 4.25,5.6172 6.4,13.4688 6.4,23.4375 z m 23.83,0 c 0,-7.3476 -1.11,-14.1601 -3.3,-20.4375 -2.21,-6.1718 -5.39,-11.5507 -9.55,-16.0312 -4.2,-4.4922 -9.18,-7.8398 -14.98,-10.3008 -5.8,-2.3906 -12.37,-3.5586 -19.57,-3.5586 -7.19,0 -13.65,1.168 -19.4,3.6289 -5.74,2.4102 -10.72,5.8711 -14.94,10.3907 -4.18,4.5195 -7.36,9.8085 -9.57,15.9375 -2.17,6.1914 -3.24,12.9414 -3.24,20.4101 0,7.5 1.11,14.3631 3.3,20.5821 2.21,6.25 5.35,11.551 9.47,16 4.12,4.41 9.1,7.82 14.98,10.199 5.88,2.379 12.31,3.61 19.4,3.61 7.19,0 13.73,-1.231 19.57,-3.649 5.84,-2.41 10.86,-5.891 15.04,-10.371 4.18,-4.469 7.34,-9.809 9.49,-16 2.23,-6.148 3.3,-12.9687 3.3,-20.4102"
         style="fill:#231f20;fill-opacity:1;fill-rule:nonzero;stroke:none"
         id="path28" /><path
         d="m 3021.32,107.551 c -1.77,-4.192 -2.63,-11.5705 -2.63,-22.2112 V 52.4102 c 0,-5.1914 -1.12,-9.1289 -3.4,-11.7383 -2.25,-2.6133 -5.26,-3.9102 -8.97,-3.9102 -3.57,0 -6.48,1.2969 -8.69,3.9102 -2.24,2.6094 -3.34,6.5469 -3.34,11.7383 v 39.5195 c 0,6.2109 -0.23,11.0393 -0.64,14.5393 -0.41,3.422 -1.51,6.273 -3.3,8.48 -1.76,2.223 -4.63,3.332 -8.5,3.332 -7.75,0 -12.85,-2.789 -15.35,-8.39 -2.48,-5.559 -3.67,-13.559 -3.67,-23.9808 v -33.5 c 0,-5.168 -1.14,-9.0899 -3.34,-11.6602 -2.25,-2.6914 -5.2,-3.9883 -8.81,-3.9883 -3.61,0 -6.6,1.2969 -8.87,3.9883 -2.3,2.5703 -3.4,6.4922 -3.4,11.6289 v 70.9301 c 0,4.671 0.98,8.222 3.03,10.621 2.09,2.41 4.79,3.66 8.16,3.66 3.25,0 5.96,-1.129 8.13,-3.399 2.17,-2.269 3.26,-5.402 3.26,-9.402 v -2.348 c 4.1,5.149 8.52,8.93 13.2,11.329 4.69,2.421 9.97,3.64 15.67,3.64 5.96,0 11.05,-1.25 15.35,-3.75 4.32,-2.461 7.83,-6.219 10.61,-11.219 4,5.028 8.3,8.848 12.89,11.278 4.59,2.472 9.64,3.691 15.19,3.691 6.54,0 12.11,-1.301 16.8,-4.008 4.71,-2.66 8.2,-6.453 10.53,-11.433 2.05,-4.489 3.04,-11.528 3.04,-21.18 V 52.4102 c 0,-5.1914 -1.13,-9.1289 -3.36,-11.7383 -2.3,-2.6133 -5.27,-3.9102 -8.98,-3.9102 -3.6,0 -6.54,1.2969 -8.81,3.9883 -2.32,2.5703 -3.48,6.4922 -3.48,11.6602 v 41.6992 c 0,5.3203 -0.21,9.5816 -0.64,12.7926 -0.43,3.246 -1.6,5.911 -3.54,8.078 -1.89,2.192 -4.82,3.301 -8.67,3.301 -3.12,0 -6.11,-0.98 -8.88,-2.879 -2.88,-1.972 -5,-4.57 -6.59,-7.851 v 0"
         style="fill:#231f20;fill-opacity:1;fill-rule:nonzero;stroke:none"
         id="path30" /><path
         d="m 3155.78,86.6211 c -3.49,-1.3516 -8.55,-2.7422 -15.19,-4.2422 -6.63,-1.4883 -11.24,-2.5469 -13.8,-3.2695 -2.56,-0.7188 -4.98,-2.0586 -7.28,-4.0781 -2.35,-2.0821 -3.5,-4.9024 -3.5,-8.5313 0,-3.7812 1.37,-6.9687 4.08,-9.5781 2.74,-2.6719 6.31,-3.9727 10.73,-3.9727 4.68,0 9.04,1.1016 12.99,3.25 3.99,2.1211 6.9,4.9414 8.73,8.3125 2.15,3.75 3.24,9.9102 3.24,18.5781 z m 1.56,-35.9023 c -5.75,-4.6602 -11.3,-8.1485 -16.67,-10.4375 -5.34,-2.3711 -11.38,-3.5196 -18.02,-3.5196 -6.13,0 -11.44,1.2696 -16.07,3.7383 -4.63,2.5313 -8.17,5.9492 -10.67,10.2813 -2.48,4.2773 -3.75,8.9101 -3.75,13.9492 0,6.789 2.11,12.5508 6.21,17.3398 4.09,4.7383 9.75,7.961 16.92,9.6094 1.52,0.3594 5.27,1.1601 11.23,2.4297 6.01,1.2929 11.09,2.4531 15.4,3.4922 4.24,1.0507 8.89,2.3398 13.86,3.8394 -0.31,6.571 -1.56,11.372 -3.76,14.469 -2.25,3.031 -6.92,4.531 -13.9,4.531 -6.05,0 -10.57,-0.851 -13.65,-2.609 -3.03,-1.73 -5.65,-4.402 -7.8,-7.941 -2.2,-3.5 -3.71,-5.809 -4.6,-6.942 -0.92,-1.129 -2.86,-1.64 -5.79,-1.64 -2.69,0 -4.98,0.871 -6.89,2.64 -1.97,1.801 -2.95,4.063 -2.95,6.883 0,4.359 1.48,8.617 4.43,12.668 2.97,4.141 7.58,7.52 13.83,10.219 6.27,2.672 14.08,3.992 23.42,3.992 10.42,0 18.64,-1.32 24.63,-3.891 5.96,-2.531 10.16,-6.57 12.62,-12.199 2.48,-5.519 3.73,-12.93 3.73,-22.121 0,-5.8008 0,-10.7891 -0.06,-14.8086 -0.06,-4.082 -0.06,-8.5898 -0.13,-13.5391 0,-4.6523 0.74,-9.5312 2.22,-14.5507 1.45,-5.0508 2.19,-8.3203 2.19,-9.75 0,-2.5508 -1.17,-4.8828 -3.44,-6.961 -2.24,-2.0703 -4.84,-3.1289 -7.75,-3.1289 -2.44,0 -4.83,1.168 -7.25,3.5586 -2.34,2.4102 -4.88,5.8789 -7.54,10.3985"
         style="fill:#231f20;fill-opacity:1;fill-rule:nonzero;stroke:none"
         id="path32" /><path
         d="M 3226.95,123.43 V 51.8516 c 0,-5 -1.13,-8.75 -3.38,-11.293 -2.26,-2.5 -5.11,-3.7969 -8.59,-3.7969 -3.48,0 -6.35,1.2969 -8.5,3.8906 -2.18,2.629 -3.26,6.3399 -3.26,11.1993 v 70.8904 c 0,4.848 1.08,8.547 3.26,11.028 2.15,2.5 5.02,3.75 8.5,3.75 3.48,0 6.33,-1.25 8.59,-3.75 2.25,-2.481 3.38,-5.911 3.38,-10.34 z m -11.74,25.64 c -3.28,0 -6.09,1.039 -8.45,3.219 -2.35,2.102 -3.54,5.141 -3.54,9 0,3.5 1.21,6.359 3.64,8.672 2.38,2.281 5.19,3.348 8.35,3.348 3.07,0 5.83,-1 8.21,-3.039 2.34,-2.051 3.53,-5.09 3.53,-8.981 0,-3.84 -1.15,-6.797 -3.45,-8.93 -2.35,-2.16 -5.1,-3.289 -8.29,-3.289"
         style="fill:#231f20;fill-opacity:1;fill-rule:nonzero;stroke:none"
         id="path34" /><path
         d="m 3273.1,123.789 v -2.957 c 4.14,5.731 8.73,9.949 13.65,12.637 4.98,2.691 10.66,4.051 17.15,4.051 6.23,0 11.83,-1.411 16.79,-4.301 4.89,-2.828 8.6,-6.809 11.02,-12.02 1.56,-3.047 2.56,-6.34 3.05,-9.828 0.43,-3.5 0.7,-7.969 0.7,-13.4296 V 51.8516 c 0,-5 -1.13,-8.75 -3.28,-11.293 -2.17,-2.5 -5.02,-3.7969 -8.48,-3.7969 -3.51,0 -6.41,1.2969 -8.53,3.9102 -2.23,2.6094 -3.36,6.3203 -3.36,11.1797 v 41.2578 c 0,8.2106 -1.06,14.4416 -3.23,18.7696 -2.22,4.32 -6.56,6.5 -13.06,6.5 -4.22,0 -8.07,-1.32 -11.56,-3.969 -3.48,-2.601 -6.02,-6.23 -7.64,-10.84 -1.15,-3.6794 -1.76,-10.57 -1.76,-20.7302 V 51.8516 c 0,-5.0313 -1.11,-8.8203 -3.36,-11.3516 -2.24,-2.4687 -5.12,-3.7383 -8.63,-3.7383 -3.42,0 -6.25,1.2969 -8.45,3.8906 -2.23,2.629 -3.32,6.3399 -3.32,11.1993 V 123.43 c 0,4.742 0.98,8.23 2.97,10.582 1.96,2.328 4.7,3.508 8.1,3.508 2.07,0 3.98,-0.551 5.62,-1.559 1.74,-1.012 3.05,-2.602 4.06,-4.59 1,-2.109 1.55,-4.609 1.55,-7.582"
         style="fill:#231f20;fill-opacity:1;fill-rule:nonzero;stroke:none"
         id="path36" /><path
         d="m 3373.56,122.082 19.18,-56.2617 20.71,58.7187 c 1.66,4.723 3.24,8.031 4.82,10.02 1.6,1.953 3.93,2.961 7.11,2.961 3.03,0 5.59,-1.059 7.75,-3.219 2.08,-2.102 3.15,-4.512 3.15,-7.352 0,-1.09 -0.22,-2.34 -0.59,-3.738 -0.35,-1.5 -0.78,-2.859 -1.29,-4.148 -0.5,-1.231 -1.01,-2.723 -1.69,-4.333 l -22.8,-58.9878 c -0.64,-1.6914 -1.48,-3.8711 -2.48,-6.4805 -1.03,-2.582 -2.17,-4.7695 -3.4,-6.6914 -1.27,-1.8086 -2.79,-3.2187 -4.59,-4.2617 -1.85,-1.0195 -4.08,-1.5469 -6.7,-1.5469 -3.36,0 -6.03,0.7891 -8.04,2.3789 -2.01,1.6211 -3.5,3.3516 -4.44,5.3008 -0.93,1.8672 -2.57,5.6484 -4.82,11.3008 L 3352.8,114.09 c -0.52,1.441 -1.07,2.91 -1.64,4.34 -0.53,1.461 -0.95,2.91 -1.37,4.441 -0.35,1.559 -0.56,2.848 -0.56,3.891 0,1.73 0.49,3.398 1.5,5.07 0.98,1.668 2.37,3.059 4.08,4.09 1.76,1.047 3.62,1.598 5.67,1.598 3.92,0 6.64,-1.18 8.12,-3.59 1.49,-2.328 3.15,-6.289 4.96,-11.848"
         style="fill:#231f20;fill-opacity:1;fill-rule:nonzero;stroke:none"
         id="path38" /><path
         d="m 3470.69,95.1719 h 43.05 c -0.57,8.4491 -2.73,14.7891 -6.56,18.9691 -3.81,4.191 -8.81,6.3 -15.02,6.3 -5.88,0 -10.76,-2.132 -14.53,-6.378 -3.81,-4.243 -6.08,-10.563 -6.94,-18.8911 z m 46.47,-14.0899 h -46.47 c 0.02,-5.6718 1.16,-10.6015 3.23,-14.9297 2.16,-4.2617 4.96,-7.4921 8.45,-9.7031 3.52,-2.1992 7.41,-3.25 11.64,-3.25 2.84,0 5.45,0.3399 7.78,1 2.34,0.75 4.63,1.8203 6.85,3.293 2.17,1.4883 4.18,3.0391 6.06,4.7969 1.83,1.6718 4.31,3.9414 7.2,6.8632 1.25,1.1485 2.99,1.6485 5.24,1.6485 2.46,0 4.41,-0.6719 5.92,-2.0899 1.52,-1.4023 2.24,-3.3398 2.24,-5.8711 0,-2.25 -0.82,-4.8789 -2.52,-7.8906 -1.68,-2.957 -4.16,-5.8476 -7.61,-8.6406 -3.4,-2.7266 -7.66,-4.9883 -12.8,-6.8398 -5.09,-1.8086 -10.97,-2.7071 -17.69,-2.7071 -15.24,0 -27.11,4.5586 -35.55,13.6094 -8.44,9.1211 -12.67,21.3984 -12.67,36.9102 0,7.4101 1.07,14.1597 3.12,20.4097 2.09,6.27 5.12,11.641 9.12,16.098 4.01,4.512 8.91,7.973 14.79,10.332 5.88,2.391 12.34,3.59 19.51,3.59 9.22,0 17.19,-2.039 23.83,-6.148 6.66,-4.094 11.62,-9.333 14.92,-15.782 3.32,-6.519 4.96,-13.09 4.96,-19.8513 0,-6.1992 -1.66,-10.2383 -5.12,-12.0703 -3.46,-1.8789 -8.22,-2.7774 -14.43,-2.7774"
         style="fill:#231f20;fill-opacity:1;fill-rule:nonzero;stroke:none"
         id="path40" /><path
         d="m 3641.9,67.4492 c 0,-3.0781 -0.87,-6.3906 -2.67,-9.8906 -1.78,-3.5078 -4.44,-6.8398 -8.09,-10.0195 -3.61,-3.168 -8.2,-5.7383 -13.73,-7.6485 -5.49,-1.9804 -11.72,-2.9218 -18.57,-2.9218 -14.71,0 -26.15,4.4609 -34.38,13.3828 -8.2,8.9297 -12.36,20.8593 -12.36,35.8789 0,10.1601 1.87,19.1795 5.68,26.9685 3.77,7.77 9.18,13.84 16.33,18.09 7.11,4.293 15.67,6.422 25.59,6.422 6.15,0 11.76,-0.961 16.93,-2.801 5.12,-1.898 9.43,-4.328 13.05,-7.269 3.57,-2.969 6.27,-6.129 8.18,-9.489 1.86,-3.351 2.81,-6.492 2.81,-9.402 0,-2.93 -1.03,-5.43 -3.22,-7.52 -2.09,-2.0581 -4.65,-3.0894 -7.66,-3.0894 -1.99,0 -3.61,0.5703 -4.88,1.6289 -1.35,1.0195 -2.79,2.6915 -4.45,5.1015 -2.89,4.578 -5.9,8.051 -9.06,10.399 -3.17,2.281 -7.19,3.46 -12.07,3.46 -6.98,0 -12.66,-2.898 -16.94,-8.609 -4.31,-5.762 -6.44,-13.5585 -6.44,-23.4999 0,-4.6406 0.58,-8.9727 1.64,-12.8594 1.11,-3.9101 2.71,-7.2109 4.8,-9.9922 2.09,-2.7578 4.63,-4.8398 7.58,-6.25 2.91,-1.4375 6.17,-2.1484 9.73,-2.1484 4.74,0 8.84,1.1289 12.22,3.4375 3.38,2.332 6.41,5.832 9.03,10.5117 1.44,2.8399 2.99,5 4.68,6.6016 1.66,1.5703 3.72,2.3203 6.18,2.3203 2.87,0 5.31,-1.1211 7.16,-3.4102 1.96,-2.3515 2.93,-4.7812 2.93,-7.3828"
         style="fill:#231f20;fill-opacity:1;fill-rule:nonzero;stroke:none"
         id="path42" /><path
         d="m 3663.96,135.41 h 2.61 v 14.922 c 0,3.949 0.1,7.117 0.31,9.379 0.2,2.281 0.73,4.187 1.7,5.84 0.9,1.668 2.25,3.078 4.01,4.14 1.72,1.051 3.65,1.539 5.8,1.539 3.01,0 5.74,-1.171 8.16,-3.5 1.6,-1.601 2.66,-3.5 3.09,-5.738 0.45,-2.281 0.64,-5.543 0.64,-9.703 V 135.41 h 8.73 c 3.36,0 5.94,-0.828 7.7,-2.5 1.8,-1.66 2.66,-3.769 2.66,-6.371 0,-3.328 -1.25,-5.707 -3.81,-7.008 -2.5,-1.301 -6.12,-1.98 -10.82,-1.98 h -4.46 V 71.9102 c 0,-3.8907 0.14,-6.8711 0.39,-8.9805 0.3,-2.1094 1.04,-3.8008 2.15,-5.0586 1.1,-1.3203 2.93,-2 5.51,-2 1.39,0 3.26,0.2578 5.66,0.7891 2.33,0.5117 4.18,0.7695 5.55,0.7695 1.9,0 3.67,-0.8281 5.18,-2.3711 1.5,-1.6367 2.3,-3.5781 2.3,-5.957 0,-3.9922 -2.05,-7.043 -6.25,-9.1719 -4.22,-2.1094 -10.19,-3.168 -18.01,-3.168 -7.42,0 -13.06,1.2969 -16.89,3.9102 -3.81,2.6094 -6.35,6.1797 -7.5,10.8398 -1.21,4.5977 -1.8,10.7188 -1.8,18.418 v 47.6213 h -3.16 c -3.36,0 -5.98,0.828 -7.79,2.551 -1.82,1.679 -2.7,3.82 -2.7,6.437 0,2.602 0.94,4.711 2.79,6.371 1.92,1.672 4.65,2.5 8.25,2.5"
         style="fill:#231f20;fill-opacity:1;fill-rule:nonzero;stroke:none"
         id="path44" /><path
         d="m 3790.73,87.0898 c 0,10.0704 -2.15,17.9612 -6.38,23.5902 -4.3,5.59 -9.98,8.441 -17.19,8.441 -4.65,0 -8.73,-1.269 -12.27,-3.769 -3.55,-2.539 -6.27,-6.243 -8.16,-11.161 -1.92,-4.8512 -2.89,-10.5387 -2.89,-17.1012 0,-6.4804 0.97,-12.1289 2.85,-16.9609 1.87,-4.8281 4.55,-8.5391 8.07,-11.1289 3.49,-2.5508 7.61,-3.8203 12.4,-3.8203 7.21,0 12.89,2.8008 17.19,8.4726 4.23,5.6172 6.38,13.4688 6.38,23.4375 z m 23.83,0 c 0,-7.3476 -1.09,-14.1601 -3.32,-20.4375 -2.19,-6.1718 -5.39,-11.5507 -9.55,-16.0312 -4.18,-4.4922 -9.18,-7.8398 -14.96,-10.3008 -5.8,-2.3906 -12.29,-3.5586 -19.57,-3.5586 -7.23,0 -13.69,1.168 -19.42,3.6289 -5.72,2.4102 -10.72,5.8711 -14.9,10.3907 -4.2,4.5195 -7.4,9.8085 -9.55,15.9375 -2.17,6.1914 -3.24,12.9414 -3.24,20.4101 0,7.5 1.07,14.3631 3.24,20.5821 2.27,6.25 5.37,11.551 9.49,16 4.14,4.41 9.12,7.82 14.96,10.199 5.92,2.379 12.37,3.61 19.42,3.61 7.21,0 13.69,-1.231 19.57,-3.649 5.86,-2.41 10.86,-5.891 15.04,-10.371 4.14,-4.469 7.38,-9.809 9.53,-16 2.17,-6.148 3.26,-12.9687 3.26,-20.4102"
         style="fill:#231f20;fill-opacity:1;fill-rule:nonzero;stroke:none"
         id="path46" /><path
         d="M 3856.87,72.4805 V 51.8516 c 0,-5.0313 -1.14,-8.8203 -3.4,-11.3516 -2.27,-2.4687 -5.14,-3.7383 -8.64,-3.7383 -3.39,0 -6.23,1.2969 -8.41,3.7969 -2.21,2.543 -3.29,6.293 -3.29,11.293 v 68.9574 c 0,11.16 3.83,16.711 11.55,16.711 3.9,0 6.78,-1.329 8.53,-3.911 1.72,-2.589 2.64,-6.457 2.87,-11.527 2.84,5.07 5.77,8.938 8.75,11.527 2.99,2.582 6.96,3.911 11.92,3.911 5.04,0 9.84,-1.329 14.57,-3.911 4.67,-2.589 7.05,-6.058 7.05,-10.339 0,-3.028 -1.04,-5.559 -3.03,-7.489 -1.97,-1.961 -4.14,-2.968 -6.48,-2.968 -0.86,0 -2.97,0.566 -6.31,1.707 -3.34,1.109 -6.29,1.679 -8.85,1.679 -3.46,0 -6.29,-0.929 -8.48,-2.89 -2.2,-1.918 -3.92,-4.707 -5.15,-8.457 -1.21,-3.782 -2.09,-8.2309 -2.52,-13.4301 -0.45,-5.1406 -0.68,-11.4414 -0.68,-18.9414"
         style="fill:#231f20;fill-opacity:1;fill-rule:nonzero;stroke:none"
         id="path48" /><path
         d="m 3983.35,69.1289 c 0,-6.8398 -1.6,-12.6797 -4.82,-17.5586 -3.21,-4.8906 -7.91,-8.539 -14.15,-11.0898 -6.25,-2.4492 -13.8,-3.7188 -22.79,-3.7188 -8.46,0 -15.8,1.3672 -21.91,4.0899 -6.08,2.7304 -10.59,6.1172 -13.46,10.1875 -2.93,4.0625 -4.41,8.1601 -4.41,12.2617 0,2.7305 0.95,5.0703 2.85,7 1.83,1.9609 4.2,2.9101 7.01,2.9101 2.5,0 4.43,-0.6523 5.76,-1.9023 1.35,-1.3281 2.58,-3.0781 3.83,-5.3672 2.44,-4.4414 5.33,-7.7305 8.77,-9.9219 3.34,-2.2109 7.99,-3.2695 13.89,-3.2695 4.72,0 8.63,1.1094 11.68,3.332 3.02,2.1993 4.61,4.7188 4.61,7.5703 0,4.3672 -1.63,7.5586 -4.75,9.5274 -3.2,2.0508 -8.38,3.9414 -15.65,5.7422 -8.16,2.1367 -14.82,4.3594 -19.96,6.6679 -5.13,2.3321 -9.29,5.4415 -12.34,9.2422 -3.07,3.7696 -4.63,8.488 -4.63,14.059 0,4.98 1.43,9.679 4.28,14.05 2.83,4.45 7.07,7.961 12.6,10.61 5.52,2.64 12.2,3.969 20.05,3.969 6.14,0 11.66,-0.688 16.59,-2.008 4.88,-1.321 9.02,-3.121 12.24,-5.352 3.28,-2.25 5.8,-4.719 7.5,-7.418 1.74,-2.773 2.58,-5.422 2.58,-8.012 0,-2.851 -0.9,-5.14 -2.75,-7.019 -1.84,-1.75 -4.46,-2.68 -7.78,-2.68 -2.46,0 -4.51,0.719 -6.25,2.199 -1.68,1.442 -3.67,3.602 -5.86,6.469 -1.79,2.442 -3.9,4.391 -6.36,5.832 -2.44,1.438 -5.75,2.18 -9.91,2.18 -4.29,0 -7.89,-0.941 -10.68,-2.871 -2.85,-1.891 -4.3,-4.281 -4.3,-7.129 0,-2.602 1.06,-4.731 3.13,-6.398 2.11,-1.661 4.9,-3.043 8.46,-4.141 3.55,-1.102 8.41,-2.4611 14.62,-4.0118 7.37,-1.8477 13.38,-4.1016 18.05,-6.7188 4.67,-2.5703 8.2,-5.6406 10.61,-9.1992 2.44,-3.5703 3.65,-7.5899 3.65,-12.1133"
         style="fill:#231f20;fill-opacity:1;fill-rule:nonzero;stroke:none"
         id="path50" /><path
         d="m 4010.3,36.7617 c -3.59,0 -6.7,1.168 -9.27,3.6289 -2.66,2.4102 -3.95,5.8086 -3.95,10.1407 0,3.6679 1.23,6.871 3.69,9.5273 2.5,2.6602 5.61,3.9609 9.26,3.9609 3.63,0 6.76,-1.3007 9.28,-3.9375 2.61,-2.5898 3.92,-5.832 3.92,-9.5507 0,-4.2891 -1.31,-7.6602 -3.92,-10.1016 -2.52,-2.4492 -5.53,-3.668 -9.01,-3.668"
         style="fill:#231f20;fill-opacity:1;fill-rule:nonzero;stroke:none"
         id="path52" /><path
         d="m 4115.3,87.0898 c 0,10.0704 -2.15,17.9612 -6.4,23.5902 -4.26,5.59 -9.96,8.441 -17.15,8.441 -4.65,0 -8.69,-1.269 -12.25,-3.769 -3.55,-2.539 -6.27,-6.243 -8.16,-11.161 -1.9,-4.8512 -2.87,-10.5387 -2.87,-17.1012 0,-6.4804 0.91,-12.1289 2.79,-16.9609 1.93,-4.8281 4.61,-8.5391 8.12,-11.1289 3.5,-2.5508 7.62,-3.8203 12.37,-3.8203 7.19,0 12.89,2.8008 17.15,8.4726 4.25,5.6172 6.4,13.4688 6.4,23.4375 z m 23.87,0 c 0,-7.3476 -1.09,-14.1601 -3.34,-20.4375 -2.21,-6.1718 -5.37,-11.5507 -9.55,-16.0312 -4.2,-4.4922 -9.12,-7.8398 -14.96,-10.3008 -5.78,-2.3906 -12.31,-3.5586 -19.57,-3.5586 -7.19,0 -13.65,1.168 -19.4,3.6289 -5.74,2.4102 -10.68,5.8711 -14.88,10.3907 -4.26,4.5195 -7.42,9.8085 -9.63,15.9375 -2.13,6.1914 -3.22,12.9414 -3.22,20.4101 0,7.5 1.09,14.3631 3.3,20.5821 2.25,6.25 5.35,11.551 9.45,16 4.12,4.41 9.12,7.82 14.98,10.199 5.86,2.379 12.29,3.61 19.4,3.61 7.19,0 13.71,-1.231 19.57,-3.649 5.88,-2.41 10.88,-5.891 15.06,-10.371 4.16,-4.469 7.32,-9.809 9.53,-16 2.17,-6.148 3.26,-12.9687 3.26,-20.4102"
         style="fill:#231f20;fill-opacity:1;fill-rule:nonzero;stroke:none"
         id="path54" /><path
         d="M 4181.46,72.4805 V 51.8516 c 0,-5.0313 -1.14,-8.8203 -3.38,-11.3516 -2.25,-2.4687 -5.14,-3.7383 -8.6,-3.7383 -3.47,0 -6.25,1.2969 -8.47,3.7969 -2.21,2.543 -3.3,6.293 -3.3,11.293 v 68.9574 c 0,11.16 3.9,16.711 11.58,16.711 3.94,0 6.75,-1.329 8.49,-3.911 1.72,-2.589 2.74,-6.457 2.93,-11.527 2.8,5.07 5.71,8.938 8.69,11.527 2.99,2.582 7,3.911 11.94,3.911 5.06,0 9.9,-1.329 14.55,-3.911 4.71,-2.589 7.07,-6.058 7.07,-10.339 0,-3.028 -1.02,-5.559 -2.99,-7.489 -2.03,-1.961 -4.16,-2.968 -6.52,-2.968 -0.84,0 -2.93,0.566 -6.27,1.707 -3.34,1.109 -6.29,1.679 -8.87,1.679 -3.46,0 -6.27,-0.929 -8.53,-2.89 -2.17,-1.918 -3.89,-4.707 -5.12,-8.457 -1.19,-3.782 -2.05,-8.2309 -2.5,-13.4301 -0.45,-5.1406 -0.7,-11.4414 -0.7,-18.9414"
         style="fill:#231f20;fill-opacity:1;fill-rule:nonzero;stroke:none"
         id="path56" /><path
         d="m 4250.01,87.9414 c 0,-10.0195 2.11,-17.6211 6.33,-22.793 4.18,-5.1171 9.65,-7.7187 16.27,-7.7187 3.92,0 7.69,1.1523 11.19,3.3516 3.51,2.2187 6.37,5.5273 8.59,9.9804 2.21,4.4688 3.28,9.8477 3.28,16.1875 0,10.0899 -2.14,17.9608 -6.4,23.5818 -4.24,5.668 -9.87,8.5 -16.8,8.5 -6.76,0 -12.23,-2.761 -16.29,-8.101 -4.12,-5.418 -6.17,-13.0511 -6.17,-22.9886 z m 68.83,31.4376 V 47.3594 c 0,-8.2383 -0.9,-15.3281 -2.54,-21.2188 -1.68,-5.9687 -4.4,-10.8593 -8.09,-14.7304 -3.71,-3.87895 -8.59,-6.73051 -14.55,-8.62114 C 4287.65,0.960938 4280.17,0 4271.26,0 c -8.2,0 -15.53,1.16016 -21.93,3.55078 -6.45,2.44922 -11.41,5.48828 -14.89,9.30082 -3.47,3.75 -5.23,7.6406 -5.23,11.6679 0,3.0196 0.98,5.4805 2.99,7.3828 1.95,1.9375 4.33,2.8868 7.11,2.8868 3.49,0 6.5,-1.6172 9.16,-4.8203 1.27,-1.6797 2.61,-3.3086 3.94,-4.9493 1.35,-1.6875 2.85,-3.1172 4.51,-4.2695 1.66,-1.2187 3.68,-2.0781 6,-2.668 2.27,-0.582 4.96,-0.8632 7.99,-0.8632 6.11,0 10.94,0.9101 14.3,2.6914 3.39,1.7617 5.78,4.2617 7.16,7.4687 1.31,3.2031 2.17,6.6211 2.31,10.3008 0.29,3.7109 0.45,9.5625 0.6,17.6914 -3.65,-5.3125 -7.93,-9.3789 -12.67,-12.1523 -4.77,-2.7891 -10.49,-4.1368 -17.05,-4.1368 -8.01,0 -14.96,2.0703 -20.86,6.3282 -5.98,4.2421 -10.55,10.1406 -13.73,17.8086 -3.15,7.582 -4.79,16.3906 -4.79,26.3906 0,7.4804 0.96,14.2106 2.95,20.2106 1.9,5.961 4.65,11.012 8.3,15.129 3.56,4.133 7.74,7.231 12.42,9.332 4.73,2.059 9.83,3.129 15.49,3.129 6.7,0 12.54,-1.371 17.46,-4.078 4.98,-2.652 9.51,-6.922 13.75,-12.652 v 3.332 c 0,4.32 1.06,7.609 3.05,10.051 2.03,2.328 4.65,3.527 7.81,3.527 4.61,0 7.66,-1.551 9.18,-4.68 1.49,-3.121 2.25,-7.648 2.25,-13.531"
         style="fill:#231f20;fill-opacity:1;fill-rule:nonzero;stroke:none"
         id="path58" /><path
         d="m 3289.66,360.691 h 35.23 c -2.5,-19 -10.27,-33.82 -23.22,-44.492 -11.97,-10.429 -26.48,-15.59 -43.44,-15.59 -23,0 -41.35,8.082 -55.05,24.211 -13,15.328 -19.49,35.129 -19.49,59.321 0,24.8 6.45,44.621 19.32,59.621 12.81,14.937 30.99,22.457 54.46,22.457 17.46,0 32.23,-4.719 44.2,-14.098 12.71,-10.109 20.47,-24.34 23.22,-42.582 h -35.23 c -3.03,15.902 -12.76,23.82 -29.28,23.82 -27.22,0 -40.87,-16.129 -40.87,-48.398 0,-15.109 3.52,-27.461 10.51,-37.09 7.01,-9.629 16.87,-14.461 29.64,-14.461 18.96,0 28.98,9.102 30,27.281 z M 3151,382.902 c 0,-31.523 10,-58.211 29.98,-79.933 19.98,-21.758 44.41,-32.629 73.43,-32.629 28.94,0 53.41,10.871 73.37,32.629 20,21.722 29.94,48.41 29.94,79.933 0,31.508 -9.94,58.168 -29.94,79.918 -19.96,21.762 -44.43,32.629 -73.37,32.629 -29.02,0 -53.45,-10.867 -73.43,-32.629 C 3161,441.07 3151,414.41 3151,382.902 Z m -35.77,0 c 0,40.11 13.57,74.34 40.75,102.789 27.18,28.391 60.02,42.59 98.43,42.59 38.39,0 71.17,-14.199 98.39,-42.59 27.19,-28.449 40.8,-62.679 40.8,-102.789 0,-40.132 -13.61,-74.422 -40.8,-102.8 -27.22,-28.422 -60,-42.633 -98.39,-42.633 -38.41,0 -71.25,14.211 -98.43,42.633 -27.18,28.378 -40.75,62.668 -40.75,102.8"
         style="fill:#231f20;fill-opacity:1;fill-rule:nonzero;stroke:none"
         id="path60" /><path
         d="m 3171.54,291.719 20.3,-17.207 149.3,191.687 -20.29,17.192 -149.31,-191.672"
         style="fill:#231f20;fill-opacity:1;fill-rule:nonzero;stroke:none"
         id="path62" /><path
         d="m 3526.13,1503.63 c 1599.92,0 2904.81,375.84 2904.81,836.7 0,460.84 -1304.89,836.7 -2904.81,836.7 -1599.93,0 -2904.841,-375.86 -2904.841,-836.7 0,-460.86 1304.911,-836.7 2904.841,-836.7"
         style="fill:#e8e8e7;fill-opacity:1;fill-rule:evenodd;stroke:none"
         id="path64" /><path
         d="m 1690.67,4893.13 c 1345.97,0 1690.69,-1061.4 1690.69,-1486.31 0,-424.91 -282.87,-1244.8 -1700.54,-1262.73 C 263.168,2126.15 0,2981.91 0,3406.82 0,3831.73 344.695,4893.13 1690.67,4893.13"
         style="fill:#90321c;fill-opacity:1;fill-rule:evenodd;stroke:none"
         id="path66" /><path
         d="M 1063.74,2202.11 C 182.852,2399.82 0,3052.81 0,3406.82 0,3724.37 192.59,4397.3 851.648,4717.15 1464.12,4536.33 1905.75,4024.06 1905.75,3420.28 c 0,-531.54 -342.25,-992.15 -842.01,-1218.17"
         style="fill:#a33b1f;fill-opacity:1;fill-rule:evenodd;stroke:none"
         id="path68" /><path
         d="m 2029.12,4868.61 c 1066.5,-160.93 1352.24,-1074.99 1352.24,-1461.79 0,-424.91 -282.87,-1244.8 -1700.54,-1262.73 -232.83,-2.94 -434.34,17.8 -608.83,56.2 570.03,-29.26 1544.42,311.25 1708.17,927.62 170.39,641.36 195.19,1273.93 -751.04,1740.7"
         style="fill:#7e2b1a;fill-opacity:1;fill-rule:evenodd;stroke:none"
         id="path70" /><path
         d="M 867.41,2257.14 C 154.984,2501.21 0,3080.79 0,3406.82 c 0,162.55 50.543,418.24 188.191,672.03 54.153,11.78 110.032,18.03 167.196,18.03 489.988,0 887.203,-453.39 887.203,-1012.68 0,-341.59 -148.2,-643.66 -375.18,-827.06"
         style="fill:#c7a996;fill-opacity:1;fill-rule:evenodd;stroke:none"
         id="path72" /><path
         d="M 439.867,2487.06 C 88.6914,2768.88 0,3160.32 0,3406.82 c 0,132.39 33.5273,326.56 120.336,531.14 38.449,8.02 78.066,12.22 118.555,12.22 362.625,0 656.593,-335.55 656.593,-749.46 0,-333.9 -191.296,-616.74 -455.617,-713.66"
         style="fill:#d8beae;fill-opacity:1;fill-rule:evenodd;stroke:none"
         id="path74" /><path
         d="M 103.168,2924.85 C 25.4883,3101 0,3274.73 0,3406.82 c 0,100.85 19.4727,237.56 67.1133,387.42 20.8828,4.02 42.3397,6.13 64.2187,6.13 212.106,0 384.055,-196.27 384.055,-438.35 0,-242.08 -171.949,-438.34 -384.055,-438.34 -9.469,0 -18.848,0.4 -28.164,1.17"
         style="fill:#e7d5ca;fill-opacity:1;fill-rule:evenodd;stroke:none"
         id="path76" /><path
         d="m 5607.38,3631.13 c 0,-1275.77 -931.88,-1996.33 -2081.47,-1996.33 -1149.56,0 -2081.49,720.56 -2081.49,1996.33 h 4162.96"
         style="fill:#c6dc78;fill-opacity:1;fill-rule:evenodd;stroke:none"
         id="path78" /><path
         d="m 5607.38,3631.13 c 0,-1275.77 -931.88,-1996.33 -2081.47,-1996.33 -414.45,0 -800.6,93.67 -1125.02,273.26 175.75,-43.88 349.17,-52.5 521.97,-46.51 609.73,21.11 692.82,467.52 160.48,580.03 -232.1,49.03 -449,145.67 -597.29,313.07 l 388.87,876.48 h 2732.46"
         style="fill:#b2c764;fill-opacity:1;fill-rule:evenodd;stroke:none"
         id="path80" /><path
         d="m 5607.38,3631.13 c 0,-1155.21 -764.1,-1855.18 -1762.02,-1977.15 518.46,144.58 858.18,365.72 1067.34,620.09 243.1,295.59 115.5,467.18 -224.7,403.19 -178.34,-33.56 -351.31,-61.72 -540.44,-11.82 l 673.67,965.69 h 786.15"
         style="fill:#9fb651;fill-opacity:1;fill-rule:evenodd;stroke:none"
         id="path82" /><path
         d="m 3525.91,2619.57 c 1146.46,0 2081.5,454.43 2081.5,1011.56 0,557.16 -935.04,1011.58 -2081.5,1011.58 -1146.43,0 -2081.47,-454.42 -2081.47,-1011.58 0,-557.13 935.04,-1011.56 2081.47,-1011.56"
         style="fill:#d6eb83;fill-opacity:1;fill-rule:evenodd;stroke:none"
         id="path84" /><path
         d="m 3525.91,5117.45 c 1345.98,0 1690.67,-1061.4 1690.67,-1486.32 0,-424.92 -756.93,-769.37 -1690.67,-769.37 -933.73,0 -1690.66,344.45 -1690.66,769.37 0,424.92 344.69,1486.32 1690.66,1486.32"
         style="fill:#a33b1f;fill-opacity:1;fill-rule:evenodd;stroke:none"
         id="path86" /><path
         d="m 3525.91,5117.45 c 1345.98,0 1690.67,-1061.4 1690.67,-1486.32 0,-424.92 -756.93,-769.37 -1690.67,-769.37 -663.58,0 -1237.78,173.99 -1514.54,427.2 528.99,-282.85 1236.34,-106.65 1341.25,468.52 153.83,843.48 -286.36,1250.86 -896.55,1045.2 253.65,185.86 600.9,314.77 1069.84,314.77"
         style="fill:#90321c;fill-opacity:1;fill-rule:evenodd;stroke:none"
         id="path88" /><path
         d="m 3525.91,5117.45 c 1345.98,0 1690.67,-1061.4 1690.67,-1486.32 0,-424.92 -756.93,-769.37 -1690.67,-769.37 -409.51,0 -785.03,66.27 -1077.58,176.52 666.22,-94.04 1226.46,-78.7 1630.23,98.17 381.65,167.16 585.82,572.44 493.08,978.62 -147.58,646.48 -621.12,939.82 -1322.75,986.14 87.32,10.5 179.45,16.24 277.02,16.24"
         style="fill:#7e2b1a;fill-opacity:1;fill-rule:evenodd;stroke:none"
         id="path90" /><path
         d="m 1873.93,2668.67 -421.2,-439.12 551.15,295.74 z"
         style="fill:#c6dc78;fill-opacity:1;fill-rule:evenodd;stroke:none"
         id="path92" /><path
         d="m 2542.48,2226.4 -259.89,-439.11 461.53,327.08 z"
         style="fill:#c6dc78;fill-opacity:1;fill-rule:evenodd;stroke:none"
         id="path94" /><path
         d="m 2828.35,1978.61 -17.93,-430.15 183.71,416.73 z"
         style="fill:#c6dc78;fill-opacity:1;fill-rule:evenodd;stroke:none"
         id="path96" /><path
         d="m 3280.9,1727.69 26.89,-421.21 197.17,394.31 z"
         style="fill:#b2c764;fill-opacity:1;fill-rule:evenodd;stroke:none"
         id="path98" /><path
         d="m 3059.82,2531.77 107.5,-466 170.3,466 z"
         style="fill:#9fb651;fill-opacity:1;fill-rule:evenodd;stroke:none"
         id="path100" /><path
         d="m 4280.11,1956.22 183.72,-313.67 -17.9,362.94 z"
         style="fill:#b2c764;fill-opacity:1;fill-rule:evenodd;stroke:none"
         id="path102" /><path
         d="m 4710.54,2288.54 359.1,-315.87 -133.42,477.88 -14.53,-10.49 -211.15,-151.52"
         style="fill:#b2c764;fill-opacity:1;fill-rule:evenodd;stroke:none"
         id="path104" /><path
         d="m 5199.56,2639.19 466.79,-104.09 -346.9,354.7 -7.71,-16.16 -112.18,-234.45"
         style="fill:#9fb651;fill-opacity:1;fill-rule:evenodd;stroke:none"
         id="path106" /></g></g></svg>
