<?xml version="1.0" encoding="UTF-8"?>
<!DOCTYPE svg PUBLIC "-//W3C//DTD SVG 1.1//EN" "http://www.w3.org/Graphics/SVG/1.1/DTD/svg11.dtd">
<svg version="1.1" xmlns="http://www.w3.org/2000/svg" xmlns:xlink="http://www.w3.org/1999/xlink" x="0" y="0" width="276" height="368" viewBox="0, 0, 276, 368">
  <g id="Layer_1">
    <path d="M198.799,340.684 C198.799,354.338 174.095,365.407 143.622,365.407 C113.148,365.407 88.444,354.338 88.444,340.684 C88.444,327.029 113.148,315.961 143.622,315.961 C174.095,315.961 198.799,327.029 198.799,340.684" fill="#E5E5E0"/>
    <path d="M181.824,343.193 C181.824,351.414 161.485,358.078 136.395,358.078 C111.305,358.078 90.965,351.414 90.965,343.193 C90.965,334.973 111.305,328.31 136.395,328.31 C161.485,328.31 181.824,334.973 181.824,343.193" fill="#A4A5A1"/>
    <path d="M194.848,226.958 C194.848,233.492 168.192,238.789 135.309,238.789 C102.427,238.789 75.771,233.492 75.771,226.958 C75.771,220.423 102.427,215.126 135.309,215.126 C168.192,215.126 194.848,220.423 194.848,226.958" fill="#421E1E"/>
    <path d="M234.056,91.493 C232.442,92.846 230.639,93.302 230.03,92.511 C229.42,91.72 230.235,89.982 231.849,88.628 C233.463,87.275 239.123,84.886 239.123,84.886 C239.123,84.886 235.67,90.139 234.056,91.493" fill="#253F23"/>
    <path d="M186.891,155.285 C184.687,155.273 183.107,154.351 183.362,153.227 C183.616,152.103 185.609,151.201 187.812,151.214 C190.016,151.227 195.776,153.297 195.776,153.297 C195.776,153.297 189.095,155.298 186.891,155.285" fill="#253F23"/>
    <path d="M190.863,96.434 C191.431,97.948 190.854,99.74 189.576,100.436 C188.296,101.132 186.799,100.469 186.232,98.954 C185.665,97.44 186.377,91.904 186.377,91.904 C186.377,91.904 190.295,94.919 190.863,96.434" fill="#253F23"/>
    <path d="M228.472,123.729 C217.872,137.77 185.613,162.371 174.178,155.143 C171.489,153.443 170.194,150.124 169.92,145.866 C169.035,132.042 178.967,108.294 187.072,97.559 C197.672,83.518 215.534,77.988 226.969,85.216 C230.89,87.695 233.55,91.361 234.92,95.666 C237.536,103.904 235.431,114.512 228.472,123.729" fill="#0D8844"/>
    <path d="M228.472,123.729 C217.872,137.77 185.613,162.371 174.178,155.143 C171.489,153.443 170.194,150.124 169.92,145.866 C169.92,145.866 210.445,131.995 234.92,95.666 C237.536,103.904 235.431,114.512 228.472,123.729" fill="#327054"/>
    <path d="M204.402,104.91 C198.472,108.559 192.391,108.778 190.82,105.4 C189.249,102.02 192.782,96.323 198.711,92.674 C204.642,89.025 210.723,88.805 212.294,92.185 C213.866,95.564 210.333,101.261 204.402,104.91" fill="#449F46"/>
    <path d="M201.187,148.712 C198.984,148.699 197.404,147.777 197.658,146.653 C197.912,145.529 199.905,144.628 202.108,144.64 C204.312,144.653 210.072,146.724 210.072,146.724 C210.072,146.724 203.391,148.724 201.187,148.712" fill="#253F23"/>
    <path d="M212.91,130.618 C210.709,131.605 208.713,131.586 208.453,130.575 C208.192,129.565 209.764,127.946 211.964,126.96 C214.165,125.973 220.849,125.017 220.849,125.017 C220.849,125.017 215.111,129.631 212.91,130.618" fill="#253F23"/>
    <path d="M230.439,118.118 C228.239,119.104 226.243,119.085 225.982,118.075 C225.72,117.065 227.292,115.446 229.494,114.459 C231.694,113.473 238.377,112.517 238.377,112.517 C238.377,112.517 232.639,117.131 230.439,118.118" fill="#253F23"/>
    <path d="M173.483,133.905 C173.887,134.984 173.495,136.25 172.607,136.734 C171.718,137.216 170.67,136.734 170.266,135.655 C169.862,134.577 170.329,130.657 170.329,130.657 C170.329,130.657 173.078,132.826 173.483,133.905" fill="#253F23"/>
    <path d="M190.593,112.595 C191.162,114.11 190.585,115.902 189.306,116.597 C188.028,117.294 186.531,116.63 185.962,115.115 C185.395,113.601 186.108,108.066 186.108,108.066 C186.108,108.066 190.026,111.08 190.593,112.595" fill="#253F23"/>
    <path d="M185.198,142.115 C184.583,144.36 183.203,146.131 182.114,146.07 C181.026,146.009 180.642,144.14 181.257,141.895 C181.873,139.65 185.579,133.423 185.579,133.423 C185.579,133.423 185.813,139.87 185.198,142.115" fill="#253F23"/>
    <path d="M204.217,118.366 C202.652,120.291 200.721,121.381 199.905,120.799 C199.088,120.218 199.696,118.187 201.261,116.262 C202.827,114.337 208.722,109.956 208.722,109.956 C208.722,109.956 205.782,116.441 204.217,118.366" fill="#253F23"/>
    <path d="M207.839,90.235 C207.715,92.453 206.701,94.402 205.571,94.588 C204.442,94.775 203.626,93.129 203.75,90.911 C203.874,88.694 206.266,82.098 206.266,82.098 C206.266,82.098 207.962,88.018 207.839,90.235" fill="#253F23"/>
    <path d="M223.583,87.495 C222.17,89.516 220.309,90.756 219.426,90.263 C218.542,89.77 218.972,87.733 220.385,85.711 C221.797,83.69 227.384,78.877 227.384,78.877 C227.384,78.877 224.996,85.473 223.583,87.495" fill="#253F23"/>
    <path d="M223.5,108.587 C221.886,109.941 220.083,110.397 219.474,109.606 C218.865,108.815 219.679,107.076 221.293,105.723 C222.908,104.369 228.567,101.981 228.567,101.981 C228.567,101.981 225.115,107.234 223.5,108.587" fill="#253F23"/>
    <path d="M234.807,98.686 C233.193,100.039 231.39,100.496 230.781,99.705 C230.171,98.914 230.986,97.175 232.6,95.821 C234.214,94.467 239.874,92.079 239.874,92.079 C239.874,92.079 236.421,97.332 234.807,98.686" fill="#253F23"/>
    <path d="M141.436,42.923 C142.382,44.484 142.536,46.088 141.778,46.506 C141.02,46.923 139.638,45.997 138.691,44.436 C137.745,42.875 136.445,37.714 136.445,37.714 C136.445,37.714 140.489,41.362 141.436,42.923" fill="#253F23"/>
    <path d="M189.855,91.726 C189.553,93.611 188.556,94.843 187.626,94.478 C186.698,94.111 186.188,92.286 186.49,90.401 C186.791,88.515 189.324,83.855 189.324,83.855 C189.324,83.855 190.156,89.84 189.855,91.726" fill="#253F23"/>
    <path d="M139.975,80.568 C141.347,80.281 142.805,81.011 143.233,82.198 C143.661,83.385 142.895,84.579 141.523,84.866 C140.151,85.152 135.504,83.813 135.504,83.813 C135.504,83.813 138.603,80.854 139.975,80.568" fill="#253F23"/>
    <path d="M168.309,51.954 C178.937,62.883 195.754,93.755 188.057,102.595 C186.247,104.674 183.233,105.346 179.551,105.019 C167.594,103.956 148.565,92.319 140.439,83.963 C129.811,73.033 127.428,57.007 135.126,48.166 C137.766,45.134 141.256,43.339 145.124,42.733 C152.524,41.579 161.332,44.779 168.309,51.954" fill="#0D8844"/>
    <path d="M168.309,51.954 C178.937,62.883 195.754,93.755 188.057,102.595 C186.247,104.674 183.233,105.346 179.551,105.019 C179.551,105.019 173.012,68.484 145.124,42.733 C152.524,41.579 161.332,44.779 168.309,51.954" fill="#327054"/>
    <path d="M149.019,70.089 C151.363,75.649 150.749,80.886 147.648,81.786 C144.546,82.687 140.132,78.91 137.789,73.35 C135.445,67.79 136.059,62.553 139.16,61.652 C142.261,60.752 146.675,64.529 149.019,70.089" fill="#449F46"/>
    <path d="M186.109,78.615 C185.808,80.501 184.81,81.733 183.881,81.367 C182.952,81.001 182.442,79.176 182.744,77.29 C183.044,75.404 185.578,70.744 185.578,70.744 C185.578,70.744 186.411,76.73 186.109,78.615" fill="#253F23"/>
    <path d="M172.158,66.191 C172.712,68.205 172.433,69.912 171.534,70.003 C170.634,70.093 169.455,68.533 168.9,66.518 C168.344,64.504 168.407,58.653 168.407,58.653 C168.407,58.653 171.602,64.176 172.158,66.191" fill="#253F23"/>
    <path d="M163.762,49.53 C164.317,51.545 164.038,53.252 163.138,53.342 C162.239,53.433 161.059,51.873 160.504,49.858 C159.949,47.843 160.011,41.993 160.011,41.993 C160.011,41.993 163.207,47.516 163.762,49.53" fill="#253F23"/>
    <path d="M169.777,100.392 C170.753,100.188 171.787,100.691 172.083,101.515 C172.38,102.339 171.829,103.173 170.852,103.377 C169.875,103.581 166.579,102.665 166.579,102.665 C166.579,102.665 168.799,100.596 169.777,100.392" fill="#253F23"/>
    <path d="M153.781,82.928 C155.153,82.642 156.612,83.371 157.039,84.558 C157.466,85.745 156.701,86.94 155.329,87.227 C153.957,87.513 149.31,86.173 149.31,86.173 C149.31,86.173 152.409,83.215 153.781,82.928" fill="#253F23"/>
    <path d="M178.352,91.44 C180.194,92.263 181.529,93.679 181.333,94.603 C181.137,95.527 179.486,95.609 177.644,94.786 C175.802,93.963 170.958,89.968 170.958,89.968 C170.958,89.968 176.51,90.617 178.352,91.44" fill="#253F23"/>
    <path d="M160.518,72.021 C161.961,73.615 162.639,75.412 162.035,76.035 C161.429,76.657 159.769,75.87 158.327,74.276 C156.885,72.681 153.91,67.054 153.91,67.054 C153.91,67.054 159.077,70.427 160.518,72.021" fill="#253F23"/>
    <path d="M136.904,65.212 C138.787,65.61 140.322,66.736 140.333,67.727 C140.343,68.719 138.826,69.2 136.943,68.802 C135.061,68.404 129.727,65.486 129.727,65.486 C129.727,65.486 135.021,64.814 136.904,65.212" fill="#253F23"/>
    <path d="M136.631,51.366 C138.176,52.842 138.992,54.6 138.454,55.291 C137.916,55.983 136.227,55.346 134.682,53.87 C133.137,52.394 129.751,46.975 129.751,46.975 C129.751,46.975 135.086,49.89 136.631,51.366" fill="#253F23"/>
    <path d="M154.685,54.217 C155.631,55.778 155.785,57.381 155.027,57.799 C154.269,58.217 152.887,57.29 151.941,55.73 C150.995,54.169 149.695,49.007 149.695,49.007 C149.695,49.007 153.739,52.656 154.685,54.217" fill="#253F23"/>
    <path d="M147.695,43.228 C148.642,44.789 148.795,46.393 148.038,46.811 C147.28,47.228 145.898,46.301 144.951,44.74 C144.004,43.18 142.705,38.018 142.705,38.018 C142.705,38.018 146.749,41.667 147.695,43.228" fill="#253F23"/>
    <path d="M269.728,132.488 C268.479,132.44 267.476,131.934 267.487,131.359 C267.499,130.782 268.519,130.355 269.767,130.402 C271.016,130.45 274.52,131.629 274.52,131.629 C274.52,131.629 270.976,132.536 269.728,132.488" fill="#253F23"/>
    <path d="M224.272,141.47 C223.256,140.608 222.867,139.598 223.401,139.215 C223.935,138.833 225.191,139.221 226.206,140.084 C227.221,140.947 229.119,144.074 229.119,144.074 C229.119,144.074 225.287,142.333 224.272,141.47" fill="#253F23"/>
    <path d="M247.91,117.803 C247.612,118.672 246.681,119.216 245.832,119.017 C244.982,118.818 244.535,117.951 244.833,117.081 C245.131,116.212 247.511,114.118 247.511,114.118 C247.511,114.118 248.208,116.933 247.91,117.803" fill="#253F23"/>
    <path d="M255.203,144.126 C245.096,146.018 221.055,144.008 218.442,136.464 C217.827,134.689 218.457,132.763 219.908,130.833 C224.619,124.567 238.011,118.256 245.739,116.81 C255.845,114.919 266.159,119.498 268.773,127.042 C269.669,129.63 269.542,132.235 268.582,134.612 C266.741,139.159 261.837,142.884 255.203,144.126" fill="#0D8844"/>
    <path d="M255.203,144.126 C245.096,146.018 221.055,144.008 218.442,136.464 C217.827,134.689 218.457,132.763 219.908,130.833 C219.908,130.833 243.798,140.655 268.582,134.612 C266.741,139.159 261.837,142.884 255.203,144.126" fill="#327054"/>
    <path d="M251.035,126.701 C246.939,125.957 244.043,123.686 244.569,121.627 C245.093,119.568 248.838,118.502 252.934,119.245 C257.031,119.989 259.925,122.26 259.401,124.319 C258.876,126.378 255.131,127.444 251.035,126.701" fill="#449F46"/>
    <path d="M233.323,144.215 C232.307,143.352 231.917,142.343 232.452,141.96 C232.986,141.577 234.242,141.966 235.256,142.829 C236.272,143.692 238.169,146.819 238.169,146.819 C238.169,146.819 234.337,145.077 233.323,144.215" fill="#253F23"/>
    <path d="M245.45,141.024 C244.066,140.59 243.149,139.806 243.403,139.272 C243.656,138.737 244.983,138.655 246.367,139.089 C247.75,139.522 251.198,141.712 251.198,141.712 C251.198,141.712 246.833,141.457 245.45,141.024" fill="#253F23"/>
    <path d="M258.191,142.487 C256.807,142.054 255.891,141.269 256.145,140.735 C256.398,140.201 257.725,140.119 259.109,140.552 C260.493,140.985 263.94,143.176 263.94,143.176 C263.94,143.176 259.575,142.921 258.191,142.487" fill="#253F23"/>
    <path d="M225.987,127.095 C225.774,127.714 225.124,128.104 224.534,127.966 C223.944,127.827 223.637,127.213 223.85,126.593 C224.062,125.974 225.73,124.476 225.73,124.476 C225.73,124.476 226.199,126.475 225.987,127.095" fill="#253F23"/>
    <path d="M241.798,124.622 C241.5,125.491 240.57,126.035 239.72,125.836 C238.871,125.636 238.423,124.77 238.722,123.9 C239.02,123.03 241.401,120.936 241.401,120.936 C241.401,120.936 242.097,123.752 241.798,124.622" fill="#253F23"/>
    <path d="M228.367,135.17 C227.25,135.892 225.956,136.113 225.474,135.664 C224.994,135.214 225.508,134.265 226.625,133.542 C227.741,132.819 231.763,131.594 231.763,131.594 C231.763,131.594 229.483,134.447 228.367,135.17" fill="#253F23"/>
    <path d="M245.965,132.393 C244.528,132.609 243.231,132.325 243.068,131.758 C242.906,131.192 243.939,130.558 245.376,130.342 C246.814,130.126 251.165,130.543 251.165,130.543 C251.165,130.543 247.403,132.177 245.965,132.393" fill="#253F23"/>
    <path d="M258.061,121.751 C257.183,122.653 255.991,123.093 255.4,122.734 C254.808,122.374 255.041,121.352 255.918,120.45 C256.797,119.548 260.348,117.653 260.348,117.653 C260.348,117.653 258.94,120.849 258.061,121.751" fill="#253F23"/>
    <path d="M266.362,126.701 C264.959,127.018 263.639,126.824 263.413,126.27 C263.187,125.715 264.14,125.01 265.542,124.693 C266.946,124.377 271.314,124.488 271.314,124.488 C271.314,124.488 267.764,126.385 266.362,126.701" fill="#253F23"/>
    <path d="M258.51,135.705 C257.262,135.657 256.259,135.152 256.27,134.575 C256.282,134 257.302,133.571 258.55,133.62 C259.799,133.668 263.302,134.846 263.302,134.846 C263.302,134.846 259.759,135.753 258.51,135.705" fill="#253F23"/>
    <path d="M267.411,135.861 C266.163,135.814 265.16,135.308 265.17,134.732 C265.181,134.156 266.203,133.728 267.451,133.776 C268.699,133.824 272.203,135.002 272.203,135.002 C272.203,135.002 268.659,135.91 267.411,135.861" fill="#253F23"/>
    <path d="M81.195,7.926 C80.918,9.403 80.132,10.469 79.438,10.309 C78.745,10.149 78.407,8.823 78.684,7.347 C78.96,5.871 80.997,1.995 80.997,1.995 C80.997,1.995 81.472,6.451 81.195,7.926" fill="#253F23"/>
    <path d="M84.08,64.4 C82.86,65.39 81.573,65.597 81.205,64.863 C80.836,64.129 81.526,62.731 82.745,61.741 C83.965,60.751 88.074,59.285 88.074,59.285 C88.074,59.285 85.299,63.409 84.08,64.4" fill="#253F23"/>
    <path d="M59.642,30.19 C60.64,30.767 61.133,32.015 60.743,32.977 C60.354,33.939 59.229,34.25 58.231,33.673 C57.233,33.095 55.122,29.725 55.122,29.725 C55.122,29.725 58.644,29.612 59.642,30.19" fill="#253F23"/>
    <path d="M92.705,28.207 C93.219,40.736 86.582,68.881 77.013,70.073 C74.763,70.353 72.548,69.111 70.472,66.89 C63.729,59.677 58.456,42.104 58.063,32.525 C57.548,19.995 64.884,8.869 74.452,7.676 C77.733,7.267 80.857,8.083 83.559,9.834 C88.727,13.188 92.367,19.983 92.705,28.207" fill="#0D8844"/>
    <path d="M92.705,28.207 C93.219,40.736 86.582,68.881 77.013,70.073 C74.763,70.353 72.548,69.111 70.472,66.89 C70.472,66.89 86.516,40.916 83.559,9.834 C88.727,13.188 92.367,19.983 92.705,28.207" fill="#327054"/>
    <path d="M70.933,28.733 C69.318,33.425 66.068,36.297 63.674,35.147 C61.28,33.997 60.648,29.26 62.263,24.568 C63.878,19.875 67.128,17.003 69.522,18.153 C71.917,19.303 72.548,24.04 70.933,28.733" fill="#449F46"/>
    <path d="M88.979,54.311 C87.76,55.301 86.473,55.508 86.104,54.774 C85.736,54.04 86.425,52.642 87.645,51.652 C88.864,50.662 92.973,49.197 92.973,49.197 C92.973,49.197 90.199,53.321 88.979,54.311" fill="#253F23"/>
    <path d="M87.25,39.042 C86.484,40.581 85.376,41.473 84.775,41.035 C84.175,40.597 84.308,38.994 85.074,37.455 C85.839,35.916 89.088,32.366 89.088,32.366 C89.088,32.366 88.015,37.503 87.25,39.042" fill="#253F23"/>
    <path d="M91.249,24.227 C90.483,25.766 89.375,26.658 88.774,26.22 C88.174,25.782 88.307,24.179 89.073,22.64 C89.838,21.101 93.087,17.55 93.087,17.55 C93.087,17.55 92.014,22.688 91.249,24.227" fill="#253F23"/>
    <path d="M67.022,58.691 C67.732,59.102 68.09,59.977 67.819,60.645 C67.549,61.313 66.753,61.521 66.042,61.11 C65.332,60.698 63.815,58.328 63.815,58.328 C63.815,58.328 66.311,58.279 67.022,58.691" fill="#253F23"/>
    <path d="M66.805,39.212 C67.803,39.79 68.296,41.037 67.907,41.999 C67.517,42.961 66.393,43.273 65.395,42.695 C64.396,42.118 62.285,38.747 62.285,38.747 C62.285,38.747 65.807,38.635 66.805,39.212" fill="#253F23"/>
    <path d="M77.189,57.912 C77.866,59.427 77.907,61.027 77.28,61.486 C76.653,61.944 75.596,61.089 74.919,59.573 C74.242,58.059 73.466,52.952 73.466,52.952 C73.466,52.952 76.512,56.397 77.189,57.912" fill="#253F23"/>
    <path d="M76.919,36.227 C76.928,37.995 76.357,39.469 75.645,39.518 C74.933,39.568 74.348,38.174 74.339,36.406 C74.33,34.637 75.595,29.557 75.595,29.557 C75.595,29.557 76.91,34.459 76.919,36.227" fill="#253F23"/>
    <path d="M66.187,19.095 C67.122,20.373 67.445,21.905 66.907,22.519 C66.37,23.132 65.176,22.594 64.241,21.318 C63.305,20.04 61.639,15.325 61.639,15.325 C61.639,15.325 65.252,17.818 66.187,19.095" fill="#253F23"/>
    <path d="M73.618,10.463 C73.754,12.215 73.29,13.74 72.581,13.868 C71.872,13.996 71.186,12.68 71.05,10.927 C70.914,9.175 71.813,3.997 71.813,3.997 C71.813,3.997 73.481,8.711 73.618,10.463" fill="#253F23"/>
    <path d="M83.115,22.117 C82.839,23.593 82.052,24.66 81.359,24.5 C80.666,24.34 80.327,23.014 80.604,21.538 C80.88,20.062 82.917,16.186 82.917,16.186 C82.917,16.186 83.392,20.641 83.115,22.117" fill="#253F23"/>
    <path d="M84.863,11.549 C84.586,13.024 83.8,14.091 83.106,13.931 C82.413,13.771 82.075,12.445 82.352,10.969 C82.628,9.493 84.665,5.617 84.665,5.617 C84.665,5.617 85.14,10.072 84.863,11.549" fill="#253F23"/>
    <path d="M151.119,117.392 C150.317,120.162 148.341,122.024 146.707,121.55 C145.072,121.077 144.396,118.447 145.199,115.677 C146.001,112.907 151.225,105.946 151.225,105.946 C151.225,105.946 151.921,114.622 151.119,117.392" fill="#253F23"/>
    <path d="M152.467,226.613 C149.469,228.224 146.385,228.315 145.58,226.815 C144.774,225.316 146.552,222.795 149.551,221.184 C152.549,219.573 162.471,217.741 162.471,217.741 C162.471,217.741 155.466,225.003 152.467,226.613" fill="#253F23"/>
    <path d="M97.65,155.015 C99.969,156.364 101.021,158.88 100,160.635 C98.979,162.39 96.272,162.72 93.954,161.372 C91.635,160.024 86.939,153.039 86.939,153.039 C86.939,153.039 95.332,153.667 97.65,155.015" fill="#253F23"/>
    <path d="M176.528,159.124 C176.528,183.326 157.983,235.823 135.096,235.823 C129.713,235.823 124.564,232.906 119.838,228.14 C104.499,212.663 93.665,177.628 93.665,159.124 C93.665,134.923 112.209,115.296 135.096,115.296 C142.944,115.296 150.299,117.611 156.558,121.624 C168.529,129.307 176.528,143.236 176.528,159.124" fill="#0D8844"/>
    <path d="M176.528,159.124 C176.528,183.326 157.983,235.823 135.096,235.823 C129.713,235.823 124.564,232.906 119.838,228.14 C119.838,228.14 160.558,182.066 156.558,121.624 C168.529,129.307 176.528,143.236 176.528,159.124" fill="#327054"/>
    <path d="M124.665,154.92 C120.363,163.551 112.348,168.292 106.762,165.508 C101.177,162.725 100.137,153.471 104.438,144.839 C108.741,136.207 116.756,131.466 122.341,134.25 C127.927,137.034 128.967,146.288 124.665,154.92" fill="#449F46"/>
    <path d="M165.113,208.399 C162.115,210.009 159.031,210.1 158.225,208.6 C157.419,207.101 159.198,204.579 162.197,202.969 C165.195,201.359 175.118,199.527 175.118,199.527 C175.118,199.527 168.112,206.787 165.113,208.399" fill="#253F23"/>
    <path d="M162.489,178.64 C160.516,181.415 157.792,182.864 156.406,181.878 C155.018,180.892 155.493,177.843 157.465,175.069 C159.437,172.295 167.516,166.25 167.516,166.25 C167.516,166.25 164.46,175.866 162.489,178.64" fill="#253F23"/>
    <path d="M173.453,151.126 C171.48,153.901 168.756,155.35 167.37,154.363 C165.983,153.378 166.457,150.329 168.429,147.555 C170.401,144.78 178.48,138.735 178.48,138.735 C178.48,138.735 175.424,148.352 173.453,151.126" fill="#253F23"/>
    <path d="M112.43,211.557 C114.082,212.517 114.846,214.283 114.137,215.503 C113.428,216.722 111.514,216.932 109.863,215.971 C108.212,215.011 104.834,210.093 104.834,210.093 C104.834,210.093 110.779,210.596 112.43,211.557" fill="#253F23"/>
    <path d="M113.816,174.071 C116.135,175.42 117.187,177.936 116.167,179.691 C115.146,181.446 112.438,181.776 110.12,180.427 C107.801,179.079 103.105,172.095 103.105,172.095 C103.105,172.095 111.498,172.723 113.816,174.071" fill="#253F23"/>
    <path d="M136.702,212.495 C138.165,215.568 138.105,218.653 136.569,219.385 C135.032,220.116 132.6,218.218 131.137,215.145 C129.674,212.071 128.327,202.071 128.327,202.071 C128.327,202.071 135.239,209.422 136.702,212.495" fill="#253F23"/>
    <path d="M138.178,170.756 C138.026,174.157 136.525,176.852 134.825,176.777 C133.125,176.7 131.869,173.882 132.021,170.482 C132.172,167.081 135.679,157.62 135.679,157.62 C135.679,157.62 138.33,167.356 138.178,170.756" fill="#253F23"/>
    <path d="M121.16,121.566 C123.261,124.244 123.878,127.267 122.539,128.318 C121.2,129.368 118.411,128.048 116.311,125.37 C114.209,122.692 110.704,113.231 110.704,113.231 C110.704,113.231 119.059,118.888 121.16,121.566" fill="#253F23"/>
    <path d="M132.839,120.452 C132.993,123.852 131.739,126.671 130.039,126.748 C128.338,126.824 126.835,124.13 126.682,120.73 C126.529,117.329 129.174,107.592 129.174,107.592 C129.174,107.592 132.686,117.051 132.839,120.452" fill="#253F23"/>
    <path d="M154.302,145.124 C153.5,147.894 151.525,149.756 149.89,149.282 C148.255,148.809 147.581,146.179 148.382,143.409 C149.185,140.639 154.409,133.678 154.409,133.678 C154.409,133.678 155.105,142.354 154.302,145.124" fill="#253F23"/>
    <path d="M159.495,125.231 C158.692,128.001 156.716,129.862 155.082,129.389 C153.447,128.916 152.772,126.286 153.574,123.516 C154.376,120.746 159.601,113.785 159.601,113.785 C159.601,113.785 160.296,122.461 159.495,125.231" fill="#253F23"/>
    <path d="M52.049,61.45 C52.973,63.691 52.768,65.797 51.591,66.154 C50.415,66.511 48.712,64.984 47.789,62.742 C46.865,60.501 46.388,53.528 46.388,53.528 C46.388,53.528 51.125,59.209 52.049,61.45" fill="#253F23"/>
    <path d="M107.427,136.049 C106.508,138.41 104.781,139.76 103.568,139.065 C102.356,138.369 102.117,135.892 103.036,133.531 C103.955,131.17 108.742,125.766 108.742,125.766 C108.742,125.766 108.345,133.689 107.427,136.049" fill="#253F23"/>
    <path d="M40.123,109.669 C42.13,109.629 43.992,110.921 44.283,112.555 C44.574,114.189 43.183,115.547 41.176,115.587 C39.169,115.627 32.978,112.782 32.978,112.782 C32.978,112.782 38.116,109.709 40.123,109.669" fill="#253F23"/>
    <path d="M87.518,79.558 C99.617,96.213 115.202,140.085 102.046,149.642 C98.952,151.89 94.533,152.032 89.434,150.726 C72.879,146.481 49.136,126.895 39.886,114.161 C27.787,97.506 28.635,76.256 41.791,66.698 C46.302,63.421 51.688,61.943 57.292,62.09 C68.014,62.38 79.575,68.625 87.518,79.558" fill="#0D8844"/>
    <path d="M87.518,79.558 C99.617,96.213 115.202,140.085 102.046,149.642 C98.952,151.89 94.533,152.032 89.434,150.726 C89.434,150.726 89.807,102.015 57.292,62.09 C68.014,62.38 79.575,68.625 87.518,79.558" fill="#327054"/>
    <path d="M55.604,98.322 C57.446,106.059 55.208,112.668 50.606,113.085 C46.004,113.502 40.78,107.568 38.938,99.831 C37.095,92.094 39.333,85.485 43.935,85.068 C48.537,84.652 53.761,90.586 55.604,98.322" fill="#449F46"/>
    <path d="M105.59,118.234 C104.671,120.594 102.944,121.944 101.731,121.249 C100.519,120.553 100.28,118.076 101.199,115.715 C102.117,113.355 106.905,107.951 106.905,107.951 C106.905,107.951 106.508,115.873 105.59,118.234" fill="#253F23"/>
    <path d="M89.204,98.851 C89.458,101.584 88.617,103.719 87.326,103.62 C86.036,103.52 84.785,101.224 84.531,98.491 C84.278,95.759 85.9,88.225 85.9,88.225 C85.9,88.225 88.951,96.119 89.204,98.851" fill="#253F23"/>
    <path d="M81.751,75.339 C82.005,78.071 81.164,80.206 79.874,80.107 C78.583,80.007 77.332,77.711 77.079,74.979 C76.826,72.246 78.447,64.713 78.447,64.713 C78.447,64.713 81.498,72.606 81.751,75.339" fill="#253F23"/>
    <path d="M76.885,142.407 C78.314,142.378 79.637,143.275 79.839,144.41 C80.041,145.545 79.045,146.488 77.616,146.517 C76.187,146.546 71.787,144.571 71.787,144.571 C71.787,144.571 75.456,142.436 76.885,142.407" fill="#253F23"/>
    <path d="M58.942,116.031 C60.949,115.991 62.812,117.283 63.102,118.918 C63.393,120.552 62.001,121.909 59.995,121.949 C57.988,121.99 51.797,119.145 51.797,119.145 C51.797,119.145 56.935,116.072 58.942,116.031" fill="#253F23"/>
    <path d="M91.307,132.917 C93.684,134.422 95.192,136.569 94.674,137.714 C94.157,138.86 91.81,138.568 89.432,137.065 C87.055,135.56 81.281,129.242 81.281,129.242 C81.281,129.242 88.929,131.413 91.307,132.917" fill="#253F23"/>
    <path d="M71.289,103.578 C72.901,105.981 73.386,108.463 72.371,109.12 C71.355,109.778 69.225,108.363 67.612,105.96 C65.999,103.556 63.285,95.582 63.285,95.582 C63.285,95.582 69.676,101.174 71.289,103.578" fill="#253F23"/>
    <path d="M39.825,89.118 C42.372,90.084 44.238,91.906 43.993,93.188 C43.749,94.47 41.486,94.727 38.939,93.761 C36.393,92.795 29.648,87.748 29.648,87.748 C29.648,87.748 37.278,88.152 39.825,89.118" fill="#253F23"/>
    <path d="M43.071,71.189 C44.859,73.465 45.548,75.928 44.609,76.691 C43.669,77.454 41.459,76.227 39.671,73.951 C37.882,71.675 34.536,63.87 34.536,63.87 C34.536,63.87 41.283,68.913 43.071,71.189" fill="#253F23"/>
    <path d="M67.743,79.205 C68.667,81.446 68.461,83.552 67.285,83.909 C66.109,84.266 64.406,82.738 63.483,80.497 C62.559,78.256 62.082,71.283 62.082,71.283 C62.082,71.283 66.819,76.963 67.743,79.205" fill="#253F23"/>
    <path d="M60.782,63.347 C61.706,65.588 61.501,67.694 60.325,68.051 C59.148,68.408 57.446,66.881 56.522,64.639 C55.599,62.398 55.122,55.426 55.122,55.426 C55.122,55.426 59.859,61.106 60.782,63.347" fill="#253F23"/>
    <path d="M8.095,138.77 C9.596,138.714 10.767,138.095 10.711,137.385 C10.656,136.675 9.394,136.145 7.894,136.201 C6.393,136.256 2.259,137.697 2.259,137.697 C2.259,137.697 6.595,138.825 8.095,138.77" fill="#253F23"/>
    <path d="M63.522,149.969 C64.681,148.91 65.077,147.667 64.405,147.194 C63.733,146.721 62.249,147.197 61.089,148.256 C59.93,149.316 57.874,153.164 57.874,153.164 C57.874,153.164 62.362,151.029 63.522,149.969" fill="#253F23"/>
    <path d="M33.299,120.744 C33.723,121.816 34.884,122.488 35.893,122.245 C36.902,122.002 37.376,120.936 36.953,119.863 C36.529,118.791 33.507,116.205 33.507,116.205 C33.507,116.205 32.876,119.671 33.299,120.744" fill="#253F23"/>
    <path d="M26.453,153.151 C38.768,155.511 67.584,153.106 70.177,143.819 C70.787,141.635 69.886,139.261 67.996,136.879 C61.858,129.145 45.258,121.332 35.842,119.527 C23.526,117.167 11.438,122.777 8.844,132.064 C7.955,135.249 8.299,138.459 9.632,141.39 C12.186,146.997 18.368,151.601 26.453,153.151" fill="#0D8844"/>
    <path d="M26.453,153.151 C38.768,155.511 67.584,153.106 70.177,143.819 C70.787,141.635 69.886,139.261 67.996,136.879 C67.996,136.879 39.936,148.908 9.632,141.39 C12.186,146.997 18.368,151.601 26.453,153.151" fill="#327054"/>
    <path d="M30.189,131.696 C35.069,130.792 38.39,128.002 37.606,125.464 C36.823,122.926 32.231,121.602 27.352,122.506 C22.472,123.409 19.151,126.199 19.935,128.737 C20.718,131.275 25.31,132.6 30.189,131.696" fill="#449F46"/>
    <path d="M52.82,153.324 C53.979,152.265 54.375,151.022 53.703,150.549 C53.031,150.076 51.547,150.552 50.388,151.611 C49.228,152.671 47.172,156.519 47.172,156.519 C47.172,156.519 51.661,154.384 52.82,153.324" fill="#253F23"/>
    <path d="M37.975,149.357 C39.61,148.827 40.656,147.863 40.311,147.205 C39.967,146.546 38.362,146.441 36.727,146.97 C35.091,147.5 31.1,150.189 31.1,150.189 C31.1,150.189 36.339,149.887 37.975,149.357" fill="#253F23"/>
    <path d="M22.731,151.123 C24.366,150.593 25.413,149.629 25.068,148.97 C24.723,148.311 23.118,148.206 21.483,148.736 C19.848,149.266 15.856,151.954 15.856,151.954 C15.856,151.954 21.096,151.652 22.731,151.123" fill="#253F23"/>
    <path d="M60.397,132.255 C60.698,133.019 61.511,133.501 62.211,133.333 C62.912,133.164 63.235,132.408 62.934,131.644 C62.632,130.881 60.512,129.03 60.512,129.03 C60.512,129.03 60.095,131.491 60.397,132.255" fill="#253F23"/>
    <path d="M41.165,129.162 C41.588,130.234 42.749,130.906 43.758,130.663 C44.767,130.42 45.241,129.354 44.818,128.282 C44.395,127.21 41.373,124.623 41.373,124.623 C41.373,124.623 40.741,128.089 41.165,129.162" fill="#253F23"/>
    <path d="M58.124,142.195 C59.522,143.089 61.099,143.366 61.645,142.814 C62.191,142.261 61.501,141.089 60.103,140.196 C58.705,139.302 53.769,137.78 53.769,137.78 C53.769,137.78 56.726,141.302 58.124,142.195" fill="#253F23"/>
    <path d="M36.717,138.724 C38.465,138.994 40.006,138.648 40.161,137.95 C40.314,137.253 39.023,136.468 37.275,136.198 C35.527,135.928 30.316,136.428 30.316,136.428 C30.316,136.428 34.97,138.453 36.717,138.724" fill="#253F23"/>
    <path d="M21.36,125.578 C22.484,126.691 23.953,127.236 24.639,126.796 C25.325,126.355 24.97,125.094 23.845,123.981 C22.72,122.867 18.303,120.522 18.303,120.522 C18.303,120.522 20.235,124.464 21.36,125.578" fill="#253F23"/>
    <path d="M11.724,131.651 C13.437,132.045 15.013,131.811 15.245,131.129 C15.477,130.446 14.276,129.574 12.563,129.18 C10.85,128.786 5.595,128.91 5.595,128.91 C5.595,128.91 10.011,131.257 11.724,131.651" fill="#253F23"/>
    <path d="M21.846,142.767 C23.347,142.711 24.518,142.091 24.462,141.381 C24.407,140.672 23.145,140.142 21.645,140.197 C20.144,140.253 16.01,141.693 16.01,141.693 C16.01,141.693 20.346,142.822 21.846,142.767" fill="#253F23"/>
    <path d="M11.135,142.933 C12.636,142.878 13.807,142.257 13.751,141.548 C13.696,140.839 12.434,140.308 10.934,140.364 C9.433,140.419 5.299,141.86 5.299,141.86 C5.299,141.86 9.635,142.988 11.135,142.933" fill="#253F23"/>
    <path d="M191.122,235.518 L181.48,337.898 C180.918,343.938 176.932,349.17 171.194,351.17 C147.157,359.497 123.12,359.497 99.083,351.17 C93.344,349.17 89.358,343.938 88.796,337.898 L79.154,235.518 L191.122,235.518" fill="#6B2A1F"/>
    <path d="M191.122,235.518 L187.41,274.977 L185.986,274.553 C177.083,287.564 81.373,245.475 81.373,245.475 C81.373,245.475 82.496,241.394 84.167,235.518 L191.122,235.518" fill="#602627"/>
    <path d="M187.641,246.142 C153.736,250.981 118.995,251.34 83.622,246.167 C79.575,245.575 76.64,241.934 75.896,237.912 L75.073,233.457 C73.771,226.416 79.572,220.038 86.695,220.766 C119.254,224.09 151.909,223.936 184.647,220.688 C191.761,219.983 197.543,226.353 196.244,233.383 L195.414,237.874 C194.667,241.913 191.708,245.561 187.641,246.142" fill="#8D3B2A"/>
    <path d="M104.273,324.495 L104.273,324.495 C101.82,324.655 99.702,322.796 99.542,320.343 L97.135,283.442 C96.976,280.988 98.834,278.87 101.288,278.71 C103.741,278.55 105.859,280.409 106.019,282.862 L108.425,319.764 C108.585,322.217 106.727,324.335 104.273,324.495" fill="#B06C43"/>
    <path d="M104.493,271.128 C104.493,273.398 102.346,275.237 99.699,275.237 C97.051,275.237 94.905,273.398 94.905,271.128 C94.905,268.86 97.051,267.02 99.699,267.02 C102.346,267.02 104.493,268.86 104.493,271.128" fill="#B06C43"/>
    <path d="M135.994,244.799 C112.489,244.799 87.26,237.978 85.798,237.576 C83.975,237.076 82.903,235.193 83.403,233.369 C83.902,231.545 85.787,230.474 87.61,230.972 C88.086,231.104 135.45,243.902 158.699,234.524 C160.456,233.815 162.448,234.665 163.156,236.417 C163.863,238.171 163.015,240.166 161.261,240.874 C154.121,243.755 145.189,244.799 135.994,244.799" fill="#B06C43"/>
    <path d="M200.793,91.108 C198.173,89.595 198.662,83.844 201.884,78.262 C205.107,72.68 209.844,69.381 212.464,70.894 C215.084,72.407 214.596,78.158 211.374,83.74 C208.151,89.322 203.415,92.621 200.793,91.108" fill="#AC262A"/>
    <path d="M211.812,81.457 C212.11,78.445 217.551,76.52 223.965,77.155 C230.379,77.791 235.337,80.747 235.04,83.758 C234.741,86.769 229.299,88.695 222.885,88.059 C216.471,87.423 211.513,84.467 211.812,81.457" fill="#AC262A"/>
    <path d="M217.359,78.509 C217.359,81.535 212.147,83.987 205.717,83.987 C199.288,83.987 194.075,81.535 194.075,78.509 C194.075,75.483 199.288,73.03 205.717,73.03 C212.147,73.03 217.359,75.483 217.359,78.509" fill="#D8262C"/>
    <path d="M216.594,78.096 C213.569,78.096 211.116,72.871 211.116,66.425 C211.116,59.98 213.569,54.755 216.594,54.755 C219.62,54.755 222.073,59.98 222.073,66.425 C222.073,72.871 219.62,78.096 216.594,78.096" fill="#AC262A"/>
    <path d="M215.969,79.423 C213.41,81.037 208.548,77.924 205.111,72.472 C201.674,67.019 200.963,61.291 203.523,59.677 C206.083,58.064 210.944,61.176 214.38,66.629 C217.818,72.082 218.529,77.81 215.969,79.423" fill="#D8262C"/>
    <path d="M215.458,77.436 C213.946,80.057 208.194,79.568 202.612,76.346 C197.031,73.123 193.732,68.386 195.245,65.766 C196.757,63.146 202.509,63.634 208.09,66.857 C213.672,70.079 216.971,74.816 215.458,77.436" fill="#E05829"/>
    <path d="M213.083,79.384 C210.788,77.414 212.329,71.852 216.525,66.96 C220.722,62.068 225.986,59.699 228.282,61.67 C230.579,63.64 229.038,69.202 224.841,74.094 C220.644,78.986 215.38,81.355 213.083,79.384" fill="#D8262C"/>
    <path d="M212.25,74.837 C214.676,73.03 219.763,75.757 223.613,80.927 C227.461,86.097 228.615,91.753 226.187,93.56 C223.76,95.366 218.672,92.64 214.824,87.47 C210.975,82.3 209.822,76.644 212.25,74.837" fill="#D8262C"/>
    <path d="M237.243,74.101 C237.785,77.078 233.083,80.426 226.742,81.581 C220.401,82.735 214.821,81.257 214.279,78.281 C213.737,75.304 218.439,71.955 224.78,70.801 C231.122,69.647 236.701,71.124 237.243,74.101" fill="#E05829"/>
    <path d="M211.289,99.023 C208.329,98.395 207.013,92.775 208.351,86.469 C209.688,80.165 213.172,75.562 216.132,76.19 C219.092,76.818 220.407,82.438 219.07,88.743 C217.732,95.048 214.249,99.651 211.289,99.023" fill="#E05829"/>
    <path d="M220.816,76.317 C220.816,79.999 217.832,82.983 214.15,82.983 C210.468,82.983 207.484,79.999 207.484,76.317 C207.484,72.635 210.468,69.651 214.15,69.651 C217.832,69.651 220.816,72.635 220.816,76.317" fill="#F1A944"/>
    <path d="M123.733,133.249 C121.113,131.735 121.602,125.985 124.824,120.402 C128.047,114.82 132.784,111.522 135.404,113.035 C138.024,114.547 137.536,120.299 134.313,125.881 C131.09,131.463 126.354,134.761 123.733,133.249" fill="#AC262A"/>
    <path d="M134.751,123.597 C135.05,120.586 140.492,118.66 146.906,119.296 C153.32,119.931 158.277,122.887 157.979,125.899 C157.68,128.909 152.239,130.835 145.825,130.199 C139.411,129.564 134.453,126.608 134.751,123.597" fill="#AC262A"/>
    <path d="M140.298,120.65 C140.298,123.675 135.086,126.128 128.656,126.128 C122.227,126.128 117.015,123.675 117.015,120.65 C117.015,117.624 122.227,115.171 128.656,115.171 C135.086,115.171 140.298,117.624 140.298,120.65" fill="#D8262C"/>
    <path d="M139.534,120.236 C136.508,120.236 134.055,115.011 134.055,108.566 C134.055,102.12 136.508,96.895 139.534,96.895 C142.559,96.895 145.012,102.12 145.012,108.566 C145.012,115.011 142.559,120.236 139.534,120.236" fill="#AC262A"/>
    <path d="M138.909,121.564 C136.349,123.177 131.488,120.065 128.051,114.612 C124.614,109.159 123.903,103.431 126.462,101.818 C129.022,100.204 133.883,103.317 137.32,108.77 C140.757,114.222 141.468,119.95 138.909,121.564" fill="#D8262C"/>
    <path d="M138.398,119.577 C136.885,122.197 131.134,121.709 125.552,118.486 C119.97,115.263 116.671,110.527 118.184,107.906 C119.697,105.286 125.448,105.774 131.03,108.997 C136.612,112.22 139.911,116.957 138.398,119.577" fill="#E05829"/>
    <path d="M136.023,121.525 C133.727,119.555 135.268,113.992 139.464,109.1 C143.662,104.208 148.925,101.839 151.221,103.81 C153.518,105.78 151.977,111.343 147.781,116.235 C143.583,121.127 138.32,123.495 136.023,121.525" fill="#D8262C"/>
    <path d="M135.188,116.978 C137.616,115.171 142.704,117.897 146.552,123.067 C150.401,128.237 151.554,133.893 149.127,135.7 C146.7,137.507 141.613,134.78 137.764,129.61 C133.915,124.441 132.762,118.784 135.188,116.978" fill="#D8262C"/>
    <path d="M160.182,116.241 C160.724,119.218 156.023,122.567 149.682,123.721 C143.34,124.875 137.761,123.398 137.219,120.421 C136.677,117.444 141.378,114.095 147.719,112.941 C154.061,111.787 159.641,113.265 160.182,116.241" fill="#E05829"/>
    <path d="M134.228,141.163 C131.268,140.535 129.953,134.915 131.291,128.61 C132.628,122.305 136.112,117.702 139.072,118.33 C142.032,118.958 143.346,124.579 142.009,130.884 C140.671,137.189 137.188,141.791 134.228,141.163" fill="#E05829"/>
    <path d="M143.755,118.458 C143.755,122.139 140.771,125.124 137.089,125.124 C133.408,125.124 130.423,122.139 130.423,118.458 C130.423,114.776 133.408,111.792 137.089,111.792 C140.771,111.792 143.755,114.776 143.755,118.458" fill="#F1A944"/>
    <path d="M20.244,91.813 C17.624,90.299 18.112,84.548 21.335,78.966 C24.558,73.384 29.294,70.086 31.915,71.598 C34.535,73.111 34.046,78.863 30.824,84.445 C27.601,90.027 22.864,93.325 20.244,91.813" fill="#AC262A"/>
    <path d="M31.262,82.161 C31.561,79.15 37.002,77.224 43.416,77.86 C49.83,78.495 54.788,81.451 54.489,84.463 C54.191,87.473 48.75,89.399 42.335,88.763 C35.921,88.128 30.964,85.172 31.262,82.161" fill="#AC262A"/>
    <path d="M36.809,79.214 C36.809,82.239 31.597,84.692 25.167,84.692 C18.738,84.692 13.525,82.239 13.525,79.214 C13.525,76.188 18.738,73.735 25.167,73.735 C31.597,73.735 36.809,76.188 36.809,79.214" fill="#D8262C"/>
    <path d="M36.044,78.8 C33.019,78.8 30.566,73.575 30.566,67.13 C30.566,60.684 33.019,55.459 36.044,55.459 C39.07,55.459 41.523,60.684 41.523,67.13 C41.523,73.575 39.07,78.8 36.044,78.8" fill="#AC262A"/>
    <path d="M35.419,80.128 C32.86,81.741 27.999,78.629 24.562,73.176 C21.125,67.723 20.414,61.995 22.973,60.382 C25.533,58.768 30.394,61.881 33.831,67.333 C37.268,72.786 37.979,78.514 35.419,80.128" fill="#D8262C"/>
    <path d="M34.909,78.141 C33.396,80.761 27.645,80.273 22.063,77.05 C16.48,73.827 13.182,69.09 14.695,66.47 C16.208,63.85 21.959,64.338 27.541,67.561 C33.123,70.783 36.422,75.52 34.909,78.141" fill="#E05829"/>
    <path d="M32.534,80.089 C30.238,78.119 31.778,72.556 35.976,67.664 C40.172,62.772 45.436,60.403 47.732,62.374 C50.029,64.344 48.488,69.906 44.292,74.798 C40.095,79.691 34.831,82.059 32.534,80.089" fill="#D8262C"/>
    <path d="M31.699,75.542 C34.126,73.735 39.214,76.461 43.063,81.631 C46.912,86.801 48.065,92.457 45.638,94.264 C43.211,96.07 38.123,93.344 34.274,88.174 C30.425,83.004 29.272,77.348 31.699,75.542" fill="#D8262C"/>
    <path d="M56.693,74.805 C57.235,77.782 52.534,81.131 46.192,82.285 C39.851,83.439 34.271,81.962 33.729,78.985 C33.188,76.008 37.889,72.659 44.23,71.505 C50.572,70.351 56.151,71.828 56.693,74.805" fill="#E05829"/>
    <path d="M30.739,99.727 C27.779,99.099 26.464,93.479 27.801,87.174 C29.139,80.869 32.623,76.266 35.583,76.894 C38.542,77.522 39.857,83.143 38.52,89.447 C37.182,95.753 33.699,100.355 30.739,99.727" fill="#E05829"/>
    <path d="M40.266,77.022 C40.266,80.703 37.282,83.688 33.6,83.688 C29.919,83.688 26.934,80.703 26.934,77.022 C26.934,73.34 29.919,70.356 33.6,70.356 C37.282,70.356 40.266,73.34 40.266,77.022" fill="#F1A944"/>
  </g>
</svg>
