<?xml version="1.0" encoding="UTF-8" standalone="no"?>
<svg
   xmlns:dc="http://purl.org/dc/elements/1.1/"
   xmlns:cc="http://creativecommons.org/ns#"
   xmlns:rdf="http://www.w3.org/1999/02/22-rdf-syntax-ns#"
   xmlns:svg="http://www.w3.org/2000/svg"
   xmlns="http://www.w3.org/2000/svg"
   xmlns:sodipodi="http://sodipodi.sourceforge.net/DTD/sodipodi-0.dtd"
   xmlns:inkscape="http://www.inkscape.org/namespaces/inkscape"
   width="409pt"
   height="518pt"
   viewBox="0 0 409 518"
   version="1.1"
   id="svg12335"
   inkscape:version="0.91 r13725"
   sodipodi:docname="WalnutLores.svg">
  <metadata
     id="metadata12493">
    <rdf:RDF>
      <cc:Work
         rdf:about="">
        <dc:format>image/svg+xml</dc:format>
        <dc:type
           rdf:resource="http://purl.org/dc/dcmitype/StillImage" />
        <dc:title></dc:title>
      </cc:Work>
    </rdf:RDF>
  </metadata>
  <defs
     id="defs12491">
    <filter
       style="color-interpolation-filters:sRGB;"
       inkscape:label="Cross Blur"
       id="filter12573">
      <feColorMatrix
         in="SourceGraphic"
         values="1 0 0 0 0 0 1 0 0 0 0 0 1 0 0 -0.2125 -0.7154 -0.0721 1 0 "
         result="colormatrix"
         id="feColorMatrix12575" />
      <feComposite
         in="SourceGraphic"
         in2="colormatrix"
         operator="arithmetic"
         k2="1"
         k3="0"
         k4="0"
         result="composite"
         id="feComposite12577" />
      <feGaussianBlur
         stdDeviation="0.1 0.01"
         result="blur1"
         id="feGaussianBlur12579" />
      <feGaussianBlur
         in="composite"
         stdDeviation="0.01 0.1"
         result="blur2"
         id="feGaussianBlur12581" />
      <feBlend
         in="blur2"
         in2="blur1"
         mode="darken"
         result="blend"
         id="feBlend12583" />
    </filter>
  </defs>
  <sodipodi:namedview
     pagecolor="#ffffff"
     bordercolor="#666666"
     borderopacity="1"
     objecttolerance="10"
     gridtolerance="10"
     guidetolerance="10"
     inkscape:pageopacity="0"
     inkscape:pageshadow="2"
     inkscape:window-width="1600"
     inkscape:window-height="837"
     id="namedview12489"
     showgrid="false"
     inkscape:zoom="1.034749"
     inkscape:cx="255.625"
     inkscape:cy="323.75"
     inkscape:window-x="-8"
     inkscape:window-y="-8"
     inkscape:window-maximized="1"
     inkscape:current-layer="svg12335" />
  <g
     id="g12495"
     style="filter:url(#filter12573)">
    <path
       id="path12337"
       d=" M 207.14 0.00 L 207.99 0.00 C 211.46 3.89 214.61 8.05 217.79 12.18 L 217.23 11.75 C 215.17 10.25 213.12 8.17 210.43 8.08 C 211.27 58.29 212.38 108.62 213.89 158.80 C 212.23 185.48 215.27 212.22 213.36 238.93 C 219.45 239.25 213.19 225.23 218.77 225.19 C 219.03 241.81 215.43 258.36 217.04 274.97 C 210.28 276.21 217.60 261.91 212.47 264.88 C 210.60 275.41 212.03 286.14 210.97 296.74 C 215.83 294.88 212.03 283.34 215.34 278.47 C 216.41 297.65 217.43 317.16 215.09 336.25 C 210.11 334.83 214.65 324.89 210.53 325.49 C 211.06 332.90 206.51 342.78 213.66 347.74 C 206.83 346.49 209.97 356.98 210.51 361.36 C 210.69 357.65 215.71 351.62 214.59 360.73 C 216.15 408.26 214.25 455.83 216.07 503.32 C 214.30 506.24 216.04 509.73 219.71 508.76 C 220.33 481.02 213.69 452.74 221.18 425.28 C 228.49 424.23 227.75 438.02 233.78 427.87 C 217.75 411.45 225.98 386.67 232.06 367.46 C 233.19 367.25 235.44 366.84 236.57 366.63 C 224.68 354.47 221.12 330.01 236.73 319.13 C 239.09 308.41 226.15 303.87 227.90 293.80 C 229.58 272.28 227.51 250.64 227.21 229.21 C 221.30 213.61 224.89 196.60 225.79 181.93 C 231.44 169.63 242.02 157.27 239.52 142.88 C 242.65 140.28 245.89 141.98 245.56 146.04 C 245.15 162.80 232.78 179.14 238.08 195.88 C 245.19 189.56 244.55 174.67 255.17 171.08 C 262.35 171.87 250.91 178.99 257.05 181.91 C 262.38 184.21 256.05 194.31 263.64 191.10 C 259.49 198.12 255.27 207.96 246.51 209.19 C 244.47 213.96 245.20 219.77 250.96 220.87 C 255.40 216.54 261.11 215.39 267.30 215.79 C 273.21 213.25 274.80 204.20 281.80 203.19 C 280.96 208.89 275.41 212.42 274.04 217.81 C 277.07 221.40 280.46 225.19 284.88 227.00 C 289.98 225.63 285.03 217.95 290.15 216.08 C 298.12 210.55 306.74 218.45 314.89 215.28 C 317.48 219.37 317.70 224.84 323.80 221.26 C 331.18 234.39 334.31 250.22 347.43 259.59 C 352.46 266.17 364.91 270.08 362.51 280.38 C 357.32 296.25 358.79 314.48 348.49 328.42 C 348.97 332.03 345.53 339.06 349.59 341.10 C 365.47 321.22 358.37 294.06 371.72 273.80 C 372.40 274.73 372.40 274.73 371.72 273.80 C 368.31 268.81 375.11 262.22 380.36 263.47 C 378.11 258.12 368.25 262.87 366.19 259.45 C 370.18 255.95 370.61 250.53 370.39 245.37 C 369.70 235.13 378.99 226.44 375.74 216.20 C 380.41 205.02 372.63 191.03 379.19 180.70 C 381.16 183.47 387.33 190.59 388.92 184.26 C 382.88 176.75 374.33 169.01 364.35 167.25 C 374.83 192.23 367.13 219.13 359.87 243.85 C 350.96 239.02 357.14 248.40 351.99 251.95 C 339.49 245.67 335.57 230.90 331.53 218.69 C 328.89 212.32 341.77 215.77 338.01 207.81 C 340.73 200.77 329.32 207.94 331.19 202.04 C 333.99 200.95 339.86 202.76 339.77 199.08 C 333.86 179.89 342.90 158.64 334.20 139.85 C 331.42 138.10 327.68 136.14 324.43 137.72 C 323.84 150.09 328.41 163.63 322.95 175.42 C 322.17 171.36 316.62 167.70 318.57 174.19 C 326.20 178.93 324.02 192.71 315.84 195.90 C 315.87 185.69 316.51 175.34 314.62 165.36 C 320.43 154.79 309.22 144.25 315.49 133.81 C 314.79 128.75 309.67 124.63 311.39 118.79 C 313.16 111.82 300.85 115.79 302.28 109.40 C 301.92 103.83 311.58 112.61 309.46 106.73 C 305.28 102.65 305.71 97.18 305.05 91.95 C 298.44 84.48 306.54 70.38 296.66 65.80 C 296.21 61.90 296.31 57.94 296.27 54.01 C 303.01 61.97 309.72 70.63 313.77 80.32 C 316.74 98.90 325.95 116.37 324.78 135.49 C 327.66 134.79 332.62 136.13 333.54 132.42 C 333.67 117.94 325.87 102.67 326.20 89.17 C 345.92 104.00 341.74 132.30 346.04 153.87 C 361.97 174.78 336.23 203.56 352.07 223.00 C 353.68 206.48 357.86 190.33 358.51 173.57 C 345.01 149.12 354.11 117.99 344.05 94.92 C 358.29 114.19 369.11 138.52 375.29 162.63 C 372.96 167.75 381.69 177.67 379.47 166.36 C 375.36 135.60 354.31 110.33 345.23 81.11 C 352.17 89.62 367.48 100.22 366.09 113.85 C 368.89 116.31 372.64 115.47 375.91 116.49 C 370.76 117.94 371.87 129.18 377.22 124.35 C 382.59 120.12 372.92 134.38 379.74 129.66 C 386.05 130.17 374.53 135.18 379.75 137.95 C 389.69 137.00 386.34 150.60 390.75 156.20 C 400.02 187.37 406.34 219.00 409.00 251.38 L 409.00 258.01 C 408.06 267.04 406.86 276.26 409.00 285.23 L 409.00 290.94 C 403.83 336.16 391.69 381.50 367.32 420.34 C 345.99 460.90 303.37 485.85 259.83 495.95 C 245.14 497.39 234.45 507.88 224.77 518.00 L 223.01 518.00 C 216.40 508.78 198.59 508.51 191.98 518.00 L 191.11 518.00 C 175.90 500.13 147.44 511.90 129.69 498.29 C 115.06 488.02 97.17 481.63 85.91 467.10 C 83.75 463.53 79.40 460.61 79.28 456.13 C 86.03 456.28 88.43 466.86 96.32 465.11 C 101.71 463.08 109.18 461.48 110.88 469.00 C 98.81 472.78 114.69 480.68 120.88 476.60 C 119.82 483.96 126.30 488.69 133.33 487.36 C 142.38 493.12 156.72 502.57 166.14 491.90 C 170.15 501.40 178.68 493.84 185.71 497.59 C 187.29 486.57 183.94 472.42 190.75 461.81 C 194.20 458.48 197.48 467.22 199.37 462.18 C 196.18 466.70 202.51 478.01 201.70 466.55 C 199.39 423.51 207.81 380.99 204.72 338.01 C 206.85 238.58 211.56 139.87 205.60 40.48 C 197.89 37.02 200.70 46.16 202.04 50.36 C 196.77 47.63 198.62 40.09 199.97 35.27 C 209.77 37.48 203.00 21.38 206.42 16.22 C 207.64 12.28 206.29 3.30 200.98 8.58 C 198.46 10.07 193.63 18.06 191.18 13.15 C 196.83 9.19 201.91 4.49 207.14 0.00 M 260.29 236.17 C 257.89 238.12 259.55 246.24 263.51 244.55 C 268.97 243.27 263.25 250.37 263.07 252.97 C 265.58 255.07 269.15 251.92 271.88 253.96 C 283.82 257.76 275.81 274.03 280.69 282.47 C 279.75 288.95 285.34 293.58 284.79 299.82 C 275.88 299.34 271.36 290.40 267.44 284.09 C 258.22 286.07 254.96 299.72 264.01 304.06 C 254.43 303.01 257.56 316.10 264.81 309.97 C 265.17 314.59 272.93 317.23 273.03 324.06 C 279.24 325.56 285.99 328.72 290.10 334.14 C 296.92 330.37 288.74 324.10 288.30 319.15 C 294.32 309.84 304.60 305.78 310.19 296.12 C 322.17 287.09 295.72 284.69 299.79 275.23 C 307.37 286.68 324.03 287.85 336.89 291.81 C 344.82 288.29 347.79 278.36 348.76 270.41 C 340.27 260.25 328.86 252.56 323.71 240.05 C 315.85 233.33 321.59 249.38 312.39 244.34 C 303.20 242.18 299.18 257.76 289.92 251.24 C 281.09 242.66 267.79 242.86 260.29 236.17 M 353.27 271.17 C 349.50 285.99 359.26 317.95 335.29 315.13 C 331.83 322.98 317.84 318.97 317.13 326.73 C 330.02 337.76 337.11 316.01 349.55 321.44 C 357.41 310.69 352.62 294.64 359.63 282.90 C 357.75 278.60 360.71 269.34 353.27 271.17 M 244.29 313.56 C 244.24 322.27 233.42 322.47 230.72 329.75 C 225.60 340.67 228.56 353.87 236.71 362.42 C 238.48 367.63 249.13 360.68 247.82 367.59 C 245.49 370.07 241.26 370.62 239.97 373.63 C 236.33 366.32 234.07 376.45 229.63 379.68 C 227.87 394.55 219.10 417.82 238.35 424.46 C 242.23 421.13 245.97 412.15 251.94 410.22 C 250.25 416.65 246.11 422.57 242.11 428.20 C 256.35 426.08 258.67 403.40 274.78 407.05 C 273.38 410.81 269.67 412.88 266.24 410.17 C 257.57 420.09 248.23 432.84 233.94 432.59 C 232.43 436.87 228.18 441.58 229.63 446.21 C 235.12 448.71 238.24 438.21 242.20 436.36 C 251.25 438.76 255.08 426.65 264.01 426.95 C 277.05 424.14 284.71 412.30 294.55 404.44 C 302.63 400.69 312.78 393.47 309.49 383.19 C 308.43 370.10 291.89 374.05 283.14 375.08 C 289.93 367.84 298.38 373.37 306.17 370.20 C 309.91 365.31 298.35 366.50 300.69 362.65 C 303.76 358.26 308.03 364.47 310.29 361.56 C 313.18 367.30 308.44 377.70 312.98 384.97 C 319.14 372.19 312.87 352.55 319.95 339.00 C 333.45 348.81 338.16 334.87 344.89 325.91 C 336.39 320.76 330.63 340.21 321.08 331.97 C 313.74 332.23 300.12 309.89 303.70 328.00 C 300.33 337.23 291.86 349.46 281.35 343.68 C 276.04 353.79 267.51 334.31 268.77 345.16 C 273.52 350.15 262.47 346.77 266.04 350.93 C 267.95 353.30 270.90 362.76 273.49 356.48 C 277.58 351.34 277.52 366.40 283.11 362.28 C 289.65 355.03 300.72 355.33 307.95 348.81 C 311.33 344.04 303.05 337.11 307.97 333.64 C 312.09 341.75 314.66 351.36 310.45 360.01 C 305.33 351.49 295.49 359.56 288.15 359.74 C 287.81 364.92 281.64 366.05 277.43 365.55 C 270.50 376.76 256.93 359.62 254.07 353.47 C 245.92 355.38 257.37 337.72 247.30 340.82 C 246.74 336.81 253.14 337.41 251.98 331.89 C 262.54 336.09 275.39 343.11 285.05 337.90 C 282.52 334.61 270.34 335.56 279.61 329.57 C 277.17 331.06 264.41 326.62 269.82 320.07 C 261.66 321.52 254.97 309.85 244.29 313.56 M 199.90 472.85 C 200.07 476.74 195.57 485.57 199.71 486.95 C 200.55 482.64 203.77 476.03 199.90 472.85 Z"
       opacity="1.00"
       stroke-width="0.09375"
       stroke="#432200"
       fill="#432200" />
    <path
       id="path12339"
       d=" M 200.98 8.58 C 206.29 3.30 207.64 12.28 206.42 16.22 C 203.00 21.38 209.77 37.48 199.97 35.27 C 198.62 40.09 196.77 47.63 202.04 50.36 C 200.70 46.16 197.89 37.02 205.60 40.48 C 211.56 139.87 206.85 238.58 204.72 338.01 C 207.81 380.99 199.39 423.51 201.70 466.55 C 202.51 478.01 196.18 466.70 199.37 462.18 C 198.69 456.23 202.80 444.56 196.00 441.86 C 195.90 447.74 195.61 456.01 191.14 446.71 C 190.76 439.36 195.99 432.74 192.56 424.34 C 192.87 411.42 195.69 394.93 184.12 385.99 C 186.50 383.32 187.06 380.10 185.26 376.91 C 190.08 379.10 194.57 382.25 199.90 383.12 C 196.79 374.94 182.17 377.84 182.51 367.12 C 187.80 359.88 180.76 353.32 180.05 346.07 C 185.19 347.20 190.06 349.72 194.01 353.18 C 196.76 356.77 193.97 365.17 200.60 363.89 C 199.36 352.79 190.47 343.66 180.36 339.70 C 182.10 328.25 179.35 316.44 181.38 304.69 C 189.63 299.60 197.38 284.85 190.75 277.21 C 187.83 281.47 190.81 292.11 184.88 297.17 C 180.77 293.92 183.60 285.24 177.98 284.01 C 181.88 294.73 177.54 305.65 170.77 313.73 C 166.87 313.43 168.50 308.87 170.63 307.00 C 163.89 287.21 163.96 263.19 174.32 245.30 C 181.64 240.32 177.78 257.97 183.76 257.84 C 187.33 245.92 186.26 221.10 170.39 217.24 C 151.25 224.43 155.89 249.20 149.85 264.05 C 148.21 256.69 150.58 249.52 152.91 242.63 C 152.72 230.37 159.47 213.08 174.58 215.19 C 185.40 217.44 182.11 234.42 190.08 239.00 C 193.00 226.12 185.94 207.21 170.47 208.26 C 157.39 212.27 145.16 222.61 143.87 237.03 C 141.47 256.82 142.95 276.78 146.38 296.48 C 147.01 299.35 152.63 297.27 150.36 294.65 C 145.84 284.92 148.11 274.14 149.85 264.05 C 152.03 271.73 147.57 280.70 153.13 287.15 C 158.20 296.33 153.48 307.46 160.72 315.33 C 162.92 322.70 172.05 326.22 171.61 334.59 C 163.67 334.37 163.40 316.56 155.22 321.32 C 150.73 316.05 141.56 323.47 144.50 312.64 C 147.76 282.08 131.59 249.55 147.53 220.45 C 150.23 217.48 147.23 214.18 145.02 212.04 C 138.70 219.63 140.81 230.29 133.11 236.99 C 127.96 232.10 115.48 232.46 122.71 241.03 C 114.48 250.98 108.20 260.59 105.82 273.74 C 106.09 277.76 96.73 276.36 100.73 271.21 C 98.96 257.65 101.95 243.74 109.10 232.13 C 111.76 229.75 115.13 233.32 117.89 234.06 C 114.59 227.25 117.04 220.60 119.69 214.18 C 116.55 209.98 111.04 211.31 108.08 214.94 C 107.55 218.35 108.36 224.54 103.08 222.47 C 102.56 232.24 95.71 240.03 94.47 249.60 C 92.52 258.92 95.35 269.50 89.87 277.90 C 87.62 275.21 85.72 270.83 84.37 276.67 C 63.25 261.30 75.39 230.50 83.91 210.78 C 58.86 219.28 72.96 253.75 52.75 266.71 C 51.30 249.64 45.54 230.22 47.94 211.97 C 34.16 225.51 24.37 244.05 12.95 259.07 C 9.32 241.26 18.92 221.77 15.82 204.09 C 13.15 220.00 5.85 239.29 7.79 256.66 C 6.75 258.62 6.24 263.67 3.18 261.09 C 3.81 242.19 2.63 223.06 6.08 204.39 C 14.69 204.66 11.34 194.41 10.92 188.75 C 17.91 174.96 28.91 161.91 26.51 144.83 C 31.37 129.08 39.11 113.74 50.89 101.96 C 55.33 97.67 60.48 83.66 68.06 90.82 C 71.68 86.59 74.30 79.29 71.05 74.33 C 67.33 74.85 62.65 77.11 60.58 72.73 C 60.95 71.53 61.32 70.34 61.75 69.17 C 67.25 70.83 75.21 60.09 80.58 56.48 C 85.73 59.42 79.58 50.05 84.58 55.31 C 88.55 52.18 93.66 46.93 98.83 43.86 C 99.05 43.60 99.49 43.07 99.71 42.81 C 101.26 41.86 102.76 40.81 104.21 39.71 C 105.39 40.41 106.30 40.15 106.94 38.93 C 107.24 38.73 107.85 38.34 108.15 38.14 L 108.76 37.78 C 109.05 37.61 109.63 37.25 109.92 37.07 C 110.22 36.89 110.83 36.53 111.13 36.35 L 111.80 35.96 C 112.31 35.79 113.33 35.47 113.84 35.30 C 122.14 27.76 135.58 32.80 141.18 23.00 C 142.29 22.82 143.40 22.64 144.50 22.44 C 137.38 37.12 178.27 21.73 169.87 19.55 C 171.45 19.41 174.61 19.15 176.19 19.01 C 180.20 30.64 161.17 27.12 156.83 34.81 C 153.12 40.43 138.44 45.52 146.09 52.78 C 160.01 46.44 170.80 34.56 180.62 22.81 C 181.81 20.88 188.44 16.15 184.90 23.43 C 174.90 44.06 174.90 68.21 175.68 90.83 C 190.11 92.39 180.08 68.34 184.01 60.66 C 188.96 47.31 184.36 29.28 197.38 19.24 C 198.95 16.58 204.93 11.35 200.98 8.58 M 204.27 10.27 C 204.77 10.78 204.77 10.78 204.27 10.27 M 196.14 32.24 C 193.20 54.57 191.51 77.86 196.43 99.78 C 200.01 120.34 198.01 141.55 200.92 162.14 C 207.19 161.65 198.20 153.29 201.99 148.30 C 202.25 115.34 194.96 82.55 198.34 49.43 C 193.39 45.03 202.16 33.48 196.14 32.24 M 112.41 40.46 C 101.26 43.37 93.55 52.17 87.12 61.12 C 82.72 67.03 75.03 73.98 78.78 81.72 C 97.57 67.24 122.37 55.47 136.91 35.09 C 128.56 29.64 119.33 35.64 112.41 40.46 M 142.68 41.70 C 137.47 44.76 133.39 49.94 129.40 54.36 C 133.48 56.07 146.45 44.53 142.68 41.70 M 165.56 50.39 C 158.37 57.15 149.24 60.35 139.87 62.71 C 133.33 68.77 131.67 79.45 132.91 87.92 C 141.58 75.86 159.86 70.83 168.15 55.02 C 170.23 53.20 168.35 48.64 165.56 50.39 M 87.12 61.12 C 86.55 60.56 86.55 60.56 87.12 61.12 M 123.63 62.36 C 116.16 65.96 109.11 70.54 101.20 73.26 C 94.69 83.51 111.68 95.84 120.32 87.40 C 123.51 85.04 118.98 77.81 123.93 79.43 C 124.54 75.51 135.49 61.21 123.63 62.36 M 167.44 66.61 C 158.34 78.71 145.94 87.74 136.07 99.09 C 132.97 102.24 120.06 107.12 128.67 109.66 C 123.18 113.03 117.22 119.04 119.36 126.22 C 123.75 128.17 130.54 131.12 133.31 125.22 C 134.48 117.93 150.36 120.11 146.75 112.25 C 141.32 116.86 133.87 116.16 129.97 110.13 C 144.96 110.00 155.00 96.79 167.48 90.23 C 168.36 84.66 170.18 68.23 167.44 66.61 M 90.41 81.26 C 79.39 91.58 67.24 101.64 64.26 116.96 C 78.35 115.83 87.18 101.55 99.35 98.25 C 104.52 92.32 96.07 82.52 90.41 81.26 M 65.37 94.38 C 57.85 105.90 45.34 115.09 40.92 128.84 C 28.28 144.36 35.05 167.83 23.18 182.70 C 17.60 180.23 18.71 188.65 17.25 192.27 C 37.67 181.15 39.63 156.45 49.20 137.26 C 54.66 122.80 60.84 106.10 65.37 94.38 M 172.50 100.38 C 164.49 112.07 153.90 122.67 142.71 127.79 C 135.20 136.20 125.25 148.64 133.75 160.46 C 140.91 162.97 151.15 161.97 155.50 155.91 C 152.78 151.52 155.96 146.31 159.67 144.04 C 154.70 139.60 163.81 137.57 162.77 133.40 C 158.10 129.35 149.51 140.70 147.06 132.41 C 150.86 131.10 155.99 130.94 159.87 127.99 C 171.72 128.26 176.27 105.72 172.50 100.38 M 112.45 101.51 C 97.91 111.62 76.60 119.07 75.99 140.05 C 70.73 149.52 91.76 150.75 84.21 142.01 C 96.14 138.27 107.27 126.50 111.14 114.51 C 116.21 112.55 121.58 100.14 112.45 101.51 M 186.49 102.32 C 176.11 114.96 182.22 137.53 173.91 152.78 C 164.68 164.49 185.20 168.14 186.09 179.90 C 191.77 177.33 184.99 170.46 189.55 166.16 C 182.88 158.99 185.30 151.05 185.31 142.15 C 192.82 137.24 185.58 126.19 190.68 118.72 C 188.52 113.50 194.71 101.46 186.49 102.32 M 67.36 128.31 C 63.32 129.43 58.11 130.71 57.89 136.00 C 53.81 148.38 50.09 160.88 46.41 173.38 C 45.14 175.91 48.12 178.91 50.65 177.77 C 57.75 162.46 71.44 144.33 67.36 128.31 M 113.27 135.33 C 106.98 137.22 108.01 145.80 103.79 149.80 C 96.32 154.32 87.68 156.97 81.19 163.03 C 82.79 168.60 84.59 174.12 86.04 179.73 C 96.54 169.60 105.90 156.47 119.18 148.20 C 126.14 143.77 121.58 133.48 113.27 135.33 M 124.36 161.31 C 113.03 167.33 99.66 174.63 96.04 187.80 C 108.07 186.58 117.25 180.12 128.39 174.42 C 134.68 171.12 131.70 159.96 124.36 161.31 M 140.17 166.14 C 135.89 178.05 139.70 189.46 151.62 192.80 C 153.40 187.82 161.14 185.51 157.72 180.50 C 163.58 168.77 146.68 170.11 140.17 166.14 M 71.40 168.25 C 63.65 178.28 56.86 186.48 53.16 198.89 C 70.54 209.86 85.24 174.97 71.40 168.25 M 39.49 185.41 C 29.00 193.25 9.87 204.19 19.35 219.86 C 25.20 211.48 33.91 205.84 37.31 194.14 C 44.95 198.24 43.07 185.89 39.49 185.41 M 130.51 186.53 C 117.71 191.91 104.57 195.15 92.13 201.29 C 92.31 205.90 96.16 209.73 99.19 212.97 C 101.57 205.57 113.64 208.80 117.53 201.48 C 122.31 207.74 133.14 188.98 130.51 186.53 M 135.36 196.22 C 127.25 204.40 123.73 216.73 117.14 226.31 C 116.66 233.41 124.16 228.64 127.98 229.59 C 136.47 221.76 152.69 204.37 135.36 196.22 M 51.93 207.95 C 47.53 221.67 47.91 240.10 53.98 251.92 C 59.95 238.55 65.76 225.09 69.90 211.15 C 63.77 212.06 57.22 211.39 51.93 207.95 M 86.63 209.63 C 79.97 225.22 71.08 243.02 76.98 260.03 C 81.13 259.29 79.54 251.62 84.78 251.76 C 96.11 242.23 101.29 216.29 86.63 209.63 M 18.17 221.17 C 17.24 225.16 22.17 220.24 18.17 221.17 Z"
       opacity="1.00"
       stroke-width="0.09375"
       stroke="#783d00"
       fill="#783d00" />
    <path
       id="path12341"
       d=" M 210.43 8.08 C 213.12 8.17 215.17 10.25 217.23 11.75 C 221.52 17.27 225.95 25.45 234.19 20.01 L 235.01 20.13 C 252.36 27.04 271.83 26.92 288.83 35.03 C 291.69 36.94 285.96 43.44 290.74 41.59 C 301.70 34.78 309.79 49.79 319.42 53.52 C 325.75 62.52 309.04 46.87 306.67 54.97 C 301.84 52.53 302.17 46.95 294.52 50.29 C 293.33 41.76 283.66 45.90 281.01 40.35 C 285.53 42.26 288.16 36.50 282.58 36.49 C 271.59 29.12 252.44 24.93 244.40 39.55 C 249.22 41.63 245.76 49.96 251.82 49.67 C 255.19 51.03 249.07 55.11 250.88 56.17 C 263.12 56.34 258.96 72.29 267.01 78.15 C 271.49 81.12 266.90 90.62 262.83 83.37 C 249.23 72.22 247.03 54.54 234.73 43.25 C 231.20 36.63 227.42 22.83 217.19 28.25 C 213.16 34.59 218.67 28.22 221.94 29.49 C 220.68 43.85 221.51 58.25 221.38 72.63 C 222.16 79.99 227.40 88.16 224.02 95.17 C 222.54 92.67 222.95 87.89 219.13 88.15 C 221.43 107.46 220.95 126.99 218.78 146.30 C 226.55 145.82 223.67 154.89 217.64 155.54 C 219.30 160.57 214.83 165.89 213.89 158.80 C 212.38 108.62 211.27 58.29 210.43 8.08 Z"
       opacity="1.00"
       stroke-width="0.09375"
       stroke="#b97d0d"
       fill="#b97d0d" />
    <path
       id="path12343"
       d=" M 191.18 13.15 C 193.63 18.06 198.46 10.07 200.98 8.58 C 204.93 11.35 198.95 16.58 197.38 19.24 C 184.36 29.28 188.96 47.31 184.01 60.66 C 180.08 68.34 190.11 92.39 175.68 90.83 C 174.90 68.21 174.90 44.06 184.90 23.43 C 188.44 16.15 181.81 20.88 180.62 22.81 C 170.80 34.56 160.01 46.44 146.09 52.78 C 138.44 45.52 153.12 40.43 156.83 34.81 C 161.17 27.12 180.20 30.64 176.19 19.01 C 180.65 17.91 186.78 19.06 189.34 14.45 C 189.80 14.13 190.72 13.48 191.18 13.15 Z"
       opacity="1.00"
       stroke-width="0.09375"
       stroke="#c58009"
       fill="#c58009" />
    <path
       id="path12345"
       d=" M 204.27 10.27 C 204.77 10.78 204.77 10.78 204.27 10.27 Z"
       opacity="1.00"
       stroke-width="0.09375"
       stroke="#9b6b01"
       fill="#9b6b01" />
    <path
       id="path12347"
       d=" M 217.23 11.75 L 217.79 12.18 C 222.68 15.79 228.48 18.02 234.19 20.01 C 225.95 25.45 221.52 17.27 217.23 11.75 Z"
       opacity="1.00"
       stroke-width="0.09375"
       stroke="#603f06"
       fill="#603f06" />
    <path
       id="path12349"
       d=" M 140.35 19.38 C 156.48 15.30 173.35 19.02 189.34 14.45 C 186.78 19.06 180.65 17.91 176.19 19.01 C 174.61 19.15 171.45 19.41 169.87 19.55 C 161.35 19.78 152.80 20.46 144.50 22.44 C 143.40 22.64 142.29 22.82 141.18 23.00 C 110.96 28.48 80.97 44.82 61.75 69.17 C 61.32 70.34 60.95 71.53 60.58 72.73 C 58.85 74.04 57.14 75.39 55.69 77.00 C 46.28 86.47 41.59 99.24 35.70 110.94 C 25.35 139.82 11.21 167.65 6.08 198.14 C 8.96 195.98 9.31 191.83 10.92 188.75 C 11.34 194.41 14.69 204.66 6.08 204.39 C 2.63 223.06 3.81 242.19 3.18 261.09 C 6.24 263.67 6.75 258.62 7.79 256.66 C 5.68 270.41 17.51 281.96 13.20 296.29 C 9.50 304.14 17.49 312.92 12.39 320.17 C 14.71 326.28 19.23 331.47 20.72 337.97 C 5.99 336.07 11.38 316.39 6.66 306.51 C 2.72 299.80 5.39 311.37 5.89 314.29 C 1.11 304.59 4.53 293.05 0.00 283.15 L 0.00 240.77 C 1.44 220.13 3.10 199.32 6.69 178.77 C 21.98 140.12 33.61 98.91 59.79 65.79 C 81.59 43.43 109.39 25.68 140.35 19.38 Z"
       opacity="0.98"
       stroke-width="0.09375"
       stroke="#574a07"
       fill="#574a07" />
    <path
       id="path12351"
       d=" M 144.50 22.44 C 152.80 20.46 161.35 19.78 169.87 19.55 C 178.27 21.73 137.38 37.12 144.50 22.44 Z"
       opacity="1.00"
       stroke-width="0.09375"
       stroke="#dca823"
       fill="#dca823" />
    <path
       id="path12353"
       d=" M 235.01 20.13 C 310.07 23.19 378.28 81.96 390.75 156.20 C 386.34 150.60 389.69 137.00 379.75 137.95 C 374.53 135.18 386.05 130.17 379.74 129.66 C 372.92 134.38 382.59 120.12 377.22 124.35 C 371.87 129.18 370.76 117.94 375.91 116.49 C 372.64 115.47 368.89 116.31 366.09 113.85 C 367.48 100.22 352.17 89.62 345.23 81.11 C 354.31 110.33 375.36 135.60 379.47 166.36 C 381.69 177.67 372.96 167.75 375.29 162.63 C 369.11 138.52 358.29 114.19 344.05 94.92 C 354.11 117.99 345.01 149.12 358.51 173.57 C 357.86 190.33 353.68 206.48 352.07 223.00 C 336.23 203.56 361.97 174.78 346.04 153.87 C 341.74 132.30 345.92 104.00 326.20 89.17 C 325.87 102.67 333.67 117.94 333.54 132.42 C 332.62 136.13 327.66 134.79 324.78 135.49 C 325.95 116.37 316.74 98.90 313.77 80.32 C 309.72 70.63 303.01 61.97 296.27 54.01 C 296.31 57.94 296.21 61.90 296.66 65.80 C 306.54 70.38 298.44 84.48 305.05 91.95 C 305.71 97.18 305.28 102.65 309.46 106.73 C 311.58 112.61 301.92 103.83 302.28 109.40 C 300.85 115.79 313.16 111.82 311.39 118.79 C 309.67 124.63 314.79 128.75 315.49 133.81 C 309.22 144.25 320.43 154.79 314.62 165.36 C 316.51 175.34 315.87 185.69 315.84 195.90 C 324.02 192.71 326.20 178.93 318.57 174.19 C 316.62 167.70 322.17 171.36 322.95 175.42 C 328.41 163.63 323.84 150.09 324.43 137.72 C 327.68 136.14 331.42 138.10 334.20 139.85 C 342.90 158.64 333.86 179.89 339.77 199.08 C 339.86 202.76 333.99 200.95 331.19 202.04 C 329.32 207.94 340.73 200.77 338.01 207.81 C 341.77 215.77 328.89 212.32 331.53 218.69 C 335.57 230.90 339.49 245.67 351.99 251.95 C 357.14 248.40 350.96 239.02 359.87 243.85 C 367.13 219.13 374.83 192.23 364.35 167.25 C 374.33 169.01 382.88 176.75 388.92 184.26 C 387.33 190.59 381.16 183.47 379.19 180.70 C 372.63 191.03 380.41 205.02 375.74 216.20 C 378.99 226.44 369.70 235.13 370.39 245.37 C 370.61 250.53 370.18 255.95 366.19 259.45 C 368.25 262.87 378.11 258.12 380.36 263.47 C 375.11 262.22 368.31 268.81 371.72 273.80 C 358.37 294.06 365.47 321.22 349.59 341.10 C 345.53 339.06 348.97 332.03 348.49 328.42 C 358.79 314.48 357.32 296.25 362.51 280.38 C 364.91 270.08 352.46 266.17 347.43 259.59 C 334.31 250.22 331.18 234.39 323.80 221.26 C 317.70 224.84 317.48 219.37 314.89 215.28 C 306.74 218.45 298.12 210.55 290.15 216.08 C 285.03 217.95 289.98 225.63 284.88 227.00 C 280.46 225.19 277.07 221.40 274.04 217.81 C 275.41 212.42 280.96 208.89 281.80 203.19 C 274.80 204.20 273.21 213.25 267.30 215.79 C 261.11 215.39 255.40 216.54 250.96 220.87 C 245.20 219.77 244.47 213.96 246.51 209.19 C 255.27 207.96 259.49 198.12 263.64 191.10 C 256.05 194.31 262.38 184.21 257.05 181.91 C 250.91 178.99 262.35 171.87 255.17 171.08 C 244.55 174.67 245.19 189.56 238.08 195.88 C 232.78 179.14 245.15 162.80 245.56 146.04 C 245.89 141.98 242.65 140.28 239.52 142.88 C 242.02 157.27 231.44 169.63 225.79 181.93 C 224.89 196.60 221.30 213.61 227.21 229.21 C 227.51 250.64 229.58 272.28 227.90 293.80 C 226.15 303.87 239.09 308.41 236.73 319.13 C 221.12 330.01 224.68 354.47 236.57 366.63 C 235.44 366.84 233.19 367.25 232.06 367.46 C 225.98 386.67 217.75 411.45 233.78 427.87 C 227.75 438.02 228.49 424.23 221.18 425.28 C 213.69 452.74 220.33 481.02 219.71 508.76 C 216.04 509.73 214.30 506.24 216.07 503.32 C 214.25 455.83 216.15 408.26 214.59 360.73 C 215.71 351.62 210.69 357.65 210.51 361.36 C 209.97 356.98 206.83 346.49 213.66 347.74 C 206.51 342.78 211.06 332.90 210.53 325.49 C 214.65 324.89 210.11 334.83 215.09 336.25 C 217.43 317.16 216.41 297.65 215.34 278.47 C 212.03 283.34 215.83 294.88 210.97 296.74 C 212.03 286.14 210.60 275.41 212.47 264.88 C 217.60 261.91 210.28 276.21 217.04 274.97 C 215.43 258.36 219.03 241.81 218.77 225.19 C 213.19 225.23 219.45 239.25 213.36 238.93 C 215.27 212.22 212.23 185.48 213.89 158.80 C 214.83 165.89 219.30 160.57 217.64 155.54 C 223.67 154.89 226.55 145.82 218.78 146.30 C 220.95 126.99 221.43 107.46 219.13 88.15 C 222.95 87.89 222.54 92.67 224.02 95.17 C 227.40 88.16 222.16 79.99 221.38 72.63 C 221.51 58.25 220.68 43.85 221.94 29.49 C 218.67 28.22 213.16 34.59 217.19 28.25 C 227.42 22.83 231.20 36.63 234.73 43.25 C 247.03 54.54 249.23 72.22 262.83 83.37 C 266.90 90.62 271.49 81.12 267.01 78.15 C 258.96 72.29 263.12 56.34 250.88 56.17 C 249.07 55.11 255.19 51.03 251.82 49.67 C 245.76 49.96 249.22 41.63 244.40 39.55 C 252.44 24.93 271.59 29.12 282.58 36.49 C 288.16 36.50 285.53 42.26 281.01 40.35 C 283.66 45.90 293.33 41.76 294.52 50.29 C 302.17 46.95 301.84 52.53 306.67 54.97 C 305.59 58.07 306.96 67.92 311.87 63.68 C 311.91 60.15 310.26 56.16 306.67 54.97 C 309.04 46.87 325.75 62.52 319.42 53.52 C 309.79 49.79 301.70 34.78 290.74 41.59 C 285.96 43.44 291.69 36.94 288.83 35.03 C 271.83 26.92 252.36 27.04 235.01 20.13 M 259.43 34.41 C 257.60 35.38 254.87 35.97 254.03 37.96 C 267.92 54.00 283.42 73.29 278.47 96.26 C 278.48 101.31 273.71 106.29 276.00 111.08 C 284.88 96.26 287.85 76.59 280.58 60.32 C 278.61 49.12 272.61 34.88 259.43 34.41 M 228.39 48.90 C 226.31 75.42 237.60 103.17 252.38 125.35 C 252.13 118.66 257.22 105.89 248.02 103.89 C 253.81 91.94 236.81 63.61 228.39 48.90 M 290.85 61.79 C 292.58 75.71 289.72 89.75 288.12 103.76 C 290.01 111.53 300.81 101.36 297.69 96.08 C 294.85 84.71 300.23 69.75 290.85 61.79 M 286.15 111.27 C 286.24 119.45 294.12 124.36 295.99 132.04 C 292.93 129.81 288.67 118.41 286.08 126.14 C 280.09 134.20 299.60 136.13 288.92 140.83 C 294.22 157.02 299.05 173.68 301.73 191.01 C 303.72 198.42 292.28 188.11 292.11 193.62 C 298.52 198.36 306.14 201.46 311.35 207.79 C 315.51 207.72 313.16 202.09 312.29 199.67 C 313.36 181.41 309.51 163.33 302.57 146.47 C 310.84 146.33 303.08 134.27 302.45 129.31 C 300.02 122.74 296.45 104.30 286.15 111.27 M 273.22 121.23 C 271.03 138.21 270.43 156.04 278.16 171.78 C 280.62 173.65 289.40 180.15 285.57 173.52 C 287.34 168.35 278.41 164.78 284.42 160.69 C 281.94 148.82 286.76 126.17 273.22 121.23 M 222.28 155.05 C 216.38 158.94 229.47 155.54 222.28 155.05 Z"
       opacity="1.00"
       stroke-width="0.09375"
       stroke="#7f4201"
       fill="#7f4201" />
    <path
       id="path12355"
       d=" M 61.75 69.17 C 80.97 44.82 110.96 28.48 141.18 23.00 C 135.58 32.80 122.14 27.76 113.84 35.30 C 113.33 35.47 112.31 35.79 111.80 35.96 L 111.13 36.35 C 110.83 36.53 110.22 36.89 109.92 37.07 C 109.63 37.25 109.05 37.61 108.76 37.78 L 108.15 38.14 C 107.85 38.34 107.24 38.73 106.94 38.93 C 105.75 38.23 104.84 38.49 104.21 39.71 C 102.53 40.47 100.97 41.45 99.71 42.81 C 99.49 43.07 99.05 43.60 98.83 43.86 C 93.66 46.93 88.55 52.18 84.58 55.31 C 79.58 50.05 85.73 59.42 80.58 56.48 C 75.21 60.09 67.25 70.83 61.75 69.17 M 135.27 26.27 C 135.77 26.77 135.77 26.77 135.27 26.27 Z"
       opacity="1.00"
       stroke-width="0.09375"
       stroke="#e6c650"
       fill="#e6c650" />
    <path
       id="path12357"
       d=" M 135.27 26.27 C 135.77 26.77 135.77 26.77 135.27 26.27 Z"
       opacity="1.00"
       stroke-width="0.09375"
       stroke="#bd8300"
       fill="#bd8300" />
    <path
       id="path12359"
       d=" M 196.14 32.24 C 202.16 33.48 193.39 45.03 198.34 49.43 C 194.96 82.55 202.25 115.34 201.99 148.30 C 198.20 153.29 207.19 161.65 200.92 162.14 C 198.01 141.55 200.01 120.34 196.43 99.78 C 191.51 77.86 193.20 54.57 196.14 32.24 Z"
       opacity="1.00"
       stroke-width="0.09375"
       stroke="#ba7804"
       fill="#ba7804" />
    <path
       id="path12361"
       d=" M 112.41 40.46 C 119.33 35.64 128.56 29.64 136.91 35.09 C 122.37 55.47 97.57 67.24 78.78 81.72 C 75.03 73.98 82.72 67.03 87.12 61.12 C 93.55 52.17 101.26 43.37 112.41 40.46 Z"
       opacity="1.00"
       stroke-width="0.09375"
       stroke="#c07804"
       fill="#c07804" />
    <path
       id="path12363"
       d=" M 259.43 34.41 C 272.61 34.88 278.61 49.12 280.58 60.32 C 287.85 76.59 284.88 96.26 276.00 111.08 C 273.71 106.29 278.48 101.31 278.47 96.26 C 283.42 73.29 267.92 54.00 254.03 37.96 C 254.87 35.97 257.60 35.38 259.43 34.41 M 277.17 58.17 C 276.15 62.80 281.80 57.15 277.17 58.17 Z"
       opacity="1.00"
       stroke-width="0.09375"
       stroke="#ae6e01"
       fill="#ae6e01" />
    <path
       id="path12365"
       d=" M 111.80 35.96 C 112.31 35.79 113.33 35.47 113.84 35.30 C 113.33 35.47 112.31 35.79 111.80 35.96 Z"
       opacity="1.00"
       stroke-width="0.09375"
       stroke="#a68619"
       fill="#a68619" />
    <path
       id="path12367"
       d=" M 109.92 37.07 C 110.22 36.89 110.83 36.53 111.13 36.35 C 110.83 36.53 110.22 36.89 109.92 37.07 Z"
       opacity="1.00"
       stroke-width="0.09375"
       stroke="#a58b0c"
       fill="#a58b0c" />
    <path
       id="path12369"
       d=" M 108.76 37.78 C 109.05 37.61 109.63 37.25 109.92 37.07 C 109.63 37.25 109.05 37.61 108.76 37.78 Z"
       opacity="1.00"
       stroke-width="0.09375"
       stroke="#9d840d"
       fill="#9d840d" />
    <path
       id="path12371"
       d=" M 106.94 38.93 C 107.24 38.73 107.85 38.34 108.15 38.14 C 107.85 38.34 107.24 38.73 106.94 38.93 Z"
       opacity="1.00"
       stroke-width="0.09375"
       stroke="#b89a2c"
       fill="#b89a2c" />
    <path
       id="path12373"
       d=" M 104.21 39.71 C 104.84 38.49 105.75 38.23 106.94 38.93 C 106.30 40.15 105.39 40.41 104.21 39.71 Z"
       opacity="1.00"
       stroke-width="0.09375"
       stroke="#a18222"
       fill="#a18222" />
    <path
       id="path12375"
       d=" M 99.71 42.81 C 100.97 41.45 102.53 40.47 104.21 39.71 C 102.76 40.81 101.26 41.86 99.71 42.81 Z"
       opacity="1.00"
       stroke-width="0.09375"
       stroke="#c08a00"
       fill="#c08a00" />
    <path
       id="path12377"
       d=" M 142.68 41.70 C 146.45 44.53 133.48 56.07 129.40 54.36 C 133.39 49.94 137.47 44.76 142.68 41.70 Z"
       opacity="1.00"
       stroke-width="0.09375"
       stroke="#b68409"
       fill="#b68409" />
    <path
       id="path12379"
       d=" M 98.83 43.86 C 99.05 43.60 99.49 43.07 99.71 42.81 C 99.49 43.07 99.05 43.60 98.83 43.86 Z"
       opacity="1.00"
       stroke-width="0.09375"
       stroke="#aa8011"
       fill="#aa8011" />
    <path
       id="path12381"
       d=" M 228.39 48.90 C 236.81 63.61 253.81 91.94 248.02 103.89 C 257.22 105.89 252.13 118.66 252.38 125.35 C 237.60 103.17 226.31 75.42 228.39 48.90 Z"
       opacity="1.00"
       stroke-width="0.09375"
       stroke="#bd7d05"
       fill="#bd7d05" />
    <path
       id="path12383"
       d=" M 165.56 50.39 C 168.35 48.64 170.23 53.20 168.15 55.02 C 159.86 70.83 141.58 75.86 132.91 87.92 C 131.67 79.45 133.33 68.77 139.87 62.71 C 149.24 60.35 158.37 57.15 165.56 50.39 Z"
       opacity="1.00"
       stroke-width="0.09375"
       stroke="#c07b0a"
       fill="#c07b0a" />
    <path
       id="path12385"
       d=" M 306.67 54.97 C 310.26 56.16 311.91 60.15 311.87 63.68 C 306.96 67.92 305.59 58.07 306.67 54.97 Z"
       opacity="1.00"
       stroke-width="0.09375"
       stroke="#a56100"
       fill="#a56100" />
    <path
       id="path12387"
       d=" M 277.17 58.17 C 281.80 57.15 276.15 62.80 277.17 58.17 Z"
       opacity="1.00"
       stroke-width="0.09375"
       stroke="#915500"
       fill="#915500" />
    <path
       id="path12389"
       d=" M 87.12 61.12 C 86.55 60.56 86.55 60.56 87.12 61.12 Z"
       opacity="1.00"
       stroke-width="0.09375"
       stroke="#9a6200"
       fill="#9a6200" />
    <path
       id="path12391"
       d=" M 123.63 62.36 C 135.49 61.21 124.54 75.51 123.93 79.43 C 118.98 77.81 123.51 85.04 120.32 87.40 C 111.68 95.84 94.69 83.51 101.20 73.26 C 109.11 70.54 116.16 65.96 123.63 62.36 Z"
       opacity="1.00"
       stroke-width="0.09375"
       stroke="#c57d06"
       fill="#c57d06" />
    <path
       id="path12393"
       d=" M 290.85 61.79 C 300.23 69.75 294.85 84.71 297.69 96.08 C 300.81 101.36 290.01 111.53 288.12 103.76 C 289.72 89.75 292.58 75.71 290.85 61.79 Z"
       opacity="1.00"
       stroke-width="0.09375"
       stroke="#be7b06"
       fill="#be7b06" />
    <path
       id="path12395"
       d=" M 167.44 66.61 C 170.18 68.23 168.36 84.66 167.48 90.23 C 155.00 96.79 144.96 110.00 129.97 110.13 C 133.87 116.16 141.32 116.86 146.75 112.25 C 150.36 120.11 134.48 117.93 133.31 125.22 C 130.54 131.12 123.75 128.17 119.36 126.22 C 117.22 119.04 123.18 113.03 128.67 109.66 C 120.06 107.12 132.97 102.24 136.07 99.09 C 145.94 87.74 158.34 78.71 167.44 66.61 Z"
       opacity="1.00"
       stroke-width="0.09375"
       stroke="#c27805"
       fill="#c27805" />
    <path
       id="path12397"
       d=" M 55.69 77.00 C 57.14 75.39 58.85 74.04 60.58 72.73 C 62.65 77.11 67.33 74.85 71.05 74.33 C 74.30 79.29 71.68 86.59 68.06 90.82 C 60.48 83.66 55.33 97.67 50.89 101.96 C 39.11 113.74 31.37 129.08 26.51 144.83 C 28.91 161.91 17.91 174.96 10.92 188.75 C 9.31 191.83 8.96 195.98 6.08 198.14 C 11.21 167.65 25.35 139.82 35.70 110.94 C 38.54 119.18 41.79 109.59 40.84 105.39 C 44.84 102.12 45.50 97.41 46.75 92.83 C 53.64 90.74 55.99 83.63 55.69 77.00 Z"
       opacity="1.00"
       stroke-width="0.09375"
       stroke="#c68b12"
       fill="#c68b12" />
    <path
       id="path12399"
       d=" M 35.70 110.94 C 41.59 99.24 46.28 86.47 55.69 77.00 C 55.99 83.63 53.64 90.74 46.75 92.83 C 45.50 97.41 44.84 102.12 40.84 105.39 C 41.79 109.59 38.54 119.18 35.70 110.94 Z"
       opacity="1.00"
       stroke-width="0.09375"
       stroke="#f1cc5f"
       fill="#f1cc5f" />
    <path
       id="path12401"
       d=" M 90.41 81.26 C 96.07 82.52 104.52 92.32 99.35 98.25 C 87.18 101.55 78.35 115.83 64.26 116.96 C 67.24 101.64 79.39 91.58 90.41 81.26 Z"
       opacity="1.00"
       stroke-width="0.09375"
       stroke="#bf6d01"
       fill="#bf6d01" />
    <path
       id="path12403"
       d=" M 65.37 94.38 C 60.84 106.10 54.66 122.80 49.20 137.26 C 39.63 156.45 37.67 181.15 17.25 192.27 C 18.71 188.65 17.60 180.23 23.18 182.70 C 35.05 167.83 28.28 144.36 40.92 128.84 C 45.34 115.09 57.85 105.90 65.37 94.38 Z"
       opacity="1.00"
       stroke-width="0.09375"
       stroke="#c07505"
       fill="#c07505" />
    <path
       id="path12405"
       d=" M 172.50 100.38 C 176.27 105.72 171.72 128.26 159.87 127.99 C 155.99 130.94 150.86 131.10 147.06 132.41 C 149.51 140.70 158.10 129.35 162.77 133.40 C 163.81 137.57 154.70 139.60 159.67 144.04 C 155.96 146.31 152.78 151.52 155.50 155.91 C 151.15 161.97 140.91 162.97 133.75 160.46 C 125.25 148.64 135.20 136.20 142.71 127.79 C 153.90 122.67 164.49 112.07 172.50 100.38 Z"
       opacity="1.00"
       stroke-width="0.09375"
       stroke="#be7a04"
       fill="#be7a04" />
    <path
       id="path12407"
       d=" M 112.45 101.51 C 121.58 100.14 116.21 112.55 111.14 114.51 C 107.27 126.50 96.14 138.27 84.21 142.01 C 91.76 150.75 70.73 149.52 75.99 140.05 C 76.60 119.07 97.91 111.62 112.45 101.51 Z"
       opacity="1.00"
       stroke-width="0.09375"
       stroke="#c77d04"
       fill="#c77d04" />
    <path
       id="path12409"
       d=" M 186.49 102.32 C 194.71 101.46 188.52 113.50 190.68 118.72 C 185.58 126.19 192.82 137.24 185.31 142.15 C 185.30 151.05 182.88 158.99 189.55 166.16 C 184.99 170.46 191.77 177.33 186.09 179.90 C 185.20 168.14 164.68 164.49 173.91 152.78 C 182.22 137.53 176.11 114.96 186.49 102.32 Z"
       opacity="1.00"
       stroke-width="0.09375"
       stroke="#bc7704"
       fill="#bc7704" />
    <path
       id="path12411"
       d=" M 286.15 111.27 C 296.45 104.30 300.02 122.74 302.45 129.31 C 303.08 134.27 310.84 146.33 302.57 146.47 C 300.67 141.53 298.31 136.79 295.99 132.04 C 294.12 124.36 286.24 119.45 286.15 111.27 Z"
       opacity="1.00"
       stroke-width="0.09375"
       stroke="#c2860b"
       fill="#c2860b" />
    <path
       id="path12413"
       d=" M 273.22 121.23 C 286.76 126.17 281.94 148.82 284.42 160.69 C 278.41 164.78 287.34 168.35 285.57 173.52 C 289.40 180.15 280.62 173.65 278.16 171.78 C 270.43 156.04 271.03 138.21 273.22 121.23 Z"
       opacity="1.00"
       stroke-width="0.09375"
       stroke="#b46e05"
       fill="#b46e05" />
    <path
       id="path12415"
       d=" M 286.08 126.14 C 288.67 118.41 292.93 129.81 295.99 132.04 C 298.31 136.79 300.67 141.53 302.57 146.47 C 309.51 163.33 313.36 181.41 312.29 199.67 C 313.16 202.09 315.51 207.72 311.35 207.79 C 306.14 201.46 298.52 198.36 292.11 193.62 C 292.28 188.11 303.72 198.42 301.73 191.01 C 299.05 173.68 294.22 157.02 288.92 140.83 C 299.60 136.13 280.09 134.20 286.08 126.14 Z"
       opacity="1.00"
       stroke-width="0.09375"
       stroke="#4d2100"
       fill="#4d2100" />
    <path
       id="path12417"
       d=" M 67.36 128.31 C 71.44 144.33 57.75 162.46 50.65 177.77 C 48.12 178.91 45.14 175.91 46.41 173.38 C 50.09 160.88 53.81 148.38 57.89 136.00 C 58.11 130.71 63.32 129.43 67.36 128.31 Z"
       opacity="1.00"
       stroke-width="0.09375"
       stroke="#c47f04"
       fill="#c47f04" />
    <path
       id="path12419"
       d=" M 113.27 135.33 C 121.58 133.48 126.14 143.77 119.18 148.20 C 105.90 156.47 96.54 169.60 86.04 179.73 C 84.59 174.12 82.79 168.60 81.19 163.03 C 87.68 156.97 96.32 154.32 103.79 149.80 C 108.01 145.80 106.98 137.22 113.27 135.33 Z"
       opacity="1.00"
       stroke-width="0.09375"
       stroke="#c87c02"
       fill="#c87c02" />
    <path
       id="path12421"
       d=" M 222.28 155.05 C 229.47 155.54 216.38 158.94 222.28 155.05 Z"
       opacity="1.00"
       stroke-width="0.09375"
       stroke="#a87100"
       fill="#a87100" />
    <path
       id="path12423"
       d=" M 124.36 161.31 C 131.70 159.96 134.68 171.12 128.39 174.42 C 117.25 180.12 108.07 186.58 96.04 187.80 C 99.66 174.63 113.03 167.33 124.36 161.31 Z"
       opacity="1.00"
       stroke-width="0.09375"
       stroke="#c36b02"
       fill="#c36b02" />
    <path
       id="path12425"
       d=" M 140.17 166.14 C 146.68 170.11 163.58 168.77 157.72 180.50 C 161.14 185.51 153.40 187.82 151.62 192.80 C 139.70 189.46 135.89 178.05 140.17 166.14 Z"
       opacity="1.00"
       stroke-width="0.09375"
       stroke="#c17804"
       fill="#c17804" />
    <path
       id="path12427"
       d=" M 71.40 168.25 C 85.24 174.97 70.54 209.86 53.16 198.89 C 56.86 186.48 63.65 178.28 71.40 168.25 Z"
       opacity="1.00"
       stroke-width="0.09375"
       stroke="#c37e05"
       fill="#c37e05" />
    <path
       id="path12429"
       d=" M 39.49 185.41 C 43.07 185.89 44.95 198.24 37.31 194.14 C 33.91 205.84 25.20 211.48 19.35 219.86 C 9.87 204.19 29.00 193.25 39.49 185.41 Z"
       opacity="1.00"
       stroke-width="0.09375"
       stroke="#b16901"
       fill="#b16901" />
    <path
       id="path12431"
       d=" M 130.51 186.53 C 133.14 188.98 122.31 207.74 117.53 201.48 C 113.64 208.80 101.57 205.57 99.19 212.97 C 96.16 209.73 92.31 205.90 92.13 201.29 C 104.57 195.15 117.71 191.91 130.51 186.53 Z"
       opacity="1.00"
       stroke-width="0.09375"
       stroke="#b56400"
       fill="#b56400" />
    <path
       id="path12433"
       d=" M 135.36 196.22 C 152.69 204.37 136.47 221.76 127.98 229.59 C 124.16 228.64 116.66 233.41 117.14 226.31 C 123.73 216.73 127.25 204.40 135.36 196.22 Z"
       opacity="1.00"
       stroke-width="0.09375"
       stroke="#b26201"
       fill="#b26201" />
    <path
       id="path12435"
       d=" M 7.79 256.66 C 5.85 239.29 13.15 220.00 15.82 204.09 C 18.92 221.77 9.32 241.26 12.95 259.07 C 24.37 244.05 34.16 225.51 47.94 211.97 C 45.54 230.22 51.30 249.64 52.75 266.71 C 72.96 253.75 58.86 219.28 83.91 210.78 C 75.39 230.50 63.25 261.30 84.37 276.67 C 85.72 270.83 87.62 275.21 89.87 277.90 C 95.35 269.50 92.52 258.92 94.47 249.60 C 95.71 240.03 102.56 232.24 103.08 222.47 C 108.36 224.54 107.55 218.35 108.08 214.94 C 111.04 211.31 116.55 209.98 119.69 214.18 C 117.04 220.60 114.59 227.25 117.89 234.06 C 115.13 233.32 111.76 229.75 109.10 232.13 C 101.95 243.74 98.96 257.65 100.73 271.21 C 96.73 276.36 106.09 277.76 105.82 273.74 C 108.20 260.59 114.48 250.98 122.71 241.03 C 115.48 232.46 127.96 232.10 133.11 236.99 C 140.81 230.29 138.70 219.63 145.02 212.04 C 147.23 214.18 150.23 217.48 147.53 220.45 C 131.59 249.55 147.76 282.08 144.50 312.64 C 141.56 323.47 150.73 316.05 155.22 321.32 C 163.40 316.56 163.67 334.37 171.61 334.59 C 172.05 326.22 162.92 322.70 160.72 315.33 C 153.48 307.46 158.20 296.33 153.13 287.15 C 147.57 280.70 152.03 271.73 149.85 264.05 C 155.89 249.20 151.25 224.43 170.39 217.24 C 186.26 221.10 187.33 245.92 183.76 257.84 C 177.78 257.97 181.64 240.32 174.32 245.30 C 163.96 263.19 163.89 287.21 170.63 307.00 C 168.50 308.87 166.87 313.43 170.77 313.73 C 177.54 305.65 181.88 294.73 177.98 284.01 C 183.60 285.24 180.77 293.92 184.88 297.17 C 190.81 292.11 187.83 281.47 190.75 277.21 C 197.38 284.85 189.63 299.60 181.38 304.69 C 179.35 316.44 182.10 328.25 180.36 339.70 C 190.47 343.66 199.36 352.79 200.60 363.89 C 193.97 365.17 196.76 356.77 194.01 353.18 C 190.06 349.72 185.19 347.20 180.05 346.07 C 180.76 353.32 187.80 359.88 182.51 367.12 C 182.17 377.84 196.79 374.94 199.90 383.12 C 194.57 382.25 190.08 379.10 185.26 376.91 C 187.06 380.10 186.50 383.32 184.12 385.99 C 195.69 394.93 192.87 411.42 192.56 424.34 C 195.99 432.74 190.76 439.36 191.14 446.71 C 189.62 445.52 184.70 440.90 185.25 445.01 C 184.78 452.72 176.53 445.23 172.16 445.64 C 171.32 431.53 164.58 419.14 162.83 405.33 C 160.49 401.06 153.84 401.63 151.12 405.22 C 152.60 414.34 161.25 421.82 155.22 430.97 C 160.29 430.85 169.40 427.46 167.28 436.62 C 163.67 437.20 160.11 428.57 158.22 434.25 C 156.78 439.59 151.28 443.25 153.23 449.46 C 146.13 451.59 151.39 439.92 145.43 437.17 C 150.47 432.42 145.27 424.78 140.82 421.51 C 143.83 410.70 138.95 396.62 136.86 384.44 C 136.57 381.00 130.57 374.65 129.99 381.22 C 130.88 366.29 118.05 352.72 124.06 338.14 C 123.33 330.95 127.90 324.88 127.47 317.64 C 132.05 316.41 136.56 319.91 140.91 321.15 C 134.83 311.35 123.15 309.31 114.21 303.55 C 114.78 298.53 127.68 308.79 125.39 299.40 C 125.47 295.39 126.19 290.49 130.76 289.48 C 137.31 286.71 137.88 297.85 143.16 298.57 C 140.95 286.45 132.19 276.49 122.73 269.17 C 125.87 270.55 131.74 272.20 129.24 266.70 C 125.30 261.22 138.02 250.54 128.31 249.05 C 121.10 257.34 115.25 268.07 109.97 278.10 C 105.05 285.38 112.93 292.34 113.06 299.86 C 107.96 298.83 108.89 291.18 106.03 287.72 C 98.65 291.52 95.25 301.90 97.26 309.79 C 93.88 314.40 93.02 322.88 98.89 326.01 C 114.23 337.19 118.75 356.43 124.64 373.34 C 125.74 377.71 118.84 376.67 116.09 377.67 C 109.64 359.90 98.46 344.08 90.81 326.76 C 84.53 331.60 85.65 338.26 90.01 343.38 C 89.64 351.38 91.66 359.54 89.66 367.57 C 96.05 374.38 108.24 372.25 112.52 381.56 C 115.53 384.97 115.75 393.82 121.64 392.56 C 123.13 386.72 123.59 380.69 130.28 382.78 C 131.23 387.31 134.58 398.19 126.61 393.38 C 132.27 406.85 130.00 421.78 127.92 435.66 C 115.38 438.89 134.13 443.17 134.46 450.54 C 138.39 455.68 139.16 438.88 142.98 446.07 C 148.48 456.22 145.82 470.69 156.13 479.11 C 159.06 483.95 151.58 483.16 149.16 481.20 C 148.05 480.37 148.05 480.37 149.16 481.20 C 146.26 487.06 142.63 481.05 141.66 477.36 C 137.47 463.32 118.66 458.20 118.38 442.72 C 116.20 435.96 114.55 449.33 110.16 449.17 C 110.52 445.41 114.60 438.19 108.01 441.02 C 99.53 445.88 102.12 436.16 101.11 431.45 C 96.14 432.13 85.52 438.12 90.01 443.90 C 83.30 445.71 77.85 436.85 82.75 431.92 C 78.25 428.95 72.40 427.00 70.87 421.20 C 65.15 422.61 68.89 427.38 69.97 430.81 C 59.85 430.56 60.68 411.80 51.04 416.68 C 49.32 413.20 47.00 404.23 43.15 411.23 C 50.75 422.63 60.93 432.83 66.21 445.74 C 50.74 434.31 44.56 414.35 34.27 398.72 C 17.56 373.45 12.27 343.29 5.89 314.29 C 5.39 311.37 2.72 299.80 6.66 306.51 C 11.38 316.39 5.99 336.07 20.72 337.97 C 19.23 331.47 14.71 326.28 12.39 320.17 C 17.49 312.92 9.50 304.14 13.20 296.29 C 17.51 281.96 5.68 270.41 7.79 256.66 M 39.39 232.18 C 32.08 243.52 17.33 254.18 23.25 269.51 C 26.50 272.53 30.10 277.70 34.57 277.72 C 45.09 269.11 38.36 253.38 43.38 242.32 C 44.22 238.95 44.45 230.99 39.39 232.18 M 53.11 270.86 C 38.57 296.48 49.89 327.76 51.83 355.13 C 49.44 367.15 65.27 375.02 59.03 386.74 C 71.11 398.65 83.27 411.76 96.21 422.60 C 90.06 404.07 72.17 389.67 65.47 371.06 C 71.36 370.24 81.53 371.24 84.06 365.05 C 80.35 358.83 78.87 351.63 76.00 345.01 C 70.28 349.67 67.44 357.29 60.92 361.07 C 57.13 350.50 54.71 339.55 52.18 328.73 C 45.36 317.16 69.35 311.53 58.59 301.78 C 60.04 297.99 53.15 294.63 59.00 293.11 C 53.46 286.66 62.25 273.09 53.11 270.86 M 21.38 281.39 C 17.65 299.63 19.59 320.10 23.34 338.37 C 23.12 347.63 35.28 347.39 39.94 353.26 C 42.87 356.37 48.52 350.61 44.98 348.18 C 37.28 346.71 44.53 336.85 40.43 331.96 C 29.27 317.51 32.57 293.16 21.38 281.39 M 76.26 283.92 C 71.91 290.00 73.59 298.28 71.25 305.15 C 64.83 315.08 78.22 324.14 86.71 326.91 C 91.71 322.71 85.85 315.70 86.74 310.21 C 88.26 300.41 83.60 289.20 76.26 283.92 M 162.21 384.26 C 159.34 394.45 165.45 405.22 165.98 415.54 C 175.67 422.36 165.98 443.03 180.80 442.90 C 182.33 428.83 175.59 415.38 176.19 401.83 C 170.80 398.83 178.31 380.87 169.98 388.87 C 167.28 388.00 165.05 383.77 162.21 384.26 Z"
       opacity="1.00"
       stroke-width="0.09375"
       stroke="#422000"
       fill="#422000" />
    <path
       id="path12437"
       d=" M 51.93 207.95 C 57.22 211.39 63.77 212.06 69.90 211.15 C 65.76 225.09 59.95 238.55 53.98 251.92 C 47.91 240.10 47.53 221.67 51.93 207.95 Z"
       opacity="1.00"
       stroke-width="0.09375"
       stroke="#bc7102"
       fill="#bc7102" />
    <path
       id="path12439"
       d=" M 143.87 237.03 C 145.16 222.61 157.39 212.27 170.47 208.26 C 185.94 207.21 193.00 226.12 190.08 239.00 C 182.11 234.42 185.40 217.44 174.58 215.19 C 159.47 213.08 152.72 230.37 152.91 242.63 C 150.58 249.52 148.21 256.69 149.85 264.05 C 148.11 274.14 145.84 284.92 150.36 294.65 C 152.63 297.27 147.01 299.35 146.38 296.48 C 142.95 276.78 141.47 256.82 143.87 237.03 Z"
       opacity="1.00"
       stroke-width="0.09375"
       stroke="#9b5b00"
       fill="#9b5b00" />
    <path
       id="path12441"
       d=" M 86.63 209.63 C 101.29 216.29 96.11 242.23 84.78 251.76 C 79.54 251.62 81.13 259.29 76.98 260.03 C 71.08 243.02 79.97 225.22 86.63 209.63 Z"
       opacity="1.00"
       stroke-width="0.09375"
       stroke="#c87705"
       fill="#c87705" />
    <path
       id="path12443"
       d=" M 18.17 221.17 C 22.17 220.24 17.24 225.16 18.17 221.17 Z"
       opacity="1.00"
       stroke-width="0.09375"
       stroke="#9b4f00"
       fill="#9b4f00" />
    <path
       id="path12445"
       d=" M 39.39 232.18 C 44.45 230.99 44.22 238.95 43.38 242.32 C 38.36 253.38 45.09 269.11 34.57 277.72 C 30.10 277.70 26.50 272.53 23.25 269.51 C 17.33 254.18 32.08 243.52 39.39 232.18 Z"
       opacity="1.00"
       stroke-width="0.09375"
       stroke="#a65601"
       fill="#a65601" />
    <path
       id="path12447"
       d=" M 260.29 236.17 C 267.79 242.86 281.09 242.66 289.92 251.24 C 299.18 257.76 303.20 242.18 312.39 244.34 C 321.59 249.38 315.85 233.33 323.71 240.05 C 328.86 252.56 340.27 260.25 348.76 270.41 C 347.79 278.36 344.82 288.29 336.89 291.81 C 324.03 287.85 307.37 286.68 299.79 275.23 C 295.72 284.69 322.17 287.09 310.19 296.12 C 304.60 305.78 294.32 309.84 288.30 319.15 C 288.74 324.10 296.92 330.37 290.10 334.14 C 285.99 328.72 279.24 325.56 273.03 324.06 C 272.93 317.23 265.17 314.59 264.81 309.97 C 257.56 316.10 254.43 303.01 264.01 304.06 C 254.96 299.72 258.22 286.07 267.44 284.09 C 271.36 290.40 275.88 299.34 284.79 299.82 C 285.34 293.58 279.75 288.95 280.69 282.47 C 275.81 274.03 283.82 257.76 271.88 253.96 C 269.15 251.92 265.58 255.07 263.07 252.97 C 263.25 250.37 268.97 243.27 263.51 244.55 C 259.55 246.24 257.89 238.12 260.29 236.17 M 312.94 249.38 C 290.88 257.63 311.37 285.37 327.56 281.70 C 346.71 272.04 330.52 244.97 312.94 249.38 Z"
       opacity="1.00"
       stroke-width="0.09375"
       stroke="#7f3a00"
       fill="#7f3a00" />
    <path
       id="path12449"
       d=" M 109.97 278.10 C 115.25 268.07 121.10 257.34 128.31 249.05 C 138.02 250.54 125.30 261.22 129.24 266.70 C 131.74 272.20 125.87 270.55 122.73 269.17 C 132.19 276.49 140.95 286.45 143.16 298.57 C 137.88 297.85 137.31 286.71 130.76 289.48 C 126.19 290.49 125.47 295.39 125.39 299.40 C 127.68 308.79 114.78 298.53 114.21 303.55 C 123.15 309.31 134.83 311.35 140.91 321.15 C 136.56 319.91 132.05 316.41 127.47 317.64 C 127.90 324.88 123.33 330.95 124.06 338.14 C 118.05 352.72 130.88 366.29 129.99 381.22 C 130.07 381.61 130.21 382.39 130.28 382.78 C 123.59 380.69 123.13 386.72 121.64 392.56 C 115.75 393.82 115.53 384.97 112.52 381.56 C 108.24 372.25 96.05 374.38 89.66 367.57 C 91.66 359.54 89.64 351.38 90.01 343.38 C 85.65 338.26 84.53 331.60 90.81 326.76 C 98.46 344.08 109.64 359.90 116.09 377.67 C 118.84 376.67 125.74 377.71 124.64 373.34 C 118.75 356.43 114.23 337.19 98.89 326.01 C 93.02 322.88 93.88 314.40 97.26 309.79 C 95.25 301.90 98.65 291.52 106.03 287.72 C 108.89 291.18 107.96 298.83 113.06 299.86 C 112.93 292.34 105.05 285.38 109.97 278.10 Z"
       opacity="1.00"
       stroke-width="0.09375"
       stroke="#854300"
       fill="#854300" />
    <path
       id="path12451"
       d=" M 312.94 249.38 C 330.52 244.97 346.71 272.04 327.56 281.70 C 311.37 285.37 290.88 257.63 312.94 249.38 Z"
       opacity="1.00"
       stroke-width="0.09375"
       stroke="#462100"
       fill="#462100" />
    <path
       id="path12453"
       d=" M 53.11 270.86 C 62.25 273.09 53.46 286.66 59.00 293.11 C 53.15 294.63 60.04 297.99 58.59 301.78 C 69.35 311.53 45.36 317.16 52.18 328.73 C 54.71 339.55 57.13 350.50 60.92 361.07 C 67.44 357.29 70.28 349.67 76.00 345.01 C 78.87 351.63 80.35 358.83 84.06 365.05 C 81.53 371.24 71.36 370.24 65.47 371.06 C 72.17 389.67 90.06 404.07 96.21 422.60 C 83.27 411.76 71.11 398.65 59.03 386.74 C 65.27 375.02 49.44 367.15 51.83 355.13 C 49.89 327.76 38.57 296.48 53.11 270.86 Z"
       opacity="1.00"
       stroke-width="0.09375"
       stroke="#844600"
       fill="#844600" />
    <path
       id="path12455"
       d=" M 353.27 271.17 C 360.71 269.34 357.75 278.60 359.63 282.90 C 352.62 294.64 357.41 310.69 349.55 321.44 C 337.11 316.01 330.02 337.76 317.13 326.73 C 317.84 318.97 331.83 322.98 335.29 315.13 C 359.26 317.95 349.50 285.99 353.27 271.17 Z"
       opacity="1.00"
       stroke-width="0.09375"
       stroke="#753600"
       fill="#753600" />
    <path
       id="path12457"
       d=" M 371.72 273.80 C 372.40 274.73 372.40 274.73 371.72 273.80 Z"
       opacity="1.00"
       stroke-width="0.09375"
       stroke="#643800"
       fill="#643800" />
    <path
       id="path12459"
       d=" M 21.38 281.39 C 32.57 293.16 29.27 317.51 40.43 331.96 C 44.53 336.85 37.28 346.71 44.98 348.18 C 48.52 350.61 42.87 356.37 39.94 353.26 C 35.28 347.39 23.12 347.63 23.34 338.37 C 19.59 320.10 17.65 299.63 21.38 281.39 Z"
       opacity="1.00"
       stroke-width="0.09375"
       stroke="#803e00"
       fill="#803e00" />
    <path
       id="path12461"
       d=" M 76.26 283.92 C 83.60 289.20 88.26 300.41 86.74 310.21 C 85.85 315.70 91.71 322.71 86.71 326.91 C 78.22 324.14 64.83 315.08 71.25 305.15 C 73.59 298.28 71.91 290.00 76.26 283.92 Z"
       opacity="1.00"
       stroke-width="0.09375"
       stroke="#824000"
       fill="#824000" />
    <path
       id="path12463"
       d=" M 244.29 313.56 C 254.97 309.85 261.66 321.52 269.82 320.07 C 264.41 326.62 277.17 331.06 279.61 329.57 C 270.34 335.56 282.52 334.61 285.05 337.90 C 275.39 343.11 262.54 336.09 251.98 331.89 C 253.14 337.41 246.74 336.81 247.30 340.82 C 257.37 337.72 245.92 355.38 254.07 353.47 C 256.93 359.62 270.50 376.76 277.43 365.55 C 281.64 366.05 287.81 364.92 288.15 359.74 C 295.49 359.56 305.33 351.49 310.45 360.01 C 310.41 360.40 310.33 361.17 310.29 361.56 C 308.03 364.47 303.76 358.26 300.69 362.65 C 298.35 366.50 309.91 365.31 306.17 370.20 C 298.38 373.37 289.93 367.84 283.14 375.08 C 279.54 381.52 289.92 383.63 294.78 385.40 C 296.54 397.80 282.12 400.64 274.78 407.05 C 258.67 403.40 256.35 426.08 242.11 428.20 C 246.11 422.57 250.25 416.65 251.94 410.22 C 245.97 412.15 242.23 421.13 238.35 424.46 C 219.10 417.82 227.87 394.55 229.63 379.68 C 234.07 376.45 236.33 366.32 239.97 373.63 C 241.26 370.62 245.49 370.07 247.82 367.59 C 249.13 360.68 238.48 367.63 236.71 362.42 C 228.56 353.87 225.60 340.67 230.72 329.75 C 233.42 322.47 244.24 322.27 244.29 313.56 Z"
       opacity="1.00"
       stroke-width="0.09375"
       stroke="#2e1800"
       fill="#2e1800" />
    <path
       id="path12465"
       d=" M 303.70 328.00 C 300.12 309.89 313.74 332.23 321.08 331.97 C 330.63 340.21 336.39 320.76 344.89 325.91 C 338.16 334.87 333.45 348.81 319.95 339.00 C 312.87 352.55 319.14 372.19 312.98 384.97 C 308.44 377.70 313.18 367.30 310.29 361.56 C 310.33 361.17 310.41 360.40 310.45 360.01 C 314.66 351.36 312.09 341.75 307.97 333.64 C 303.05 337.11 311.33 344.04 307.95 348.81 C 300.72 355.33 289.65 355.03 283.11 362.28 C 277.52 366.40 277.58 351.34 273.49 356.48 C 270.90 362.76 267.95 353.30 266.04 350.93 C 262.47 346.77 273.52 350.15 268.77 345.16 C 267.51 334.31 276.04 353.79 281.35 343.68 C 291.86 349.46 300.33 337.23 303.70 328.00 Z"
       opacity="1.00"
       stroke-width="0.09375"
       stroke="#793a00"
       fill="#793a00" />
    <path
       id="path12467"
       d=" M 283.14 375.08 C 291.89 374.05 308.43 370.10 309.49 383.19 C 312.78 393.47 302.63 400.69 294.55 404.44 C 284.71 412.30 277.05 424.14 264.01 426.95 C 255.08 426.65 251.25 438.76 242.20 436.36 C 238.24 438.21 235.12 448.71 229.63 446.21 C 228.18 441.58 232.43 436.87 233.94 432.59 C 248.23 432.84 257.57 420.09 266.24 410.17 C 269.67 412.88 273.38 410.81 274.78 407.05 C 282.12 400.64 296.54 397.80 294.78 385.40 C 289.92 383.63 279.54 381.52 283.14 375.08 Z"
       opacity="1.00"
       stroke-width="0.09375"
       stroke="#7b3900"
       fill="#7b3900" />
    <path
       id="path12469"
       d=" M 129.99 381.22 C 130.57 374.65 136.57 381.00 136.86 384.44 C 138.95 396.62 143.83 410.70 140.82 421.51 C 145.27 424.78 150.47 432.42 145.43 437.17 C 151.39 439.92 146.13 451.59 153.23 449.46 C 151.28 443.25 156.78 439.59 158.22 434.25 C 160.11 428.57 163.67 437.20 167.28 436.62 C 169.40 427.46 160.29 430.85 155.22 430.97 C 161.25 421.82 152.60 414.34 151.12 405.22 C 153.84 401.63 160.49 401.06 162.83 405.33 C 164.58 419.14 171.32 431.53 172.16 445.64 C 176.53 445.23 184.78 452.72 185.25 445.01 C 184.70 440.90 189.62 445.52 191.14 446.71 C 195.61 456.01 195.90 447.74 196.00 441.86 C 202.80 444.56 198.69 456.23 199.37 462.18 C 197.48 467.22 194.20 458.48 190.75 461.81 C 183.94 472.42 187.29 486.57 185.71 497.59 C 178.68 493.84 170.15 501.40 166.14 491.90 C 156.72 502.57 142.38 493.12 133.33 487.36 C 126.30 488.69 119.82 483.96 120.88 476.60 C 114.69 480.68 98.81 472.78 110.88 469.00 C 109.18 461.48 101.71 463.08 96.32 465.11 C 88.43 466.86 86.03 456.28 79.28 456.13 C 79.40 460.61 83.75 463.53 85.91 467.10 C 83.15 464.64 80.28 462.29 77.57 459.77 C 77.35 459.57 76.93 459.16 76.71 458.95 C 76.51 458.75 76.12 458.35 75.92 458.15 C 75.71 457.94 75.28 457.52 75.07 457.31 C 78.98 441.96 102.13 464.13 102.92 448.58 C 98.06 448.91 93.97 446.35 90.01 443.90 C 85.52 438.12 96.14 432.13 101.11 431.45 C 102.12 436.16 99.53 445.88 108.01 441.02 C 114.60 438.19 110.52 445.41 110.16 449.17 C 114.55 449.33 116.20 435.96 118.38 442.72 C 118.66 458.20 137.47 463.32 141.66 477.36 C 142.63 481.05 146.26 487.06 149.16 481.20 C 151.58 483.16 159.06 483.95 156.13 479.11 C 145.82 470.69 148.48 456.22 142.98 446.07 C 139.16 438.88 138.39 455.68 134.46 450.54 C 134.13 443.17 115.38 438.89 127.92 435.66 C 130.00 421.78 132.27 406.85 126.61 393.38 C 134.58 398.19 131.23 387.31 130.28 382.78 C 130.21 382.39 130.07 381.61 129.99 381.22 Z"
       opacity="1.00"
       stroke-width="0.09375"
       stroke="#2c1800"
       fill="#2c1800" />
    <path
       id="path12471"
       d=" M 162.21 384.26 C 165.05 383.77 167.28 388.00 169.98 388.87 C 178.31 380.87 170.80 398.83 176.19 401.83 C 175.59 415.38 182.33 428.83 180.80 442.90 C 165.98 443.03 175.67 422.36 165.98 415.54 C 165.45 405.22 159.34 394.45 162.21 384.26 Z"
       opacity="1.00"
       stroke-width="0.09375"
       stroke="#753900"
       fill="#753900" />
    <path
       id="path12473"
       d=" M 43.15 411.23 C 47.00 404.23 49.32 413.20 51.04 416.68 C 60.68 411.80 59.85 430.56 69.97 430.81 C 68.89 427.38 65.15 422.61 70.87 421.20 C 72.40 427.00 78.25 428.95 82.75 431.92 C 77.85 436.85 83.30 445.71 90.01 443.90 C 92.66 446.24 100.46 454.25 91.18 451.73 C 83.18 449.25 73.60 453.26 67.17 446.72 C 66.93 446.47 66.45 445.99 66.21 445.74 C 60.93 432.83 50.75 422.63 43.15 411.23 Z"
       opacity="1.00"
       stroke-width="0.09375"
       stroke="#713900"
       fill="#713900" />
    <path
       id="path12475"
       d=" M 90.01 443.90 C 93.97 446.35 98.06 448.91 102.92 448.58 C 102.13 464.13 78.98 441.96 75.07 457.31 C 71.77 454.32 69.45 450.48 67.17 446.72 C 73.60 453.26 83.18 449.25 91.18 451.73 C 100.46 454.25 92.66 446.24 90.01 443.90 Z"
       opacity="1.00"
       stroke-width="0.09375"
       stroke="#412801"
       fill="#412801" />
    <path
       id="path12477"
       d=" M 66.21 445.74 C 66.45 445.99 66.93 446.47 67.17 446.72 C 66.93 446.47 66.45 445.99 66.21 445.74 Z"
       opacity="1.00"
       stroke-width="0.09375"
       stroke="#4c3f02"
       fill="#4c3f02" />
    <path
       id="path12479"
       d=" M 75.07 457.31 C 75.28 457.52 75.71 457.94 75.92 458.15 C 75.71 457.94 75.28 457.52 75.07 457.31 Z"
       opacity="1.00"
       stroke-width="0.09375"
       stroke="#3e4f18"
       fill="#3e4f18" />
    <path
       id="path12481"
       d=" M 75.92 458.15 C 76.12 458.35 76.51 458.75 76.71 458.95 C 76.51 458.75 76.12 458.35 75.92 458.15 Z"
       opacity="1.00"
       stroke-width="0.09375"
       stroke="#45571e"
       fill="#45571e" />
    <path
       id="path12483"
       d=" M 76.71 458.95 C 76.93 459.16 77.35 459.57 77.57 459.77 C 77.35 459.57 76.93 459.16 76.71 458.95 Z"
       opacity="1.00"
       stroke-width="0.09375"
       stroke="#304210"
       fill="#304210" />
    <path
       id="path12485"
       d=" M 199.90 472.85 C 203.77 476.03 200.55 482.64 199.71 486.95 C 195.57 485.57 200.07 476.74 199.90 472.85 Z"
       opacity="1.00"
       stroke-width="0.09375"
       stroke="#663900"
       fill="#663900" />
    <path
       id="path12487"
       d=" M 149.16 481.20 C 148.05 480.37 148.05 480.37 149.16 481.20 Z"
       opacity="1.00"
       stroke-width="0.09375"
       stroke="#381900"
       fill="#381900" />
  </g>
</svg>
