<?xml version="1.0" encoding="UTF-8" standalone="no"?>
<svg
   xmlns:dc="http://purl.org/dc/elements/1.1/"
   xmlns:cc="http://creativecommons.org/ns#"
   xmlns:rdf="http://www.w3.org/1999/02/22-rdf-syntax-ns#"
   xmlns:svg="http://www.w3.org/2000/svg"
   xmlns="http://www.w3.org/2000/svg"
   xmlns:sodipodi="http://sodipodi.sourceforge.net/DTD/sodipodi-0.dtd"
   xmlns:inkscape="http://www.inkscape.org/namespaces/inkscape"
   version="1.1"
   id="svg2"
   xml:space="preserve"
   width="877.5733"
   height="877.5733"
   viewBox="0 0 877.5733 877.5733"
   sodipodi:docname="8_cucumber-slice-publicdomainvectors.org.svg"
   inkscape:version="1.0.1 (3bc2e813f5, 2020-09-07)"><metadata
     id="metadata8"><rdf:RDF><cc:Work
         rdf:about=""><dc:format>image/svg+xml</dc:format><dc:type
           rdf:resource="http://purl.org/dc/dcmitype/StillImage" /></cc:Work></rdf:RDF></metadata><defs
     id="defs6"><clipPath
       clipPathUnits="userSpaceOnUse"
       id="clipPath620"><rect
         style="fill-rule:evenodd;stroke-width:7.5"
         id="rect622"
         width="6340.2065"
         height="1998.0465"
         x="111.00259"
         y="-5204.062"
         transform="scale(1,-1)" /></clipPath><clipPath
       clipPathUnits="userSpaceOnUse"
       id="clipPath161"><rect
         style="fill-rule:evenodd;stroke-width:17.19"
         id="rect163"
         width="6219.4385"
         height="3532.9534"
         x="-33.480801"
         y="-6524.2358"
         transform="matrix(0.99806208,0.06222601,-0.0670324,-0.9977508,0,0)"
         ry="0" /></clipPath></defs><sodipodi:namedview
     pagecolor="#ffffff"
     bordercolor="#666666"
     borderopacity="1"
     objecttolerance="10"
     gridtolerance="10"
     guidetolerance="10"
     inkscape:pageopacity="0"
     inkscape:pageshadow="2"
     inkscape:window-width="1920"
     inkscape:window-height="1017"
     id="namedview4"
     inkscape:document-rotation="0"
     showgrid="false"
     inkscape:zoom="1.148622"
     inkscape:cx="375.66754"
     inkscape:cy="359.81426"
     inkscape:window-x="-8"
     inkscape:window-y="341"
     inkscape:window-maximized="1"
     inkscape:current-layer="g10" /><g
     id="g10"
     inkscape:groupmode="layer"
     inkscape:label="ink_ext_XXXXXX"
     transform="matrix(1.3333333,0,0,-1.3333333,0,877.57333)"><g
       id="g12"
       transform="matrix(0.08660254,-0.05,0.05,0.08660254,-166.29345,220.39213)"
       clip-path="url(#clipPath161)"><path
         d="M 0,0 H 6581.82 V 6581.82 H 0 V 0"
         style="fill:#2e2d2d;fill-opacity:0;fill-rule:evenodd;stroke:none"
         id="path14" /><path
         d="m 1742.86,4983.19 h 2277.89 c 352.57,0 641,-288.45 641,-641.01 0,-352.55 -288.43,-641.01 -641,-641.01 H 1742.86 c -1907.34,0 -1803.3131,1282.02 0,1282.02"
         style="fill:#448733;fill-opacity:1;fill-rule:evenodd;stroke:none"
         id="path16" /><path
         d="m 1784.32,4849.15 h 2245.52 c 347.56,0 631.91,-228.14 631.91,-506.97 0,-278.83 -284.33,-506.96 -631.91,-506.96 H 1784.32 c -1880.277,0 -1777.72234,1013.93 0,1013.93"
         style="fill:#549d34;fill-opacity:1;fill-rule:evenodd;stroke:none"
         id="path18" /><path
         d="M 1937.28,4786.19 H 3726.5 c 276.92,0 503.49,-161.17 503.49,-358.16 0,-196.99 -226.57,-358.15 -503.49,-358.15 H 1937.28 c -1498.182,0 -1416.467,716.31 0,716.31"
         style="fill:#62ac31;fill-opacity:1;fill-rule:evenodd;stroke:none"
         id="path20" /><path
         d="M 2427.74,4786.19 H 3834.2 c 217.7,0 395.79,-20.81 395.79,-46.24 0,-25.43 -178.09,-46.24 -395.79,-46.24 H 2427.74 c -1177.68,0 -1113.44,92.48 0,92.48"
         style="fill:#82cd27;fill-opacity:1;fill-rule:evenodd;stroke:none"
         id="path22" /><path
         d="m 1850.51,4488.57 h 1702.83 c 263.55,0 479.18,-20.8 479.18,-46.23 0,-25.43 -215.63,-46.24 -479.18,-46.24 H 1850.51 c -1425.862,0 -1348.088,92.47 0,92.47"
         style="fill:#82cd27;fill-opacity:1;fill-rule:evenodd;stroke:none"
         id="path24" /><path
         d="m 2070.83,4004.95 h 1702.86 c 263.57,0 479.2,-20.8 479.2,-46.23 0,-25.44 -215.63,-46.25 -479.2,-46.25 H 2070.83 c -1425.83,0 -1348.064,92.48 0,92.48"
         style="fill:#82cd27;fill-opacity:1;fill-rule:evenodd;stroke:none"
         id="path26" /><path
         d="m 4020.73,3701.17 c 354.02,0 641.02,286.99 641.02,641.01 0,354.03 -287,641.02 -641.02,641.02 -354.02,0 -641.02,-286.99 -641.02,-641.02 0,-354.02 287,-641.01 641.02,-641.01"
         style="fill:#448733;fill-opacity:1;fill-rule:evenodd;stroke:none"
         id="path28" /><path
         d="m 2468.41,4129.93 c 38.61,0 70.11,36 70.11,80.13 0,44.14 -31.5,80.13 -70.11,80.13 -38.62,0 -70.12,-35.99 -70.12,-80.13 0,-44.13 31.5,-80.13 70.12,-80.13"
         style="fill:#549d34;fill-opacity:1;fill-rule:evenodd;stroke:none"
         id="path30" /><path
         d="m 2453.4,4170.81 c 18.89,0 34.33,17.63 34.33,39.25 0,21.62 -15.44,39.26 -34.33,39.26 -18.93,0 -34.36,-17.64 -34.36,-39.26 0,-21.62 15.43,-39.25 34.36,-39.25"
         style="fill:#2e4b20;fill-opacity:1;fill-rule:evenodd;stroke:none"
         id="path32" /><path
         d="m 1567.51,4493.39 c 38.62,0 70.11,35.99 70.11,80.12 0,44.14 -31.49,80.13 -70.11,80.13 -38.62,0 -70.11,-35.99 -70.11,-80.13 0,-44.13 31.49,-80.12 70.11,-80.12"
         style="fill:#549d34;fill-opacity:1;fill-rule:evenodd;stroke:none"
         id="path34" /><path
         d="m 1552.49,4534.26 c 18.92,0 34.34,17.63 34.34,39.25 0,21.62 -15.42,39.25 -34.34,39.25 -18.92,0 -34.35,-17.63 -34.35,-39.25 0,-21.62 15.43,-39.25 34.35,-39.25"
         style="fill:#2e4b20;fill-opacity:1;fill-rule:evenodd;stroke:none"
         id="path36" /><path
         d="m 1265.44,4090.58 c 38.63,0 70.11,35.99 70.11,80.13 0,44.12 -31.48,80.12 -70.11,80.12 -38.61,0 -70.11,-36 -70.11,-80.12 0,-44.14 31.5,-80.13 70.11,-80.13"
         style="fill:#549d34;fill-opacity:1;fill-rule:evenodd;stroke:none"
         id="path38" /><path
         d="m 1250.42,4131.45 c 18.92,0 34.35,17.64 34.35,39.26 0,21.62 -15.43,39.25 -34.35,39.25 -18.91,0 -34.35,-17.63 -34.35,-39.25 0,-21.62 15.44,-39.26 34.35,-39.26"
         style="fill:#2e4b20;fill-opacity:1;fill-rule:evenodd;stroke:none"
         id="path40" /><path
         d="m 2999.61,4502.65 c 38.62,0 70.1,36 70.1,80.14 0,44.12 -31.48,80.12 -70.1,80.12 -38.6,0 -70.11,-36 -70.11,-80.12 0,-44.14 31.51,-80.14 70.11,-80.14"
         style="fill:#549d34;fill-opacity:1;fill-rule:evenodd;stroke:none"
         id="path42" /><path
         d="m 2984.59,4543.53 c 18.91,0 34.34,17.63 34.34,39.26 0,21.61 -15.43,39.25 -34.34,39.25 -18.93,0 -34.36,-17.64 -34.36,-39.25 0,-21.63 15.43,-39.26 34.36,-39.26"
         style="fill:#2e4b20;fill-opacity:1;fill-rule:evenodd;stroke:none"
         id="path44" /><path
         d="m 3234.28,4016.18 c 38.6,0 70.09,35.99 70.09,80.12 0,44.13 -31.49,80.13 -70.09,80.13 -38.64,0 -70.12,-36 -70.12,-80.13 0,-44.13 31.48,-80.12 70.12,-80.12"
         style="fill:#549d34;fill-opacity:1;fill-rule:evenodd;stroke:none"
         id="path46" /><path
         d="m 3219.24,4057.05 c 18.91,0 34.34,17.63 34.34,39.25 0,21.62 -15.43,39.26 -34.34,39.26 -18.91,0 -34.33,-17.64 -34.33,-39.26 0,-21.62 15.42,-39.25 34.33,-39.25"
         style="fill:#2e4b20;fill-opacity:1;fill-rule:evenodd;stroke:none"
         id="path48" /><path
         d="m 801.859,4084.86 c 38.625,0 70.11,35.98 70.11,80.11 0,44.14 -31.485,80.14 -70.11,80.14 -38.613,0 -70.105,-36 -70.105,-80.14 0,-44.13 31.492,-80.11 70.105,-80.11"
         style="fill:#448733;fill-opacity:1;fill-rule:evenodd;stroke:none"
         id="path50" /><path
         d="m 786.836,4125.72 c 18.918,0 34.355,17.64 34.355,39.25 0,21.63 -15.437,39.26 -34.355,39.26 -18.91,0 -34.348,-17.63 -34.348,-39.26 0,-21.61 15.438,-39.25 34.348,-39.25"
         style="fill:#2e4b20;fill-opacity:1;fill-rule:evenodd;stroke:none"
         id="path52" /><path
         d="m 1102.33,4548.44 c 38.63,0 70.11,35.99 70.11,80.12 0,44.14 -31.48,80.13 -70.11,80.13 -38.62,0 -70.11,-35.99 -70.11,-80.13 0,-44.13 31.49,-80.12 70.11,-80.12"
         style="fill:#549d34;fill-opacity:1;fill-rule:evenodd;stroke:none"
         id="path54" /><path
         d="m 1087.31,4589.32 c 18.92,0 34.35,17.62 34.35,39.24 0,21.62 -15.43,39.26 -34.35,39.26 -18.92,0 -34.35,-17.64 -34.35,-39.26 0,-21.62 15.43,-39.24 34.35,-39.24"
         style="fill:#2e4b20;fill-opacity:1;fill-rule:evenodd;stroke:none"
         id="path56" /><path
         d="m 1845.65,4190.74 c 19.32,0 35.04,18 35.04,40.06 0,22.06 -15.72,40.06 -35.04,40.06 -19.3,0 -35.04,-18 -35.04,-40.06 0,-22.06 15.74,-40.06 35.04,-40.06"
         style="fill:#549d34;fill-opacity:1;fill-rule:evenodd;stroke:none"
         id="path58" /><path
         d="m 1838.14,4211.17 c 9.46,0 17.18,8.82 17.18,19.63 0,10.81 -7.72,19.62 -17.18,19.62 -9.46,0 -17.18,-8.81 -17.18,-19.62 0,-10.81 7.72,-19.63 17.18,-19.63"
         style="fill:#2e4b20;fill-opacity:1;fill-rule:evenodd;stroke:none"
         id="path60" /><path
         d="m 2839.4,4049.44 c 19.31,0 35.05,18 35.05,40.07 0,22.05 -15.74,40.06 -35.05,40.06 -19.32,0 -35.04,-18.01 -35.04,-40.06 0,-22.07 15.72,-40.07 35.04,-40.07"
         style="fill:#549d34;fill-opacity:1;fill-rule:evenodd;stroke:none"
         id="path62" /><path
         d="m 2831.89,4069.88 c 9.47,0 17.18,8.81 17.18,19.63 0,10.8 -7.71,19.61 -17.18,19.61 -9.46,0 -17.17,-8.81 -17.17,-19.61 0,-10.82 7.71,-19.63 17.17,-19.63"
         style="fill:#2e4b20;fill-opacity:1;fill-rule:evenodd;stroke:none"
         id="path64" /><path
         d="m 2502.77,4525.15 c 19.3,0 35.06,17.99 35.06,40.05 0,22.06 -15.76,40.06 -35.06,40.06 -19.3,0 -35.06,-18 -35.06,-40.06 0,-22.06 15.76,-40.05 35.06,-40.05"
         style="fill:#549d34;fill-opacity:1;fill-rule:evenodd;stroke:none"
         id="path66" /><path
         d="m 2495.26,4545.57 c 9.45,0 17.18,8.82 17.18,19.63 0,10.81 -7.73,19.63 -17.18,19.63 -9.46,0 -17.18,-8.82 -17.18,-19.63 0,-10.81 7.72,-19.63 17.18,-19.63"
         style="fill:#2e4b20;fill-opacity:1;fill-rule:evenodd;stroke:none"
         id="path68" /><path
         d="m 1572.73,4136.76 c 19.3,0 35.05,18 35.05,40.06 0,22.07 -15.75,40.06 -35.05,40.06 -19.31,0 -35.05,-17.99 -35.05,-40.06 0,-22.06 15.74,-40.06 35.05,-40.06"
         style="fill:#549d34;fill-opacity:1;fill-rule:evenodd;stroke:none"
         id="path70" /><path
         d="m 1565.21,4157.2 c 9.47,0 17.18,8.81 17.18,19.62 0,10.81 -7.71,19.62 -17.18,19.62 -9.45,0 -17.18,-8.81 -17.18,-19.62 0,-10.81 7.73,-19.62 17.18,-19.62"
         style="fill:#2e4b20;fill-opacity:1;fill-rule:evenodd;stroke:none"
         id="path72" /><path
         d="m 2213.73,4270.85 c 19.3,0 35.06,18 35.06,40.07 0,22.06 -15.76,40.06 -35.06,40.06 -19.3,0 -35.04,-18 -35.04,-40.06 0,-22.07 15.74,-40.07 35.04,-40.07"
         style="fill:#549d34;fill-opacity:1;fill-rule:evenodd;stroke:none"
         id="path74" /><path
         d="m 2206.23,4291.29 c 9.46,0 17.17,8.82 17.17,19.63 0,10.81 -7.71,19.63 -17.17,19.63 -9.45,0 -17.16,-8.82 -17.16,-19.63 0,-10.81 7.71,-19.63 17.16,-19.63"
         style="fill:#2e4b20;fill-opacity:1;fill-rule:evenodd;stroke:none"
         id="path76" /><path
         d="m 1331.46,4665.32 c 19.31,0 35.05,18 35.05,40.06 0,22.06 -15.74,40.06 -35.05,40.06 -19.3,0 -35.05,-18 -35.05,-40.06 0,-22.06 15.75,-40.06 35.05,-40.06"
         style="fill:#549d34;fill-opacity:1;fill-rule:evenodd;stroke:none"
         id="path78" /><path
         d="m 1323.96,4685.76 c 9.45,0 17.17,8.81 17.17,19.62 0,10.81 -7.72,19.63 -17.17,19.63 -9.47,0 -17.18,-8.82 -17.18,-19.63 0,-10.81 7.71,-19.62 17.18,-19.62"
         style="fill:#2e4b20;fill-opacity:1;fill-rule:evenodd;stroke:none"
         id="path80" /><path
         d="m 614.07,4353.45 c 19.305,0 35.055,17.99 35.055,40.05 0,22.07 -15.75,40.06 -35.055,40.06 -19.308,0 -35.05,-17.99 -35.05,-40.06 0,-22.06 15.742,-40.05 35.05,-40.05"
         style="fill:#448733;fill-opacity:1;fill-rule:evenodd;stroke:none"
         id="path82" /><path
         d="m 606.559,4373.87 c 9.453,0 17.175,8.82 17.175,19.63 0,10.82 -7.722,19.63 -17.175,19.63 -9.457,0 -17.18,-8.81 -17.18,-19.63 0,-10.81 7.723,-19.63 17.18,-19.63"
         style="fill:#2e4b20;fill-opacity:1;fill-rule:evenodd;stroke:none"
         id="path84" /><path
         d="m 4020.73,3782.24 c 309.25,0 559.94,250.7 559.94,559.94 0,309.25 -250.69,559.95 -559.94,559.95 -309.25,0 -559.94,-250.7 -559.94,-559.95 0,-309.24 250.69,-559.94 559.94,-559.94"
         style="fill:#bbe15e;fill-opacity:1;fill-rule:evenodd;stroke:none"
         id="path86" /><path
         d="m 4020.73,3848.05 c 272.9,0 494.14,221.23 494.14,494.13 0,272.91 -221.24,494.14 -494.14,494.14 -272.88,0 -494.13,-221.23 -494.13,-494.14 0,-272.9 221.25,-494.13 494.13,-494.13"
         style="fill:#d5eb84;fill-opacity:1;fill-rule:evenodd;stroke:none"
         id="path88" /><path
         d="m 4020.73,3979.62 c 200.24,0 362.58,162.33 362.58,362.56 0,200.24 -162.34,362.56 -362.58,362.56 -200.22,0 -362.55,-162.32 -362.55,-362.56 0,-200.23 162.33,-362.56 362.55,-362.56"
         style="fill:#e9f4b8;fill-opacity:1;fill-rule:evenodd;stroke:none"
         id="path90" /><path
         d="m 4020.75,4131.37 c 116.42,0 210.81,94.38 210.81,210.81 0,116.43 -94.39,210.83 -210.81,210.83 -116.44,0 -210.82,-94.4 -210.82,-210.83 0,-116.43 94.38,-210.81 210.82,-210.81"
         style="fill:#d5eb84;fill-opacity:1;fill-rule:evenodd;stroke:none"
         id="path92" /><path
         d="m 3984.83,4326.25 c -15.27,19.32 -66.62,4.13 -114.63,-33.92 -48.02,-38.02 -74.54,-84.52 -59.23,-103.83 15.29,-19.31 66.62,-4.15 114.63,33.9 48.02,38.03 74.54,84.53 59.23,103.85 z m -4.21,56.98 c -17.65,-15.04 -62.25,8.33 -99.6,52.19 -37.37,43.86 -53.36,91.59 -35.73,106.62 17.65,15.03 62.24,-8.34 99.6,-52.18 37.37,-43.87 53.38,-91.61 35.73,-106.63 z m 71.63,65.64 c 27.6,-1.72 53.44,52.51 57.71,121.12 4.27,68.61 -14.63,125.63 -42.24,127.36 -27.6,1.72 -53.44,-52.52 -57.71,-121.13 -4.27,-68.61 14.63,-125.63 42.24,-127.35 z m 36.47,-87.44 c -15.58,22.88 17.9,72.76 74.74,111.43 56.84,38.66 115.53,51.48 131.09,28.61 15.55,-22.88 -17.92,-72.75 -74.77,-111.42 -56.85,-38.66 -115.53,-51.48 -131.06,-28.62 z m 191.22,-174.26 c 12.89,18.92 -14.83,60.23 -61.89,92.24 -47.06,32.03 -95.65,42.62 -108.54,23.69 -12.89,-18.93 14.82,-60.23 61.88,-92.25 47.07,-32.01 95.68,-42.62 108.55,-23.68 z m -250.12,97.95 c 27.67,0 50.08,-55.74 50.08,-124.49 0,-68.74 -22.41,-124.46 -50.08,-124.46 -27.65,0 -50.06,55.72 -50.06,124.46 0,68.75 22.41,124.49 50.06,124.49 v 0"
         style="fill:#f9fce9;fill-opacity:1;fill-rule:evenodd;stroke:none"
         id="path94" /><path
         d="m 4629.56,4983.19 h 114.97 c 352.55,0 641,-288.45 641,-641.01 0,-341.42 -270.52,-622.73 -607.82,-640.15 h -113.82 c -10.04,-0.52 -20.15,-0.81 -30.32,-0.86 h -0.53 -0.54 -2.51 c -353.83,0.23 -640.61,287.13 -640.61,641.01 0,353.75 286.55,640.56 640.18,641.01"
         style="fill:#448733;fill-opacity:1;fill-rule:evenodd;stroke:none"
         id="path96" /><path
         d="m 4238.13,4849.15 h 515.49 c 347.56,0 631.91,-228.14 631.91,-506.97 0,-278.83 -284.35,-506.96 -631.91,-506.96 h -515.49 c -151.32,117.25 -248.75,300.72 -248.75,506.96 0,206.24 97.43,389.71 248.75,506.97"
         style="fill:#549d34;fill-opacity:1;fill-rule:evenodd;stroke:none"
         id="path98" /><path
         d="m 4168.08,4786.19 h 282.18 c 276.92,0 503.5,-161.17 503.5,-358.16 0,-196.99 -226.58,-358.15 -503.5,-358.15 h -400.27 c -38.85,82.65 -60.61,174.93 -60.61,272.3 0,172.36 68.04,328.81 178.7,444.01"
         style="fill:#62ac31;fill-opacity:1;fill-rule:evenodd;stroke:none"
         id="path100" /><path
         d="m 4168.08,4786.19 h 389.9 c 217.68,0 395.78,-20.81 395.78,-46.24 0,-25.43 -178.1,-46.24 -395.78,-46.24 h -463.64 c 21.72,33.08 46.43,64.04 73.74,92.48"
         style="fill:#82cd27;fill-opacity:1;fill-rule:evenodd;stroke:none"
         id="path102" /><path
         d="m 4006.18,4488.57 h 270.92 c 263.57,0 479.2,-20.8 479.2,-46.23 0,-25.43 -215.63,-46.24 -479.2,-46.24 h -285.45 c 2.64,31.52 7.52,62.41 14.53,92.47"
         style="fill:#82cd27;fill-opacity:1;fill-rule:evenodd;stroke:none"
         id="path104" /><path
         d="m 4085.21,4004.95 h 412.26 c 263.55,0 479.18,-20.8 479.18,-46.23 0,-25.44 -215.63,-46.25 -479.18,-46.25 h -342.71 c -25.84,28.6 -49.13,59.55 -69.55,92.48"
         style="fill:#82cd27;fill-opacity:1;fill-rule:evenodd;stroke:none"
         id="path106" /><path
         d="m 4778.01,3702.03 c 338.44,17.42 607.52,297.38 607.52,640.15 0,354.03 -287,641.02 -641.02,641.02 -354.02,0.01 -641.02,-286.99 -641.04,-641.01 0.02,-342.78 269.08,-622.74 607.54,-640.16 h 67"
         style="fill:#448733;fill-opacity:1;fill-rule:evenodd;stroke:none"
         id="path108" /><path
         d="m 4744.51,3782.24 c 309.24,0 559.94,250.7 559.94,559.94 0,309.25 -250.7,559.95 -559.94,559.95 -309.25,0 -559.96,-250.7 -559.96,-559.95 0,-309.24 250.71,-559.94 559.96,-559.94"
         style="fill:#bbe15e;fill-opacity:1;fill-rule:evenodd;stroke:none"
         id="path110" /><path
         d="m 4744.51,3848.05 c 272.9,0 494.12,221.23 494.12,494.13 0,272.91 -221.22,494.14 -494.12,494.14 -272.9,0 -494.13,-221.23 -494.13,-494.14 0,-272.9 221.23,-494.13 494.13,-494.13"
         style="fill:#d5eb84;fill-opacity:1;fill-rule:evenodd;stroke:none"
         id="path112" /><path
         d="m 4744.51,3979.63 c 200.22,0 362.56,162.32 362.56,362.55 0,200.24 -162.34,362.56 -362.56,362.56 -200.24,0 -362.55,-162.32 -362.55,-362.56 0,-200.23 162.31,-362.55 362.55,-362.55"
         style="fill:#e9f4b8;fill-opacity:1;fill-rule:evenodd;stroke:none"
         id="path114" /><path
         d="m 4744.51,4131.36 c 116.42,0 210.83,94.39 210.83,210.82 0,116.43 -94.41,210.84 -210.83,210.84 -116.44,0 -210.82,-94.41 -210.82,-210.84 0,-116.43 94.38,-210.82 210.82,-210.82"
         style="fill:#d5eb84;fill-opacity:1;fill-rule:evenodd;stroke:none"
         id="path116" /><path
         d="m 4708.61,4326.25 c -15.29,19.32 -66.62,4.13 -114.63,-33.92 -48.04,-38.02 -74.54,-84.52 -59.25,-103.83 15.31,-19.31 66.64,-4.15 114.65,33.9 48.02,38.03 74.54,84.53 59.23,103.85 z m -4.21,56.98 c -17.65,-15.04 -62.25,8.33 -99.62,52.19 -37.37,43.86 -53.36,91.59 -35.71,106.62 17.64,15.03 62.24,-8.34 99.6,-52.18 37.37,-43.87 53.38,-91.61 35.73,-106.63 z m 71.61,65.64 c 27.62,-1.72 53.44,52.51 57.73,121.12 4.26,68.61 -14.65,125.63 -42.26,127.36 -27.6,1.72 -53.44,-52.52 -57.71,-121.13 -4.27,-68.61 14.63,-125.63 42.24,-127.35 z m 36.47,-87.44 c -15.56,22.88 17.92,72.76 74.74,111.43 56.85,38.66 115.55,51.48 131.09,28.61 15.55,-22.88 -17.9,-72.75 -74.75,-111.42 -56.85,-38.66 -115.55,-51.48 -131.08,-28.62 z m 191.24,-174.26 c 12.87,18.92 -14.83,60.23 -61.89,92.24 -47.08,32.03 -95.67,42.62 -108.54,23.69 -12.89,-18.93 14.82,-60.23 61.89,-92.25 47.06,-32.01 95.65,-42.62 108.54,-23.68 z m -250.12,97.95 c 27.65,0 50.08,-55.74 50.08,-124.49 0,-68.74 -22.43,-124.46 -50.08,-124.46 -27.67,0 -50.08,55.72 -50.08,124.46 0,68.75 22.41,124.49 50.08,124.49 v 0"
         style="fill:#f9fce9;fill-opacity:1;fill-rule:evenodd;stroke:none"
         id="path118" /><path
         d="m 4931.45,4051.09 40.5,72.82 c 124.25,223.32 499.95,301.99 834.91,174.81 324.39,-123.15 496.34,-395.97 394.04,-615.89 l -40.11,-72.1 c -3.04,-6.56 -6.33,-13.07 -9.88,-19.54 l -0.18,-0.32 -0.19,-0.34 -0.88,-1.6 c -124.91,-224.03 -498.55,-302.2 -834.77,-174.55 -336.1,127.59 -507.61,412.54 -383.44,636.71"
         style="fill:#448733;fill-opacity:1;fill-rule:evenodd;stroke:none"
         id="path120" /><path
         d="m 4920.86,3754.8 181.67,326.53 c 122.47,220.14 439.43,317.97 704.33,217.39 264.93,-100.57 381.48,-362.96 259,-583.12 l -181.65,-326.53 c -164.72,-53.54 -373.37,-49.08 -569.32,25.31 -195.96,74.39 -335.93,202.28 -394.03,340.42"
         style="fill:#549d34;fill-opacity:1;fill-rule:evenodd;stroke:none"
         id="path122" /><path
         d="m 4956,3687.73 99.43,178.73 c 97.59,175.41 330.57,260.8 517.73,189.74 187.17,-71.05 260.44,-272.71 162.85,-448.11 l -141.05,-253.56 c -92.22,5.21 -187.55,24.73 -280.07,59.85 -163.75,62.17 -288.42,161.69 -358.89,273.35"
         style="fill:#62ac31;fill-opacity:1;fill-rule:evenodd;stroke:none"
         id="path124" /><path
         d="m 4956,3687.73 137.4,246.96 c 76.71,137.89 159.24,243.2 183.4,234.02 24.17,-9.18 -18.83,-129.48 -95.54,-267.37 l -163.38,-293.69 c -23.75,25.7 -44.48,52.52 -61.88,80.08"
         style="fill:#82cd27;fill-opacity:1;fill-rule:evenodd;stroke:none"
         id="path126" /><path
         d="m 5181.71,3477.83 95.48,171.61 c 92.88,166.95 188.63,296.02 212.79,286.85 24.16,-9.17 -32.05,-153.26 -124.93,-320.21 l -100.58,-180.82 c -29.03,13.04 -56.65,27.27 -82.76,42.57"
         style="fill:#82cd27;fill-opacity:1;fill-rule:evenodd;stroke:none"
         id="path128" /><path
         d="m 5669.07,3353.44 145.26,261.12 c 92.88,166.95 188.64,296.02 212.78,286.86 24.18,-9.18 -32.04,-153.27 -124.92,-320.22 l -120.76,-217.06 c -36.29,-6.07 -73.89,-9.66 -112.36,-10.7"
         style="fill:#82cd27;fill-opacity:1;fill-rule:evenodd;stroke:none"
         id="path130" /><path
         d="m 6200.99,3683 c 102.74,220.67 -68.45,492.08 -394.13,615.72 -336.36,127.7 -710.16,49.43 -834.91,-174.81 -124.77,-224.24 46.79,-509.56 383.14,-637.26 325.69,-123.63 686.48,-54.18 822.3,153.92 l 23.6,42.43"
         style="fill:#448733;fill-opacity:1;fill-rule:evenodd;stroke:none"
         id="path132" /><path
         d="m 6112.98,3690.71 c 108.98,195.89 -40.88,445.11 -334.67,556.66 -293.83,111.55 -620.37,43.18 -729.34,-152.7 -108.97,-195.89 40.88,-445.12 334.7,-556.67 293.83,-111.54 620.34,-43.17 729.31,152.71"
         style="fill:#bbe15e;fill-opacity:1;fill-rule:evenodd;stroke:none"
         id="path134" /><path
         d="m 6050.45,3714.45 c 96.18,172.86 -36.06,392.8 -295.34,491.23 -259.3,98.44 -547.44,38.11 -643.61,-134.75 -96.15,-172.86 36.06,-392.8 295.36,-491.23 259.29,-98.44 547.42,-38.1 643.59,134.75"
         style="fill:#d5eb84;fill-opacity:1;fill-rule:evenodd;stroke:none"
         id="path136" /><path
         d="m 5925.44,3761.91 c 70.56,126.84 -26.45,288.2 -216.7,360.43 -190.24,72.22 -401.66,27.96 -472.23,-98.88 -70.56,-126.82 26.47,-288.2 216.71,-360.42 190.25,-72.23 401.68,-27.95 472.22,98.87"
         style="fill:#e9f4b8;fill-opacity:1;fill-rule:evenodd;stroke:none"
         id="path138" /><path
         d="m 5781.28,3816.64 c 41.03,73.76 -15.39,167.59 -126.01,209.59 -110.62,42 -233.58,16.26 -274.6,-57.5 -41.03,-73.75 15.39,-167.58 126.01,-209.58 110.64,-42 233.58,-16.26 274.6,57.49"
         style="fill:#d5eb84;fill-opacity:1;fill-rule:evenodd;stroke:none"
         id="path140" /><path
         d="m 5583.46,3864.2 c -23.71,-2.72 -27.38,-40.71 -8.17,-84.84 19.23,-44.14 54.06,-77.71 77.8,-74.98 23.73,2.73 27.4,40.71 8.19,84.85 -19.22,44.13 -54.06,77.7 -77.82,74.97 z m -55.6,17.89 c 8.06,-16.6 -29.86,-36.42 -84.7,-44.27 -54.83,-7.86 -105.82,-0.77 -113.89,15.83 -8.05,16.6 29.87,36.41 84.69,44.27 54.83,7.85 105.83,0.76 113.9,-15.83 z m -37.14,69.05 c 11.36,16.86 -31.06,52.77 -94.74,80.24 -63.67,27.46 -124.52,36.05 -135.89,19.18 -11.36,-16.87 31.06,-52.79 94.76,-80.24 63.68,-27.46 124.51,-36.05 135.87,-19.18 z m 95.93,-8.46 c -27.22,-1.6 -62.83,37.6 -79.52,87.55 -16.71,49.95 -8.21,91.75 18.99,93.35 27.21,1.6 62.82,-37.59 79.53,-87.55 16.7,-49.94 8.2,-91.74 -19,-93.35 z m 232.95,58.28 c -13.44,14.99 -62.45,12.33 -109.45,-5.93 -47,-18.26 -74.21,-45.22 -60.75,-60.21 13.43,-14.98 62.45,-12.33 109.45,5.94 47,18.26 74.21,45.22 60.75,60.2 z m -181.2,-123.09 c 9.75,17.51 70.6,11.62 135.91,-13.18 65.32,-24.8 110.37,-59.11 100.63,-76.63 -9.74,-17.51 -70.59,-11.62 -135.91,13.19 -65.31,24.79 -110.37,59.1 -100.63,76.62 v 0"
         style="fill:#f9fce9;fill-opacity:1;fill-rule:evenodd;stroke:none"
         id="path142" /><path
         d="M 2067.63,2880.63 H 4345.5 c 352.56,0 806.99,-288.44 806.99,-641.01 0,-352.57 -454.43,-641.01 -806.99,-641.01 H 2067.63 c -1907.353,0 -1803.329,1282.02 0,1282.02"
         style="fill:#448733;fill-opacity:1;fill-rule:evenodd;stroke:none"
         id="path144" /><path
         d="m 2109.07,2746.58 h 2245.54 c 347.55,0 729.2,-228.12 729.2,-506.96 0,-278.83 -381.65,-506.96 -729.2,-506.96 H 2109.07 c -1880.265,0 -1777.718,1013.92 0,1013.92"
         style="fill:#549d34;fill-opacity:1;fill-rule:evenodd;stroke:none"
         id="path146" /><path
         d="m 2262.02,2683.62 h 2058.24 c 276.92,0 503.49,-161.16 503.49,-358.15 0,-197 -226.57,-358.16 -503.49,-358.16 H 2262.02 c -1498.168,0 -1416.454,716.31 0,716.31"
         style="fill:#62ac31;fill-opacity:1;fill-rule:evenodd;stroke:none"
         id="path148" /><path
         d="m 2752.49,2683.62 h 1406.46 c 217.7,0 395.79,-20.8 395.79,-46.24 0,-25.43 -178.09,-46.23 -395.79,-46.23 H 2752.49 c -1177.67,0 -1113.44,92.47 0,92.47"
         style="fill:#82cd27;fill-opacity:1;fill-rule:evenodd;stroke:none"
         id="path150" /><path
         d="m 2175.26,2386.01 h 2275.18 c 263.55,0 479.18,-20.81 479.18,-46.24 0,-25.43 -215.63,-46.24 -479.18,-46.24 H 2175.26 c -1425.846,0 -1348.08,92.48 0,92.48"
         style="fill:#82cd27;fill-opacity:1;fill-rule:evenodd;stroke:none"
         id="path152" /><path
         d="m 2395.61,1902.38 h 1702.83 c 263.57,0 479.19,-20.81 479.19,-46.22 0,-25.45 -215.62,-46.24 -479.19,-46.24 H 2395.61 c -1425.86,0 -1348.09,92.46 0,92.46"
         style="fill:#82cd27;fill-opacity:1;fill-rule:evenodd;stroke:none"
         id="path154" /><path
         d="m 2793.16,2027.38 c 38.62,0 70.11,35.99 70.11,80.11 0,44.14 -31.49,80.15 -70.11,80.15 -38.62,0 -70.1,-36.01 -70.1,-80.15 0,-44.12 31.48,-80.11 70.1,-80.11"
         style="fill:#549d34;fill-opacity:1;fill-rule:evenodd;stroke:none"
         id="path156" /><path
         d="m 2778.14,2068.25 c 18.92,0 34.34,17.63 34.34,39.24 0,21.63 -15.42,39.28 -34.34,39.28 -18.91,0 -34.33,-17.65 -34.33,-39.28 0,-21.61 15.42,-39.24 34.33,-39.24"
         style="fill:#2e4b20;fill-opacity:1;fill-rule:evenodd;stroke:none"
         id="path158" /><path
         d="m 1892.28,2390.82 c 38.6,0 70.09,36 70.09,80.14 0,44.12 -31.49,80.11 -70.09,80.11 -38.64,0 -70.13,-35.99 -70.13,-80.11 0,-44.14 31.49,-80.14 70.13,-80.14"
         style="fill:#549d34;fill-opacity:1;fill-rule:evenodd;stroke:none"
         id="path160" /><path
         d="m 1877.25,2431.7 c 18.91,0 34.33,17.62 34.33,39.26 0,21.61 -15.42,39.23 -34.33,39.23 -18.92,0 -34.34,-17.62 -34.34,-39.23 0,-21.64 15.42,-39.26 34.34,-39.26"
         style="fill:#2e4b20;fill-opacity:1;fill-rule:evenodd;stroke:none"
         id="path162" /><path
         d="m 1590.21,1988.02 c 38.61,0 70.1,35.98 70.1,80.12 0,44.11 -31.49,80.11 -70.1,80.11 -38.63,0 -70.12,-36 -70.12,-80.11 0,-44.14 31.49,-80.12 70.12,-80.12"
         style="fill:#549d34;fill-opacity:1;fill-rule:evenodd;stroke:none"
         id="path164" /><path
         d="m 1575.18,2028.89 c 18.92,0 34.35,17.64 34.35,39.25 0,21.61 -15.43,39.26 -34.35,39.26 -18.91,0 -34.35,-17.65 -34.35,-39.26 0,-21.61 15.44,-39.25 34.35,-39.25"
         style="fill:#2e4b20;fill-opacity:1;fill-rule:evenodd;stroke:none"
         id="path166" /><path
         d="m 3324.38,2400.1 c 38.59,0 70.09,35.98 70.09,80.11 0,44.13 -31.5,80.13 -70.09,80.13 -38.62,0 -70.13,-36 -70.13,-80.13 0,-44.13 31.51,-80.11 70.13,-80.11"
         style="fill:#549d34;fill-opacity:1;fill-rule:evenodd;stroke:none"
         id="path168" /><path
         d="m 3309.34,2440.97 c 18.91,0 34.34,17.62 34.34,39.24 0,21.62 -15.43,39.26 -34.34,39.26 -18.91,0 -34.34,-17.64 -34.34,-39.26 0,-21.62 15.43,-39.24 34.34,-39.24"
         style="fill:#2e4b20;fill-opacity:1;fill-rule:evenodd;stroke:none"
         id="path170" /><path
         d="m 3559.03,1913.62 c 38.62,0 70.11,36 70.11,80.11 0,44.14 -31.49,80.14 -70.11,80.14 -38.62,0 -70.11,-36 -70.11,-80.14 0,-44.11 31.49,-80.11 70.11,-80.11"
         style="fill:#549d34;fill-opacity:1;fill-rule:evenodd;stroke:none"
         id="path172" /><path
         d="m 3543.99,1954.49 c 18.93,0 34.35,17.63 34.35,39.24 0,21.63 -15.42,39.28 -34.35,39.28 -18.91,0 -34.34,-17.65 -34.34,-39.28 0,-21.61 15.43,-39.24 34.34,-39.24"
         style="fill:#2e4b20;fill-opacity:1;fill-rule:evenodd;stroke:none"
         id="path174" /><path
         d="m 1126.62,1982.29 c 38.62,0 70.11,36 70.11,80.11 0,44.16 -31.49,80.15 -70.11,80.15 -38.61,0 -70.11,-35.99 -70.11,-80.15 0,-44.11 31.5,-80.11 70.11,-80.11"
         style="fill:#448733;fill-opacity:1;fill-rule:evenodd;stroke:none"
         id="path176" /><path
         d="m 1111.59,2023.16 c 18.92,0 34.35,17.63 34.35,39.24 0,21.63 -15.43,39.28 -34.35,39.28 -18.9,0 -34.34,-17.65 -34.34,-39.28 0,-21.61 15.44,-39.24 34.34,-39.24"
         style="fill:#2e4b20;fill-opacity:1;fill-rule:evenodd;stroke:none"
         id="path178" /><path
         d="m 1427.09,2445.88 c 38.62,0 70.11,35.99 70.11,80.11 0,44.15 -31.49,80.14 -70.11,80.14 -38.62,0 -70.11,-35.99 -70.11,-80.14 0,-44.12 31.49,-80.11 70.11,-80.11"
         style="fill:#549d34;fill-opacity:1;fill-rule:evenodd;stroke:none"
         id="path180" /><path
         d="m 1412.07,2486.76 c 18.92,0 34.34,17.61 34.34,39.23 0,21.63 -15.42,39.26 -34.34,39.26 -18.92,0 -34.35,-17.63 -34.35,-39.26 0,-21.62 15.43,-39.23 34.35,-39.23"
         style="fill:#2e4b20;fill-opacity:1;fill-rule:evenodd;stroke:none"
         id="path182" /><path
         d="m 2170.4,2088.19 c 19.32,0 35.06,17.98 35.06,40.05 0,22.06 -15.74,40.06 -35.06,40.06 -19.3,0 -35.05,-18 -35.05,-40.06 0,-22.07 15.75,-40.05 35.05,-40.05"
         style="fill:#549d34;fill-opacity:1;fill-rule:evenodd;stroke:none"
         id="path184" /><path
         d="m 2162.91,2108.61 c 9.44,0 17.16,8.83 17.16,19.63 0,10.81 -7.72,19.62 -17.16,19.62 -9.47,0 -17.18,-8.81 -17.18,-19.62 0,-10.8 7.71,-19.63 17.18,-19.63"
         style="fill:#2e4b20;fill-opacity:1;fill-rule:evenodd;stroke:none"
         id="path186" /><path
         d="m 3164.16,1946.87 c 19.29,0 35.05,18 35.05,40.08 0,22.06 -15.76,40.05 -35.05,40.05 -19.31,0 -35.05,-17.99 -35.05,-40.05 0,-22.08 15.74,-40.08 35.05,-40.08"
         style="fill:#549d34;fill-opacity:1;fill-rule:evenodd;stroke:none"
         id="path188" /><path
         d="m 3156.65,1967.31 c 9.46,0 17.17,8.81 17.17,19.64 0,10.8 -7.71,19.62 -17.17,19.62 -9.45,0 -17.16,-8.82 -17.16,-19.62 0,-10.83 7.71,-19.64 17.16,-19.64"
         style="fill:#2e4b20;fill-opacity:1;fill-rule:evenodd;stroke:none"
         id="path190" /><path
         d="m 2827.53,2422.57 c 19.31,0 35.05,18 35.05,40.07 0,22.07 -15.74,40.06 -35.05,40.06 -19.3,0 -35.06,-17.99 -35.06,-40.06 0,-22.07 15.76,-40.07 35.06,-40.07"
         style="fill:#549d34;fill-opacity:1;fill-rule:evenodd;stroke:none"
         id="path192" /><path
         d="m 2820.01,2443.01 c 9.46,0 17.18,8.81 17.18,19.63 0,10.81 -7.72,19.62 -17.18,19.62 -9.47,0 -17.18,-8.81 -17.18,-19.62 0,-10.82 7.71,-19.63 17.18,-19.63"
         style="fill:#2e4b20;fill-opacity:1;fill-rule:evenodd;stroke:none"
         id="path194" /><path
         d="m 1897.48,2034.2 c 19.32,0 35.06,18 35.06,40.06 0,22.05 -15.74,40.05 -35.06,40.05 -19.3,0 -35.04,-18 -35.04,-40.05 0,-22.06 15.74,-40.06 35.04,-40.06"
         style="fill:#549d34;fill-opacity:1;fill-rule:evenodd;stroke:none"
         id="path196" /><path
         d="m 1889.97,2054.64 c 9.46,0 17.18,8.81 17.18,19.62 0,10.8 -7.72,19.63 -17.18,19.63 -9.46,0 -17.18,-8.83 -17.18,-19.63 0,-10.81 7.72,-19.62 17.18,-19.62"
         style="fill:#2e4b20;fill-opacity:1;fill-rule:evenodd;stroke:none"
         id="path198" /><path
         d="m 2538.5,2168.3 c 19.3,0 35.06,18 35.06,40.06 0,22.06 -15.76,40.05 -35.06,40.05 -19.3,0 -35.06,-17.99 -35.06,-40.05 0,-22.06 15.76,-40.06 35.06,-40.06"
         style="fill:#549d34;fill-opacity:1;fill-rule:evenodd;stroke:none"
         id="path200" /><path
         d="m 2530.97,2188.72 c 9.47,0 17.18,8.83 17.18,19.64 0,10.8 -7.71,19.64 -17.18,19.64 -9.44,0 -17.16,-8.84 -17.16,-19.64 0,-10.81 7.72,-19.64 17.16,-19.64"
         style="fill:#2e4b20;fill-opacity:1;fill-rule:evenodd;stroke:none"
         id="path202" /><path
         d="m 1656.22,2562.75 c 19.31,0 35.05,18 35.05,40.07 0,22.06 -15.74,40.06 -35.05,40.06 -19.3,0 -35.05,-18 -35.05,-40.06 0,-22.07 15.75,-40.07 35.05,-40.07"
         style="fill:#549d34;fill-opacity:1;fill-rule:evenodd;stroke:none"
         id="path204" /><path
         d="m 1648.72,2583.19 c 9.45,0 17.17,8.82 17.17,19.63 0,10.81 -7.72,19.62 -17.17,19.62 -9.47,0 -17.18,-8.81 -17.18,-19.62 0,-10.81 7.71,-19.63 17.18,-19.63"
         style="fill:#2e4b20;fill-opacity:1;fill-rule:evenodd;stroke:none"
         id="path206" /><path
         d="m 938.824,2250.87 c 19.313,0 35.055,18 35.055,40.07 0,22.07 -15.742,40.06 -35.055,40.06 -19.304,0 -35.047,-17.99 -35.047,-40.06 0,-22.07 15.743,-40.07 35.047,-40.07"
         style="fill:#448733;fill-opacity:1;fill-rule:evenodd;stroke:none"
         id="path208" /><path
         d="m 931.313,2271.31 c 9.457,0 17.179,8.81 17.179,19.63 0,10.81 -7.722,19.63 -17.179,19.63 -9.454,0 -17.176,-8.82 -17.176,-19.63 0,-10.82 7.722,-19.63 17.176,-19.63"
         style="fill:#2e4b20;fill-opacity:1;fill-rule:evenodd;stroke:none"
         id="path210" /><path
         d="m 4079.17,2066.32 c 38.61,0 70.09,35.99 70.09,80.1 0,44.16 -31.48,80.16 -70.09,80.16 -38.62,0 -70.12,-36 -70.12,-80.16 0,-44.11 31.5,-80.1 70.12,-80.1"
         style="fill:#549d34;fill-opacity:1;fill-rule:evenodd;stroke:none"
         id="path212" /><path
         d="m 4064.16,2107.2 c 18.89,0 34.33,17.61 34.33,39.22 0,21.64 -15.44,39.28 -34.33,39.28 -18.93,0 -34.36,-17.64 -34.36,-39.28 0,-21.61 15.43,-39.22 34.36,-39.22"
         style="fill:#2e4b20;fill-opacity:1;fill-rule:evenodd;stroke:none"
         id="path214" /><path
         d="m 4473.96,1924.76 c 38.62,0 70.11,35.99 70.11,80.11 0,44.15 -31.49,80.15 -70.11,80.15 -38.62,0 -70.11,-36 -70.11,-80.15 0,-44.12 31.49,-80.11 70.11,-80.11"
         style="fill:#549d34;fill-opacity:1;fill-rule:evenodd;stroke:none"
         id="path216" /><path
         d="m 4458.94,1965.63 c 18.91,0 34.34,17.63 34.34,39.24 0,21.63 -15.43,39.28 -34.34,39.28 -18.93,0 -34.36,-17.65 -34.36,-39.28 0,-21.61 15.43,-39.24 34.36,-39.24"
         style="fill:#2e4b20;fill-opacity:1;fill-rule:evenodd;stroke:none"
         id="path218" /><path
         d="m 4695.14,2454.69 c 38.62,0 70.11,35.99 70.11,80.13 0,44.12 -31.49,80.12 -70.11,80.12 -38.62,0 -70.11,-36 -70.11,-80.12 0,-44.14 31.49,-80.13 70.11,-80.13"
         style="fill:#549d34;fill-opacity:1;fill-rule:evenodd;stroke:none"
         id="path220" /><path
         d="m 4680.1,2495.57 c 18.93,0 34.36,17.62 34.36,39.25 0,21.61 -15.43,39.25 -34.36,39.25 -18.9,0 -34.33,-17.64 -34.33,-39.25 0,-21.63 15.43,-39.25 34.33,-39.25"
         style="fill:#2e4b20;fill-opacity:1;fill-rule:evenodd;stroke:none"
         id="path222" /><path
         d="m 3743.64,2431.8 c 19.3,0 35.06,17.99 35.06,40.04 0,22.07 -15.76,40.07 -35.06,40.07 -19.3,0 -35.06,-18 -35.06,-40.07 0,-22.05 15.76,-40.04 35.06,-40.04"
         style="fill:#549d34;fill-opacity:1;fill-rule:evenodd;stroke:none"
         id="path224" /><path
         d="m 3736.13,2452.23 c 9.44,0 17.18,8.81 17.18,19.61 0,10.82 -7.74,19.63 -17.18,19.63 -9.46,0 -17.18,-8.81 -17.18,-19.63 0,-10.8 7.72,-19.61 17.18,-19.61"
         style="fill:#2e4b20;fill-opacity:1;fill-rule:evenodd;stroke:none"
         id="path226" /><path
         d="m 4298.79,2443.24 c 19.32,0 35.06,18 35.06,40.06 0,22.06 -15.74,40.06 -35.06,40.06 -19.3,0 -35.04,-18 -35.04,-40.06 0,-22.06 15.74,-40.06 35.04,-40.06"
         style="fill:#549d34;fill-opacity:1;fill-rule:evenodd;stroke:none"
         id="path228" /><path
         d="m 4291.28,2463.67 c 9.47,0 17.18,8.82 17.18,19.63 0,10.81 -7.71,19.63 -17.18,19.63 -9.46,0 -17.17,-8.82 -17.17,-19.63 0,-10.81 7.71,-19.63 17.17,-19.63"
         style="fill:#2e4b20;fill-opacity:1;fill-rule:evenodd;stroke:none"
         id="path230" /><path
         d="m 5040.59,2112.48 c 50.78,0 92.2,73.67 92.2,163.95 0,90.31 -41.42,163.95 -92.2,163.95 -50.79,0 -92.19,-73.64 -92.19,-163.95 0,-90.28 41.4,-163.95 92.19,-163.95"
         style="fill:#fbc907;fill-opacity:1;fill-rule:evenodd;stroke:none"
         id="path232" /><path
         d="m 2333.78,282.41 c 0,7.32 -1.06,13.621 -3.21,18.809 -2.13,5.254 -5.06,9.293 -8.9,12.133 -3.77,2.8 -7.94,4.199 -12.57,4.199 -7.26,0 -13.44,-3.039 -18.49,-9.02 -4.99,-6.109 -7.55,-14.859 -7.55,-26.582 0,-11.027 2.56,-19.566 7.5,-25.629 5.01,-6.14 11.17,-9.238 18.54,-9.238 4.43,0 8.53,1.359 12.28,4.051 3.69,2.687 6.73,6.699 8.99,11.969 2.3,5.39 3.41,11.781 3.41,19.308 z m -51.93,40.332 v -3.371 c 4.96,6.391 10.16,11.149 15.51,14.141 5.38,3.039 11.49,4.519 18.28,4.519 8.13,0 15.64,-2.222 22.51,-6.582 6.85,-4.398 12.3,-10.789 16.29,-19.258 3.94,-8.41 5.97,-18.429 5.97,-29.972 0,-8.477 -1.19,-16.36 -3.48,-23.379 -2.26,-7.192 -5.43,-13.211 -9.43,-18 -4.04,-4.879 -8.8,-8.59 -14.25,-11.141 -5.47,-2.629 -11.36,-3.879 -17.61,-3.879 -7.61,0 -13.96,1.532 -19.1,4.711 -5.2,3.168 -10.06,7.789 -14.69,13.942 v -41.481 c 0,-12.183 -4.27,-18.222 -12.74,-18.222 -4.96,0 -8.28,1.511 -9.87,4.64 -1.63,3.18 -2.41,7.781 -2.41,13.77 v 119.371 c 0,5.219 1.07,9.238 3.28,11.789 2.22,2.582 5.25,3.941 9,3.941 3.8,0 6.84,-1.359 9.18,-4.039 2.36,-2.703 3.56,-6.562 3.56,-11.5"
         style="fill:#100f0d;fill-opacity:1;fill-rule:nonzero;stroke:none"
         id="path234" /><path
         d="m 2450.53,241.402 v 3.508 c -3.22,-4.18 -6.54,-7.68 -10.05,-10.508 -3.48,-2.871 -7.32,-4.929 -11.4,-6.332 -4.2,-1.39 -8.92,-2.078 -14.2,-2.078 -6.4,0 -12.13,1.399 -17.22,4.16 -5.12,2.739 -9.01,6.578 -11.81,11.43 -3.32,5.887 -4.96,14.32 -4.96,25.258 l 0.01,54.832 c 0,5.539 1.2,9.68 3.6,12.43 2.42,2.679 5.54,4.07 9.49,4.07 4.05,0 7.27,-1.391 9.72,-4.18 2.44,-2.73 3.67,-6.871 3.67,-12.32 v -44.27 c 0,-6.41 0.52,-11.8 1.53,-16.113 1.05,-4.41 2.88,-7.809 5.68,-10.277 2.58,-2.449 6.25,-3.653 10.82,-3.653 4.55,0 8.76,1.411 12.62,4.161 4,2.742 6.89,6.332 8.7,10.769 1.51,3.953 2.22,12.5 2.22,25.793 v 33.59 c 0,5.449 1.25,9.59 3.7,12.32 2.4,2.789 5.64,4.18 9.6,4.18 3.93,0 7.1,-1.391 9.51,-4.07 2.36,-2.75 3.56,-6.891 3.56,-12.43 v -80.09 c 0,-5.273 -1.1,-9.223 -3.47,-11.84 -2.27,-2.633 -5.2,-3.922 -8.85,-3.922 -3.62,0 -6.6,1.41 -8.95,4.051 -2.36,2.781 -3.52,6.559 -3.52,11.531"
         style="fill:#100f0d;fill-opacity:1;fill-rule:nonzero;stroke:none"
         id="path236" /><path
         d="m 2527.41,281.34 c 0,-11.008 2.34,-19.438 7.16,-25.348 4.87,-5.863 11.16,-8.91 19.01,-8.91 6.67,0 12.41,3.047 17.23,9.078 4.86,6.09 7.26,14.699 7.26,25.949 0,7.422 -1.01,13.68 -3.04,18.911 -2,5.3 -4.87,9.351 -8.51,12.203 -3.76,2.859 -8.04,4.328 -12.94,4.328 -5.11,0 -9.53,-1.469 -13.48,-4.328 -3.99,-2.852 -7.08,-7.012 -9.34,-12.481 -2.25,-5.41 -3.35,-11.84 -3.35,-19.402 z m -1.3,82.211 v -42.25 c 4.93,5.429 10.04,9.519 15.2,12.449 5.19,2.891 11.64,4.281 19.23,4.281 8.83,0 16.52,-2.222 23.16,-6.492 6.63,-4.418 11.78,-10.73 15.45,-18.949 3.67,-8.277 5.49,-18.11 5.49,-29.461 0,-8.379 -1.01,-16.09 -3.04,-23.039 -2.07,-7 -5,-13.059 -8.9,-18.231 -3.88,-5.07 -8.61,-9.007 -14.1,-11.898 -5.57,-2.731 -11.68,-4.141 -18.35,-4.141 -4.01,0 -7.88,0.461 -11.49,1.493 -3.6,1.007 -6.69,2.296 -9.2,4.027 -2.49,1.551 -4.66,3.332 -6.44,5.062 -1.78,1.789 -4.08,4.368 -7.01,7.899 v -2.719 c 0,-5.23 -1.23,-9.133 -3.62,-11.84 -2.4,-2.633 -5.44,-3.922 -9.1,-3.922 -3.8,0 -6.73,1.289 -9,3.922 -2.22,2.778 -3.32,6.66 -3.32,11.84 V 362.34 c 0,5.59 1.06,9.769 3.22,12.66 2.21,2.891 5.2,4.332 9.1,4.332 4.04,0 7.22,-1.402 9.39,-4.16 2.22,-2.711 3.33,-6.59 3.33,-11.621"
         style="fill:#100f0d;fill-opacity:1;fill-rule:nonzero;stroke:none"
         id="path238" /><path
         d="M 2623.31,242.621 V 362.5 c 0,5.582 1.19,9.762 3.52,12.59 2.39,2.801 5.59,4.242 9.57,4.242 4.04,0 7.27,-1.402 9.73,-4.242 2.4,-2.738 3.71,-6.988 3.71,-12.59 V 242.621 c 0,-5.66 -1.31,-9.891 -3.78,-12.66 -2.5,-2.731 -5.71,-4.141 -9.66,-4.141 -3.86,0 -6.98,1.442 -9.44,4.332 -2.46,2.918 -3.65,7.008 -3.65,12.469"
         style="fill:#100f0d;fill-opacity:1;fill-rule:nonzero;stroke:none"
         id="path240" /><path
         d="m 2703.68,322.43 v -79.809 c 0,-5.59 -1.3,-9.769 -3.76,-12.621 -2.55,-2.738 -5.77,-4.18 -9.63,-4.18 -3.9,0 -7.02,1.442 -9.47,4.27 -2.41,2.98 -3.66,7.07 -3.66,12.531 v 79.051 c 0,5.449 1.25,9.59 3.66,12.32 2.45,2.789 5.57,4.18 9.47,4.18 3.87,0 7.08,-1.391 9.63,-4.18 2.46,-2.73 3.76,-6.59 3.76,-11.562 z m -13.15,28.66 c -3.65,0 -6.78,1.152 -9.47,3.551 -2.54,2.359 -3.9,5.781 -3.9,10.07 0,3.871 1.36,7.109 4.06,9.668 2.62,2.543 5.75,3.75 9.31,3.75 3.44,0 6.51,-1.117 9.15,-3.41 2.66,-2.258 4,-5.699 4,-10.008 0,-4.289 -1.34,-7.621 -3.9,-9.981 -2.6,-2.417 -5.68,-3.64 -9.25,-3.64"
         style="fill:#100f0d;fill-opacity:1;fill-rule:nonzero;stroke:none"
         id="path242" /><path
         d="m 2825.92,259.969 c 0,-3.387 -0.96,-7.071 -2.89,-10.969 -2.02,-3.93 -5.05,-7.648 -9.1,-11.211 -4.03,-3.519 -9.14,-6.387 -15.25,-8.508 -6.16,-2.211 -13.07,-3.289 -20.74,-3.289 -16.41,0 -29.16,5 -38.36,14.938 -9.18,9.961 -13.76,23.289 -13.76,40.039 0,11.293 2.07,21.414 6.26,30.051 4.18,8.679 10.34,15.46 18.23,20.242 7.94,4.738 17.47,7.109 28.53,7.109 6.89,0 13.21,-1.051 18.92,-3.058 5.72,-2.153 10.59,-4.864 14.53,-8.141 4.01,-3.332 7.03,-6.84 9.15,-10.582 2.12,-3.77 3.14,-7.231 3.14,-10.508 0,-3.293 -1.22,-6.043 -3.53,-8.391 -2.4,-2.293 -5.19,-3.429 -8.6,-3.429 -2.22,0 -4.05,0.648 -5.49,1.808 -1.44,1.172 -3.09,2.981 -4.91,5.68 -3.23,5.09 -6.6,8.992 -10.17,11.602 -3.49,2.539 -7.98,3.89 -13.36,3.89 -7.9,0 -14.21,-3.281 -18.96,-9.601 -4.81,-6.461 -7.19,-15.129 -7.19,-26.25 0,-5.149 0.66,-10.012 1.85,-14.352 1.24,-4.379 3.03,-8.027 5.34,-11.137 2.35,-3.089 5.1,-5.402 8.47,-6.941 3.25,-1.641 6.92,-2.449 10.81,-2.449 5.35,0 9.88,1.289 13.68,3.828 3.74,2.629 7.12,6.539 10.01,11.762 1.64,3.168 3.37,5.57 5.25,7.347 1.88,1.801 4.23,2.563 6.93,2.563 3.22,0 5.92,-1.223 8.03,-3.762 2.12,-2.648 3.18,-5.32 3.18,-8.281"
         style="fill:#100f0d;fill-opacity:1;fill-rule:nonzero;stroke:none"
         id="path244" /><path
         d="m 2869.56,282.109 c 0,-7.437 1.17,-13.82 3.38,-19.109 2.22,-5.289 5.24,-9.18 9.1,-11.867 3.93,-2.692 8.16,-4.051 12.69,-4.051 4.73,0 8.96,1.289 12.8,3.809 3.86,2.539 6.9,6.429 9.24,11.691 2.28,5.18 3.43,11.738 3.43,19.527 0,7.422 -1.15,13.731 -3.43,19.071 -2.34,5.293 -5.42,9.332 -9.32,12.172 -3.91,2.8 -8.2,4.199 -12.86,4.199 -4.81,0 -9.15,-1.469 -12.99,-4.328 -3.81,-2.852 -6.78,-7.012 -8.86,-12.371 -2.11,-5.411 -3.18,-11.563 -3.18,-18.743 z m 52.08,-40.527 v 2.719 c -3.57,-4.289 -7.07,-7.711 -10.54,-10.36 -3.41,-2.691 -7.17,-4.699 -11.27,-6.109 -3.98,-1.332 -8.42,-2.012 -13.17,-2.012 -6.37,0 -12.28,1.41 -17.62,4.141 -5.39,2.891 -10.11,6.828 -14,12.019 -3.95,5.192 -6.98,11.321 -9.01,18.321 -2.07,7.031 -3.06,14.582 -3.06,22.828 0,17.281 4.03,30.812 12.1,40.422 8.14,9.679 18.78,14.48 31.91,14.48 7.65,0 14.12,-1.39 19.36,-4.191 5.21,-2.629 10.34,-6.879 15.3,-12.539 v 40.808 c 0,5.661 1.1,9.961 3.26,12.852 2.18,2.93 5.21,4.371 9.25,4.371 4,0 7.07,-1.352 9.29,-4 2.17,-2.66 3.27,-6.59 3.27,-11.781 V 241.582 c 0,-5.273 -1.19,-9.223 -3.52,-11.84 -2.36,-2.633 -5.33,-3.922 -9.04,-3.922 -3.56,0 -6.58,1.289 -8.99,4.051 -2.3,2.719 -3.52,6.559 -3.52,11.711"
         style="fill:#100f0d;fill-opacity:1;fill-rule:nonzero;stroke:none"
         id="path246" /><path
         d="m 3045.89,281.93 c 0,11.211 -2.39,20.031 -7.16,26.32 -4.76,6.262 -11.17,9.449 -19.15,9.449 -5.2,0 -9.71,-1.457 -13.72,-4.238 -3.89,-2.852 -6.96,-6.988 -9.09,-12.441 -2.18,-5.43 -3.22,-11.77 -3.22,-19.09 0,-7.219 1.04,-13.528 3.16,-18.91 2.13,-5.411 5.11,-9.54 9.07,-12.418 3.88,-2.852 8.51,-4.293 13.8,-4.293 7.98,0 14.39,3.132 19.15,9.441 4.77,6.301 7.16,15.039 7.16,26.18 z m 26.58,0 c 0,-8.188 -1.25,-15.809 -3.72,-22.828 -2.45,-6.872 -6,-12.832 -10.62,-17.84 -4.67,-5.063 -10.25,-8.742 -16.7,-11.52 -6.51,-2.633 -13.82,-3.922 -21.85,-3.922 -8.04,0 -15.2,1.289 -21.67,3.981 -6.39,2.719 -11.94,6.601 -16.65,11.601 -4.66,5.039 -8.23,10.969 -10.66,17.809 -2.42,6.871 -3.62,14.422 -3.62,22.738 0,8.391 1.25,16.051 3.65,22.973 2.5,6.98 6.01,12.918 10.59,17.859 4.63,4.899 10.16,8.711 16.69,11.367 6.55,2.692 13.76,4.024 21.67,4.024 8.03,0 15.29,-1.332 21.85,-4.07 6.49,-2.653 12.09,-6.543 16.74,-11.551 4.67,-5 8.23,-10.93 10.63,-17.852 2.46,-6.847 3.67,-14.5 3.67,-22.769"
         style="fill:#100f0d;fill-opacity:1;fill-rule:nonzero;stroke:none"
         id="path248" /><path
         d="m 3184.37,304.781 c -1.97,-4.699 -2.93,-12.941 -2.93,-24.84 V 243.25 c 0,-5.809 -1.26,-10.18 -3.81,-13.098 -2.51,-2.89 -5.88,-4.332 -10.01,-4.332 -4,0 -7.22,1.442 -9.69,4.332 -2.5,2.918 -3.75,7.289 -3.75,13.098 v 44.063 c 0,6.949 -0.24,12.308 -0.71,16.226 -0.45,3.781 -1.7,6.973 -3.67,9.461 -1.98,2.469 -5.2,3.719 -9.48,3.719 -8.65,0 -14.34,-3.086 -17.13,-9.399 -2.75,-6.14 -4.09,-15.09 -4.09,-26.711 V 243.25 c 0,-5.809 -1.25,-10.18 -3.74,-13.008 -2.5,-2.98 -5.78,-4.422 -9.83,-4.422 -4.06,0 -7.36,1.442 -9.87,4.422 -2.6,2.828 -3.8,7.199 -3.8,12.938 v 79.16 c 0,5.219 1.1,9.152 3.36,11.851 2.36,2.688 5.34,4.09 9.11,4.09 3.61,0 6.64,-1.289 9.1,-3.808 2.4,-2.543 3.6,-6.012 3.6,-10.481 v -2.672 c 4.59,5.801 9.52,9.981 14.72,12.672 5.25,2.699 11.12,4.039 17.47,4.039 6.69,0 12.37,-1.39 17.19,-4.191 4.81,-2.668 8.71,-6.918 11.78,-12.52 4.49,5.641 9.3,9.942 14.4,12.629 5.13,2.742 10.78,4.082 16.96,4.082 7.3,0 13.52,-1.39 18.74,-4.429 5.26,-2.981 9.15,-7.2 11.75,-12.793 2.27,-5.008 3.42,-12.868 3.42,-23.567 V 243.25 c 0,-5.809 -1.29,-10.18 -3.75,-13.098 -2.61,-2.89 -5.89,-4.332 -10.06,-4.332 -4,0 -7.28,1.442 -9.83,4.422 -2.58,2.828 -3.88,7.199 -3.88,13.008 v 46.48 c 0,5.95 -0.21,10.731 -0.68,14.29 -0.52,3.621 -1.82,6.589 -3.95,9.05 -2.11,2.399 -5.38,3.649 -9.71,3.649 -3.48,0 -6.81,-1.098 -9.88,-3.219 -3.22,-2.23 -5.65,-5.051 -7.35,-8.719 v 0"
         style="fill:#100f0d;fill-opacity:1;fill-rule:nonzero;stroke:none"
         id="path250" /><path
         d="m 3334.42,281.391 c -3.95,-1.5 -9.56,-3.071 -16.98,-4.731 -7.42,-1.668 -12.57,-2.871 -15.4,-3.629 -2.84,-0.812 -5.54,-2.332 -8.14,-4.539 -2.61,-2.301 -3.91,-5.472 -3.91,-9.531 0,-4.219 1.56,-7.809 4.59,-10.719 3.02,-2.941 7.03,-4.422 11.92,-4.422 5.25,0 10.11,1.25 14.54,3.649 4.43,2.344 7.71,5.5 9.73,9.293 2.4,4.14 3.65,11 3.65,20.679 z m 1.69,-40.039 c -6.4,-5.2 -12.61,-9.102 -18.59,-11.653 -5.97,-2.629 -12.69,-3.879 -20.11,-3.879 -6.84,0 -12.75,1.41 -17.9,4.141 -5.19,2.769 -9.14,6.629 -11.95,11.441 -2.74,4.778 -4.18,9.969 -4.18,15.59 0,7.559 2.37,13.957 6.94,19.36 4.58,5.296 10.86,8.839 18.86,10.73 1.72,0.387 5.92,1.25 12.56,2.648 6.7,1.481 12.39,2.782 17.19,3.942 4.71,1.148 9.91,2.578 15.49,4.269 -0.39,7.329 -1.77,12.668 -4.24,16.129 -2.49,3.371 -7.69,5.059 -15.49,5.059 -6.75,0 -11.79,-0.969 -15.25,-2.938 -3.39,-1.941 -6.26,-4.921 -8.72,-8.871 -2.4,-3.89 -4.09,-6.429 -5.09,-7.699 -1.07,-1.289 -3.18,-1.82 -6.46,-1.82 -3.03,0 -5.58,0.969 -7.7,2.941 -2.2,1.957 -3.32,4.528 -3.32,7.707 0,4.86 1.69,9.571 4.99,14.102 3.29,4.621 8.45,8.379 15.42,11.398 6.96,2.973 15.69,4.422 26.13,4.422 11.66,0 20.79,-1.449 27.46,-4.269 6.68,-2.84 11.32,-7.372 14.07,-13.61 2.79,-6.242 4.18,-14.461 4.18,-24.703 0,-6.5 0,-12.039 -0.04,-16.547 -0.08,-4.531 -0.08,-9.562 -0.19,-15.133 0,-5.148 0.87,-10.629 2.51,-16.199 1.6,-5.648 2.44,-9.277 2.44,-10.879 0,-2.851 -1.29,-5.429 -3.86,-7.75 -2.49,-2.32 -5.38,-3.461 -8.64,-3.461 -2.69,0 -5.35,1.289 -8.08,3.922 -2.6,2.707 -5.45,6.567 -8.43,11.61"
         style="fill:#100f0d;fill-opacity:1;fill-rule:nonzero;stroke:none"
         id="path252" /><path
         d="m 3413.83,322.43 v -79.809 c 0,-5.59 -1.31,-9.769 -3.81,-12.621 -2.5,-2.738 -5.74,-4.18 -9.57,-4.18 -3.89,0 -7.07,1.442 -9.49,4.27 -2.46,2.98 -3.64,7.07 -3.64,12.531 v 79.051 c 0,5.449 1.19,9.59 3.64,12.32 2.42,2.789 5.6,4.18 9.49,4.18 3.83,0 7.07,-1.391 9.57,-4.18 2.5,-2.73 3.81,-6.59 3.81,-11.562 z m -13.14,28.66 c -3.65,0 -6.78,1.152 -9.44,3.551 -2.59,2.359 -3.93,5.781 -3.93,10.07 0,3.871 1.34,7.109 4.09,9.668 2.64,2.543 5.76,3.75 9.28,3.75 3.42,0 6.5,-1.117 9.14,-3.41 2.64,-2.258 4,-5.699 4,-10.008 0,-4.289 -1.31,-7.621 -3.9,-9.981 -2.6,-2.417 -5.68,-3.64 -9.24,-3.64"
         style="fill:#100f0d;fill-opacity:1;fill-rule:nonzero;stroke:none"
         id="path254" /><path
         d="m 3465.28,322.871 v -3.301 c 4.62,6.391 9.71,11.09 15.23,14.09 5.57,2.981 11.85,4.512 19.12,4.512 6.92,0 13.17,-1.531 18.73,-4.793 5.43,-3.129 9.61,-7.617 12.31,-13.399 1.76,-3.39 2.85,-7.07 3.38,-10.949 0.47,-3.91 0.8,-8.922 0.8,-14.968 v -51.442 c 0,-5.59 -1.29,-9.769 -3.65,-12.621 -2.45,-2.738 -5.63,-4.18 -9.48,-4.18 -3.9,0 -7.11,1.442 -9.53,4.332 -2.46,2.918 -3.75,7.008 -3.75,12.469 v 45.988 c 0,9.192 -1.17,16.172 -3.55,21 -2.5,4.793 -7.39,7.204 -14.65,7.204 -4.67,0 -8.94,-1.454 -12.83,-4.43 -3.9,-2.891 -6.74,-6.934 -8.54,-12.082 -1.29,-4.09 -1.95,-11.781 -1.95,-23.141 v -34.539 c 0,-5.66 -1.25,-9.891 -3.77,-12.66 -2.5,-2.731 -5.73,-4.141 -9.61,-4.141 -3.81,0 -6.99,1.442 -9.43,4.27 -2.52,2.98 -3.69,7.07 -3.69,12.531 l -0.03,79.809 c 0,5.34 1.12,9.199 3.33,11.851 2.16,2.598 5.25,3.891 9.05,3.891 2.31,0 4.43,-0.613 6.25,-1.731 1.92,-1.089 3.37,-2.89 4.53,-5.14 1.1,-2.301 1.73,-5.102 1.73,-8.43"
         style="fill:#100f0d;fill-opacity:1;fill-rule:nonzero;stroke:none"
         id="path256" /><path
         d="m 3577.35,320.949 21.42,-62.769 23.09,65.5 c 1.84,5.32 3.63,8.961 5.35,11.23 1.78,2.172 4.44,3.262 7.93,3.262 3.38,0 6.27,-1.18 8.69,-3.543 2.31,-2.367 3.52,-5.059 3.52,-8.227 0,-1.211 -0.26,-2.613 -0.68,-4.203 -0.4,-1.636 -0.86,-3.179 -1.45,-4.617 -0.53,-1.391 -1.11,-3.031 -1.89,-4.801 l -25.4,-65.84 c -0.72,-1.871 -1.69,-4.32 -2.79,-7.211 -1.15,-2.917 -2.38,-5.328 -3.75,-7.48 -1.44,-2.008 -3.14,-3.609 -5.15,-4.738 -2.07,-1.16 -4.57,-1.692 -7.47,-1.692 -3.75,0 -6.73,0.86 -9,2.649 -2.25,1.773 -3.91,3.703 -4.94,5.851 -1.08,2.11 -2.83,6.301 -5.39,12.621 l -25.24,65.09 c -0.62,1.602 -1.17,3.239 -1.87,4.879 -0.57,1.582 -1.02,3.231 -1.49,4.969 -0.39,1.672 -0.62,3.121 -0.62,4.32 0,1.922 0.53,3.793 1.64,5.621 1.09,1.891 2.7,3.422 4.55,4.582 1.99,1.157 4.06,1.77 6.35,1.77 4.39,0 7.38,-1.293 9.04,-3.981 1.66,-2.609 3.54,-7.019 5.55,-13.242"
         style="fill:#100f0d;fill-opacity:1;fill-rule:nonzero;stroke:none"
         id="path258" /><path
         d="m 3685.75,290.93 h 48.02 c -0.6,9.41 -3.08,16.511 -7.38,21.172 -4.22,4.668 -9.8,7.027 -16.68,7.027 -6.6,0 -12.03,-2.359 -16.27,-7.137 -4.24,-4.711 -6.77,-11.781 -7.69,-21.062 z m 51.81,-15.7 h -51.81 c 0,-6.339 1.25,-11.839 3.53,-16.71 2.48,-4.7 5.59,-8.34 9.49,-10.77 3.89,-2.449 8.23,-3.648 12.95,-3.648 3.19,0 6.08,0.371 8.7,1.14 2.63,0.828 5.17,2.008 7.69,3.668 2.38,1.629 4.59,3.352 6.72,5.352 2.03,1.879 4.8,4.379 8.03,7.64 1.4,1.239 3.34,1.84 5.82,1.84 2.77,0 4.96,-0.722 6.62,-2.332 1.7,-1.527 2.54,-3.738 2.54,-6.519 0,-2.52 -0.96,-5.45 -2.85,-8.821 -1.86,-3.328 -4.67,-6.55 -8.48,-9.64 -3.77,-3.078 -8.56,-5.571 -14.26,-7.649 -5.7,-2.019 -12.25,-2.961 -19.73,-2.961 -17.07,0 -30.31,5.039 -39.66,15.11 -9.46,10.203 -14.16,23.902 -14.16,41.179 0,8.27 1.15,15.832 3.45,22.793 2.39,7 5.73,13.028 10.22,17.969 4.41,5.02 9.92,8.918 16.46,11.508 6.59,2.703 13.79,3.992 21.78,3.992 10.27,0 19.16,-2.25 26.58,-6.832 7.4,-4.578 12.99,-10.379 16.64,-17.598 3.71,-7.269 5.53,-14.609 5.53,-22.128 0,-6.973 -1.86,-11.481 -5.66,-13.493 -3.89,-2.078 -9.2,-3.09 -16.14,-3.09"
         style="fill:#100f0d;fill-opacity:1;fill-rule:nonzero;stroke:none"
         id="path260" /><path
         d="m 3876.76,259.969 c 0,-3.387 -1.01,-7.071 -3.01,-10.969 -2.01,-3.93 -4.94,-7.648 -9.04,-11.211 -3.98,-3.519 -9.12,-6.387 -15.29,-8.508 -6.11,-2.211 -13.11,-3.289 -20.74,-3.289 -16.41,0 -29.16,5 -38.3,14.938 -9.18,9.961 -13.83,23.289 -13.83,40.039 0,11.293 2.09,21.414 6.31,30.082 4.23,8.648 10.25,15.429 18.24,20.211 7.95,4.738 17.46,7.109 28.51,7.109 6.92,0 13.17,-1.051 18.93,-3.058 5.68,-2.153 10.55,-4.864 14.53,-8.141 4.01,-3.332 7.05,-6.84 9.16,-10.582 2.07,-3.77 3.13,-7.231 3.13,-10.508 0,-3.293 -1.16,-6.043 -3.62,-8.391 -2.32,-2.293 -5.13,-3.429 -8.51,-3.429 -2.21,0 -4.05,0.648 -5.43,1.808 -1.51,1.172 -3.13,2.981 -4.96,5.68 -3.23,5.09 -6.6,8.992 -10.1,11.602 -3.57,2.539 -8.07,3.89 -13.5,3.89 -7.79,0 -14.14,-3.281 -18.9,-9.601 -4.81,-6.461 -7.19,-15.129 -7.19,-26.25 0,-5.149 0.64,-10.012 1.84,-14.352 1.25,-4.379 3.04,-8.027 5.35,-11.137 2.36,-3.089 5.13,-5.402 8.47,-6.941 3.21,-1.641 6.9,-2.449 10.8,-2.449 5.32,0 9.93,1.289 13.7,3.828 3.75,2.629 7.11,6.539 10.05,11.762 1.59,3.168 3.36,5.57 5.26,7.347 1.81,1.801 4.12,2.563 6.87,2.563 3.19,0 5.9,-1.223 7.99,-3.762 2.17,-2.648 3.28,-5.32 3.28,-8.281"
         style="fill:#100f0d;fill-opacity:1;fill-rule:nonzero;stroke:none"
         id="path262" /><path
         d="m 3901.35,335.809 h 2.93 v 16.683 c 0,4.36 0.08,7.93 0.33,10.469 0.24,2.519 0.82,4.691 1.88,6.519 1.01,1.872 2.56,3.399 4.49,4.602 1.9,1.16 4.06,1.727 6.49,1.727 3.32,0 6.38,-1.336 9.1,-3.899 1.77,-1.808 2.93,-3.941 3.4,-6.43 0.54,-2.519 0.74,-6.167 0.74,-10.839 v -18.832 h 9.76 c 3.73,0 6.59,-0.899 8.58,-2.778 2.01,-1.82 2.99,-4.179 2.99,-7.07 0,-3.762 -1.43,-6.391 -4.3,-7.84 -2.74,-1.441 -6.8,-2.23 -12.05,-2.23 h -4.98 v -50.899 c 0,-4.34 0.13,-7.672 0.47,-10.012 0.29,-2.359 1.13,-4.25 2.36,-5.628 1.25,-1.512 3.28,-2.27 6.19,-2.27 1.51,0 3.58,0.277 6.27,0.918 2.62,0.52 4.67,0.809 6.21,0.809 2.13,0 4.08,-0.899 5.76,-2.629 1.7,-1.801 2.58,-4 2.58,-6.66 0,-4.411 -2.28,-7.848 -6.95,-10.2 -4.77,-2.359 -11.41,-3.5 -20.12,-3.5 -8.28,0 -14.55,1.442 -18.85,4.332 -4.23,2.918 -7.07,6.879 -8.38,12.067 -1.34,5.14 -1.97,12 -1.97,20.531 v 53.141 h -3.57 c -3.75,0 -6.66,0.922 -8.65,2.839 -2.04,1.911 -3.03,4.301 -3.03,7.231 0,2.891 1.05,5.25 3.12,7.07 2.13,1.879 5.22,2.778 9.2,2.778"
         style="fill:#100f0d;fill-opacity:1;fill-rule:nonzero;stroke:none"
         id="path264" /><path
         d="m 4042.8,281.93 c 0,11.211 -2.44,20.031 -7.15,26.32 -4.81,6.262 -11.15,9.449 -19.2,9.449 -5.14,0 -9.71,-1.457 -13.65,-4.238 -3.95,-2.852 -6.99,-6.988 -9.08,-12.441 -2.19,-5.43 -3.25,-11.77 -3.25,-19.09 0,-7.219 1.06,-13.528 3.17,-18.91 2.13,-5.411 5.11,-9.54 9,-12.418 3.91,-2.852 8.48,-4.293 13.81,-4.293 8.05,0 14.39,3.132 19.2,9.441 4.71,6.301 7.15,15.039 7.15,26.18 z m 26.6,0 c 0,-8.188 -1.25,-15.809 -3.75,-22.828 -2.4,-6.872 -6.02,-12.832 -10.66,-17.84 -4.63,-5.063 -10.22,-8.742 -16.68,-11.52 -6.43,-2.633 -13.68,-3.922 -21.86,-3.922 -8.03,0 -15.25,1.289 -21.64,3.981 -6.37,2.719 -11.93,6.601 -16.62,11.601 -4.65,5.039 -8.22,10.969 -10.63,17.809 -2.46,6.871 -3.65,14.422 -3.65,22.738 0,8.391 1.19,16.051 3.65,22.973 2.5,6.98 5.98,12.918 10.59,17.859 4.61,4.899 10.16,8.711 16.66,11.367 6.62,2.692 13.81,4.024 21.64,4.024 8.05,0 15.31,-1.332 21.86,-4.07 6.54,-2.653 12.12,-6.543 16.79,-11.551 4.61,-5 8.23,-10.93 10.65,-17.852 2.4,-6.847 3.65,-14.5 3.65,-22.769"
         style="fill:#100f0d;fill-opacity:1;fill-rule:nonzero;stroke:none"
         id="path266" /><path
         d="m 4116.55,265.602 v -22.981 c 0,-5.66 -1.25,-9.891 -3.73,-12.66 -2.58,-2.731 -5.78,-4.141 -9.65,-4.141 -3.77,0 -6.97,1.442 -9.42,4.18 -2.44,2.852 -3.67,7.031 -3.67,12.621 v 76.949 c 0,12.41 4.28,18.602 12.91,18.602 4.32,0 7.56,-1.481 9.53,-4.332 1.94,-2.91 2.93,-7.199 3.19,-12.891 3.16,5.692 6.42,9.981 9.76,12.891 3.3,2.851 7.74,4.332 13.28,4.332 5.63,0 10.98,-1.481 16.27,-4.332 5.22,-2.91 7.88,-6.789 7.88,-11.59 0,-3.359 -1.2,-6.168 -3.42,-8.309 -2.17,-2.191 -4.61,-3.332 -7.19,-3.332 -1,0 -3.36,0.661 -7.11,1.93 -3.69,1.25 -6.95,1.863 -9.84,1.863 -3.85,0 -7.05,-1.05 -9.44,-3.222 -2.48,-2.149 -4.37,-5.231 -5.74,-9.43 -1.39,-4.23 -2.36,-9.199 -2.81,-15.02 -0.51,-5.718 -0.8,-12.75 -0.8,-21.128"
         style="fill:#100f0d;fill-opacity:1;fill-rule:nonzero;stroke:none"
         id="path268" /><path
         d="m 4257.66,261.902 c 0,-7.64 -1.72,-14.152 -5.35,-19.64 -3.59,-5.449 -8.85,-9.532 -15.76,-12.301 -7.01,-2.731 -15.41,-4.141 -25.41,-4.141 -9.49,0 -17.66,1.493 -24.51,4.512 -6.8,3.02 -11.8,6.828 -15.02,11.359 -3.21,4.579 -4.91,9.11 -4.91,13.707 0,3.043 1.08,5.622 3.19,7.743 2.07,2.218 4.69,3.289 7.85,3.289 2.79,0 4.88,-0.719 6.41,-2.117 1.52,-1.454 2.89,-3.461 4.27,-5.961 2.72,-4.961 5.96,-8.661 9.77,-11.102 3.75,-2.449 8.94,-3.629 15.49,-3.629 5.29,0 9.63,1.238 13.04,3.699 3.36,2.45 5.16,5.301 5.16,8.43 0,4.902 -1.84,8.469 -5.29,10.641 -3.58,2.3 -9.36,4.398 -17.5,6.39 -9.09,2.399 -16.55,4.899 -22.27,7.461 -5.72,2.656 -10.35,6.067 -13.77,10.297 -3.4,4.242 -5.13,9.5 -5.13,15.672 0,5.609 1.6,10.84 4.76,15.699 3.18,4.961 7.89,8.91 14.04,11.84 6.18,2.941 13.62,4.422 22.37,4.422 6.91,0 13.06,-0.762 18.55,-2.203 5.43,-1.496 10.08,-3.508 13.65,-5.977 3.68,-2.543 6.47,-5.273 8.32,-8.32 1.98,-3.07 2.91,-6.031 2.91,-8.891 0,-3.172 -1.01,-5.742 -3.08,-7.859 -2.03,-1.922 -4.96,-2.961 -8.67,-2.961 -2.74,0 -5,0.738 -6.98,2.43 -1.89,1.601 -4.1,4.058 -6.54,7.23 -1.97,2.699 -4.33,4.828 -7.07,6.5 -2.77,1.578 -6.41,2.442 -11.09,2.442 -4.75,0 -8.79,-1.063 -11.92,-3.211 -3.18,-2.141 -4.76,-4.762 -4.76,-7.95 0,-2.929 1.17,-5.293 3.43,-7.16 2.37,-1.832 5.51,-3.363 9.48,-4.633 4,-1.207 9.41,-2.699 16.31,-4.468 8.22,-2.059 14.96,-4.532 20.15,-7.469 5.22,-2.891 9.16,-6.301 11.82,-10.281 2.77,-3.969 4.06,-8.43 4.06,-13.489"
         style="fill:#100f0d;fill-opacity:1;fill-rule:nonzero;stroke:none"
         id="path270" /><path
         d="m 4287.78,225.82 c -4.03,0 -7.5,1.289 -10.37,3.981 -2.93,2.719 -4.38,6.508 -4.38,11.371 0,4.09 1.33,7.637 4.12,10.57 2.76,3 6.23,4.418 10.3,4.418 4.06,0 7.55,-1.418 10.35,-4.347 2.95,-2.903 4.39,-6.512 4.39,-10.641 0,-4.82 -1.44,-8.582 -4.39,-11.301 -2.8,-2.762 -6.17,-4.051 -10.02,-4.051"
         style="fill:#100f0d;fill-opacity:1;fill-rule:nonzero;stroke:none"
         id="path272" /><path
         d="m 4404.93,281.93 c 0,11.211 -2.41,20.031 -7.15,26.32 -4.79,6.262 -11.15,9.449 -19.16,9.449 -5.16,0 -9.69,-1.457 -13.62,-4.238 -4.02,-2.852 -7.03,-6.988 -9.16,-12.441 -2.12,-5.43 -3.16,-11.77 -3.16,-19.09 0,-7.219 1,-13.528 3.11,-18.91 2.11,-5.411 5.11,-9.54 9.06,-12.418 3.89,-2.852 8.51,-4.293 13.77,-4.293 8.01,0 14.37,3.132 19.16,9.441 4.74,6.301 7.15,15.039 7.15,26.18 z m 26.62,0 c 0,-8.188 -1.19,-15.809 -3.77,-22.828 -2.44,-6.872 -5.94,-12.832 -10.61,-17.84 -4.68,-5.063 -10.15,-8.742 -16.72,-11.52 -6.44,-2.633 -13.71,-3.922 -21.83,-3.922 -7.99,0 -15.22,1.289 -21.62,3.981 -6.41,2.719 -11.92,6.601 -16.6,11.601 -4.77,5.039 -8.29,10.969 -10.75,17.809 -2.38,6.871 -3.61,14.422 -3.61,22.738 0,8.391 1.23,16.051 3.67,22.973 2.56,6.98 5.98,12.918 10.59,17.859 4.57,4.899 10.15,8.711 16.7,11.367 6.52,2.692 13.71,4.024 21.62,4.024 8.01,0 15.27,-1.332 21.83,-4.07 6.57,-2.653 12.13,-6.543 16.8,-11.551 4.67,-5 8.17,-10.93 10.68,-17.852 2.43,-6.847 3.62,-14.5 3.62,-22.769"
         style="fill:#100f0d;fill-opacity:1;fill-rule:nonzero;stroke:none"
         id="path274" /><path
         d="m 4478.72,265.602 v -22.981 c 0,-5.66 -1.25,-9.891 -3.77,-12.66 -2.5,-2.731 -5.73,-4.141 -9.57,-4.141 -3.89,0 -7,1.442 -9.48,4.18 -2.48,2.852 -3.63,7.031 -3.63,12.621 v 76.949 c 0,12.41 4.3,18.602 12.87,18.602 4.42,0 7.58,-1.481 9.47,-4.332 1.94,-2.91 3.09,-7.199 3.29,-12.891 3.12,5.692 6.34,9.981 9.66,12.891 3.36,2.851 7.86,4.332 13.32,4.332 5.71,0 11.08,-1.481 16.27,-4.332 5.22,-2.91 7.91,-6.789 7.91,-11.59 0,-3.359 -1.17,-6.168 -3.38,-8.309 -2.24,-2.191 -4.6,-3.332 -7.26,-3.332 -0.94,0 -3.28,0.661 -6.99,1.93 -3.73,1.25 -7,1.863 -9.91,1.863 -3.84,0 -7.01,-1.05 -9.53,-3.222 -2.4,-2.149 -4.33,-5.231 -5.66,-9.43 -1.37,-4.23 -2.33,-9.199 -2.85,-15.02 -0.49,-5.718 -0.76,-12.75 -0.76,-21.128"
         style="fill:#100f0d;fill-opacity:1;fill-rule:nonzero;stroke:none"
         id="path276" /><path
         d="m 4555.22,282.898 c 0,-11.207 2.32,-19.707 7.03,-25.468 4.67,-5.688 10.78,-8.621 18.15,-8.621 4.39,0 8.61,1.32 12.5,3.742 3.9,2.519 7.12,6.179 9.57,11.14 2.48,5 3.69,11.02 3.69,18.09 0,11.282 -2.44,20.039 -7.15,26.328 -4.75,6.293 -11.02,9.442 -18.73,9.442 -7.58,0 -13.65,-3.039 -18.19,-9.02 -4.6,-6.062 -6.87,-14.582 -6.87,-25.633 z m 76.76,35.032 v -80.328 c 0,-9.192 -0.98,-17.141 -2.81,-23.672 -1.9,-6.688 -4.95,-12.117 -9.01,-16.481 -4.16,-4.277 -9.65,-7.488 -16.29,-9.617 -6.68,-2.012 -15,-3.062 -24.96,-3.062 -9.14,0 -17.3,1.293 -24.45,3.921 -7.23,2.75 -12.76,6.129 -16.6,10.418 -3.89,4.161 -5.86,8.52 -5.86,12.981 0,3.441 1.09,6.152 3.3,8.281 2.2,2.121 4.86,3.238 7.95,3.238 3.9,0 7.26,-1.839 10.21,-5.41 1.45,-1.879 2.93,-3.699 4.42,-5.519 1.48,-1.879 3.16,-3.469 5.05,-4.77 1.82,-1.359 4.09,-2.301 6.68,-2.98 2.52,-0.629 5.53,-0.957 8.91,-0.957 6.84,0 12.21,1.047 15.98,3.019 3.75,1.969 6.4,4.778 7.95,8.278 1.48,3.609 2.46,7.41 2.61,11.492 0.32,4.14 0.45,10.707 0.65,19.75 -4.08,-5.891 -8.85,-10.449 -14.14,-13.532 -5.3,-3.109 -11.7,-4.621 -19.01,-4.621 -8.96,0 -16.7,2.321 -23.3,7.071 -6.64,4.722 -11.76,11.32 -15.29,19.902 -3.54,8.41 -5.35,18.258 -5.35,29.418 0,8.34 1.03,15.832 3.24,22.531 2.13,6.66 5.22,12.289 9.32,16.91 3.92,4.551 8.61,8.008 13.84,10.368 5.26,2.32 10.94,3.472 17.29,3.472 7.46,0 14,-1.48 19.49,-4.519 5.53,-2.992 10.59,-7.75 15.31,-14.141 v 3.758 c 0,4.801 1.22,8.453 3.4,11.211 2.27,2.582 5.2,3.941 8.73,3.941 5.14,0 8.56,-1.73 10.24,-5.25 1.66,-3.461 2.5,-8.519 2.5,-15.101"
         style="fill:#100f0d;fill-opacity:1;fill-rule:nonzero;stroke:none"
         id="path278" /><path
         d="m 3483.75,587.191 h 39.32 c -2.79,-21.242 -11.44,-37.75 -25.94,-49.609 -13.38,-11.711 -29.55,-17.43 -48.45,-17.43 -25.65,0 -46.1,8.977 -61.42,27 -14.48,17.118 -21.73,39.227 -21.73,66.2 0,27.628 7.19,49.757 21.55,66.531 14.28,16.637 34.6,25.027 60.73,25.027 19.47,0 35.94,-5.258 49.32,-15.699 14.2,-11.32 22.86,-27.191 25.94,-47.512 h -39.32 c -3.35,17.731 -14.25,26.582 -32.65,26.582 -30.39,0 -45.59,-18 -45.59,-53.992 0,-16.898 3.87,-30.668 11.74,-41.398 7.79,-10.77 18.83,-16.18 33.03,-16.18 21.16,0 32.32,10.16 33.47,30.48 z m -154.71,24.782 c 0,-35.184 11.15,-64.981 33.45,-89.172 22.26,-24.309 49.57,-36.43 81.96,-36.43 32.23,0 59.56,12.121 81.86,36.43 22.27,24.191 33.4,53.988 33.4,89.172 0,35.136 -11.13,64.859 -33.4,89.117 -22.3,24.332 -49.63,36.441 -81.86,36.441 -32.39,0 -59.7,-12.109 -81.96,-36.441 -22.3,-24.258 -33.45,-53.981 -33.45,-89.117 z m -39.91,0 c 0,44.746 15.17,82.91 45.48,114.699 30.34,31.66 66.94,47.488 109.84,47.488 42.82,0 79.34,-15.828 109.75,-47.488 30.34,-31.789 45.55,-69.953 45.55,-114.699 0,-44.743 -15.21,-83 -45.55,-114.723 -30.41,-31.68 -66.93,-47.57 -109.75,-47.57 -42.88,0 -79.5,15.89 -109.84,47.57 -30.31,31.723 -45.48,69.98 -45.48,114.723"
         style="fill:#100f0d;fill-opacity:1;fill-rule:nonzero;stroke:none"
         id="path280" /><path
         d="m 3352,510.23 22.59,-19.218 166.59,213.898 -22.64,19.199 L 3352,510.23"
         style="fill:#100f0d;fill-opacity:1;fill-rule:nonzero;stroke:none"
         id="path282" /></g></g></svg>
