<?xml version="1.0" encoding="UTF-8" standalone="no"?>
<svg
   xmlns:dc="http://purl.org/dc/elements/1.1/"
   xmlns:cc="http://creativecommons.org/ns#"
   xmlns:rdf="http://www.w3.org/1999/02/22-rdf-syntax-ns#"
   xmlns:svg="http://www.w3.org/2000/svg"
   xmlns="http://www.w3.org/2000/svg"
   xmlns:sodipodi="http://sodipodi.sourceforge.net/DTD/sodipodi-0.dtd"
   xmlns:inkscape="http://www.inkscape.org/namespaces/inkscape"
   version="1.1"
   id="svg2"
   xml:space="preserve"
   width="705.53333"
   height="832.91998"
   viewBox="0 0 705.53333 832.91998"
   sodipodi:docname="tomato-branch-publicdomainvectors.org.eps"><metadata
     id="metadata8"><rdf:RDF><cc:Work
         rdf:about=""><dc:format>image/svg+xml</dc:format><dc:type
           rdf:resource="http://purl.org/dc/dcmitype/StillImage" /></cc:Work></rdf:RDF></metadata><defs
     id="defs6" /><sodipodi:namedview
     pagecolor="#ffffff"
     bordercolor="#666666"
     borderopacity="1"
     objecttolerance="10"
     gridtolerance="10"
     guidetolerance="10"
     inkscape:pageopacity="0"
     inkscape:pageshadow="2"
     inkscape:window-width="640"
     inkscape:window-height="480"
     id="namedview4" /><g
     id="g10"
     inkscape:groupmode="layer"
     inkscape:label="ink_ext_XXXXXX"
     transform="matrix(1.3333333,0,0,-1.3333333,0,832.92)"><g
       id="g12"
       transform="scale(0.1)"><path
         d="m 1577.2,90.5195 c 0,6.7696 -0.97,12.6015 -2.99,17.4215 -1.93,4.868 -4.68,8.579 -8.22,11.231 -3.51,2.578 -7.37,3.91 -11.66,3.91 -6.76,0 -12.47,-2.871 -17.13,-8.402 -4.67,-5.61 -6.99,-13.75 -6.99,-24.6097 0,-10.2187 2.32,-18.1406 6.92,-23.7617 4.64,-5.668 10.38,-8.5469 17.2,-8.5469 4.09,0 7.87,1.25 11.37,3.75 3.44,2.4571 6.25,6.168 8.35,11.0899 2.12,4.9804 3.15,10.9179 3.15,17.9179 z m -48.13,37.3325 v -3.082 c 4.61,5.929 9.4,10.332 14.37,13.082 4.99,2.796 10.66,4.23 16.96,4.23 7.53,0 14.5,-2.062 20.86,-6.16 6.34,-4.051 11.36,-9.961 15.06,-17.813 3.69,-7.847 5.52,-17.078 5.52,-27.8004 0,-7.8789 -1.03,-15.1797 -3.17,-21.707 -2.12,-6.6328 -5.05,-12.1719 -8.78,-16.6524 -3.72,-4.4687 -8.13,-7.9492 -13.18,-10.3008 -5.08,-2.4492 -10.53,-3.6367 -16.31,-3.6367 -7.06,0 -12.95,1.4492 -17.72,4.3985 -4.79,2.9296 -9.31,7.2304 -13.61,12.9414 V 16.8906 C 1529.07,5.60156 1525.13,0 1517.29,0 c -4.63,0 -7.7,1.42188 -9.16,4.33984 -1.51,2.92969 -2.26,7.16016 -2.26,12.71876 V 127.691 c 0,4.86 1,8.539 3.06,10.918 2.05,2.411 4.83,3.653 8.36,3.653 3.47,0 6.31,-1.242 8.5,-3.742 2.18,-2.508 3.28,-6.071 3.28,-10.668"
         style="fill:#bcb8c2;fill-opacity:1;fill-rule:nonzero;stroke:none"
         id="path14" /><path
         d="M 1685.39,52.4922 V 55.75 c -2.98,-3.8984 -6.04,-7.1211 -9.31,-9.7187 -3.24,-2.6915 -6.77,-4.629 -10.59,-5.9024 -3.86,-1.2578 -8.24,-1.918 -13.15,-1.918 -5.92,0 -11.25,1.3008 -15.95,3.8282 -4.72,2.582 -8.36,6.1093 -10.92,10.6211 -3.1,5.4414 -4.61,13.2695 -4.61,23.4179 v 50.8129 c 0,5.097 1.11,8.961 3.34,11.461 2.22,2.55 5.14,3.847 8.8,3.847 3.73,0 6.72,-1.297 9,-3.89 2.27,-2.571 3.42,-6.411 3.42,-11.418 V 85.8516 c 0,-5.9219 0.48,-10.9102 1.39,-14.9297 1.01,-4.0703 2.72,-7.2305 5.25,-9.5196 2.45,-2.2734 5.82,-3.4023 10.07,-3.4023 4.18,0 8.08,1.3008 11.7,3.8516 3.69,2.5468 6.36,5.8672 8.03,10 1.4,3.6601 2.07,11.6093 2.07,23.8672 v 31.1722 c 0,5.007 1.13,8.847 3.42,11.418 2.26,2.593 5.22,3.89 8.88,3.89 3.67,0 6.6,-1.297 8.81,-3.847 2.21,-2.5 3.3,-6.364 3.3,-11.461 V 52.6602 c 0,-4.8907 -1.03,-8.5704 -3.18,-10.9688 -2.09,-2.4726 -4.84,-3.6601 -8.21,-3.6601 -3.34,0 -6.11,1.289 -8.3,3.7773 -2.18,2.5625 -3.26,6.0703 -3.26,10.6836"
         style="fill:#bcb8c2;fill-opacity:1;fill-rule:nonzero;stroke:none"
         id="path16" /><path
         d="m 1756.61,89.5 c 0,-10.1797 2.21,-18.0117 6.66,-23.5 4.48,-5.4492 10.34,-8.2383 17.61,-8.2383 6.2,0 11.49,2.8281 15.99,8.418 4.48,5.6211 6.69,13.5898 6.69,24.0508 0,6.8398 -0.92,12.6485 -2.77,17.4885 -1.88,4.902 -4.54,8.691 -7.91,11.34 -3.48,2.632 -7.43,4.023 -12,4.023 -4.71,0 -8.82,-1.391 -12.5,-4.023 -3.68,-2.649 -6.53,-6.539 -8.65,-11.559 -2.09,-5 -3.12,-11 -3.12,-18 z m -1.18,76.172 v -39.16 c 4.57,5.058 9.3,8.847 14.1,11.558 4.8,2.649 10.75,4.012 17.83,4.012 8.14,0 15.28,-2.062 21.45,-6.07 6.13,-4.114 10.92,-9.922 14.3,-17.571 3.41,-7.679 5.08,-16.742 5.08,-27.2613 0,-7.7891 -0.93,-14.8984 -2.8,-21.4102 -1.91,-6.4609 -4.64,-12.0507 -8.23,-16.8281 -3.63,-4.7617 -7.99,-8.3828 -13.11,-11.082 -5.14,-2.5391 -10.79,-3.8477 -16.95,-3.8477 -3.78,0 -7.33,0.4688 -10.68,1.4102 -3.34,0.9297 -6.18,2.1367 -8.49,3.707 -2.36,1.4922 -4.35,3.0899 -6,4.6914 -1.65,1.6485 -3.8,4.0781 -6.5,7.3399 v -2.5 c 0,-4.8711 -1.13,-8.5 -3.36,-10.9688 -2.2,-2.4726 -5.04,-3.6797 -8.43,-3.6797 -3.49,0 -6.24,1.2071 -8.34,3.6797 -2.06,2.5508 -3.09,6.1289 -3.09,10.9688 V 164.57 c 0,5.149 1.01,9.078 3.03,11.731 2,2.679 4.78,4 8.4,4 3.75,0 6.68,-1.281 8.7,-3.832 2.06,-2.52 3.09,-6.09 3.09,-10.797"
         style="fill:#bcb8c2;fill-opacity:1;fill-rule:nonzero;stroke:none"
         id="path18" /><path
         d="M 1845.52,53.5898 V 164.73 c 0,5.149 1.09,9.012 3.27,11.649 2.2,2.601 5.15,3.922 8.87,3.922 3.71,0 6.7,-1.289 9.01,-3.899 2.24,-2.582 3.39,-6.511 3.39,-11.672 V 53.5898 c 0,-5.1679 -1.17,-9.1015 -3.46,-11.7304 -2.3,-2.5391 -5.29,-3.8477 -8.94,-3.8477 -3.6,0 -6.49,1.3399 -8.76,4.0274 -2.26,2.7226 -3.38,6.5312 -3.38,11.5507"
         style="fill:#bcb8c2;fill-opacity:1;fill-rule:nonzero;stroke:none"
         id="path20" /><path
         d="M 1919.98,127.609 V 53.5898 c 0,-5.1601 -1.2,-9.0312 -3.49,-11.6679 -2.35,-2.5703 -5.34,-3.9102 -8.91,-3.9102 -3.61,0 -6.53,1.3399 -8.77,4.0196 -2.24,2.7304 -3.38,6.539 -3.38,11.5585 v 73.3012 c 0,5.007 1.14,8.847 3.38,11.418 2.24,2.593 5.16,3.89 8.77,3.89 3.57,0 6.56,-1.297 8.91,-3.89 2.29,-2.571 3.49,-6.098 3.49,-10.7 z m -12.16,26.52 c -3.4,0 -6.31,1.062 -8.79,3.332 -2.36,2.168 -3.6,5.309 -3.6,9.309 0,3.609 1.24,6.562 3.74,8.968 2.46,2.344 5.36,3.453 8.65,3.453 3.19,0 6.02,-1.043 8.48,-3.16 2.44,-2.109 3.68,-5.25 3.68,-9.261 0,-3.989 -1.22,-7.04 -3.6,-9.25 -2.4,-2.231 -5.24,-3.391 -8.56,-3.391"
         style="fill:#bcb8c2;fill-opacity:1;fill-rule:nonzero;stroke:none"
         id="path22" /><path
         d="m 2033.3,69.7422 c 0,-3.1914 -0.9,-6.6133 -2.72,-10.2305 -1.87,-3.6328 -4.65,-7.082 -8.4,-10.3633 -3.74,-3.2773 -8.46,-5.9296 -14.15,-7.8984 -5.69,-2.0508 -12.13,-3.0391 -19.23,-3.0391 -15.19,0 -27.02,4.6211 -35.54,13.8204 -8.52,9.2695 -12.77,21.5976 -12.77,37.1289 0,10.5 1.94,19.8198 5.82,27.8598 3.9,8.05 9.57,14.332 16.92,18.718 7.35,4.442 16.19,6.633 26.42,6.633 6.38,0 12.23,-0.98 17.52,-2.891 5.32,-1.949 9.81,-4.48 13.47,-7.511 3.7,-3.059 6.5,-6.34 8.49,-9.797 1.97,-3.481 2.9,-6.723 2.9,-9.731 0,-3.031 -1.11,-5.601 -3.27,-7.761 -2.2,-2.149 -4.82,-3.219 -7.95,-3.219 -2.06,0 -3.75,0.609 -5.11,1.699 -1.32,1.051 -2.86,2.781 -4.53,5.27 -3.01,4.718 -6.14,8.312 -9.41,10.742 -3.27,2.348 -7.43,3.59 -12.42,3.59 -7.29,0 -13.14,-3 -17.58,-8.903 -4.43,-5.961 -6.63,-14.0504 -6.63,-24.2887 0,-4.8008 0.58,-9.3008 1.71,-13.3203 1.14,-4.0312 2.79,-7.4414 4.92,-10.3203 2.18,-2.8477 4.76,-5 7.85,-6.4609 3.05,-1.4766 6.42,-2.2266 10.04,-2.2266 4.95,0 9.14,1.168 12.65,3.5664 3.52,2.3906 6.63,6.0312 9.3,10.8633 1.53,2.9297 3.14,5.1679 4.88,6.8398 1.75,1.5977 3.88,2.3789 6.39,2.3789 2.99,0 5.48,-1.1601 7.48,-3.5195 1.94,-2.4297 2.95,-4.9492 2.95,-7.6289"
         style="fill:#bcb8c2;fill-opacity:1;fill-rule:nonzero;stroke:none"
         id="path24" /><path
         d="m 2073.75,90.2305 c 0,-6.9297 1.03,-12.8203 3.09,-17.7305 2.08,-4.8906 4.87,-8.5312 8.45,-10.9883 3.64,-2.5 7.56,-3.75 11.78,-3.75 4.34,0 8.28,1.1992 11.83,3.5391 3.58,2.3476 6.41,5.9609 8.57,10.8008 2.11,4.8398 3.16,10.9101 3.16,18.1289 0,6.8593 -1.05,12.7105 -3.16,17.6215 -2.16,4.957 -5.01,8.668 -8.65,11.32 -3.62,2.578 -7.59,3.91 -11.89,3.91 -4.48,0 -8.5,-1.391 -12.06,-4.023 -3.5,-2.649 -6.27,-6.489 -8.21,-11.477 -1.94,-5 -2.91,-10.7109 -2.91,-17.3515 z m 48.24,-37.5703 v 2.5 c -3.28,-3.9493 -6.55,-7.1407 -9.77,-9.6016 -3.18,-2.4766 -6.67,-4.3594 -10.42,-5.6602 -3.72,-1.2265 -7.84,-1.8867 -12.27,-1.8867 -5.85,0 -11.32,1.3086 -16.31,3.8477 -4.99,2.6992 -9.33,6.3515 -12.98,11.1797 -3.65,4.7929 -6.42,10.4804 -8.34,17 -1.9,6.4726 -2.82,13.5195 -2.82,21.1406 0,15.9723 3.76,28.5113 11.24,37.4613 7.51,8.949 17.36,13.441 29.58,13.441 7.08,0 13.05,-1.301 17.89,-3.891 4.85,-2.492 9.59,-6.402 14.2,-11.679 v 37.84 c 0,5.269 1,9.218 3.03,11.91 2,2.699 4.83,4.039 8.56,4.039 3.72,0 6.56,-1.231 8.6,-3.68 2.01,-2.461 3.04,-6.141 3.04,-10.949 V 52.6602 c 0,-4.8907 -1.09,-8.5704 -3.26,-10.9688 -2.16,-2.4726 -4.95,-3.6797 -8.38,-3.6797 -3.31,0 -6.12,1.25 -8.32,3.7969 -2.18,2.5 -3.27,6.0898 -3.27,10.8516"
         style="fill:#bcb8c2;fill-opacity:1;fill-rule:nonzero;stroke:none"
         id="path26" /><path
         d="m 2237.12,90.0508 c 0,10.3982 -2.22,18.5512 -6.63,24.3592 -4.4,5.801 -10.34,8.75 -17.75,8.75 -4.82,0 -9.02,-1.32 -12.7,-3.91 -3.64,-2.621 -6.47,-6.441 -8.43,-11.531 -1.99,-5.008 -2.98,-10.8987 -2.98,-17.6682 0,-6.6992 0.99,-12.5508 2.93,-17.5508 1.95,-4.9883 4.73,-8.8203 8.38,-11.5078 3.59,-2.6211 7.92,-3.9336 12.8,-3.9336 7.41,0 13.35,2.8828 17.75,8.7422 4.41,5.8203 6.63,13.9297 6.63,24.25 z m 24.63,0 c 0,-7.6211 -1.14,-14.6406 -3.42,-21.1406 -2.27,-6.3789 -5.56,-11.9414 -9.86,-16.5899 -4.34,-4.6406 -9.5,-8.0781 -15.5,-10.6289 -5.99,-2.4726 -12.78,-3.6797 -20.23,-3.6797 -7.43,0 -14.1,1.2071 -20.05,3.7578 -5.94,2.4805 -11.08,6.0508 -15.44,10.7227 -4.33,4.6875 -7.62,10.1601 -9.91,16.4961 -2.24,6.3906 -3.34,13.3711 -3.34,21.1015 0,7.75 1.14,14.8512 3.41,21.2692 2.29,6.461 5.54,11.95 9.79,16.563 4.27,4.527 9.41,8.078 15.49,10.539 6.07,2.461 12.73,3.738 20.05,3.738 7.44,0 14.2,-1.277 20.23,-3.777 6.04,-2.512 11.23,-6.113 15.56,-10.731 4.32,-4.609 7.6,-10.152 9.82,-16.543 2.3,-6.359 3.4,-13.4175 3.4,-21.0972"
         style="fill:#bcb8c2;fill-opacity:1;fill-rule:nonzero;stroke:none"
         id="path28" /><path
         d="m 2365.45,111.191 c -1.83,-4.332 -2.72,-11.941 -2.72,-22.9605 V 54.1797 c 0,-5.3594 -1.15,-9.418 -3.52,-12.1406 -2.32,-2.6875 -5.43,-4.0274 -9.27,-4.0274 -3.69,0 -6.69,1.3399 -8.99,4.0274 -2.31,2.7226 -3.45,6.7812 -3.45,12.1406 v 40.8516 c 0,6.4297 -0.24,11.4377 -0.66,15.0507 -0.43,3.527 -1.56,6.477 -3.41,8.77 -1.83,2.289 -4.79,3.437 -8.79,3.437 -8.02,0 -13.29,-2.879 -15.88,-8.68 -2.55,-5.757 -3.79,-14.0074 -3.79,-24.7887 V 54.1797 c 0,-5.3477 -1.17,-9.3906 -3.46,-12.0508 -2.32,-2.7773 -5.37,-4.1172 -9.1,-4.1172 -3.74,0 -6.81,1.3399 -9.16,4.1172 -2.39,2.6602 -3.53,6.7031 -3.53,12.0117 v 73.3514 c 0,4.817 1.03,8.508 3.13,10.977 2.16,2.492 4.95,3.793 8.44,3.793 3.36,0 6.17,-1.192 8.41,-3.532 2.25,-2.328 3.37,-5.558 3.37,-9.71 v -2.438 c 4.24,5.316 8.81,9.258 13.65,11.727 4.85,2.48 10.3,3.773 16.2,3.773 6.17,0 11.43,-1.301 15.88,-3.891 4.46,-2.55 8.09,-6.441 10.95,-11.609 4.15,5.207 8.6,9.156 13.33,11.668 4.76,2.539 9.98,3.832 15.72,3.832 6.76,0 12.52,-1.363 17.36,-4.152 4.88,-2.77 8.49,-6.68 10.9,-11.84 2.1,-4.621 3.13,-11.899 3.13,-21.879 V 54.1797 c 0,-5.3594 -1.15,-9.418 -3.47,-12.1406 -2.38,-2.6875 -5.44,-4.0274 -9.28,-4.0274 -3.72,0 -6.78,1.3399 -9.11,4.1172 -2.41,2.6602 -3.6,6.7031 -3.6,12.0508 v 43.1094 c 0,5.4999 -0.22,9.9019 -0.66,13.2499 -0.45,3.34 -1.66,6.09 -3.66,8.363 -1.96,2.239 -4.98,3.387 -8.97,3.387 -3.23,0 -6.32,-1.027 -9.18,-2.98 -2.96,-2.039 -5.18,-4.727 -6.81,-8.118 v 0"
         style="fill:#bcb8c2;fill-opacity:1;fill-rule:nonzero;stroke:none"
         id="path30" /><path
         d="m 2504.49,89.5703 c -3.62,-1.4297 -8.85,-2.8515 -15.72,-4.4101 -6.86,-1.5313 -11.63,-2.6211 -14.27,-3.3711 -2.64,-0.75 -5.15,-2.1172 -7.54,-4.2071 -2.42,-2.1601 -3.61,-5.082 -3.61,-8.8398 0,-3.9024 1.41,-7.1836 4.23,-9.8828 2.83,-2.7813 6.52,-4.1094 11.08,-4.1094 4.84,0 9.35,1.1289 13.44,3.3516 4.12,2.207 7.14,5.0976 9.04,8.5781 2.22,3.8906 3.35,10.2617 3.35,19.2305 z m 1.6,-37.1406 C 2500.13,47.6211 2494.4,44 2488.85,41.6484 c -5.52,-2.4492 -11.76,-3.6367 -18.64,-3.6367 -6.32,0 -11.83,1.3086 -16.61,3.8477 -4.78,2.6289 -8.44,6.1601 -11.03,10.6328 -2.57,4.4375 -3.87,9.2266 -3.87,14.4375 0,7 2.17,12.9609 6.41,17.9297 4.24,4.9023 10.08,8.2226 17.5,9.9297 1.56,0.3828 5.46,1.2031 11.62,2.5 6.2,1.3515 11.46,2.5195 15.92,3.6409 4.38,1.05 9.19,2.39 14.34,3.941 -0.33,6.809 -1.62,11.758 -3.91,14.957 -2.32,3.141 -7.14,4.692 -14.37,4.692 -6.25,0 -10.92,-0.872 -14.12,-2.711 -3.13,-1.77 -5.83,-4.539 -8.06,-8.2 -2.26,-3.609 -3.83,-6 -4.76,-7.179 -0.94,-1.16 -2.95,-1.68 -5.97,-1.68 -2.79,0 -5.16,0.891 -7.13,2.719 -2.04,1.871 -3.05,4.211 -3.05,7.113 0,4.5 1.54,8.91 4.59,13.109 3.06,4.278 7.82,7.778 14.3,10.559 6.47,2.77 14.54,4.121 24.2,4.121 10.78,0 19.27,-1.351 25.48,-4.019 6.17,-2.614 10.5,-6.782 13.05,-12.602 2.57,-5.711 3.85,-13.398 3.85,-22.871 0,-6.0079 0,-11.1602 -0.05,-15.3087 -0.06,-4.2187 -0.07,-8.8906 -0.14,-14.0195 0,-4.8086 0.76,-9.8594 2.3,-15.0313 1.49,-5.2109 2.26,-8.6211 2.26,-10.0898 0,-2.6211 -1.22,-5.0508 -3.56,-7.1797 -2.32,-2.1484 -5.02,-3.2383 -8.01,-3.2383 -2.54,0 -4.99,1.2071 -7.49,3.6797 -2.44,2.4688 -5.05,6.0781 -7.81,10.7383"
         style="fill:#bcb8c2;fill-opacity:1;fill-rule:nonzero;stroke:none"
         id="path32" /><path
         d="M 2578.08,127.609 V 53.5898 c 0,-5.1601 -1.19,-9.0312 -3.5,-11.6679 -2.34,-2.5703 -5.29,-3.9102 -8.89,-3.9102 -3.6,0 -6.56,1.3399 -8.78,4.0196 -2.26,2.7304 -3.38,6.539 -3.38,11.5585 v 73.3012 c 0,5.007 1.12,8.847 3.38,11.418 2.22,2.593 5.18,3.89 8.78,3.89 3.6,0 6.55,-1.297 8.89,-3.89 2.31,-2.571 3.5,-6.098 3.5,-10.7 z m -12.14,26.52 c -3.4,0 -6.3,1.062 -8.75,3.332 -2.42,2.168 -3.66,5.309 -3.66,9.309 0,3.609 1.26,6.562 3.76,8.968 2.47,2.344 5.37,3.453 8.65,3.453 3.16,0 6.01,-1.043 8.48,-3.16 2.42,-2.109 3.66,-5.25 3.66,-9.261 0,-3.989 -1.2,-7.04 -3.59,-9.25 -2.41,-2.231 -5.26,-3.391 -8.55,-3.391"
         style="fill:#bcb8c2;fill-opacity:1;fill-rule:nonzero;stroke:none"
         id="path34" /><path
         d="m 2625.78,127.992 v -3.07 c 4.26,5.918 9.01,10.289 14.11,13.058 5.14,2.801 11.01,4.219 17.73,4.219 6.44,0 12.23,-1.48 17.37,-4.469 5.04,-2.91 8.88,-7.031 11.38,-12.421 1.61,-3.137 2.64,-6.559 3.15,-10.149 0.45,-3.629 0.73,-8.25 0.73,-13.898 V 53.5898 c 0,-5.1601 -1.17,-9.0312 -3.39,-11.6679 -2.26,-2.5703 -5.19,-3.9102 -8.76,-3.9102 -3.64,0 -6.63,1.3399 -8.84,4.0274 -2.29,2.7226 -3.46,6.5312 -3.46,11.5507 v 42.6797 c 0,8.4805 -1.09,14.9215 -3.34,19.4025 -2.31,4.48 -6.78,6.719 -13.5,6.719 -4.37,0 -8.36,-1.371 -11.96,-4.121 -3.6,-2.668 -6.22,-6.418 -7.9,-11.2 -1.2,-3.789 -1.83,-10.9216 -1.83,-21.4294 V 53.5898 c 0,-5.1679 -1.13,-9.1015 -3.46,-11.7304 -2.32,-2.5391 -5.29,-3.8477 -8.93,-3.8477 -3.53,0 -6.46,1.3399 -8.72,4.0196 -2.32,2.7304 -3.43,6.539 -3.43,11.5585 v 74.0192 c 0,4.911 1.01,8.52 3.07,10.942 2.01,2.41 4.85,3.648 8.36,3.648 2.14,0 4.12,-0.59 5.81,-1.617 1.8,-1.051 3.15,-2.691 4.2,-4.742 1.02,-2.199 1.61,-4.77 1.61,-7.848"
         style="fill:#bcb8c2;fill-opacity:1;fill-rule:nonzero;stroke:none"
         id="path36" /><path
         d="m 2729.64,126.219 19.84,-58.1604 21.4,60.7034 c 1.72,4.879 3.35,8.297 4.99,10.359 1.64,2.008 4.06,3.078 7.34,3.078 3.14,0 5.79,-1.129 8.02,-3.34 2.15,-2.187 3.27,-4.668 3.27,-7.609 0,-1.098 -0.23,-2.398 -0.61,-3.871 -0.36,-1.547 -0.82,-2.969 -1.35,-4.289 -0.51,-1.281 -1.04,-2.809 -1.74,-4.469 l -23.57,-60.9999 c -0.66,-1.7422 -1.53,-4 -2.56,-6.6797 -1.08,-2.6719 -2.25,-4.9492 -3.52,-6.9414 -1.31,-1.8711 -2.88,-3.3281 -4.75,-4.3984 -1.91,-1.0508 -4.22,-1.5899 -6.92,-1.5899 -3.47,0 -6.25,0.8086 -8.32,2.4571 -2.09,1.6601 -3.63,3.4609 -4.58,5.4726 -0.99,1.9375 -2.68,5.8477 -5,11.6797 l -23.4,60.3279 c -0.55,1.5 -1.1,3.02 -1.7,4.492 -0.55,1.508 -0.99,3.008 -1.41,4.61 -0.36,1.59 -0.58,2.929 -0.58,4.019 0,1.782 0.51,3.512 1.55,5.219 1.02,1.742 2.44,3.18 4.23,4.242 1.81,1.078 3.72,1.668 5.85,1.668 4.05,0 6.87,-1.238 8.4,-3.73 1.54,-2.418 3.25,-6.5 5.12,-12.25"
         style="fill:#bcb8c2;fill-opacity:1;fill-rule:nonzero;stroke:none"
         id="path38" /><path
         d="m 2830.07,98.3906 h 44.51 c -0.58,8.7504 -2.83,15.3084 -6.78,19.6404 -3.95,4.309 -9.11,6.489 -15.53,6.489 -6.08,0 -11.12,-2.2 -15.03,-6.59 -3.94,-4.399 -6.28,-10.918 -7.17,-19.5394 z m 48.05,-14.5508 h -48.05 c 0.02,-5.871 1.19,-10.9804 3.34,-15.4687 2.23,-4.4023 5.13,-7.7305 8.74,-10 3.64,-2.293 7.66,-3.3711 12.03,-3.3711 2.92,0 5.63,0.3516 8.04,1.0391 2.43,0.7695 4.79,1.8906 7.09,3.4023 2.24,1.5274 4.33,3.1602 6.26,4.957 1.9,1.7227 4.45,4.0821 7.45,7.0899 1.29,1.1914 3.09,1.7109 5.4,1.7109 2.55,0 4.58,-0.6992 6.14,-2.1601 1.57,-1.4375 2.32,-3.4493 2.32,-6.0586 0,-2.3282 -0.86,-5.0586 -2.63,-8.1719 -1.72,-3.0664 -4.28,-6.0469 -7.85,-8.9297 -3.52,-2.8203 -7.93,-5.168 -13.23,-7.0898 -5.27,-1.8594 -11.35,-2.7774 -18.29,-2.7774 -15.76,0 -28.03,4.6992 -36.76,14.0586 -8.73,9.4297 -13.11,22.1211 -13.11,38.1602 0,7.6797 1.11,14.6405 3.24,21.1015 2.16,6.488 5.29,12.039 9.42,16.66 4.15,4.668 9.22,8.238 15.29,10.668 6.08,2.469 12.77,3.711 20.18,3.711 9.52,0 17.76,-2.109 24.64,-6.359 6.86,-4.223 12.01,-9.621 15.41,-16.321 3.45,-6.711 5.14,-13.531 5.14,-20.5113 0,-6.3984 -1.71,-10.5781 -5.3,-12.4805 -3.57,-1.9297 -8.49,-2.8594 -14.91,-2.8594"
         style="fill:#bcb8c2;fill-opacity:1;fill-rule:nonzero;stroke:none"
         id="path40" /><path
         d="m 3007.08,69.7422 c 0,-3.1914 -0.88,-6.6133 -2.75,-10.2305 -1.83,-3.6328 -4.59,-7.082 -8.36,-10.3633 -3.74,-3.2773 -8.48,-5.9296 -14.2,-7.8984 -5.66,-2.0508 -12.11,-3.0391 -19.21,-3.0391 -15.2,0 -27.04,4.6211 -35.53,13.8204 -8.49,9.2695 -12.79,21.5976 -12.79,37.1289 0,10.5 1.95,19.8198 5.87,27.8598 3.9,8.05 9.5,14.332 16.9,18.718 7.34,4.442 16.19,6.633 26.45,6.633 6.34,0 12.16,-0.98 17.5,-2.891 5.29,-1.949 9.76,-4.48 13.5,-7.511 3.68,-3.059 6.48,-6.34 8.46,-9.797 1.91,-3.481 2.91,-6.723 2.91,-9.731 0,-3.031 -1.09,-5.601 -3.33,-7.761 -2.17,-2.149 -4.82,-3.219 -7.92,-3.219 -2.07,0 -3.75,0.609 -5.05,1.699 -1.4,1.051 -2.9,2.781 -4.61,5.27 -2.99,4.718 -6.1,8.312 -9.36,10.742 -3.28,2.348 -7.43,3.59 -12.5,3.59 -7.2,0 -13.08,-3 -17.5,-8.903 -4.47,-5.961 -6.65,-14.0504 -6.65,-24.2887 0,-4.8008 0.59,-9.3008 1.69,-13.3203 1.15,-4.0312 2.81,-7.4414 4.96,-10.3203 2.17,-2.8477 4.79,-5 7.85,-6.4609 3,-1.4766 6.37,-2.2266 10.05,-2.2266 4.9,0 9.14,1.168 12.65,3.5664 3.48,2.3906 6.62,6.0312 9.32,10.8633 1.49,2.9297 3.08,5.1679 4.83,6.8398 1.73,1.5977 3.85,2.3789 6.4,2.3789 2.96,0 5.48,-1.1601 7.41,-3.5195 2.02,-2.4297 3.01,-4.9492 3.01,-7.6289"
         style="fill:#bcb8c2;fill-opacity:1;fill-rule:nonzero;stroke:none"
         id="path42" /><path
         d="m 3029.89,140.02 h 2.71 v 15.402 c 0,4.098 0.1,7.359 0.32,9.707 0.21,2.34 0.75,4.32 1.76,6.031 0.94,1.731 2.32,3.18 4.14,4.289 1.77,1.071 3.77,1.602 6,1.602 3.11,0 5.94,-1.219 8.45,-3.629 1.64,-1.66 2.73,-3.633 3.19,-5.953 0.44,-2.34 0.66,-5.707 0.66,-10.008 V 140.02 h 9.03 c 3.46,0 6.11,-0.872 7.95,-2.598 1.86,-1.723 2.75,-3.902 2.75,-6.602 0,-3.441 -1.3,-5.898 -3.93,-7.23 -2.59,-1.348 -6.33,-2.07 -11.2,-2.07 h -4.6 V 74.3398 c 0,-4.0195 0.13,-7.0781 0.39,-9.2695 0.32,-2.1797 1.07,-3.9414 2.22,-5.25 1.14,-1.3398 3.04,-2.0586 5.69,-2.0586 1.45,0 3.37,0.2696 5.86,0.8164 2.42,0.543 4.34,0.8008 5.76,0.8008 1.96,0 3.78,-0.8594 5.33,-2.4492 1.57,-1.7109 2.39,-3.7188 2.39,-6.168 0,-4.1211 -2.11,-7.2695 -6.46,-9.4804 -4.36,-2.1797 -10.55,-3.2696 -18.62,-3.2696 -7.68,0 -13.51,1.3399 -17.47,4.0274 -3.94,2.7226 -6.57,6.3906 -7.74,11.2109 -1.27,4.75 -1.87,11.0898 -1.87,19.0508 V 121.52 h -3.29 c -3.46,0 -6.16,0.871 -8.04,2.66 -1.88,1.742 -2.79,3.941 -2.79,6.64 0,2.7 0.98,4.879 2.9,6.602 1.97,1.726 4.81,2.598 8.51,2.598"
         style="fill:#bcb8c2;fill-opacity:1;fill-rule:nonzero;stroke:none"
         id="path44" /><path
         d="m 3160.96,90.0508 c 0,10.3982 -2.21,18.5512 -6.59,24.3592 -4.44,5.801 -10.32,8.75 -17.78,8.75 -4.8,0 -9.02,-1.32 -12.67,-3.91 -3.68,-2.621 -6.49,-6.441 -8.46,-11.531 -1.97,-5.008 -2.96,-10.8987 -2.96,-17.6682 0,-6.6992 0.99,-12.5508 2.94,-17.5508 1.93,-4.9883 4.7,-8.8203 8.32,-11.5078 3.63,-2.6211 7.89,-3.9336 12.83,-3.9336 7.46,0 13.34,2.8828 17.78,8.7422 4.38,5.8203 6.59,13.9297 6.59,24.25 z m 24.65,0 c 0,-7.6211 -1.13,-14.6406 -3.44,-21.1406 -2.26,-6.3789 -5.57,-11.9414 -9.87,-16.5899 -4.33,-4.6406 -9.49,-8.0781 -15.47,-10.6289 -5.99,-2.4726 -12.7,-3.6797 -20.24,-3.6797 -7.46,0 -14.14,1.2071 -20.06,3.7578 -5.94,2.4805 -11.11,6.0508 -15.41,10.7227 -4.35,4.6875 -7.66,10.1601 -9.88,16.4961 -2.24,6.3906 -3.33,13.3711 -3.33,21.1015 0,7.75 1.09,14.8512 3.33,21.2692 2.35,6.461 5.56,11.95 9.82,16.563 4.28,4.527 9.43,8.078 15.47,10.539 6.1,2.461 12.77,3.738 20.06,3.738 7.46,0 14.17,-1.277 20.24,-3.777 6.07,-2.512 11.23,-6.113 15.55,-10.731 4.28,-4.609 7.63,-10.152 9.86,-16.543 2.24,-6.359 3.37,-13.4175 3.37,-21.0972"
         style="fill:#bcb8c2;fill-opacity:1;fill-rule:nonzero;stroke:none"
         id="path46" /><path
         d="M 3229.35,74.9414 V 53.5898 c 0,-5.1679 -1.17,-9.1015 -3.52,-11.7304 -2.34,-2.5391 -5.31,-3.8477 -8.93,-3.8477 -3.5,0 -6.44,1.3399 -8.7,3.9102 -2.28,2.6367 -3.39,6.5078 -3.39,11.6679 v 71.3082 c 0,11.543 3.96,17.301 11.94,17.301 4.04,0 7.01,-1.41 8.82,-4.07 1.78,-2.66 2.73,-6.668 2.98,-11.91 2.92,5.242 5.94,9.25 9.03,11.91 3.1,2.66 7.2,4.07 12.32,4.07 5.21,0 10.19,-1.41 15.08,-4.07 4.82,-2.66 7.28,-6.258 7.28,-10.688 0,-3.109 -1.07,-5.75 -3.13,-7.75 -2.04,-2.011 -4.29,-3.062 -6.7,-3.062 -0.9,0 -3.08,0.601 -6.53,1.781 -3.45,1.141 -6.5,1.742 -9.15,1.742 -3.57,0 -6.5,-0.98 -8.76,-2.992 -2.28,-1.988 -4.06,-4.879 -5.32,-8.738 -1.26,-3.942 -2.17,-8.5236 -2.61,-13.9103 -0.47,-5.3008 -0.71,-11.8125 -0.71,-19.5703"
         style="fill:#bcb8c2;fill-opacity:1;fill-rule:nonzero;stroke:none"
         id="path48" /><path
         d="m 3360.12,71.4609 c 0,-7.0625 -1.65,-13.0898 -4.99,-18.1406 -3.31,-5.0508 -8.16,-8.832 -14.61,-11.4687 -6.46,-2.5313 -14.28,-3.8399 -23.57,-3.8399 -8.74,0 -16.34,1.4102 -22.65,4.2305 -6.29,2.8164 -10.96,6.2969 -13.92,10.5273 -3.02,4.1993 -4.57,8.4414 -4.57,12.6797 0,2.8125 1,5.2422 2.95,7.2305 1.91,2.0312 4.35,3.0117 7.25,3.0117 2.59,0 4.59,-0.6601 5.96,-1.9609 1.4,-1.3711 2.66,-3.1914 3.96,-5.5508 2.52,-4.6094 5.51,-8 9.07,-10.25 3.44,-2.2891 8.26,-3.3984 14.35,-3.3984 4.89,0 8.94,1.1406 12.08,3.4609 3.13,2.2383 4.76,4.8789 4.76,7.8086 0,4.5195 -1.66,7.8281 -4.9,9.8476 -3.32,2.1133 -8.66,4.0821 -16.18,5.9414 -8.44,2.2305 -15.33,4.5118 -20.63,6.9102 -5.32,2.4023 -9.62,5.6016 -12.77,9.5508 -3.16,3.8982 -4.78,8.7892 -4.78,14.5512 0,5.128 1.47,9.988 4.41,14.507 2.93,4.61 7.32,8.243 13.03,10.961 5.71,2.719 12.63,4.129 20.74,4.129 6.35,0 12.06,-0.75 17.15,-2.09 5.05,-1.379 9.33,-3.23 12.66,-5.527 3.4,-2.32 6,-4.883 7.75,-7.691 1.8,-2.86 2.68,-5.602 2.68,-8.27 0,-2.949 -0.94,-5.301 -2.85,-7.262 -1.9,-1.8 -4.61,-2.781 -8.04,-2.781 -2.54,0 -4.67,0.762 -6.46,2.301 -1.74,1.461 -3.8,3.703 -6.06,6.68 -1.86,2.523 -4.03,4.543 -6.58,6.031 -2.53,1.48 -5.95,2.242 -10.25,2.242 -4.44,0 -8.15,-0.961 -11.04,-2.961 -2.96,-1.961 -4.45,-4.43 -4.45,-7.371 0,-2.691 1.1,-4.898 3.23,-6.629 2.19,-1.719 5.07,-3.141 8.75,-4.281 3.67,-1.129 8.71,-2.52 15.12,-4.141 7.61,-1.9177 13.84,-4.2381 18.68,-6.9373 4.82,-2.6719 8.47,-5.832 10.95,-9.5234 2.52,-3.6992 3.77,-7.8594 3.77,-12.5274"
         style="fill:#bcb8c2;fill-opacity:1;fill-rule:nonzero;stroke:none"
         id="path50" /><path
         d="m 3387.98,38.0117 c -3.7,0 -6.91,1.2071 -9.58,3.7578 -2.75,2.4805 -4.07,6 -4.07,10.4805 0,3.7891 1.26,7.0898 3.81,9.8594 2.59,2.7304 5.8,4.0703 9.57,4.0703 3.75,0 6.99,-1.3399 9.6,-4.0508 2.7,-2.6875 4.06,-6.0508 4.06,-9.8789 0,-4.4609 -1.36,-7.9414 -4.06,-10.4414 -2.61,-2.5469 -5.71,-3.7969 -9.33,-3.7969"
         style="fill:#bcb8c2;fill-opacity:1;fill-rule:nonzero;stroke:none"
         id="path52" /><path
         d="m 3496.56,90.0508 c 0,10.3982 -2.22,18.5512 -6.62,24.3592 -4.41,5.801 -10.31,8.75 -17.74,8.75 -4.8,0 -8.98,-1.32 -12.66,-3.91 -3.68,-2.621 -6.48,-6.441 -8.44,-11.531 -1.95,-5.008 -2.97,-10.8987 -2.97,-17.6682 0,-6.6992 0.95,-12.5508 2.88,-17.5508 2.01,-4.9883 4.78,-8.8203 8.42,-11.5078 3.59,-2.6211 7.87,-3.9336 12.77,-3.9336 7.43,0 13.33,2.8828 17.74,8.7422 4.4,5.8203 6.62,13.9297 6.62,24.25 z m 24.68,0 c 0,-7.6211 -1.13,-14.6406 -3.45,-21.1406 -2.29,-6.3789 -5.57,-11.9414 -9.88,-16.5899 -4.34,-4.6406 -9.44,-8.0781 -15.47,-10.6289 -5.98,-2.4726 -12.72,-3.6797 -20.24,-3.6797 -7.43,0 -14.12,1.2071 -20.06,3.7578 -5.92,2.4805 -11.03,6.0508 -15.37,10.7227 -4.4,4.6875 -7.68,10.1601 -9.97,16.4961 -2.2,6.3906 -3.33,13.3711 -3.33,21.1015 0,7.75 1.13,14.8512 3.42,21.2692 2.32,6.461 5.54,11.95 9.78,16.563 4.25,4.527 9.42,8.078 15.47,10.539 6.08,2.461 12.72,3.738 20.06,3.738 7.43,0 14.17,-1.277 20.24,-3.777 6.08,-2.512 11.25,-6.113 15.57,-10.731 4.3,-4.609 7.57,-10.152 9.85,-16.543 2.25,-6.359 3.38,-13.4175 3.38,-21.0972"
         style="fill:#bcb8c2;fill-opacity:1;fill-rule:nonzero;stroke:none"
         id="path54" /><path
         d="M 3564.96,74.9414 V 53.5898 c 0,-5.1679 -1.18,-9.1015 -3.5,-11.7304 -2.33,-2.5391 -5.31,-3.8477 -8.88,-3.8477 -3.61,0 -6.46,1.3399 -8.78,3.9102 -2.27,2.6367 -3.4,6.5078 -3.4,11.6679 v 71.3082 c 0,11.543 4.04,17.301 11.98,17.301 4.08,0 6.99,-1.41 8.79,-4.07 1.76,-2.66 2.82,-6.668 3.01,-11.91 2.9,5.242 5.9,9.25 9,11.91 3.08,2.66 7.23,4.07 12.33,4.07 5.23,0 10.25,-1.41 15.04,-4.07 4.87,-2.66 7.32,-6.258 7.32,-10.688 0,-3.109 -1.05,-5.75 -3.09,-7.75 -2.11,-2.011 -4.3,-3.062 -6.75,-3.062 -0.87,0 -3.03,0.601 -6.49,1.781 -3.44,1.141 -6.49,1.742 -9.15,1.742 -3.58,0 -6.49,-0.98 -8.83,-2.992 -2.24,-1.988 -4.02,-4.879 -5.28,-8.738 -1.24,-3.942 -2.14,-8.5236 -2.6,-13.9103 -0.47,-5.3008 -0.72,-11.8125 -0.72,-19.5703"
         style="fill:#bcb8c2;fill-opacity:1;fill-rule:nonzero;stroke:none"
         id="path56" /><path
         d="m 3635.83,90.9102 c 0,-10.3399 2.18,-18.211 6.56,-23.5704 4.31,-5.2812 9.97,-7.9609 16.8,-7.9609 4.07,0 7.96,1.1797 11.58,3.4609 3.63,2.3008 6.59,5.7188 8.88,10.3008 2.29,4.6211 3.41,10.211 3.41,16.7383 0,10.4531 -2.23,18.6011 -6.63,24.4101 -4.38,5.863 -10.2,8.793 -17.37,8.793 -6.98,0 -12.64,-2.871 -16.84,-8.402 -4.27,-5.59 -6.39,-13.481 -6.39,-23.7698 z m 71.18,32.5198 V 48.9609 c 0,-8.5195 -0.93,-15.8398 -2.64,-21.9296 -1.74,-6.1915 -4.53,-11.2305 -8.36,-15.2305 -3.83,-4.03127 -8.88,-6.97267 -15.05,-8.92971 C 3674.75,1 3667.02,0 3657.82,0 c -8.51,0 -16.07,1.19141 -22.7,3.64844 -6.66,2.55078 -11.78,5.6914 -15.37,9.61326 -3.61,3.8906 -5.42,7.918 -5.42,12.0899 0,3.1172 1.01,5.6679 3.1,7.6172 2.01,2.0117 4.47,2.9921 7.34,2.9921 3.62,0 6.73,-1.6601 9.47,-4.9687 1.32,-1.7305 2.7,-3.4102 4.09,-5.1211 1.38,-1.7617 2.94,-3.2305 4.66,-4.4219 1.7,-1.2578 3.79,-2.1601 6.19,-2.7695 2.35,-0.5781 5.13,-0.8789 8.27,-0.8789 6.3,0 11.3,0.9414 14.77,2.789 3.53,1.8204 5.98,4.3907 7.42,7.711 1.36,3.3086 2.24,6.8398 2.39,10.6484 0.29,3.8399 0.45,9.8828 0.61,18.293 -3.77,-5.4805 -8.19,-9.6914 -13.09,-12.5625 -4.94,-2.8711 -10.85,-4.2891 -17.64,-4.2891 -8.27,0 -15.47,2.1407 -21.56,6.5586 -6.18,4.3828 -10.91,10.4922 -14.21,18.4102 -3.25,7.8398 -4.94,16.9492 -4.94,27.2929 0,7.7387 0.98,14.6757 3.04,20.8787 1.97,6.16 4.82,11.391 8.58,15.649 3.68,4.269 8.01,7.48 12.85,9.66 4.89,2.121 10.16,3.242 16.02,3.242 6.93,0 12.97,-1.434 18.05,-4.23 5.15,-2.75 9.84,-7.153 14.21,-13.082 v 3.441 c 0,4.469 1.09,7.867 3.15,10.391 2.1,2.418 4.82,3.66 8.09,3.66 4.77,0 7.91,-1.614 9.49,-4.84 1.53,-3.231 2.33,-7.922 2.33,-13.992"
         style="fill:#bcb8c2;fill-opacity:1;fill-rule:nonzero;stroke:none"
         id="path58" /><path
         d="m 2642.89,372.922 h 36.43 c -2.59,-19.652 -10.61,-34.973 -24,-46 -12.4,-10.781 -27.4,-16.113 -44.91,-16.113 -23.78,0 -42.75,8.339 -56.92,25.023 -13.44,15.848 -20.15,36.328 -20.15,61.359 0,25.618 6.67,46.11 19.96,61.629 13.26,15.45 32.06,23.219 56.3,23.219 18.05,0 33.32,-4.879 45.72,-14.578 13.14,-10.461 21.15,-25.172 24,-44.031 h -36.43 c -3.13,16.429 -13.18,24.64 -30.27,24.64 -28.13,0 -42.24,-16.668 -42.24,-50.031 0,-15.641 3.63,-28.398 10.87,-38.359 7.25,-9.969 17.44,-14.961 30.62,-14.961 19.62,0 29.97,9.402 31.02,28.203 z m -143.35,22.969 c 0,-32.59 10.34,-60.18 30.98,-82.641 20.66,-22.488 45.94,-33.738 75.95,-33.738 29.89,0 55.2,11.25 75.84,33.738 20.68,22.461 30.97,50.051 30.97,82.641 0,32.578 -10.29,60.14 -30.97,82.629 -20.64,22.5 -45.95,33.75 -75.84,33.75 -30.01,0 -55.29,-11.25 -75.95,-33.75 -20.64,-22.489 -30.98,-50.051 -30.98,-82.629 z m -36.99,0 c 0,41.468 14.02,76.859 42.13,106.289 28.12,29.332 62.05,44.011 101.79,44.011 39.68,0 73.56,-14.679 101.71,-44.011 28.11,-29.43 42.19,-64.821 42.19,-106.289 0,-41.5 -14.08,-76.95 -42.19,-106.282 -28.15,-29.379 -62.03,-44.078 -101.71,-44.078 -39.74,0 -73.67,14.699 -101.79,44.078 -28.11,29.332 -42.13,64.782 -42.13,106.282"
         style="fill:#bcb8c2;fill-opacity:1;fill-rule:nonzero;stroke:none"
         id="path60" /><path
         d="m 2520.78,301.621 20.98,-17.801 154.36,198.192 -20.99,17.777 -154.35,-198.168"
         style="fill:#bcb8c2;fill-opacity:1;fill-rule:nonzero;stroke:none"
         id="path62" /><path
         d="m 2259.41,5015.68 c 381.2,251.28 893.93,145.94 1145.21,-235.27 251.25,-381.21 145.93,-893.93 -235.29,-1145.22 -381.19,-251.25 -893.93,-145.93 -1145.18,235.29 -251.29,381.21 -145.97,893.92 235.26,1145.2"
         style="fill:#cc2d23;fill-opacity:1;fill-rule:evenodd;stroke:none"
         id="path64" /><path
         d="m 2879.34,5135.66 c 131.07,-26.56 250.85,-84.12 351.47,-164.7 l 8.9,-32.68 c 6.53,-23.88 -0.25,-49.43 -17.77,-66.94 -17.49,-17.5 -43.04,-24.28 -66.94,-17.76 -39.52,10.8 -81.8,-0.44 -110.8,-29.41 -28.98,-28.97 -40.2,-71.26 -29.41,-110.81 15.51,-56.79 -9.22,-116.88 -60.21,-146.31 -50.97,-29.43 -115.38,-20.8 -156.81,21.02 -81.33,82.07 -200.51,114 -311.98,83.58 -45.01,-12.28 -92.67,7.32 -116.02,47.75 -23.33,40.42 -16.46,91.5 16.69,124.36 l 492.88,291.9"
         style="fill:#a82621;fill-opacity:1;fill-rule:evenodd;stroke:none"
         id="path66" /><path
         d="m 3537.65,4402.39 c 27.24,-294.12 -104.46,-593.29 -368.32,-767.2 -263.83,-173.91 -590.69,-176.97 -850.25,-36 -28.04,15.24 -41.72,46.54 -33.88,77.5 7.88,30.94 34.89,51.92 66.83,51.9 181.74,-0.17 405.77,71.35 616.96,210.57 211.21,139.2 365.25,316.9 436.74,483.97 12.57,29.38 42.5,45.92 74.06,40.95 31.52,-4.97 54.92,-29.9 57.86,-61.69"
         style="fill:#a82621;fill-opacity:1;fill-rule:evenodd;stroke:none"
         id="path68" /><path
         d="m 2649.35,5366.73 79.15,-93.75 c 58.25,-69 134.46,-106.39 224.69,-110.21 l 122.59,-5.19 c 31.56,-1.35 57.71,-20.89 67.96,-50.8 10.2,-29.89 1.49,-61.36 -22.66,-81.74 l -93.73,-79.15 c -69.03,-58.25 -106.41,-134.47 -110.23,-224.7 l -5.19,-122.57 c -1.33,-31.57 -20.87,-57.73 -50.78,-67.94 -29.91,-10.23 -61.39,-1.52 -81.75,22.64 l -79.15,93.74 c -58.24,69 -134.48,106.4 -224.69,110.21 l -122.59,5.19 c -31.57,1.35 -57.72,20.89 -67.94,50.8 -10.22,29.9 -1.5,61.36 22.65,81.75 l 93.75,79.14 c 69,58.25 106.38,134.47 110.2,224.69 l 5.19,122.57 c 1.33,31.59 20.89,57.73 50.79,67.96 29.9,10.22 61.36,1.51 81.74,-22.64"
         style="fill:#205b2b;fill-opacity:1;fill-rule:evenodd;stroke:none"
         id="path70" /><path
         d="m 2683.96,5107.44 37.01,-43.84 c 27.25,-32.26 62.89,-49.75 105.09,-51.53 l 57.32,-2.44 c 14.76,-0.62 26.99,-9.76 31.78,-23.75 4.78,-13.98 0.7,-28.69 -10.59,-38.21 l -43.83,-37.02 c -32.28,-27.24 -49.75,-62.89 -51.55,-105.08 l -2.44,-57.32 c -0.62,-14.77 -9.75,-27.01 -23.75,-31.77 -13.98,-4.79 -28.69,-0.7 -38.22,10.58 l -37,43.85 c -27.25,32.26 -62.89,49.74 -105.09,51.53 l -57.3,2.42 c -14.77,0.63 -27.01,9.78 -31.78,23.75 -4.81,14 -0.71,28.71 10.58,38.24 l 43.84,37.01 c 32.28,27.24 49.75,62.89 51.55,105.07 l 2.41,57.32 c 0.63,14.77 9.76,27 23.75,31.78 13.99,4.78 28.71,0.71 38.22,-10.59"
         style="fill:#1e3b1d;fill-opacity:1;fill-rule:evenodd;stroke:none"
         id="path72" /><path
         d="m 2192.77,4715.78 c 132.57,12.32 241.56,-142.26 243.46,-345.29 1.89,-203.05 -104.03,-377.61 -236.6,-389.95 -132.58,-12.35 -241.58,142.25 -243.48,345.29 -1.9,203.02 104.05,377.6 236.62,389.95"
         style="fill:#e33421;fill-opacity:1;fill-rule:evenodd;stroke:none"
         id="path74" /><path
         d="m 2132.16,4591.73 c 38.56,-8.67 62.8,-46.93 54.12,-85.49 -8.67,-38.55 -46.93,-62.78 -85.49,-54.12 -38.53,8.66 -62.76,46.95 -54.11,85.49 8.66,38.54 46.93,62.77 85.48,54.12"
         style="fill:#ffffff;fill-opacity:1;fill-rule:evenodd;stroke:none"
         id="path76" /><path
         d="m 2086.32,4387.72 c 24.33,-5.45 39.62,-29.62 34.16,-53.93 -5.46,-24.3 -29.61,-39.61 -53.93,-34.15 -24.35,5.46 -39.61,29.61 -34.15,53.95 5.47,24.31 29.62,39.6 53.92,34.13"
         style="fill:#ffffff;fill-opacity:1;fill-rule:evenodd;stroke:none"
         id="path78" /><path
         d="M 371.801,2296.96 C 753.031,2548.22 1265.76,2442.91 1517.05,2061.67 1768.3,1680.48 1662.96,1167.74 1281.76,916.48 900.551,665.211 387.82,770.531 136.563,1151.75 -114.727,1532.97 -9.38672,2045.68 371.801,2296.96"
         style="fill:#cc2d23;fill-opacity:1;fill-rule:evenodd;stroke:none"
         id="path80" /><path
         d="m 991.754,2416.94 c 131.076,-26.56 250.866,-84.12 351.466,-164.7 l 8.9,-32.67 c 6.54,-23.9 -0.26,-49.42 -17.75,-66.93 -17.5,-17.52 -43.07,-24.3 -66.94,-17.78 -39.54,10.81 -81.82,-0.43 -110.8,-29.39 -28.99,-28.98 -40.2,-71.28 -29.43,-110.83 15.52,-56.78 -9.21,-116.87 -60.19,-146.31 -50.98,-29.43 -115.393,-20.81 -156.822,21.02 -81.321,82.07 -200.5,114.01 -311.981,83.6 -45.039,-12.3 -92.684,7.31 -116.016,47.71 -23.347,40.44 -16.492,91.51 16.664,124.37 l 492.899,291.91"
         style="fill:#a82621;fill-opacity:1;fill-rule:evenodd;stroke:none"
         id="path82" /><path
         d="M 1650.07,1683.69 C 1677.3,1389.56 1545.6,1090.39 1281.76,916.48 1017.91,742.559 691.063,739.512 431.504,880.461 c -28.066,15.25 -41.742,46.527 -33.883,77.5 7.887,30.969 34.859,51.939 66.82,51.899 181.719,-0.16 405.77,71.35 616.979,210.57 211.18,139.21 365.23,316.9 436.74,483.98 12.56,29.38 42.48,45.92 74.03,40.95 31.55,-4.98 54.92,-29.89 57.88,-61.67"
         style="fill:#a82621;fill-opacity:1;fill-rule:evenodd;stroke:none"
         id="path84" /><path
         d="m 761.77,2648.02 79.144,-93.75 c 58.266,-69.02 134.473,-106.4 224.706,-110.23 l 122.55,-5.18 c 31.6,-1.33 57.74,-20.88 67.96,-50.77 10.24,-29.92 1.53,-61.39 -22.62,-81.78 l -93.75,-79.14 c -69.02,-58.23 -106.41,-134.46 -110.22,-224.71 l -5.19,-122.56 c -1.34,-31.57 -20.87,-57.72 -50.776,-67.94 -29.918,-10.23 -61.386,-1.52 -81.781,22.63 l -79.121,93.75 c -58.242,68.99 -134.473,106.4 -224.711,110.21 l -122.574,5.2 c -31.571,1.33 -57.719,20.89 -67.93,50.79 -10.238,29.9 -1.527,61.35 22.621,81.73 l 93.75,79.16 c 68.988,58.26 106.406,134.47 110.215,224.69 l 5.191,122.57 c 1.34,31.59 20.895,57.73 50.801,67.95 29.899,10.24 61.344,1.52 81.735,-22.62"
         style="fill:#205b2b;fill-opacity:1;fill-rule:evenodd;stroke:none"
         id="path86" /><path
         d="m 796.383,2388.71 37.023,-43.83 c 27.239,-32.27 62.867,-49.74 105.055,-51.54 l 57.344,-2.42 c 14.765,-0.63 26.985,-9.76 31.775,-23.75 4.75,-13.99 0.71,-28.69 -10.59,-38.23 l -43.849,-37.03 c -32.266,-27.23 -49.758,-62.89 -51.532,-105.05 l -2.433,-57.33 c -0.629,-14.76 -9.778,-26.98 -23.75,-31.78 -13.977,-4.78 -28.692,-0.71 -38.242,10.59 l -36.996,43.84 c -27.25,32.27 -62.879,49.74 -105.086,51.54 l -57.325,2.41 c -14.757,0.63 -26.992,9.79 -31.754,23.77 -4.793,13.98 -0.71,28.7 10.575,38.22 l 43.847,37.02 c 32.266,27.24 49.758,62.88 51.551,105.08 l 2.414,57.31 c 0.629,14.75 9.754,27.02 23.731,31.78 14.011,4.79 28.711,0.7 38.242,-10.6"
         style="fill:#1e3b1d;fill-opacity:1;fill-rule:evenodd;stroke:none"
         id="path88" /><path
         d="m 305.172,1997.04 c 132.566,12.34 241.57,-142.25 243.476,-345.27 1.895,-203.04 -104.035,-377.6 -236.601,-389.95 C 179.477,1249.48 70.4609,1404.06 68.5547,1607.1 66.668,1810.14 172.59,1984.7 305.172,1997.04"
         style="fill:#e33421;fill-opacity:1;fill-rule:evenodd;stroke:none"
         id="path90" /><path
         d="m 244.57,1873.02 c 38.575,-8.67 62.778,-46.97 54.129,-85.5 -8.664,-38.55 -46.929,-62.77 -85.484,-54.12 -38.531,8.67 -62.781,46.94 -54.133,85.5 8.684,38.54 46.957,62.77 85.488,54.12"
         style="fill:#ffffff;fill-opacity:1;fill-rule:evenodd;stroke:none"
         id="path92" /><path
         d="m 198.738,1669 c 24.321,-5.46 39.621,-29.61 34.16,-53.91 -5.464,-24.33 -29.617,-39.62 -53.945,-34.15 -24.336,5.46 -39.594,29.61 -34.133,53.92 5.457,24.35 29.61,39.61 53.918,34.14"
         style="fill:#ffffff;fill-opacity:1;fill-rule:evenodd;stroke:none"
         id="path94" /><path
         d="M 605.816,4253.4 C 987.047,4504.67 1499.78,4399.33 1751.04,4018.13 2002.29,3636.91 1896.97,3124.18 1515.75,2872.92 1134.54,2621.63 621.816,2726.97 370.551,3108.18 119.277,3489.4 224.617,4002.14 605.816,4253.4"
         style="fill:#cc2d23;fill-opacity:1;fill-rule:evenodd;stroke:none"
         id="path96" /><path
         d="m 1225.74,4373.37 c 131.08,-26.54 250.89,-84.11 351.47,-164.69 l 8.93,-32.68 c 6.51,-23.91 -0.27,-49.43 -17.76,-66.93 -17.52,-17.52 -43.06,-24.27 -66.93,-17.77 -39.55,10.8 -81.83,-0.44 -110.81,-29.4 -28.98,-28.99 -40.2,-71.27 -29.41,-110.8 15.48,-56.8 -9.25,-116.9 -60.2,-146.34 -51.02,-29.44 -115.4,-20.79 -156.86,21.02 -81.31,82.07 -200.494,114.01 -311.967,83.59 -45.019,-12.28 -92.668,7.32 -116.015,47.75 -23.333,40.43 -16.477,91.49 16.683,124.33 l 492.869,291.92"
         style="fill:#a82621;fill-opacity:1;fill-rule:evenodd;stroke:none"
         id="path98" /><path
         d="m 1884.06,3640.12 c 27.24,-294.13 -104.46,-593.3 -368.31,-767.2 -263.83,-173.93 -590.676,-176.99 -850.23,-36.03 -28.071,15.26 -41.747,46.54 -33.883,77.49 7.859,30.98 34.855,51.95 66.82,51.93 181.719,-0.18 405.763,71.36 616.953,210.55 211.2,139.23 365.25,316.93 436.75,483.99 12.55,29.37 42.49,45.91 74.05,40.95 31.54,-4.99 54.92,-29.9 57.85,-61.68"
         style="fill:#a82621;fill-opacity:1;fill-rule:evenodd;stroke:none"
         id="path100" /><path
         d="m 995.781,4604.44 79.129,-93.75 c 58.26,-69 134.49,-106.38 224.7,-110.21 l 122.58,-5.19 c 31.59,-1.33 57.73,-20.89 67.95,-50.78 10.22,-29.92 1.51,-61.39 -22.64,-81.77 l -93.75,-79.11 c -69.01,-58.26 -106.39,-134.49 -110.21,-224.71 l -5.18,-122.6 c -1.34,-31.56 -20.89,-57.71 -50.8,-67.93 -29.89,-10.22 -61.38,-1.51 -81.75,22.65 l -79.13,93.75 c -58.258,68.99 -134.492,106.38 -224.723,110.2 l -122.559,5.19 c -31.585,1.33 -57.726,20.9 -67.949,50.79 -10.219,29.9 -1.508,61.36 22.645,81.74 l 93.75,79.15 c 68.988,58.26 106.379,134.47 110.215,224.71 l 5.168,122.57 c 1.339,31.57 20.894,57.71 50.796,67.94 29.899,10.22 61.364,1.51 81.758,-22.64"
         style="fill:#205b2b;fill-opacity:1;fill-rule:evenodd;stroke:none"
         id="path102" /><path
         d="m 1030.4,4345.17 37.01,-43.85 c 27.23,-32.27 62.88,-49.76 105.07,-51.54 l 57.31,-2.43 c 14.77,-0.63 27,-9.75 31.78,-23.75 4.78,-14 0.72,-28.69 -10.59,-38.22 l -43.83,-37.02 c -32.28,-27.25 -49.75,-62.88 -51.55,-105.06 l -2.41,-57.34 c -0.63,-14.76 -9.76,-26.99 -23.78,-31.78 -13.97,-4.78 -28.68,-0.69 -38.19,10.59 l -37.03,43.85 c -27.24,32.26 -62.889,49.76 -105.081,51.53 l -57.316,2.44 c -14.762,0.62 -26.992,9.77 -31.777,23.75 -4.797,13.97 -0.707,28.68 10.593,38.24 l 43.825,36.98 c 32.289,27.26 49.761,62.89 51.55,105.1 l 2.418,57.32 c 0.629,14.76 9.75,26.99 23.75,31.78 13.998,4.77 28.708,0.7 38.248,-10.59"
         style="fill:#1e3b1d;fill-opacity:1;fill-rule:evenodd;stroke:none"
         id="path104" /><path
         d="m 539.184,3953.47 c 132.57,12.34 241.574,-142.25 243.476,-345.27 1.875,-203.03 -104.043,-377.6 -236.625,-389.94 -132.566,-12.35 -241.57,142.24 -243.457,345.3 -1.914,203 104.024,377.59 236.606,389.91"
         style="fill:#e33421;fill-opacity:1;fill-rule:evenodd;stroke:none"
         id="path106" /><path
         d="m 478.586,3829.45 c 38.555,-8.67 62.777,-46.96 54.109,-85.49 -8.648,-38.56 -46.914,-62.78 -85.488,-54.14 -38.535,8.69 -62.758,46.96 -54.109,85.5 8.656,38.55 46.929,62.78 85.488,54.13"
         style="fill:#ffffff;fill-opacity:1;fill-rule:evenodd;stroke:none"
         id="path108" /><path
         d="m 432.734,3625.44 c 24.36,-5.46 39.614,-29.61 34.157,-53.92 -5.469,-24.34 -29.606,-39.62 -53.922,-34.16 -24.336,5.47 -39.614,29.61 -34.156,53.94 5.468,24.34 29.605,39.6 53.921,34.14"
         style="fill:#ffffff;fill-opacity:1;fill-rule:evenodd;stroke:none"
         id="path110" /><path
         d="m 3467.63,5670.91 c 27.63,-17.95 35.49,-54.91 17.54,-82.53 -17.96,-27.65 -54.9,-35.5 -82.55,-17.55 l -130.21,84.83 c -38.91,25.34 -83.17,38.67 -127.61,39.87 -44.74,1.2 -89.73,-9.69 -129.84,-32.82 l 0.06,-0.09 c -40.16,-23.18 -72.07,-56.6 -93.28,-95.73 -21.34,-39.37 -32,-84.49 -29.5,-130.83 5.26,-97.79 -5.42,-195.26 -33.3,-290.02 -26.93,-91.55 -69.72,-180.16 -129.51,-263.62 -19.24,-26.87 -56.6,-33.06 -83.46,-13.81 -26.87,19.25 -33.05,56.62 -13.81,83.49 52.05,72.67 89.1,149.16 112.21,227.62 23.99,81.53 33.14,165.66 28.59,250.26 -3.68,68.64 12.04,135.38 43.56,193.5 31.62,58.38 79.06,108.11 138.63,142.51 h 0.24 c 59.55,34.38 126.17,50.58 192.22,48.8 66.39,-1.79 132.22,-21.54 189.81,-59.05 l 130.21,-84.83 z m -1216.73,-909 c 31.63,9.16 64.75,-9.04 73.89,-40.69 9.18,-31.64 -9.04,-64.73 -40.67,-73.91 l -119.64,-34.8 c -67.94,-19.76 -137.54,-29.64 -206.67,-29.64 -69.12,0 -138.72,9.88 -206.67,29.64 -62.95,18.32 -128.61,23.36 -192.98,15.59 -64.03,-7.74 -126.44,-28.25 -183.24,-61.05 -57.15,-32.99 -106.21,-76.81 -144.84,-128.25 -38.69,-51.54 -67.05,-110.82 -82.69,-174.68 l -6.43,-26.23 c 0.09,0.33 0.35,1.32 0,-0.03 -8.04,-32.18 -16.08,-64.36 -21.47,-93.64 -5.94,-32.43 -37.03,-53.89 -69.45,-47.94 -32.43,5.95 -53.88,37.03 -47.95,69.46 6.7,36.36 14.81,68.77 22.9,101.13 5.26,21.14 1.21,4.16 6.4,25.31 19.57,79.79 54.99,153.82 103.28,218.17 48.38,64.45 109.49,119.14 180.41,160.07 71.22,41.14 149.23,66.83 229.05,76.47 79.5,9.61 161.2,3.2 240.23,-19.79 56.16,-16.33 114.59,-24.51 173.45,-24.51 58.86,0 117.29,8.18 173.46,24.51 l 119.63,34.81 v 0"
         style="fill:#2f9a3f;fill-opacity:1;fill-rule:evenodd;stroke:none"
         id="path112" /><path
         d="m 2259.41,2879.84 c 381.2,251.27 893.93,145.94 1145.21,-235.26 251.25,-381.22 145.93,-893.94 -235.29,-1145.22 -381.19,-251.26 -893.93,-145.94 -1145.18,235.3 -251.29,381.19 -145.97,893.92 235.26,1145.18"
         style="fill:#cc2d23;fill-opacity:1;fill-rule:evenodd;stroke:none"
         id="path114" /><path
         d="m 2879.34,2999.82 c 131.07,-26.54 250.85,-84.12 351.47,-164.68 l 8.9,-32.7 c 6.53,-23.88 -0.25,-49.42 -17.77,-66.92 -17.49,-17.52 -43.04,-24.28 -66.94,-17.78 -39.52,10.8 -81.8,-0.42 -110.8,-29.39 -28.98,-29 -40.2,-71.28 -29.41,-110.81 15.51,-56.8 -9.22,-116.9 -60.21,-146.34 -50.97,-29.41 -115.38,-20.78 -156.81,21.03 -81.33,82.07 -200.51,114.01 -311.98,83.61 -45.01,-12.31 -92.67,7.29 -116.02,47.72 -23.33,40.43 -16.46,91.5 16.69,124.36 l 492.88,291.9"
         style="fill:#a82621;fill-opacity:1;fill-rule:evenodd;stroke:none"
         id="path116" /><path
         d="m 3537.65,2266.57 c 27.24,-294.14 -104.46,-593.31 -368.32,-767.21 -263.83,-173.89 -590.69,-176.99 -850.25,-36.02 -28.04,15.25 -41.72,46.55 -33.88,77.52 7.88,30.95 34.89,51.91 66.83,51.9 181.74,-0.17 405.77,71.35 616.96,210.58 211.21,139.2 365.25,316.88 436.74,483.95 12.57,29.38 42.5,45.91 74.06,40.95 31.52,-4.96 54.92,-29.89 57.86,-61.67"
         style="fill:#a82621;fill-opacity:1;fill-rule:evenodd;stroke:none"
         id="path118" /><path
         d="m 2649.35,3230.89 79.15,-93.75 c 58.25,-69.02 134.46,-106.38 224.69,-110.21 l 122.59,-5.17 c 31.56,-1.35 57.71,-20.9 67.96,-50.8 10.2,-29.9 1.49,-61.39 -22.66,-81.76 l -93.73,-79.12 c -69.03,-58.26 -106.41,-134.5 -110.23,-224.72 l -5.19,-122.59 c -1.33,-31.57 -20.87,-57.71 -50.78,-67.93 -29.91,-10.22 -61.39,-1.5 -81.75,22.64 l -79.15,93.75 c -58.24,68.99 -134.48,106.39 -224.69,110.2 l -122.59,5.2 c -31.57,1.33 -57.72,20.88 -67.94,50.79 -10.22,29.89 -1.5,61.36 22.65,81.76 l 93.75,79.13 c 69,58.25 106.38,134.48 110.2,224.69 l 5.19,122.58 c 1.33,31.59 20.89,57.74 50.79,67.95 29.9,10.22 61.36,1.51 81.74,-22.64"
         style="fill:#205b2b;fill-opacity:1;fill-rule:evenodd;stroke:none"
         id="path120" /><path
         d="m 2683.96,2971.61 37.01,-43.86 c 27.25,-32.25 62.89,-49.74 105.09,-51.52 l 57.32,-2.43 c 14.76,-0.64 26.99,-9.76 31.78,-23.73 4.78,-14.02 0.7,-28.71 -10.59,-38.24 l -43.83,-37.03 c -32.28,-27.24 -49.75,-62.87 -51.55,-105.05 l -2.44,-57.35 c -0.62,-14.76 -9.75,-26.98 -23.75,-31.78 -13.98,-4.75 -28.69,-0.68 -38.22,10.6 l -37,43.85 c -27.25,32.26 -62.89,49.75 -105.09,51.52 l -57.3,2.44 c -14.77,0.62 -27.01,9.78 -31.78,23.75 -4.81,13.98 -0.71,28.69 10.58,38.24 l 43.84,36.99 c 32.28,27.25 49.75,62.89 51.55,105.09 l 2.41,57.33 c 0.63,14.75 9.76,26.99 23.75,31.78 13.99,4.76 28.71,0.7 38.22,-10.6"
         style="fill:#1e3b1d;fill-opacity:1;fill-rule:evenodd;stroke:none"
         id="path122" /><path
         d="m 2192.77,2579.94 c 132.57,12.32 241.56,-142.27 243.46,-345.28 1.89,-203.05 -104.03,-377.61 -236.6,-389.96 -132.58,-12.35 -241.58,142.24 -243.48,345.3 -1.9,203.01 104.05,377.59 236.62,389.94"
         style="fill:#e33421;fill-opacity:1;fill-rule:evenodd;stroke:none"
         id="path124" /><path
         d="m 2132.16,2455.9 c 38.56,-8.67 62.8,-46.95 54.12,-85.5 -8.67,-38.55 -46.93,-62.76 -85.49,-54.11 -38.53,8.66 -62.76,46.94 -54.11,85.47 8.66,38.55 46.93,62.79 85.48,54.14"
         style="fill:#ffffff;fill-opacity:1;fill-rule:evenodd;stroke:none"
         id="path126" /><path
         d="m 2086.32,2251.88 c 24.33,-5.45 39.62,-29.61 34.16,-53.91 -5.46,-24.32 -29.61,-39.62 -53.93,-34.16 -24.35,5.47 -39.61,29.61 -34.15,53.94 5.47,24.34 29.62,39.59 53.92,34.13"
         style="fill:#ffffff;fill-opacity:1;fill-rule:evenodd;stroke:none"
         id="path128" /><path
         d="m 4009.7,4326.7 c 381.22,251.29 893.96,145.96 1145.24,-235.26 251.26,-381.22 145.91,-893.94 -235.3,-1145.21 -381.19,-251.25 -893.92,-145.93 -1145.2,235.29 -251.28,381.19 -145.94,893.93 235.26,1145.18"
         style="fill:#cc2d23;fill-opacity:1;fill-rule:evenodd;stroke:none"
         id="path130" /><path
         d="m 4629.63,4446.7 c 131.08,-26.55 250.89,-84.13 351.47,-164.69 l 8.92,-32.7 c 6.54,-23.87 -0.26,-49.42 -17.76,-66.93 -17.51,-17.5 -43.04,-24.27 -66.93,-17.77 -39.53,10.8 -81.82,-0.41 -110.81,-29.4 -28.98,-28.99 -40.19,-71.28 -29.42,-110.8 15.51,-56.8 -9.21,-116.89 -60.2,-146.33 -50.98,-29.43 -115.38,-20.8 -156.82,21.01 -81.31,82.07 -200.51,114.01 -311.97,83.61 -45.02,-12.3 -92.69,7.31 -116.02,47.73 -23.34,40.44 -16.49,91.51 16.65,124.34 l 492.89,291.93"
         style="fill:#a82621;fill-opacity:1;fill-rule:evenodd;stroke:none"
         id="path132" /><path
         d="m 5287.96,3713.43 c 27.22,-294.12 -104.46,-593.27 -368.32,-767.2 -263.84,-173.9 -590.68,-176.99 -850.23,-36.01 -28.08,15.24 -41.75,46.54 -33.89,77.49 7.85,30.96 34.86,51.94 66.83,51.92 181.72,-0.17 405.76,71.35 616.96,210.57 211.19,139.2 365.25,316.9 436.73,483.96 12.58,29.37 42.5,45.94 74.06,40.95 31.53,-4.96 54.91,-29.9 57.86,-61.68"
         style="fill:#a82621;fill-opacity:1;fill-rule:evenodd;stroke:none"
         id="path134" /><path
         d="m 4399.66,4677.76 79.15,-93.75 c 58.27,-69.01 134.48,-106.38 224.69,-110.21 l 122.59,-5.19 c 31.57,-1.34 57.71,-20.89 67.94,-50.78 10.21,-29.92 1.51,-61.37 -22.63,-81.76 l -93.74,-79.13 c -69.03,-58.26 -106.41,-134.48 -110.22,-224.71 l -5.2,-122.59 c -1.33,-31.56 -20.89,-57.72 -50.79,-67.94 -29.9,-10.2 -61.37,-1.49 -81.76,22.65 l -79.13,93.75 c -58.25,69 -134.46,106.38 -224.7,110.22 l -122.57,5.17 c -31.58,1.33 -57.73,20.89 -67.95,50.79 -10.23,29.91 -1.51,61.39 22.63,81.76 l 93.74,79.14 c 69.03,58.26 106.39,134.48 110.23,224.71 l 5.19,122.56 c 1.33,31.57 20.87,57.73 50.79,67.96 29.91,10.2 61.37,1.5 81.74,-22.65"
         style="fill:#205b2b;fill-opacity:1;fill-rule:evenodd;stroke:none"
         id="path136" /><path
         d="m 4434.28,4418.47 37,-43.83 c 27.27,-32.27 62.89,-49.76 105.09,-51.54 l 57.33,-2.44 c 14.76,-0.62 26.98,-9.75 31.77,-23.73 4.79,-13.99 0.69,-28.71 -10.58,-38.24 l -43.86,-37.01 c -32.26,-27.26 -49.75,-62.89 -51.52,-105.07 l -2.43,-57.33 c -0.64,-14.77 -9.77,-26.99 -23.75,-31.77 -14,-4.77 -28.71,-0.71 -38.25,10.58 l -36.99,43.85 c -27.26,32.25 -62.89,49.75 -105.09,51.54 l -57.32,2.42 c -14.76,0.63 -27,9.77 -31.78,23.75 -4.77,13.99 -0.71,28.68 10.6,38.24 l 43.83,37.02 c 32.27,27.22 49.74,62.85 51.53,105.06 l 2.45,57.32 c 0.62,14.76 9.76,27.01 23.75,31.78 13.96,4.77 28.69,0.71 38.22,-10.6"
         style="fill:#1e3b1d;fill-opacity:1;fill-rule:evenodd;stroke:none"
         id="path138" /><path
         d="m 3943.08,4026.8 c 132.58,12.33 241.56,-142.27 243.46,-345.27 1.9,-203.05 -104.04,-377.62 -236.61,-389.96 -132.57,-12.33 -241.6,142.24 -243.47,345.29 -1.88,203.02 104.05,377.62 236.62,389.94"
         style="fill:#e33421;fill-opacity:1;fill-rule:evenodd;stroke:none"
         id="path140" /><path
         d="m 3882.48,3902.76 c 38.54,-8.67 62.77,-46.94 54.13,-85.49 -8.69,-38.54 -46.95,-62.78 -85.49,-54.11 -38.56,8.66 -62.79,46.93 -54.11,85.48 8.64,38.56 46.91,62.8 85.47,54.12"
         style="fill:#ffffff;fill-opacity:1;fill-rule:evenodd;stroke:none"
         id="path142" /><path
         d="m 3836.65,3698.77 c 24.32,-5.48 39.6,-29.63 34.14,-53.94 -5.46,-24.31 -29.63,-39.62 -53.95,-34.15 -24.3,5.46 -39.61,29.61 -34.14,53.93 5.48,24.34 29.63,39.62 53.95,34.16"
         style="fill:#ffffff;fill-opacity:1;fill-rule:evenodd;stroke:none"
         id="path144" /><path
         d="m 2021.06,4356.48 76.27,32.26 c 123.11,52.06 255.68,64.23 380.97,39.78 125.55,-24.5 243.9,-85.57 338.3,-179.96 94.36,-94.37 155.46,-212.75 179.97,-338.3 24.43,-125.27 12.25,-257.86 -39.79,-380.96 -51.37,-121.49 -94.1,-246.41 -127.09,-374.04 -31.94,-123.58 -54.68,-249.48 -67.14,-377.1 -3.11,-32.82 -32.22,-56.87 -65.02,-53.79 -32.79,3.09 -56.87,32.21 -53.78,65.02 13.1,134.15 36.95,266.33 70.41,395.79 34.37,132.99 78.99,263.4 132.72,390.42 42.47,100.46 52.34,208.97 32.29,311.78 -20.01,102.52 -69.98,199.26 -147.23,276.52 -77.26,77.26 -174.01,127.24 -276.55,147.24 -102.79,20.05 -211.3,10.18 -311.77,-32.31 l -291.18,-123.1 C 1388,3576.07 1042.96,2910.91 885.25,2185.91 c -6.965,-32.31 -38.809,-52.81 -71.086,-45.83 -32.301,6.96 -52.816,38.79 -45.848,71.08 178.485,820.39 590.054,1565.22 1141.474,2199.46 427.12,491.28 938.35,916.25 1490.12,1258.54 2.4,1.75 4.95,3.32 7.63,4.72 226.4,140.05 459.56,266.2 696.53,377.27 l 405.51,190.08 c 29.83,13.95 65.32,1.06 79.27,-28.77 13.93,-29.82 1.07,-65.32 -28.78,-79.27 l -405.48,-190.07 c -57.44,-26.92 -114.62,-54.78 -171.55,-83.48 40.38,-0.22 80.61,-4.27 120.08,-12.06 121.58,-24.03 236.09,-83.3 327.44,-174.64 91.36,-91.35 150.63,-205.87 174.66,-327.45 23.95,-121.3 12.63,-249.61 -37.12,-368.86 -46.03,-110.31 -70.33,-227.3 -77.68,-344.76 -8.3,-132.79 4.8,-265.93 32.5,-390.73 7.1,-32.16 -13.23,-63.98 -45.38,-71.06 -32.15,-7.14 -63.96,13.17 -71.08,45.35 -30.04,135.43 -44.27,279.74 -35.28,423.44 8.15,130.45 35.2,260.6 86.53,383.59 40.46,96.92 49.63,201.34 30.12,300.11 -19.46,98.49 -67.63,191.42 -141.92,265.71 -74.27,74.28 -167.21,122.45 -265.71,141.9 -98.78,19.52 -203.17,10.35 -300.12,-30.1 L 3461.9,5567.29 C 2929.51,5236.9 2435.71,4828.22 2021.06,4356.48"
         style="fill:#47bc52;fill-opacity:1;fill-rule:evenodd;stroke:none"
         id="path146" /></g></g></svg>
