<?xml version="1.0" encoding="UTF-8" standalone="no"?>
<svg
   xmlns:dc="http://purl.org/dc/elements/1.1/"
   xmlns:cc="http://creativecommons.org/ns#"
   xmlns:rdf="http://www.w3.org/1999/02/22-rdf-syntax-ns#"
   xmlns:svg="http://www.w3.org/2000/svg"
   xmlns="http://www.w3.org/2000/svg"
   xmlns:sodipodi="http://sodipodi.sourceforge.net/DTD/sodipodi-0.dtd"
   xmlns:inkscape="http://www.inkscape.org/namespaces/inkscape"
   version="1.1"
   id="svg2"
   xml:space="preserve"
   width="706.93335"
   height="828.69336"
   viewBox="0 0 706.93335 828.69336"
   sodipodi:docname="almonds-publicdomainvectors.org.svg"
   inkscape:version="1.0.1 (3bc2e813f5, 2020-09-07)"><metadata
     id="metadata8"><rdf:RDF><cc:Work
         rdf:about=""><dc:format>image/svg+xml</dc:format><dc:type
           rdf:resource="http://purl.org/dc/dcmitype/StillImage" /></cc:Work></rdf:RDF></metadata><defs
     id="defs6"><clipPath
       clipPathUnits="userSpaceOnUse"
       id="clipPath62"><rect
         style="fill-rule:evenodd;stroke-width:7.5"
         id="rect64"
         width="5351.979"
         height="5549.2861"
         x="-67.824486"
         y="-6301.522"
         transform="scale(1,-1)" /></clipPath></defs><sodipodi:namedview
     pagecolor="#ffffff"
     bordercolor="#666666"
     borderopacity="1"
     objecttolerance="10"
     gridtolerance="10"
     guidetolerance="10"
     inkscape:pageopacity="0"
     inkscape:pageshadow="2"
     inkscape:window-width="2231"
     inkscape:window-height="1206"
     id="namedview4"
     inkscape:document-rotation="0"
     showgrid="false"
     inkscape:zoom="1.2163727"
     inkscape:cx="370.05125"
     inkscape:cy="414.34668"
     inkscape:window-x="0"
     inkscape:window-y="463"
     inkscape:window-maximized="0"
     inkscape:current-layer="g10" /><g
     id="g10"
     inkscape:groupmode="layer"
     inkscape:label="ink_ext_XXXXXX"
     transform="matrix(1.3333333,0,0,-1.3333333,0,828.69333)"><g
       id="g12"
       transform="scale(0.1)"
       clip-path="url(#clipPath62)"><path
         d="m 1635.32,90.5195 c 0,6.7696 -0.97,12.6095 -2.99,17.4215 -1.93,4.868 -4.68,8.579 -8.22,11.231 -3.51,2.578 -7.37,3.91 -11.66,3.91 -6.76,0 -12.47,-2.871 -17.13,-8.402 -4.67,-5.61 -6.99,-13.75 -6.99,-24.6097 0,-10.2187 2.32,-18.1406 6.92,-23.7617 4.64,-5.668 10.38,-8.5469 17.2,-8.5469 4.09,0 7.87,1.25 11.37,3.75 3.44,2.4571 6.25,6.168 8.35,11.0899 2.12,4.9804 3.15,10.9297 3.15,17.9179 z m -48.13,37.3325 v -3.082 c 4.61,5.929 9.4,10.332 14.37,13.082 4.99,2.796 10.66,4.23 16.96,4.23 7.53,0 14.5,-2.062 20.86,-6.16 6.34,-4.043 11.36,-9.961 15.06,-17.801 3.69,-7.859 5.52,-17.082 5.52,-27.8124 0,-7.8789 -1.03,-15.1797 -3.17,-21.707 -2.12,-6.6328 -5.05,-12.1719 -8.78,-16.6524 -3.72,-4.4687 -8.13,-7.9492 -13.18,-10.3008 -5.08,-2.4492 -10.53,-3.6367 -16.31,-3.6367 -7.06,0 -12.95,1.4492 -17.72,4.3985 -4.79,2.9296 -9.31,7.2304 -13.61,12.9414 V 16.8906 C 1587.19,5.60156 1583.25,0 1575.41,0 c -4.63,0 -7.7,1.42188 -9.16,4.33984 -1.51,2.92969 -2.26,7.16016 -2.26,12.71876 V 127.699 c 0,4.852 1,8.531 3.06,10.91 2.05,2.411 4.83,3.653 8.36,3.653 3.47,0 6.31,-1.242 8.5,-3.742 2.18,-2.508 3.28,-6.071 3.28,-10.668"
         style="fill:#9ac421;fill-opacity:1;fill-rule:nonzero;stroke:none"
         id="path14" /><path
         d="M 1743.51,52.4922 V 55.75 c -2.98,-3.8906 -6.04,-7.1211 -9.31,-9.7109 -3.24,-2.6993 -6.77,-4.6368 -10.59,-5.9102 -3.86,-1.2578 -8.24,-1.918 -13.15,-1.918 -5.92,0 -11.25,1.3008 -15.95,3.8282 -4.72,2.582 -8.36,6.1093 -10.92,10.6211 -3.1,5.4492 -4.61,13.2695 -4.61,23.4179 v 50.8129 c 0,5.097 1.11,8.961 3.34,11.461 2.22,2.546 5.14,3.847 8.8,3.847 3.73,0 6.72,-1.301 9,-3.89 2.27,-2.571 3.42,-6.411 3.42,-11.418 V 85.8516 c 0,-5.9219 0.48,-10.9102 1.39,-14.9297 1.01,-4.0625 2.72,-7.2305 5.25,-9.5196 C 1712.63,59.1289 1716,58 1720.25,58 c 4.18,0 8.08,1.3008 11.7,3.8594 3.69,2.539 6.36,5.8594 8.03,9.9922 1.4,3.6601 2.07,11.6093 2.07,23.8672 v 31.1722 c 0,5.007 1.13,8.847 3.42,11.418 2.26,2.589 5.22,3.89 8.88,3.89 3.67,0 6.6,-1.301 8.81,-3.847 2.21,-2.5 3.3,-6.364 3.3,-11.461 V 52.6602 c 0,-4.8907 -1.03,-8.5704 -3.18,-10.9688 -2.09,-2.4726 -4.84,-3.6601 -8.21,-3.6601 -3.34,0 -6.11,1.289 -8.3,3.7773 -2.18,2.5703 -3.26,6.0703 -3.26,10.6836"
         style="fill:#9ac421;fill-opacity:1;fill-rule:nonzero;stroke:none"
         id="path16" /><path
         d="m 1814.73,89.5 c 0,-10.1797 2.21,-18.0117 6.66,-23.5 4.48,-5.4492 10.34,-8.2383 17.61,-8.2383 6.2,0 11.49,2.8281 15.99,8.418 4.48,5.6211 6.69,13.5898 6.69,24.0508 0,6.8398 -0.92,12.6485 -2.77,17.4885 -1.88,4.902 -4.54,8.691 -7.91,11.34 -3.48,2.632 -7.43,4.023 -12,4.023 -4.71,0 -8.82,-1.391 -12.5,-4.023 -3.68,-2.649 -6.53,-6.539 -8.65,-11.559 -2.09,-5 -3.12,-11 -3.12,-18 z m -1.18,76.172 v -39.16 c 4.57,5.058 9.3,8.847 14.1,11.558 4.8,2.649 10.75,4.012 17.83,4.012 8.14,0 15.28,-2.062 21.45,-6.07 6.13,-4.114 10.92,-9.922 14.3,-17.571 3.41,-7.679 5.08,-16.742 5.08,-27.2613 0,-7.7891 -0.93,-14.8984 -2.8,-21.3984 -1.91,-6.4727 -4.64,-12.0625 -8.23,-16.8399 -3.63,-4.7617 -7.99,-8.3828 -13.11,-11.0703 -5.14,-2.5508 -10.79,-3.8594 -16.95,-3.8594 -3.78,0 -7.33,0.4688 -10.68,1.4102 -3.34,0.9297 -6.18,2.1367 -8.49,3.707 -2.36,1.4922 -4.35,3.0899 -6,4.6914 -1.65,1.6485 -3.8,4.0781 -6.5,7.3399 v -2.5 c 0,-4.8711 -1.13,-8.5 -3.36,-10.9688 -2.2,-2.4726 -5.04,-3.6797 -8.43,-3.6797 -3.49,0 -6.24,1.2071 -8.34,3.6797 -2.06,2.5508 -3.09,6.1289 -3.09,10.9688 V 164.57 c 0,5.149 1.01,9.078 3.03,11.731 2,2.679 4.78,4 8.4,4 3.75,0 6.68,-1.281 8.7,-3.832 2.06,-2.508 3.09,-6.09 3.09,-10.797"
         style="fill:#9ac421;fill-opacity:1;fill-rule:nonzero;stroke:none"
         id="path18" /><path
         d="M 1903.64,53.5898 V 164.73 c 0,5.149 1.09,9.012 3.27,11.649 2.2,2.601 5.15,3.922 8.87,3.922 3.71,0 6.7,-1.289 9.01,-3.899 2.24,-2.582 3.39,-6.511 3.39,-11.672 V 53.5898 c 0,-5.1679 -1.17,-9.1015 -3.46,-11.7187 -2.3,-2.5508 -5.29,-3.8594 -8.94,-3.8594 -3.6,0 -6.49,1.3399 -8.76,4.0274 -2.26,2.7226 -3.38,6.5312 -3.38,11.5507"
         style="fill:#9ac421;fill-opacity:1;fill-rule:nonzero;stroke:none"
         id="path20" /><path
         d="M 1978.1,127.609 V 53.5898 c 0,-5.1601 -1.2,-9.0312 -3.49,-11.6679 -2.35,-2.5703 -5.34,-3.9102 -8.91,-3.9102 -3.61,0 -6.53,1.3399 -8.77,4.0196 -2.24,2.7304 -3.38,6.539 -3.38,11.5585 v 73.3012 c 0,5.007 1.14,8.847 3.38,11.418 2.24,2.589 5.16,3.89 8.77,3.89 3.57,0 6.56,-1.301 8.91,-3.89 2.29,-2.571 3.49,-6.098 3.49,-10.7 z m -12.16,26.52 c -3.4,0 -6.31,1.07 -8.79,3.332 -2.36,2.168 -3.6,5.309 -3.6,9.309 0,3.609 1.24,6.562 3.74,8.968 2.46,2.344 5.36,3.453 8.65,3.453 3.19,0 6.02,-1.043 8.48,-3.152 2.44,-2.117 3.68,-5.258 3.68,-9.269 0,-3.989 -1.22,-7.04 -3.6,-9.25 -2.4,-2.231 -5.24,-3.391 -8.56,-3.391"
         style="fill:#9ac421;fill-opacity:1;fill-rule:nonzero;stroke:none"
         id="path22" /><path
         d="m 2091.42,69.7422 c 0,-3.1914 -0.9,-6.6133 -2.72,-10.2305 -1.87,-3.6328 -4.65,-7.082 -8.4,-10.3633 -3.74,-3.2773 -8.46,-5.9296 -14.15,-7.8984 -5.69,-2.0508 -12.13,-3.0391 -19.23,-3.0391 -15.19,0 -27.02,4.6211 -35.54,13.8204 -8.52,9.2695 -12.77,21.5976 -12.77,37.1289 0,10.5 1.94,19.8198 5.82,27.8598 3.9,8.05 9.57,14.332 16.92,18.718 7.35,4.442 16.19,6.633 26.42,6.633 6.38,0 12.23,-0.98 17.52,-2.891 5.32,-1.949 9.81,-4.48 13.47,-7.511 3.7,-3.059 6.5,-6.34 8.49,-9.797 1.97,-3.481 2.9,-6.723 2.9,-9.731 0,-3.031 -1.11,-5.601 -3.27,-7.761 -2.2,-2.149 -4.82,-3.219 -7.95,-3.219 -2.06,0 -3.75,0.609 -5.11,1.699 -1.32,1.051 -2.86,2.781 -4.53,5.27 -3.01,4.718 -6.14,8.312 -9.41,10.742 -3.27,2.348 -7.43,3.59 -12.42,3.59 -7.29,0 -13.14,-3 -17.58,-8.903 -4.43,-5.961 -6.63,-14.0504 -6.63,-24.2887 0,-4.8008 0.58,-9.3008 1.71,-13.3203 1.14,-4.0312 2.79,-7.4414 4.92,-10.3203 2.18,-2.8477 4.76,-5 7.85,-6.4609 3.05,-1.4766 6.42,-2.2266 10.04,-2.2266 4.95,0 9.14,1.168 12.65,3.5664 3.52,2.3906 6.63,6.0312 9.3,10.8633 1.53,2.9297 3.14,5.1679 4.88,6.8398 1.75,1.5977 3.88,2.3789 6.39,2.3789 2.99,0 5.48,-1.1601 7.48,-3.5195 1.94,-2.4297 2.95,-4.9492 2.95,-7.6289"
         style="fill:#9ac421;fill-opacity:1;fill-rule:nonzero;stroke:none"
         id="path24" /><path
         d="m 2131.87,90.2305 c 0,-6.9297 1.03,-12.8203 3.09,-17.7305 2.08,-4.8906 4.87,-8.5312 8.45,-10.9883 3.64,-2.5 7.56,-3.75 11.78,-3.75 4.34,0 8.28,1.1992 11.83,3.5391 3.58,2.3476 6.41,5.9609 8.57,10.8008 2.12,4.8398 3.16,10.9101 3.16,18.1289 0,6.8593 -1.04,12.7105 -3.16,17.6215 -2.16,4.957 -5.01,8.668 -8.65,11.32 -3.62,2.578 -7.59,3.91 -11.89,3.91 -4.48,0 -8.5,-1.391 -12.06,-4.023 -3.5,-2.649 -6.27,-6.489 -8.21,-11.477 -1.94,-5 -2.91,-10.7031 -2.91,-17.3515 z m 48.24,-37.5703 v 2.5 c -3.28,-3.9493 -6.55,-7.1407 -9.77,-9.6016 -3.18,-2.4766 -6.67,-4.3594 -10.42,-5.6602 -3.72,-1.2265 -7.84,-1.8867 -12.27,-1.8867 -5.85,0 -11.32,1.3086 -16.31,3.8594 -4.99,2.6875 -9.33,6.3398 -12.98,11.168 -3.65,4.7929 -6.42,10.4804 -8.34,17 -1.89,6.4726 -2.82,13.5195 -2.82,21.1406 0,15.9683 3.76,28.5113 11.24,37.4613 7.51,8.949 17.36,13.441 29.58,13.441 7.08,0 13.05,-1.301 17.89,-3.891 4.85,-2.492 9.59,-6.402 14.2,-11.679 v 37.84 c 0,5.269 1,9.218 3.03,11.91 2,2.699 4.83,4.039 8.56,4.039 3.72,0 6.56,-1.231 8.6,-3.68 2.01,-2.461 3.04,-6.141 3.04,-10.949 V 52.6602 c 0,-4.8907 -1.09,-8.5704 -3.26,-10.9688 -2.16,-2.4726 -4.95,-3.6797 -8.38,-3.6797 -3.31,0 -6.12,1.25 -8.32,3.7969 -2.18,2.5 -3.27,6.0898 -3.27,10.8516"
         style="fill:#9ac421;fill-opacity:1;fill-rule:nonzero;stroke:none"
         id="path26" /><path
         d="m 2295.24,90.0508 c 0,10.3982 -2.22,18.5512 -6.63,24.3592 -4.4,5.801 -10.34,8.75 -17.75,8.75 -4.82,0 -9.02,-1.32 -12.7,-3.91 -3.64,-2.621 -6.47,-6.441 -8.43,-11.531 -1.99,-5.008 -2.98,-10.8987 -2.98,-17.6682 0,-6.6992 0.99,-12.5508 2.93,-17.5508 1.95,-4.9883 4.73,-8.8203 8.38,-11.5078 3.59,-2.6211 7.92,-3.9336 12.8,-3.9336 7.41,0 13.35,2.8828 17.75,8.7422 4.41,5.8203 6.63,13.9297 6.63,24.25 z m 24.63,0 c 0,-7.6211 -1.14,-14.6406 -3.41,-21.1406 -2.28,-6.3789 -5.57,-11.9414 -9.87,-16.5899 -4.34,-4.6289 -9.5,-8.0781 -15.5,-10.6289 -5.99,-2.4726 -12.78,-3.6797 -20.23,-3.6797 -7.43,0 -14.1,1.2071 -20.05,3.7578 -5.94,2.4805 -11.08,6.0508 -15.44,10.7227 -4.33,4.6875 -7.62,10.1601 -9.91,16.4961 -2.24,6.3906 -3.34,13.3711 -3.34,21.1015 0,7.75 1.14,14.8512 3.41,21.2692 2.29,6.461 5.54,11.95 9.79,16.563 4.27,4.527 9.41,8.078 15.49,10.539 6.07,2.461 12.73,3.738 20.05,3.738 7.44,0 14.2,-1.277 20.23,-3.777 6.04,-2.512 11.23,-6.113 15.56,-10.723 4.32,-4.617 7.6,-10.16 9.82,-16.551 2.3,-6.359 3.4,-13.4175 3.4,-21.0972"
         style="fill:#9ac421;fill-opacity:1;fill-rule:nonzero;stroke:none"
         id="path28" /><path
         d="m 2423.57,111.191 c -1.83,-4.32 -2.72,-11.941 -2.72,-22.9605 V 54.1797 c 0,-5.3594 -1.15,-9.418 -3.52,-12.1406 -2.32,-2.6875 -5.43,-4.0274 -9.27,-4.0274 -3.69,0 -6.69,1.3399 -8.99,4.0274 -2.31,2.7226 -3.45,6.7812 -3.45,12.1406 v 40.8516 c 0,6.4297 -0.24,11.4377 -0.66,15.0507 -0.43,3.527 -1.56,6.477 -3.41,8.77 -1.83,2.289 -4.79,3.437 -8.79,3.437 -8.02,0 -13.29,-2.879 -15.88,-8.68 -2.55,-5.757 -3.79,-14.0074 -3.79,-24.7887 V 54.1797 c 0,-5.3477 -1.17,-9.3906 -3.46,-12.0508 -2.32,-2.7773 -5.37,-4.1172 -9.1,-4.1172 -3.74,0 -6.81,1.3399 -9.16,4.1172 -2.39,2.6602 -3.53,6.7031 -3.53,12.0117 v 73.3514 c 0,4.817 1.03,8.508 3.13,10.977 2.16,2.492 4.95,3.793 8.44,3.793 3.36,0 6.17,-1.192 8.41,-3.532 2.25,-2.328 3.37,-5.558 3.37,-9.71 v -2.438 c 4.24,5.316 8.81,9.258 13.65,11.727 4.85,2.48 10.3,3.773 16.2,3.773 6.17,0 11.43,-1.301 15.88,-3.891 4.46,-2.55 8.09,-6.441 10.95,-11.609 4.15,5.207 8.6,9.156 13.33,11.668 4.76,2.539 9.98,3.832 15.72,3.832 6.76,0 12.52,-1.363 17.36,-4.152 4.88,-2.77 8.49,-6.68 10.9,-11.84 2.1,-4.621 3.13,-11.899 3.13,-21.879 V 54.1797 c 0,-5.3594 -1.15,-9.418 -3.47,-12.1406 -2.38,-2.6875 -5.44,-4.0274 -9.28,-4.0274 -3.72,0 -6.78,1.3399 -9.11,4.1172 -2.41,2.6602 -3.6,6.7031 -3.6,12.0508 v 43.1094 c 0,5.4999 -0.22,9.9019 -0.66,13.2499 -0.45,3.34 -1.66,6.09 -3.66,8.363 -1.96,2.239 -4.98,3.387 -8.97,3.387 -3.23,0 -6.32,-1.027 -9.18,-2.98 -2.96,-2.028 -5.17,-4.727 -6.81,-8.118 v 0"
         style="fill:#9ac421;fill-opacity:1;fill-rule:nonzero;stroke:none"
         id="path30" /><path
         d="m 2562.61,89.5703 c -3.62,-1.4297 -8.85,-2.8515 -15.72,-4.4101 -6.86,-1.5313 -11.63,-2.6211 -14.27,-3.3711 -2.64,-0.75 -5.15,-2.1172 -7.54,-4.2071 -2.42,-2.1601 -3.61,-5.082 -3.61,-8.8398 0,-3.9024 1.41,-7.1836 4.23,-9.8828 2.83,-2.7813 6.52,-4.1094 11.08,-4.1094 4.84,0 9.35,1.1289 13.44,3.3594 4.12,2.1992 7.14,5.0898 9.04,8.5703 2.22,3.8906 3.35,10.2617 3.35,19.2305 z m 1.6,-37.1406 c -5.96,-4.8086 -11.69,-8.4297 -17.24,-10.7813 -5.52,-2.4492 -11.76,-3.6367 -18.64,-3.6367 -6.32,0 -11.83,1.3086 -16.61,3.8594 -4.78,2.6172 -8.44,6.1484 -11.03,10.6211 -2.56,4.4375 -3.87,9.2266 -3.87,14.4375 0,7.0117 2.17,12.9609 6.41,17.9297 4.24,4.9023 10.08,8.2226 17.5,9.9297 1.56,0.3828 5.46,1.2031 11.62,2.5 6.2,1.3515 11.46,2.5195 15.92,3.6409 4.38,1.05 9.19,2.39 14.34,3.941 -0.33,6.809 -1.62,11.758 -3.91,14.957 -2.32,3.141 -7.14,4.692 -14.37,4.692 -6.25,0 -10.92,-0.872 -14.12,-2.711 -3.13,-1.77 -5.83,-4.528 -8.06,-8.2 -2.26,-3.609 -3.83,-6 -4.76,-7.168 -0.94,-1.171 -2.95,-1.691 -5.97,-1.691 -2.79,0 -5.16,0.891 -7.13,2.719 -2.04,1.871 -3.05,4.211 -3.05,7.113 0,4.5 1.54,8.91 4.59,13.117 3.06,4.27 7.82,7.77 14.3,10.551 6.47,2.77 14.54,4.121 24.2,4.121 10.78,0 19.27,-1.351 25.48,-4.019 6.17,-2.614 10.5,-6.782 13.05,-12.602 2.57,-5.711 3.85,-13.398 3.85,-22.871 0,-6.0001 0,-11.1602 -0.05,-15.3087 -0.06,-4.2187 -0.07,-8.8906 -0.14,-14.0195 0,-4.8086 0.76,-9.8594 2.3,-15.0313 1.49,-5.2109 2.26,-8.6211 2.26,-10.0898 0,-2.6211 -1.22,-5.0508 -3.56,-7.1797 -2.31,-2.1484 -5.02,-3.2383 -8.01,-3.2383 -2.54,0 -4.99,1.2071 -7.49,3.6797 -2.44,2.4688 -5.05,6.0781 -7.81,10.7383"
         style="fill:#9ac421;fill-opacity:1;fill-rule:nonzero;stroke:none"
         id="path32" /><path
         d="M 2636.2,127.609 V 53.5898 c 0,-5.1601 -1.19,-9.0312 -3.5,-11.6679 -2.34,-2.5703 -5.29,-3.9102 -8.89,-3.9102 -3.6,0 -6.56,1.3399 -8.78,4.0196 -2.26,2.7304 -3.38,6.539 -3.38,11.5585 v 73.3012 c 0,5.007 1.12,8.847 3.38,11.418 2.22,2.589 5.18,3.89 8.78,3.89 3.6,0 6.55,-1.301 8.89,-3.89 2.31,-2.571 3.5,-6.098 3.5,-10.7 z m -12.14,26.52 c -3.4,0 -6.3,1.07 -8.75,3.332 -2.42,2.168 -3.66,5.309 -3.66,9.309 0,3.609 1.26,6.562 3.76,8.968 2.47,2.344 5.37,3.453 8.65,3.453 3.16,0 6.01,-1.043 8.48,-3.152 2.42,-2.117 3.66,-5.258 3.66,-9.269 0,-3.989 -1.2,-7.04 -3.59,-9.25 -2.41,-2.231 -5.26,-3.391 -8.55,-3.391"
         style="fill:#9ac421;fill-opacity:1;fill-rule:nonzero;stroke:none"
         id="path34" /><path
         d="m 2683.9,127.992 v -3.07 c 4.26,5.918 9.01,10.289 14.11,13.058 5.14,2.801 11.01,4.219 17.73,4.219 6.44,0 12.23,-1.48 17.37,-4.469 5.04,-2.91 8.88,-7.031 11.38,-12.421 1.61,-3.137 2.64,-6.559 3.15,-10.149 0.45,-3.629 0.73,-8.25 0.73,-13.898 V 53.5898 c 0,-5.1601 -1.17,-9.0312 -3.39,-11.6679 -2.26,-2.5703 -5.19,-3.9102 -8.76,-3.9102 -3.64,0 -6.63,1.3399 -8.84,4.0274 -2.29,2.7226 -3.46,6.5312 -3.46,11.5507 v 42.6797 c 0,8.4805 -1.09,14.9215 -3.34,19.4025 -2.31,4.48 -6.78,6.719 -13.5,6.719 -4.37,0 -8.36,-1.36 -11.96,-4.121 -3.6,-2.668 -6.22,-6.418 -7.9,-11.2 -1.2,-3.789 -1.83,-10.9216 -1.83,-21.4294 V 53.5898 c 0,-5.1679 -1.13,-9.1015 -3.46,-11.7187 -2.32,-2.5508 -5.29,-3.8594 -8.93,-3.8594 -3.53,0 -6.46,1.3399 -8.72,4.0196 -2.32,2.7304 -3.43,6.539 -3.43,11.5585 v 74.0192 c 0,4.911 1.01,8.52 3.07,10.942 2.01,2.41 4.85,3.648 8.36,3.648 2.14,0 4.12,-0.59 5.81,-1.617 1.8,-1.051 3.15,-2.691 4.2,-4.742 1.02,-2.199 1.61,-4.77 1.61,-7.848"
         style="fill:#9ac421;fill-opacity:1;fill-rule:nonzero;stroke:none"
         id="path36" /><path
         d="m 2787.76,126.219 19.84,-58.1604 21.4,60.7034 c 1.72,4.879 3.35,8.297 4.99,10.359 1.64,2.008 4.06,3.078 7.34,3.078 3.14,0 5.79,-1.129 8.02,-3.34 2.15,-2.187 3.27,-4.668 3.27,-7.609 0,-1.098 -0.23,-2.398 -0.61,-3.871 -0.36,-1.547 -0.82,-2.969 -1.35,-4.289 -0.51,-1.281 -1.04,-2.809 -1.74,-4.469 l -23.57,-60.9999 c -0.66,-1.7422 -1.53,-4 -2.56,-6.6797 -1.08,-2.6719 -2.25,-4.9492 -3.52,-6.9414 -1.31,-1.8711 -2.88,-3.3281 -4.75,-4.3984 -1.91,-1.0508 -4.22,-1.5899 -6.92,-1.5899 -3.47,0 -6.25,0.8086 -8.32,2.4571 -2.09,1.6601 -3.63,3.4609 -4.58,5.4726 -0.99,1.9375 -2.68,5.8477 -5,11.6797 l -23.4,60.3279 c -0.55,1.5 -1.1,3.02 -1.7,4.492 -0.55,1.52 -0.99,3.008 -1.41,4.61 -0.36,1.59 -0.58,2.929 -0.58,4.019 0,1.782 0.51,3.512 1.55,5.219 1.02,1.742 2.44,3.18 4.23,4.242 1.82,1.078 3.72,1.668 5.85,1.668 4.05,0 6.87,-1.238 8.4,-3.73 1.54,-2.418 3.25,-6.5 5.12,-12.25"
         style="fill:#9ac421;fill-opacity:1;fill-rule:nonzero;stroke:none"
         id="path38" /><path
         d="m 2888.19,98.3906 h 44.52 c -0.59,8.7504 -2.84,15.3084 -6.79,19.6404 -3.95,4.309 -9.11,6.489 -15.53,6.489 -6.08,0 -11.12,-2.2 -15.03,-6.59 -3.94,-4.391 -6.28,-10.918 -7.17,-19.5394 z m 48.05,-14.5508 h -48.05 c 0.02,-5.871 1.19,-10.9804 3.34,-15.4687 2.23,-4.4023 5.13,-7.7305 8.74,-10 3.64,-2.293 7.66,-3.3711 12.03,-3.3711 2.92,0 5.63,0.3516 8.04,1.0391 2.43,0.7695 4.79,1.8906 7.09,3.4023 2.24,1.5274 4.33,3.1602 6.26,4.957 1.9,1.7227 4.45,4.0821 7.45,7.0899 1.29,1.2031 3.09,1.7109 5.4,1.7109 2.55,0 4.58,-0.6992 6.14,-2.1601 1.57,-1.4375 2.32,-3.4493 2.32,-6.0586 0,-2.3282 -0.86,-5.0586 -2.63,-8.1719 -1.72,-3.0664 -4.28,-6.0469 -7.85,-8.9297 -3.52,-2.8203 -7.93,-5.168 -13.23,-7.0898 -5.27,-1.8477 -11.35,-2.7774 -18.29,-2.7774 -15.76,0 -28.03,4.6992 -36.76,14.0586 -8.73,9.4297 -13.11,22.1211 -13.11,38.1602 0,7.6797 1.11,14.6405 3.24,21.1015 2.16,6.488 5.29,12.039 9.42,16.66 4.15,4.668 9.22,8.238 15.29,10.668 6.08,2.469 12.77,3.711 20.18,3.711 9.52,0 17.76,-2.109 24.64,-6.359 6.86,-4.223 12.01,-9.621 15.41,-16.321 3.45,-6.711 5.14,-13.531 5.14,-20.5113 0,-6.3984 -1.71,-10.5781 -5.3,-12.4805 -3.57,-1.9297 -8.49,-2.8594 -14.91,-2.8594"
         style="fill:#9ac421;fill-opacity:1;fill-rule:nonzero;stroke:none"
         id="path40" /><path
         d="m 3065.21,69.7422 c 0,-3.1914 -0.89,-6.6133 -2.76,-10.2305 -1.83,-3.6328 -4.59,-7.082 -8.36,-10.3633 -3.74,-3.2773 -8.48,-5.9296 -14.2,-7.8984 -5.66,-2.0508 -12.11,-3.0391 -19.21,-3.0391 -15.2,0 -27.04,4.6211 -35.53,13.8204 -8.49,9.2695 -12.79,21.5976 -12.79,37.1289 0,10.5 1.95,19.8198 5.87,27.8598 3.9,8.05 9.5,14.332 16.9,18.718 7.34,4.442 16.19,6.633 26.45,6.633 6.34,0 12.16,-0.98 17.5,-2.891 5.29,-1.949 9.76,-4.48 13.5,-7.511 3.68,-3.059 6.48,-6.34 8.46,-9.797 1.91,-3.481 2.91,-6.723 2.91,-9.731 0,-3.031 -1.09,-5.601 -3.33,-7.761 -2.17,-2.149 -4.82,-3.219 -7.92,-3.219 -2.07,0 -3.74,0.609 -5.05,1.699 -1.4,1.051 -2.9,2.781 -4.61,5.27 -2.99,4.718 -6.1,8.312 -9.36,10.742 -3.28,2.348 -7.43,3.59 -12.5,3.59 -7.2,0 -13.08,-3 -17.5,-8.903 -4.47,-5.961 -6.65,-14.0504 -6.65,-24.2887 0,-4.8008 0.59,-9.3008 1.69,-13.3203 1.15,-4.0312 2.81,-7.4414 4.96,-10.3203 2.17,-2.8477 4.79,-5 7.85,-6.4609 3,-1.4766 6.37,-2.2266 10.05,-2.2266 4.9,0 9.14,1.168 12.65,3.5664 3.48,2.3906 6.62,6.0312 9.32,10.8633 1.49,2.9297 3.08,5.1679 4.83,6.8398 1.73,1.5977 3.85,2.3789 6.4,2.3789 2.96,0 5.48,-1.1601 7.41,-3.5195 2.02,-2.4297 3.02,-4.9492 3.02,-7.6289"
         style="fill:#9ac421;fill-opacity:1;fill-rule:nonzero;stroke:none"
         id="path42" /><path
         d="m 3088.01,140.02 h 2.71 v 15.402 c 0,4.098 0.1,7.359 0.32,9.707 0.21,2.34 0.75,4.32 1.76,6.031 0.94,1.731 2.32,3.18 4.14,4.289 1.77,1.071 3.77,1.602 6,1.602 3.11,0 5.94,-1.219 8.45,-3.629 1.64,-1.66 2.73,-3.633 3.19,-5.953 0.44,-2.34 0.66,-5.707 0.66,-10.008 V 140.02 h 9.03 c 3.46,0 6.11,-0.872 7.95,-2.598 1.86,-1.723 2.75,-3.891 2.75,-6.602 0,-3.441 -1.3,-5.898 -3.93,-7.23 -2.59,-1.348 -6.33,-2.07 -11.2,-2.07 h -4.6 V 74.3398 c 0,-4.0195 0.13,-7.0781 0.39,-9.2695 0.32,-2.1797 1.07,-3.9414 2.22,-5.25 1.14,-1.3398 3.04,-2.0586 5.69,-2.0586 1.45,0 3.37,0.2696 5.86,0.8164 2.42,0.543 4.34,0.8008 5.76,0.8008 1.96,0 3.78,-0.8594 5.33,-2.4492 1.57,-1.7109 2.39,-3.7188 2.39,-6.168 0,-4.1211 -2.11,-7.2695 -6.46,-9.4804 -4.36,-2.1797 -10.55,-3.2696 -18.62,-3.2696 -7.68,0 -13.51,1.3399 -17.47,4.0274 -3.94,2.7226 -6.57,6.3906 -7.74,11.2109 -1.27,4.75 -1.87,11.0898 -1.87,19.0508 V 121.52 h -3.29 c -3.46,0 -6.16,0.871 -8.04,2.66 -1.88,1.742 -2.79,3.949 -2.79,6.64 0,2.711 0.98,4.879 2.9,6.602 1.97,1.726 4.81,2.598 8.51,2.598"
         style="fill:#9ac421;fill-opacity:1;fill-rule:nonzero;stroke:none"
         id="path44" /><path
         d="m 3219.08,90.0508 c 0,10.3982 -2.21,18.5512 -6.59,24.3592 -4.44,5.801 -10.32,8.75 -17.78,8.75 -4.8,0 -9.02,-1.32 -12.67,-3.91 -3.68,-2.621 -6.49,-6.441 -8.46,-11.531 -1.97,-5.008 -2.96,-10.8987 -2.96,-17.6682 0,-6.6992 0.99,-12.5508 2.94,-17.5508 1.93,-4.9883 4.7,-8.8203 8.32,-11.5078 3.63,-2.6211 7.89,-3.9336 12.83,-3.9336 7.46,0 13.34,2.8828 17.78,8.7422 4.38,5.8203 6.59,13.9297 6.59,24.25 z m 24.65,0 c 0,-7.6211 -1.13,-14.6406 -3.44,-21.1406 -2.26,-6.3789 -5.57,-11.9414 -9.87,-16.5899 -4.33,-4.6289 -9.49,-8.0781 -15.47,-10.6289 -5.99,-2.4726 -12.7,-3.6797 -20.24,-3.6797 -7.46,0 -14.14,1.2071 -20.06,3.7578 -5.94,2.4805 -11.11,6.0508 -15.41,10.7227 -4.35,4.6875 -7.66,10.1601 -9.88,16.4961 -2.24,6.3906 -3.33,13.3711 -3.33,21.1015 0,7.75 1.09,14.8512 3.33,21.2692 2.35,6.461 5.56,11.95 9.82,16.563 4.28,4.527 9.43,8.078 15.47,10.539 6.1,2.461 12.77,3.738 20.06,3.738 7.46,0 14.17,-1.277 20.24,-3.777 6.07,-2.512 11.23,-6.113 15.55,-10.723 4.28,-4.617 7.63,-10.16 9.86,-16.551 2.24,-6.359 3.37,-13.4175 3.37,-21.0972"
         style="fill:#9ac421;fill-opacity:1;fill-rule:nonzero;stroke:none"
         id="path46" /><path
         d="M 3287.47,74.9414 V 53.5898 c 0,-5.1679 -1.17,-9.1015 -3.51,-11.7187 -2.35,-2.5508 -5.32,-3.8594 -8.94,-3.8594 -3.5,0 -6.44,1.3399 -8.7,3.9102 -2.28,2.6367 -3.39,6.5078 -3.39,11.6679 v 71.3082 c 0,11.551 3.96,17.301 11.94,17.301 4.04,0 7.01,-1.41 8.82,-4.07 1.78,-2.66 2.73,-6.668 2.98,-11.91 2.92,5.242 5.94,9.25 9.03,11.91 3.1,2.66 7.2,4.07 12.32,4.07 5.21,0 10.19,-1.41 15.08,-4.07 4.82,-2.66 7.28,-6.25 7.28,-10.688 0,-3.109 -1.07,-5.75 -3.13,-7.75 -2.04,-2.011 -4.29,-3.062 -6.7,-3.062 -0.9,0 -3.08,0.601 -6.53,1.781 -3.45,1.141 -6.5,1.742 -9.15,1.742 -3.57,0 -6.5,-0.98 -8.76,-2.992 -2.28,-1.988 -4.06,-4.871 -5.32,-8.738 -1.26,-3.942 -2.17,-8.5236 -2.61,-13.9103 -0.47,-5.3008 -0.71,-11.8008 -0.71,-19.5703"
         style="fill:#9ac421;fill-opacity:1;fill-rule:nonzero;stroke:none"
         id="path48" /><path
         d="m 3418.24,71.4609 c 0,-7.0625 -1.65,-13.0898 -4.99,-18.1406 -3.31,-5.0508 -8.16,-8.832 -14.61,-11.4609 -6.46,-2.5391 -14.28,-3.8477 -23.57,-3.8477 -8.74,0 -16.34,1.4102 -22.65,4.2305 -6.29,2.8164 -10.96,6.2969 -13.92,10.5273 -3.02,4.1993 -4.57,8.4414 -4.57,12.6797 0,2.8125 1,5.2422 2.95,7.2422 1.91,2.0195 4.35,3 7.25,3 2.59,0 4.59,-0.6601 5.96,-1.9609 1.4,-1.3711 2.66,-3.1914 3.96,-5.5508 2.52,-4.6094 5.51,-8 9.08,-10.25 3.43,-2.2891 8.25,-3.3984 14.34,-3.3984 4.89,0 8.94,1.1406 12.08,3.4609 3.13,2.2383 4.76,4.8789 4.76,7.8086 0,4.5195 -1.66,7.8281 -4.9,9.8476 -3.32,2.1133 -8.66,4.0821 -16.18,5.9414 -8.44,2.2305 -15.33,4.5118 -20.63,6.9102 -5.32,2.3984 -9.62,5.6016 -12.77,9.5508 -3.16,3.8982 -4.78,8.7892 -4.78,14.5512 0,5.128 1.47,9.988 4.41,14.507 2.93,4.61 7.32,8.243 13.03,10.961 5.71,2.719 12.63,4.129 20.74,4.129 6.35,0 12.06,-0.738 17.15,-2.09 5.05,-1.379 9.33,-3.23 12.66,-5.527 3.4,-2.32 6,-4.883 7.75,-7.691 1.8,-2.86 2.68,-5.602 2.68,-8.27 0,-2.949 -0.94,-5.301 -2.85,-7.262 -1.9,-1.8 -4.61,-2.781 -8.04,-2.781 -2.54,0 -4.67,0.762 -6.46,2.301 -1.74,1.461 -3.8,3.703 -6.06,6.68 -1.86,2.523 -4.03,4.543 -6.58,6.031 -2.53,1.48 -5.95,2.242 -10.25,2.242 -4.44,0 -8.15,-0.961 -11.04,-2.961 -2.96,-1.961 -4.45,-4.43 -4.45,-7.371 0,-2.691 1.1,-4.891 3.23,-6.629 2.19,-1.723 5.07,-3.141 8.75,-4.281 3.67,-1.129 8.71,-2.52 15.12,-4.141 7.61,-1.9099 13.84,-4.2381 18.68,-6.9373 4.82,-2.6719 8.47,-5.832 10.95,-9.5234 2.52,-3.6992 3.77,-7.8594 3.77,-12.5274"
         style="fill:#9ac421;fill-opacity:1;fill-rule:nonzero;stroke:none"
         id="path50" /><path
         d="m 3446.1,38.0117 c -3.7,0 -6.91,1.2071 -9.58,3.7578 -2.75,2.4805 -4.07,6 -4.07,10.4805 0,3.7891 1.26,7.0898 3.81,9.8594 2.59,2.7304 5.8,4.0703 9.57,4.0703 3.75,0 6.99,-1.3399 9.6,-4.0508 2.7,-2.6875 4.06,-6.0508 4.06,-9.8789 0,-4.4609 -1.36,-7.9414 -4.06,-10.4414 -2.61,-2.5469 -5.71,-3.7969 -9.33,-3.7969"
         style="fill:#9ac421;fill-opacity:1;fill-rule:nonzero;stroke:none"
         id="path52" /><path
         d="m 3554.68,90.0508 c 0,10.3982 -2.22,18.5512 -6.62,24.3592 -4.41,5.801 -10.31,8.75 -17.74,8.75 -4.8,0 -8.98,-1.32 -12.66,-3.91 -3.68,-2.621 -6.48,-6.441 -8.44,-11.531 -1.95,-5.008 -2.97,-10.8987 -2.97,-17.6682 0,-6.6992 0.95,-12.5508 2.88,-17.5508 2.01,-4.9883 4.78,-8.8203 8.42,-11.5078 3.59,-2.6211 7.87,-3.9336 12.77,-3.9336 7.43,0 13.33,2.8828 17.74,8.7422 4.4,5.8203 6.62,13.9297 6.62,24.25 z m 24.68,0 c 0,-7.6211 -1.13,-14.6406 -3.45,-21.1406 -2.29,-6.3789 -5.57,-11.9414 -9.88,-16.5899 -4.34,-4.6289 -9.44,-8.0781 -15.47,-10.6289 -5.98,-2.4726 -12.72,-3.6797 -20.24,-3.6797 -7.43,0 -14.12,1.2071 -20.06,3.7578 -5.92,2.4805 -11.03,6.0508 -15.37,10.7227 -4.4,4.6875 -7.68,10.1601 -9.97,16.4961 -2.2,6.3906 -3.33,13.3711 -3.33,21.1015 0,7.75 1.13,14.8512 3.42,21.2692 2.32,6.461 5.54,11.95 9.78,16.563 4.25,4.527 9.42,8.078 15.47,10.539 6.08,2.461 12.72,3.738 20.06,3.738 7.43,0 14.17,-1.277 20.24,-3.777 6.08,-2.512 11.25,-6.113 15.57,-10.723 4.3,-4.617 7.57,-10.16 9.85,-16.551 2.25,-6.359 3.38,-13.4175 3.38,-21.0972"
         style="fill:#9ac421;fill-opacity:1;fill-rule:nonzero;stroke:none"
         id="path54" /><path
         d="M 3623.08,74.9414 V 53.5898 c 0,-5.1679 -1.18,-9.1015 -3.5,-11.7187 -2.33,-2.5508 -5.31,-3.8594 -8.88,-3.8594 -3.61,0 -6.46,1.3399 -8.78,3.9102 -2.27,2.6367 -3.4,6.5078 -3.4,11.6679 v 71.3082 c 0,11.551 4.04,17.301 11.98,17.301 4.08,0 6.99,-1.41 8.79,-4.07 1.76,-2.66 2.82,-6.668 3.01,-11.91 2.91,5.242 5.9,9.25 9,11.91 3.08,2.66 7.23,4.07 12.33,4.07 5.23,0 10.25,-1.41 15.04,-4.07 4.87,-2.66 7.32,-6.25 7.32,-10.688 0,-3.109 -1.05,-5.75 -3.09,-7.75 -2.11,-2.011 -4.3,-3.062 -6.75,-3.062 -0.87,0 -3.02,0.601 -6.49,1.781 -3.44,1.141 -6.49,1.742 -9.15,1.742 -3.58,0 -6.49,-0.98 -8.83,-2.992 -2.24,-1.988 -4.02,-4.871 -5.28,-8.738 -1.24,-3.942 -2.14,-8.5236 -2.6,-13.9103 -0.47,-5.3008 -0.72,-11.8008 -0.72,-19.5703"
         style="fill:#9ac421;fill-opacity:1;fill-rule:nonzero;stroke:none"
         id="path56" /><path
         d="m 3693.96,90.9102 c 0,-10.3399 2.17,-18.1993 6.55,-23.5704 4.31,-5.2812 9.97,-7.9609 16.8,-7.9609 4.07,0 7.96,1.1797 11.58,3.4609 3.63,2.3008 6.59,5.7188 8.88,10.3008 2.29,4.6211 3.41,10.211 3.41,16.7383 0,10.4531 -2.22,18.6011 -6.63,24.4101 -4.38,5.863 -10.2,8.793 -17.37,8.793 -6.98,0 -12.64,-2.871 -16.84,-8.402 -4.27,-5.59 -6.38,-13.481 -6.38,-23.7698 z m 71.17,32.5198 V 48.9609 c 0,-8.5195 -0.93,-15.832 -2.64,-21.9296 -1.74,-6.1915 -4.53,-11.2305 -8.36,-15.2305 -3.83,-4.03127 -8.88,-6.97267 -15.05,-8.92971 C 3732.87,1 3725.14,0 3715.94,0 c -8.51,0 -16.07,1.19141 -22.7,3.64844 -6.66,2.55078 -11.78,5.6914 -15.37,9.61326 -3.61,3.8867 -5.42,7.918 -5.42,12.0899 0,3.1172 1.01,5.6679 3.1,7.6172 2.01,2.0117 4.47,2.9921 7.34,2.9921 3.62,0 6.73,-1.6601 9.47,-4.9687 1.32,-1.7305 2.7,-3.4102 4.09,-5.1211 1.38,-1.7617 2.94,-3.2305 4.66,-4.4102 1.7,-1.2617 3.79,-2.1718 6.19,-2.7812 2.35,-0.5781 5.13,-0.8789 8.27,-0.8789 6.31,0 11.3,0.9414 14.77,2.789 3.53,1.8204 5.98,4.3907 7.42,7.711 1.36,3.3086 2.24,6.8398 2.39,10.6601 0.29,3.8282 0.45,9.8711 0.61,18.2813 -3.77,-5.4805 -8.19,-9.6914 -13.09,-12.5625 -4.94,-2.8711 -10.85,-4.2891 -17.64,-4.2891 -8.27,0 -15.47,2.1407 -21.56,6.5586 -6.18,4.3828 -10.91,10.4922 -14.21,18.4102 -3.25,7.8398 -4.94,16.9492 -4.94,27.2929 0,7.7387 0.98,14.6757 3.04,20.8867 1.97,6.152 4.82,11.383 8.58,15.641 3.68,4.269 8.02,7.48 12.85,9.66 4.89,2.121 10.16,3.242 16.02,3.242 6.93,0 12.97,-1.434 18.05,-4.23 5.15,-2.75 9.85,-7.153 14.21,-13.082 v 3.441 c 0,4.48 1.09,7.867 3.15,10.391 2.1,2.418 4.82,3.66 8.09,3.66 4.77,0 7.91,-1.614 9.49,-4.84 1.53,-3.231 2.33,-7.922 2.33,-13.992"
         style="fill:#9ac421;fill-opacity:1;fill-rule:nonzero;stroke:none"
         id="path58" /><path
         d="m 2701.01,372.922 h 36.43 c -2.59,-19.652 -10.61,-34.973 -24,-46 -12.4,-10.781 -27.4,-16.113 -44.91,-16.113 -23.78,0 -42.75,8.339 -56.92,25.023 -13.44,15.848 -20.15,36.328 -20.15,61.359 0,25.618 6.67,46.11 19.96,61.629 13.26,15.45 32.06,23.219 56.3,23.219 18.05,0 33.32,-4.879 45.72,-14.578 13.14,-10.461 21.15,-25.172 24,-44.031 h -36.43 c -3.13,16.429 -13.18,24.64 -30.27,24.64 -28.13,0 -42.24,-16.668 -42.24,-50.031 0,-15.641 3.63,-28.398 10.87,-38.359 7.25,-9.969 17.44,-14.961 30.62,-14.961 19.62,0 29.97,9.402 31.02,28.203 z m -143.35,22.969 c 0,-32.59 10.34,-60.18 30.98,-82.641 20.66,-22.488 45.94,-33.738 75.95,-33.738 29.89,0 55.2,11.25 75.84,33.738 20.68,22.461 30.97,50.051 30.97,82.641 0,32.578 -10.29,60.148 -30.97,82.64 -20.64,22.489 -45.95,33.75 -75.84,33.75 -30.01,0 -55.29,-11.261 -75.95,-33.75 -20.64,-22.492 -30.98,-50.062 -30.98,-82.64 z m -36.99,0 c 0,41.468 14.02,76.859 42.13,106.289 28.12,29.332 62.05,44.011 101.79,44.011 39.68,0 73.56,-14.679 101.71,-44.011 28.11,-29.43 42.19,-64.821 42.19,-106.289 0,-41.5 -14.08,-76.942 -42.19,-106.282 -28.15,-29.379 -62.03,-44.078 -101.71,-44.078 -39.74,0 -73.67,14.699 -101.79,44.078 -28.11,29.34 -42.13,64.782 -42.13,106.282"
         style="fill:#9ac421;fill-opacity:1;fill-rule:nonzero;stroke:none"
         id="path60" /><path
         d="m 2578.9,301.621 20.98,-17.801 154.36,198.192 -20.99,17.777 -154.35,-198.168"
         style="fill:#9ac421;fill-opacity:1;fill-rule:nonzero;stroke:none"
         id="path62" /><path
         d="m 2785.49,1175.53 c 1169.64,0 2123.61,471.45 2123.61,1049.5 0,578.03 -953.97,1049.48 -2123.61,1049.48 -1169.65,0 -2123.619,-471.45 -2123.619,-1049.48 0,-578.05 953.969,-1049.5 2123.619,-1049.5"
         style="fill:#f4e9e4;fill-opacity:1;fill-rule:evenodd;stroke:none"
         id="path64" /><path
         d="M 3775.03,5140.12 C 3172.2,4925.34 2695.19,4500.32 2488.22,3916.94 2281.24,3333.55 2383.74,2702.93 2716.41,2156.25 c 602.82,214.79 1079.84,639.79 1286.82,1223.19 206.98,583.38 104.48,1213.99 -228.2,1760.68"
         style="fill:#9ac421;fill-opacity:1;fill-rule:evenodd;stroke:none"
         id="path66" /><path
         d="M 3775.03,5140.12 C 3172.2,4925.34 2695.19,4500.32 2488.22,3916.94 c -207,-583.39 -104.48,-1214.01 228.19,-1760.69 l 1058.62,2983.87"
         style="fill:#adda1a;fill-opacity:1;fill-rule:evenodd;stroke:none"
         id="path68" /><path
         d="M 1387.27,6215.21 C 848.293,5577.74 589.031,4785.71 738.137,3992.11 887.242,3198.54 1416.3,2554.61 2149.89,2156.25 c 538.98,637.46 798.24,1429.5 649.13,2223.08 -149.1,793.59 -678.16,1437.51 -1411.75,1835.88"
         style="fill:#9ac421;fill-opacity:1;fill-rule:evenodd;stroke:none"
         id="path70" /><path
         d="M 1387.27,6215.21 C 848.293,5577.74 589.031,4785.71 738.137,3992.11 887.242,3198.54 1416.3,2554.61 2149.89,2156.25 l -762.62,4058.96"
         style="fill:#adda1a;fill-opacity:1;fill-rule:evenodd;stroke:none"
         id="path72" /><path
         d="m 3960.28,3643.77 c -428.4,180.04 -865.22,242.21 -1246.89,199.87 -223.96,-24.86 -403.6,-159.12 -490.91,-366.86 -87.3,-207.72 -57.48,-430.01 81.51,-607.39 236.83,-302.25 586.94,-570.78 1015.34,-750.83 748.09,-314.36 1521.91,-269.36 1982.71,64.08 -84.3,562.5 -593.67,1146.75 -1341.76,1461.13"
         style="fill:#895426;fill-opacity:1;fill-rule:evenodd;stroke:none"
         id="path74" /><path
         d="m 2222.48,3476.78 c -87.3,-207.74 -57.48,-430.01 81.51,-607.39 236.83,-302.25 586.94,-570.78 1015.34,-750.83 748.09,-314.36 1521.91,-269.36 1982.71,64.08 v 0 c -357.22,-86.92 -1058.25,41.22 -1806.35,355.6 -428.4,180.03 -802.38,391.79 -1079.05,599.21 -162.37,121.74 -233.42,245.91 -194.16,339.33"
         style="fill:#754019;fill-opacity:1;fill-rule:evenodd;stroke:none"
         id="path76" /><path
         d="m 3896.82,3220.38 c -114.03,63.17 -231.55,113.58 -353.33,148.47 126.35,5.09 243.35,-49.3 353.33,-148.47 z M 3017.86,2553.9 c -228.65,80.87 -427.22,212.83 -579.4,423.45 193.14,-141.16 386.28,-282.31 579.4,-423.45 z m 1357.66,-79.8 c -285.03,127.94 -576.59,219.73 -878.25,255.88 277.07,-129.74 572.51,-207.39 878.25,-255.88 z m -641.56,-361.15 c 256.87,-94.12 514.14,-95.32 771.67,-44.27 -254.17,30.86 -510.77,48.99 -771.67,44.27 z m 1291.39,506.86 c -221.51,204.54 -450.92,382.82 -686.38,541.06 292.69,-96.06 523.04,-274.35 686.38,-541.06 z m -567.01,139.51 c -359.33,238.07 -741.86,404.44 -1158.24,466.16 401.18,-129.24 785.12,-288.34 1158.24,-466.16 z m -1930.63,547.91 c 165.2,-116.23 358.08,-194.23 569.01,-247.36 -176.48,101.93 -363.59,188.16 -569.01,247.36 z m 343.58,327.87 c 298.85,69.59 597.44,22.68 895.91,-91.41 -296.16,48.38 -594.39,81.93 -895.91,91.41 v 0"
         style="fill:#5b3418;fill-opacity:1;fill-rule:evenodd;stroke:none"
         id="path78" /><path
         d="m 1803.06,3388.4 c 464.68,0 891.5,-111.92 1226.94,-298.84 196.85,-109.67 310.45,-303.04 310.45,-528.37 0,-225.33 -113.62,-418.72 -310.45,-528.39 -335.44,-186.9 -762.26,-298.83 -1226.94,-298.83 -811.466,0 -1507.412,341.28 -1803.06,827.22 295.648,485.92 991.594,827.21 1803.06,827.21"
         style="fill:#a36d37;fill-opacity:1;fill-rule:evenodd;stroke:none"
         id="path80" /><path
         d="m 3340.45,2561.17 c 0,-225.31 -113.62,-418.7 -310.45,-528.37 -335.44,-186.9 -762.26,-298.83 -1226.94,-298.83 -811.466,0 -1507.4,341.28 -1803.06,827.2 H 0.0117188 C 295.66,2342.68 991.594,2189.2 1803.06,2189.2 c 464.68,0 891.5,50.33 1226.94,134.37 196.83,49.32 310.44,136.28 310.45,237.6"
         style="fill:#945e2c;fill-opacity:1;fill-rule:evenodd;stroke:none"
         id="path82" /><path
         d="m 1697.52,2973.47 c 139.83,48.81 268.75,53.64 383.28,0 -125.81,15.02 -253.68,14.07 -383.28,0 z m 552.12,-954.96 c 242.14,-14.04 476.31,30.7 698.19,165.92 -232.72,-55.3 -465.45,-110.62 -698.19,-165.92 z M 967.09,2470.94 c 300.65,-73.76 603.1,-116.6 908.79,-104.35 -292.09,83.53 -596.46,111.86 -908.79,104.35 z m 451.55,-581.52 c -273.28,12.76 -510.937,111.32 -728.55,258.17 246.277,-70.04 489.86,-152.73 728.55,-258.17 z m -994.171,967.61 c 253.91,182.59 535.351,257.72 842.381,232.87 -278.37,-54.65 -558.952,-130.16 -842.381,-232.87 z m 576.771,-91.07 c 423.49,80.26 840.61,85.46 1248.4,-18.96 -419.95,36.26 -835.54,38.35 -1248.4,18.96 z m 1992.13,-242.84 c -197.33,-43.15 -405.39,-40.35 -620.41,-7.59 202.19,25.59 408.09,32.59 620.41,7.59 z m -189.73,435.37 c -248.54,179.94 -541.99,252.36 -861.36,262.82 291.78,-70.13 579.71,-154.75 861.36,-262.82 v 0"
         style="fill:#633b18;fill-opacity:1;fill-rule:evenodd;stroke:none"
         id="path84" /><path
         d="m 3913.65,2727.03 c 593.83,-661.82 -447.85,-1375.52 -792,-1574.23 -344.17,-198.71 -918.73,-30.36 -1283.37,376.01 -364.6,406.36 -381.2,896.85 -37.04,1095.56 344.16,198.69 1518.6,764.45 2112.41,102.66"
         style="fill:#bb874f;fill-opacity:1;fill-rule:evenodd;stroke:none"
         id="path86" /><path
         d="m 3913.65,2727.03 c 593.83,-661.82 -447.85,-1375.52 -792,-1574.23 -86.48,-49.93 -187.5,-76.65 -296.08,-82.29 l -101.04,47.57 346.19,708.22 c 224.64,-27.41 449.42,50.07 609.44,210.11 160.02,160.02 237.51,384.79 210.11,609.43 l -14.75,120.96 c 12.92,-12.79 25.7,-25.92 38.13,-39.77"
         style="fill:#a36d37;fill-opacity:1;fill-rule:evenodd;stroke:none"
         id="path88" /><path
         d="m 3084.6,2248.36 c 364.61,-406.36 381.2,-896.85 37.05,-1095.56 -344.17,-198.71 -918.73,-30.36 -1283.37,376.01 -364.6,406.36 -381.2,896.85 -37.04,1095.56 344.16,198.69 918.74,30.35 1283.36,-376.01"
         style="fill:#fbc689;fill-opacity:1;fill-rule:evenodd;stroke:none"
         id="path90" /><path
         d="m 2924.44,2155.9 c 308.15,-343.41 350.65,-741.49 94.94,-889.14 -623.14,-359.772 -1242.16,-434.451 -1844.89,-121.2 -178.955,557.91 105.86,1005.05 729.01,1364.83 255.72,147.65 712.81,-11.06 1020.94,-354.49"
         style="fill:#f8a448;fill-opacity:1;fill-rule:evenodd;stroke:none"
         id="path92" /><path
         d="m 2924.44,2155.9 c 308.15,-343.41 350.65,-741.49 94.94,-889.14 -568.98,-328.498 -1134.49,-419.24 -1687.32,-194.1 534.02,-19.7 996.88,131.98 1377.13,391.31 143.4,97.81 205.07,269.14 156.85,435.89 -69.89,241.75 -233.47,450.59 -461.04,575.14 l -141.83,77.61 c 222.03,-41.96 470.27,-183.84 661.27,-396.71"
         style="fill:#f08d30;fill-opacity:1;fill-rule:evenodd;stroke:none"
         id="path94" /><path
         d="m 1828.93,2322.38 c 283.75,96.78 483.82,-18.95 446.85,-258.54 -36.97,-239.58 -296.96,-512.26 -580.73,-609.05 -283.74,-96.8 -483.8,18.95 -446.83,258.53 36.98,239.59 296.97,512.26 580.71,609.06"
         style="fill:#fab464;fill-opacity:1;fill-rule:evenodd;stroke:none"
         id="path96" /><path
         d="m 1481.8,1300.71 c 162.49,119.25 302.88,274.45 430.84,449.85 -169.92,-128.71 -317.09,-275.77 -430.84,-449.85 z m -103.66,374.14 c 84.8,288.84 286.64,535.07 570.11,751.53 -219.16,-228.14 -411.4,-476.94 -570.11,-751.53 z m 602.5,450.29 c 68.83,131.43 163.78,236.74 299.55,301.24 -111.55,-85.2 -209.6,-187.97 -299.55,-301.24 z m 965.33,-184.64 c -160.17,-125.99 -339.74,-220.66 -528,-301.28 162.73,124.14 335.04,231.13 528,301.28 z m 113.39,-456.77 c -306.31,-207.41 -639.6,-327.06 -997.72,-366.03 332.57,100.56 665.14,222.29 997.72,366.03 z m -829.24,320.7 c 124.12,60.94 236.51,160.43 330.37,320.71 -135.39,-87.13 -244.65,-194.72 -330.37,-320.71 v 0"
         style="fill:#da7e28;fill-opacity:1;fill-rule:evenodd;stroke:none"
         id="path98" /><path
         d="m 3957.51,2254.69 c -18.3,-246.77 -210.62,-453.33 -385.49,-540.97 148.23,161.62 278.26,340.48 385.49,540.97 z m -217.04,404.92 c -69.93,-160.66 -162.23,-306.88 -268.89,-443.79 151.47,93.57 242.7,240.07 268.89,443.79 z m -144.16,213.8 c -64.99,-110.18 -149.88,-195.44 -249.43,-262.38 69.87,109.28 151.49,199.23 249.43,262.38 z m -227.02,56.7 c -191.7,-80.07 -342.51,-196.94 -469.45,-335.29 164.62,105.01 322.11,215.92 469.45,335.29 z m -879.21,-124.73 c 216.35,116 448.76,173.37 696.41,174.92 -232.13,-58.31 -464.28,-116.62 -696.41,-174.92 v 0"
         style="fill:#744821;fill-opacity:1;fill-rule:evenodd;stroke:none"
         id="path100" /></g></g></svg>
