<?xml version="1.0" encoding="UTF-8" standalone="no"?>
<svg
   xmlns:dc="http://purl.org/dc/elements/1.1/"
   xmlns:cc="http://creativecommons.org/ns#"
   xmlns:rdf="http://www.w3.org/1999/02/22-rdf-syntax-ns#"
   xmlns:svg="http://www.w3.org/2000/svg"
   xmlns="http://www.w3.org/2000/svg"
   xmlns:sodipodi="http://sodipodi.sourceforge.net/DTD/sodipodi-0.dtd"
   xmlns:inkscape="http://www.inkscape.org/namespaces/inkscape"
   version="1.1"
   id="svg2"
   xml:space="preserve"
   width="840.52002"
   height="709.44"
   viewBox="0 0 840.52002 709.44"
   sodipodi:docname="228_pomegranate.svg"
   inkscape:version="1.0.1 (3bc2e813f5, 2020-09-07)"><metadata
     id="metadata8"><rdf:RDF><cc:Work
         rdf:about=""><dc:format>image/svg+xml</dc:format><dc:type
           rdf:resource="http://purl.org/dc/dcmitype/StillImage" /></cc:Work></rdf:RDF></metadata><defs
     id="defs6"><clipPath
       clipPathUnits="userSpaceOnUse"
       id="clipPath109"><rect
         style="fill-rule:evenodd;stroke-width:7.5"
         id="rect111"
         width="7052.1719"
         height="4587.0786"
         x="-100.29286"
         y="-5368.3076"
         transform="scale(1,-1)" /></clipPath></defs><sodipodi:namedview
     pagecolor="#ffffff"
     bordercolor="#666666"
     borderopacity="1"
     objecttolerance="10"
     gridtolerance="10"
     guidetolerance="10"
     inkscape:pageopacity="0"
     inkscape:pageshadow="2"
     inkscape:window-width="2400"
     inkscape:window-height="1271"
     id="namedview4"
     inkscape:document-rotation="0"
     showgrid="false"
     inkscape:zoom="1.420839"
     inkscape:cx="293.95282"
     inkscape:cy="332.1981"
     inkscape:window-x="-9"
     inkscape:window-y="454"
     inkscape:window-maximized="1"
     inkscape:current-layer="g10" /><g
     id="g10"
     inkscape:groupmode="layer"
     inkscape:label="ink_ext_XXXXXX"
     transform="matrix(1.3333333,0,0,-1.3333333,0,709.44)"><g
       id="g12"
       transform="scale(0.1)"
       clip-path="url(#clipPath109)"><path
         d="m 2296.45,90.5195 c 0,6.7696 -0.97,12.6015 -2.99,17.4215 -1.94,4.872 -4.69,8.579 -8.22,11.231 -3.51,2.578 -7.37,3.898 -11.66,3.898 -6.76,0 -12.47,-2.859 -17.13,-8.39 -4.67,-5.61 -6.99,-13.75 -6.99,-24.6097 0,-10.2187 2.32,-18.1406 6.92,-23.7578 4.64,-5.6719 10.38,-8.5508 17.2,-8.5508 4.09,0 7.87,1.25 11.37,3.75 3.44,2.461 6.25,6.1602 8.35,11.0899 2.12,4.9804 3.15,10.9179 3.15,17.9179 z m -48.13,37.3325 v -3.09 c 4.61,5.937 9.39,10.34 14.37,13.09 4.99,2.8 10.65,4.23 16.95,4.23 7.54,0 14.51,-2.062 20.87,-6.16 6.34,-4.051 11.36,-9.961 15.06,-17.813 3.69,-7.847 5.51,-17.078 5.51,-27.7965 0,-7.8828 -1.03,-15.1836 -3.16,-21.7109 -2.12,-6.6289 -5.05,-12.1797 -8.78,-16.6524 -3.72,-4.4687 -8.13,-7.9492 -13.18,-10.2969 -5.09,-2.4531 -10.54,-3.6406 -16.32,-3.6406 -7.05,0 -12.95,1.4492 -17.71,4.3985 -4.8,2.9296 -9.31,7.2304 -13.61,12.9414 V 16.8906 C 2248.32,5.58984 2244.38,0 2236.53,0 c -4.63,0 -7.69,1.41016 -9.16,4.33203 -1.5,2.92969 -2.25,7.16797 -2.25,12.73047 V 127.691 c 0,4.86 0.99,8.539 3.05,10.918 2.06,2.403 4.84,3.641 8.36,3.641 3.47,0 6.32,-1.238 8.5,-3.738 2.19,-2.512 3.29,-6.063 3.29,-10.66"
         style="fill:#2d2b2e;fill-opacity:1;fill-rule:nonzero;stroke:none"
         id="path14" /><path
         d="M 2404.63,52.4922 V 55.75 c -2.97,-3.8984 -6.04,-7.1172 -9.3,-9.7187 -3.24,-2.6915 -6.78,-4.6407 -10.59,-5.9024 -3.86,-1.2578 -8.25,-1.918 -13.15,-1.918 -5.93,0 -11.25,1.3008 -15.96,3.8282 -4.72,2.582 -8.35,6.1132 -10.91,10.6132 -3.1,5.4493 -4.61,13.2774 -4.61,23.4297 v 50.809 c 0,5.101 1.11,8.961 3.34,11.461 2.21,2.55 5.14,3.847 8.8,3.847 3.73,0 6.72,-1.297 9,-3.886 2.27,-2.571 3.41,-6.411 3.41,-11.422 V 85.8516 c 0,-5.9219 0.49,-10.9102 1.39,-14.9297 1.02,-4.0703 2.72,-7.2305 5.26,-9.5313 2.44,-2.2617 5.81,-3.3906 10.07,-3.3906 4.18,0 8.08,1.3008 11.7,3.8516 3.69,2.5507 6.36,5.8711 8.02,9.9882 1.4,3.6719 2.07,11.6211 2.07,23.8829 v 31.1683 c 0,5.011 1.14,8.851 3.43,11.422 2.26,2.589 5.22,3.886 8.87,3.886 3.68,0 6.61,-1.297 8.82,-3.847 2.21,-2.5 3.3,-6.36 3.3,-11.461 V 52.6523 c 0,-4.8828 -1.03,-8.5625 -3.18,-10.9609 -2.09,-2.4726 -4.84,-3.6601 -8.21,-3.6601 -3.34,0 -6.11,1.2812 -8.3,3.7812 -2.18,2.5586 -3.27,6.0664 -3.27,10.6797"
         style="fill:#2d2b2e;fill-opacity:1;fill-rule:nonzero;stroke:none"
         id="path16" /><path
         d="m 2475.85,89.5 c 0,-10.1875 2.22,-18.0078 6.67,-23.5078 4.48,-5.4414 10.34,-8.2305 17.61,-8.2305 6.2,0 11.49,2.8203 15.99,8.418 4.48,5.6211 6.69,13.582 6.69,24.0508 0,6.8398 -0.93,12.6485 -2.77,17.4925 -1.88,4.898 -4.55,8.679 -7.92,11.34 -3.47,2.628 -7.42,4.007 -11.99,4.007 -4.71,0 -8.83,-1.379 -12.5,-4.007 -3.68,-2.661 -6.54,-6.543 -8.65,-11.563 -2.1,-5 -3.13,-11 -3.13,-18 z m -1.17,76.172 v -39.16 c 4.57,5.058 9.3,8.847 14.1,11.551 4.79,2.66 10.75,4.019 17.83,4.019 8.14,0 15.27,-2.062 21.45,-6.082 6.12,-4.098 10.92,-9.91 14.29,-17.559 3.42,-7.679 5.09,-16.742 5.09,-27.2613 0,-7.7891 -0.94,-14.8984 -2.81,-21.4102 -1.91,-6.457 -4.63,-12.0468 -8.22,-16.8281 -3.63,-4.7617 -7.99,-8.3789 -13.11,-11.082 -5.14,-2.5469 -10.8,-3.8477 -16.95,-3.8477 -3.78,0 -7.33,0.4688 -10.69,1.4102 -3.34,0.9297 -6.17,2.1406 -8.48,3.7109 -2.36,1.4883 -4.35,3.086 -6,4.6875 -1.65,1.6524 -3.8,4.082 -6.5,7.332 v -2.5 c 0,-4.8593 -1.13,-8.4921 -3.36,-10.9609 -2.2,-2.4726 -5.04,-3.6797 -8.43,-3.6797 -3.5,0 -6.24,1.2071 -8.34,3.6797 -2.06,2.5508 -3.09,6.1289 -3.09,10.9609 V 164.57 c 0,5.153 1.01,9.082 3.03,11.731 2,2.679 4.78,4 8.4,4 3.75,0 6.68,-1.281 8.7,-3.828 2.06,-2.524 3.09,-6.094 3.09,-10.801"
         style="fill:#2d2b2e;fill-opacity:1;fill-rule:nonzero;stroke:none"
         id="path18" /><path
         d="M 2564.77,53.5898 V 164.73 c 0,5.153 1.09,9.012 3.27,11.649 2.2,2.601 5.15,3.922 8.86,3.922 3.72,0 6.71,-1.289 9.01,-3.91 2.24,-2.571 3.4,-6.5 3.4,-11.661 V 53.5898 c 0,-5.1679 -1.18,-9.0976 -3.46,-11.7304 -2.31,-2.5469 -5.29,-3.8477 -8.95,-3.8477 -3.59,0 -6.48,1.3281 -8.75,4.0274 -2.26,2.7109 -3.38,6.5312 -3.38,11.5507"
         style="fill:#2d2b2e;fill-opacity:1;fill-rule:nonzero;stroke:none"
         id="path20" /><path
         d="M 2639.22,127.609 V 53.5898 c 0,-5.1601 -1.19,-9.0273 -3.48,-11.6679 -2.35,-2.5821 -5.34,-3.9102 -8.91,-3.9102 -3.61,0 -6.53,1.3281 -8.77,4.0196 -2.24,2.7187 -3.38,6.539 -3.38,11.5585 v 73.3012 c 0,5.011 1.14,8.851 3.38,11.422 2.24,2.589 5.16,3.886 8.77,3.886 3.57,0 6.56,-1.297 8.91,-3.886 2.29,-2.571 3.48,-6.102 3.48,-10.704 z m -12.15,26.52 c -3.4,0 -6.31,1.062 -8.79,3.332 -2.36,2.168 -3.6,5.309 -3.6,9.309 0,3.609 1.24,6.562 3.73,8.972 2.46,2.328 5.36,3.449 8.66,3.449 3.19,0 6.02,-1.039 8.48,-3.16 2.43,-2.121 3.67,-5.25 3.67,-9.261 0,-3.989 -1.21,-7.04 -3.59,-9.25 -2.4,-2.227 -5.24,-3.391 -8.56,-3.391"
         style="fill:#2d2b2e;fill-opacity:1;fill-rule:nonzero;stroke:none"
         id="path22" /><path
         d="m 2752.54,69.7305 c 0,-3.1797 -0.89,-6.5977 -2.71,-10.2188 -1.87,-3.6328 -4.65,-7.082 -8.4,-10.3594 -3.74,-3.2812 -8.46,-5.9296 -14.15,-7.9023 -5.69,-2.0508 -12.13,-3.0391 -19.23,-3.0391 -15.19,0 -27.02,4.6211 -35.55,13.8204 -8.51,9.2695 -12.76,21.6015 -12.76,37.1289 0,10.5 1.94,19.8198 5.82,27.8598 3.9,8.05 9.57,14.332 16.92,18.722 7.35,4.43 16.19,6.629 26.42,6.629 6.37,0 12.22,-0.98 17.52,-2.891 5.31,-1.949 9.81,-4.48 13.47,-7.507 3.7,-3.071 6.5,-6.34 8.48,-9.801 1.98,-3.481 2.91,-6.723 2.91,-9.731 0,-3.031 -1.11,-5.609 -3.27,-7.761 -2.2,-2.149 -4.83,-3.219 -7.96,-3.219 -2.06,0 -3.74,0.609 -5.1,1.699 -1.32,1.051 -2.87,2.781 -4.53,5.27 -3.01,4.722 -6.14,8.312 -9.41,10.742 -3.28,2.348 -7.43,3.59 -12.42,3.59 -7.29,0 -13.15,-3.012 -17.58,-8.903 -4.43,-5.957 -6.63,-14.0465 -6.63,-24.2887 0,-4.8086 0.58,-9.3008 1.7,-13.3203 1.15,-4.0273 2.8,-7.4375 4.93,-10.3203 2.17,-2.8594 4.76,-5 7.85,-6.457 3.04,-1.4805 6.41,-2.2422 10.04,-2.2422 4.95,0 9.14,1.1797 12.65,3.582 3.52,2.3867 6.63,6.0195 9.29,10.8594 1.54,2.9297 3.14,5.1601 4.89,6.8281 1.75,1.6094 3.87,2.3906 6.38,2.3906 3,0 5.49,-1.1601 7.48,-3.5195 1.94,-2.4297 2.95,-4.9492 2.95,-7.6406"
         style="fill:#2d2b2e;fill-opacity:1;fill-rule:nonzero;stroke:none"
         id="path24" /><path
         d="m 2792.99,90.2305 c 0,-6.9297 1.03,-12.8203 3.1,-17.7305 2.07,-4.8906 4.87,-8.5273 8.45,-10.9883 3.64,-2.5 7.55,-3.75 11.77,-3.75 4.35,0 8.28,1.1992 11.84,3.5391 3.57,2.3515 6.41,5.9492 8.56,10.8008 2.12,4.8398 3.17,10.9101 3.17,18.1289 0,6.8593 -1.05,12.7105 -3.17,17.6215 -2.15,4.961 -5.01,8.668 -8.64,11.32 -3.63,2.578 -7.59,3.898 -11.89,3.898 -4.49,0 -8.5,-1.379 -12.06,-4.007 -3.5,-2.661 -6.27,-6.493 -8.21,-11.481 -1.94,-5 -2.92,-10.7109 -2.92,-17.3515 z m 48.25,-37.5782 v 2.5 c -3.29,-3.9414 -6.55,-7.1328 -9.78,-9.5898 -3.17,-2.4922 -6.67,-4.3633 -10.41,-5.6602 -3.73,-1.2304 -7.84,-1.8906 -12.27,-1.8906 -5.85,0 -11.32,1.3008 -16.31,3.8477 -4.99,2.7031 -9.33,6.3515 -12.98,11.1797 -3.66,4.7929 -6.42,10.4726 -8.34,17 -1.9,6.4726 -2.82,13.5234 -2.82,21.1406 0,15.9723 3.75,28.5113 11.24,37.4613 7.51,8.949 17.36,13.441 29.58,13.441 7.08,0 13.05,-1.301 17.89,-3.891 4.84,-2.492 9.59,-6.402 14.2,-11.679 v 37.828 c 0,5.281 1,9.23 3.03,11.922 1.99,2.699 4.83,4.039 8.56,4.039 3.72,0 6.56,-1.231 8.6,-3.68 2.01,-2.461 3.04,-6.141 3.04,-10.949 V 52.6523 c 0,-4.8828 -1.1,-8.5625 -3.26,-10.9609 -2.16,-2.4726 -4.95,-3.6797 -8.38,-3.6797 -3.31,0 -6.12,1.25 -8.32,3.8008 -2.19,2.5 -3.27,6.0898 -3.27,10.8398"
         style="fill:#2d2b2e;fill-opacity:1;fill-rule:nonzero;stroke:none"
         id="path26" /><path
         d="m 2956.37,90.0508 c 0,10.3982 -2.22,18.5512 -6.63,24.3592 -4.4,5.801 -10.34,8.75 -17.75,8.75 -4.83,0 -9.03,-1.328 -12.7,-3.91 -3.64,-2.621 -6.47,-6.437 -8.44,-11.527 -1.98,-5.012 -2.97,-10.9105 -2.97,-17.6722 0,-6.6992 0.99,-12.5508 2.93,-17.5508 1.94,-4.9883 4.73,-8.8203 8.38,-11.5195 3.59,-2.6094 7.91,-3.918 12.8,-3.918 7.41,0 13.35,2.8789 17.75,8.7383 4.41,5.8203 6.63,13.9297 6.63,24.25 z m 24.63,0 c 0,-7.6211 -1.14,-14.6406 -3.42,-21.1485 -2.27,-6.371 -5.56,-11.9296 -9.87,-16.582 -4.33,-4.6406 -9.49,-8.0781 -15.49,-10.6289 -5.99,-2.4726 -12.78,-3.6797 -20.23,-3.6797 -7.43,0 -14.1,1.2071 -20.06,3.7578 -5.93,2.4805 -11.08,6.0508 -15.43,10.7227 -4.34,4.6875 -7.62,10.1484 -9.91,16.5 -2.24,6.3867 -3.34,13.3672 -3.34,21.0976 0,7.75 1.14,14.8512 3.41,21.2692 2.29,6.461 5.54,11.954 9.79,16.563 4.27,4.527 9.41,8.07 15.48,10.539 6.08,2.461 12.74,3.738 20.06,3.738 7.44,0 14.2,-1.277 20.23,-3.777 6.04,-2.512 11.23,-6.109 15.55,-10.731 4.32,-4.621 7.61,-10.152 9.83,-16.539 2.3,-6.363 3.4,-13.4215 3.4,-21.1012"
         style="fill:#2d2b2e;fill-opacity:1;fill-rule:nonzero;stroke:none"
         id="path28" /><path
         d="m 3084.7,111.191 c -1.83,-4.332 -2.72,-11.941 -2.72,-22.9605 V 54.1797 c 0,-5.3594 -1.15,-9.4297 -3.52,-12.1406 -2.32,-2.6993 -5.43,-4.0274 -9.27,-4.0274 -3.7,0 -6.69,1.3281 -8.99,4.0274 -2.31,2.7109 -3.45,6.7812 -3.45,12.1406 v 40.8516 c 0,6.4297 -0.24,11.4417 -0.67,15.0507 -0.43,3.527 -1.55,6.481 -3.4,8.77 -1.83,2.289 -4.79,3.437 -8.79,3.437 -8.03,0 -13.29,-2.879 -15.88,-8.68 -2.55,-5.757 -3.79,-14.0074 -3.79,-24.7887 V 54.1797 c 0,-5.3477 -1.17,-9.3906 -3.46,-12.0508 -2.32,-2.7891 -5.37,-4.1172 -9.1,-4.1172 -3.74,0 -6.82,1.3281 -9.16,4.1172 -2.39,2.6602 -3.53,6.7031 -3.53,12.0117 v 73.3514 c 0,4.821 1.03,8.5 3.13,10.981 2.16,2.488 4.95,3.777 8.44,3.777 3.36,0 6.16,-1.18 8.41,-3.52 2.25,-2.339 3.36,-5.558 3.36,-9.71 v -2.438 c 4.25,5.32 8.82,9.258 13.66,11.731 4.85,2.476 10.3,3.769 16.19,3.769 6.17,0 11.43,-1.301 15.89,-3.891 4.46,-2.55 8.09,-6.441 10.95,-11.609 4.14,5.207 8.6,9.16 13.33,11.668 4.75,2.539 9.97,3.832 15.72,3.832 6.75,0 12.52,-1.359 17.36,-4.152 4.87,-2.778 8.49,-6.68 10.89,-11.84 2.11,-4.617 3.14,-11.899 3.14,-21.879 V 54.1797 c 0,-5.3594 -1.15,-9.4297 -3.47,-12.1406 -2.38,-2.6993 -5.44,-4.0274 -9.29,-4.0274 -3.72,0 -6.77,1.3281 -9.11,4.1172 -2.4,2.6602 -3.59,6.7031 -3.59,12.0508 v 43.1094 c 0,5.5039 -0.23,9.9019 -0.66,13.2499 -0.45,3.34 -1.66,6.09 -3.66,8.352 -1.96,2.25 -4.98,3.398 -8.97,3.398 -3.23,0 -6.32,-1.027 -9.19,-2.976 -2.96,-2.043 -5.17,-4.731 -6.8,-8.122 v 0"
         style="fill:#2d2b2e;fill-opacity:1;fill-rule:nonzero;stroke:none"
         id="path30" /><path
         d="m 3223.74,89.5703 c -3.63,-1.4297 -8.85,-2.8515 -15.72,-4.418 -6.86,-1.5195 -11.63,-2.6132 -14.27,-3.3632 -2.64,-0.75 -5.15,-2.1172 -7.54,-4.2071 -2.43,-2.1601 -3.62,-5.082 -3.62,-8.8398 0,-3.9024 1.42,-7.1797 4.24,-9.8828 2.82,-2.7774 6.51,-4.1172 11.08,-4.1172 4.84,0 9.35,1.1367 13.44,3.3594 4.11,2.2109 7.14,5.0976 9.04,8.5781 2.22,3.8828 3.35,10.2617 3.35,19.2305 z m 1.6,-37.1406 C 3219.38,47.6211 3213.65,44 3208.1,41.6523 c -5.53,-2.4531 -11.76,-3.6406 -18.63,-3.6406 -6.33,0 -11.84,1.3008 -16.62,3.8477 -4.78,2.6328 -8.44,6.1601 -11.03,10.6328 -2.57,4.4375 -3.88,9.2266 -3.88,14.4375 0,7 2.18,12.9609 6.42,17.9297 4.23,4.8906 10.07,8.2109 17.5,9.9297 1.56,0.3711 5.46,1.1914 11.61,2.5 6.21,1.3515 11.47,2.5234 15.92,3.6409 4.38,1.05 9.2,2.39 14.35,3.941 -0.33,6.809 -1.62,11.758 -3.92,14.961 -2.32,3.137 -7.13,4.688 -14.36,4.688 -6.25,0 -10.92,-0.868 -14.12,-2.707 -3.12,-1.774 -5.84,-4.543 -8.06,-8.204 -2.27,-3.609 -3.83,-6 -4.76,-7.179 -0.95,-1.16 -2.96,-1.688 -5.98,-1.688 -2.78,0 -5.14,0.899 -7.12,2.727 -2.05,1.863 -3.06,4.211 -3.06,7.113 0,4.5 1.55,8.898 4.6,13.109 3.05,4.282 7.82,7.778 14.3,10.559 6.47,2.762 14.54,4.121 24.2,4.121 10.79,0 19.27,-1.359 25.48,-4.019 6.16,-2.61 10.5,-6.782 13.04,-12.602 2.58,-5.711 3.86,-13.398 3.86,-22.871 0,-6.0079 0,-11.1602 -0.05,-15.3087 -0.06,-4.2187 -0.07,-8.8906 -0.14,-14.0195 0,-4.8086 0.76,-9.8594 2.3,-15.0391 1.49,-5.1992 2.25,-8.6094 2.25,-10.082 0,-2.6172 -1.21,-5.0508 -3.55,-7.1797 -2.32,-2.1484 -5.02,-3.2383 -8.01,-3.2383 -2.54,0 -4.99,1.2071 -7.5,3.6797 -2.43,2.4688 -5.04,6.0781 -7.8,10.7383"
         style="fill:#2d2b2e;fill-opacity:1;fill-rule:nonzero;stroke:none"
         id="path32" /><path
         d="M 3297.32,127.609 V 53.5898 c 0,-5.1601 -1.18,-9.0273 -3.5,-11.6679 -2.34,-2.5821 -5.29,-3.9102 -8.88,-3.9102 -3.6,0 -6.57,1.3281 -8.78,4.0196 -2.26,2.7187 -3.38,6.539 -3.38,11.5585 v 73.3012 c 0,5.011 1.12,8.851 3.38,11.422 2.21,2.589 5.18,3.886 8.78,3.886 3.59,0 6.54,-1.297 8.88,-3.886 2.32,-2.571 3.5,-6.102 3.5,-10.704 z m -12.13,26.52 c -3.4,0 -6.31,1.062 -8.75,3.332 -2.42,2.168 -3.66,5.309 -3.66,9.309 0,3.609 1.26,6.562 3.76,8.972 2.46,2.328 5.37,3.449 8.65,3.449 3.16,0 6.01,-1.039 8.48,-3.16 2.42,-2.121 3.65,-5.25 3.65,-9.261 0,-3.989 -1.19,-7.04 -3.58,-9.25 -2.42,-2.227 -5.27,-3.391 -8.55,-3.391"
         style="fill:#2d2b2e;fill-opacity:1;fill-rule:nonzero;stroke:none"
         id="path34" /><path
         d="m 3345.02,127.992 v -3.07 c 4.27,5.918 9.02,10.289 14.12,13.058 5.14,2.801 11.01,4.219 17.73,4.219 6.44,0 12.23,-1.476 17.36,-4.469 5.05,-2.91 8.89,-7.031 11.39,-12.417 1.61,-3.141 2.64,-6.563 3.14,-10.161 0.45,-3.621 0.74,-8.242 0.74,-13.89 V 53.5898 c 0,-5.1601 -1.17,-9.0273 -3.39,-11.6679 -2.26,-2.5821 -5.19,-3.9102 -8.76,-3.9102 -3.64,0 -6.63,1.3281 -8.84,4.0274 -2.29,2.7109 -3.47,6.5312 -3.47,11.5507 v 42.6797 c 0,8.4725 -1.08,14.9215 -3.34,19.4025 -2.3,4.469 -6.77,6.719 -13.49,6.719 -4.37,0 -8.36,-1.371 -11.96,-4.121 -3.6,-2.68 -6.23,-6.43 -7.91,-11.2 -1.2,-3.789 -1.82,-10.9177 -1.82,-21.4294 V 53.5898 c 0,-5.1679 -1.13,-9.0976 -3.46,-11.7304 -2.32,-2.5469 -5.29,-3.8477 -8.93,-3.8477 -3.53,0 -6.46,1.3281 -8.72,4.0196 -2.32,2.7187 -3.43,6.539 -3.43,11.5585 v 74.0192 c 0,4.911 1,8.524 3.06,10.942 2.02,2.41 4.86,3.648 8.36,3.648 2.15,0 4.12,-0.59 5.81,-1.629 1.81,-1.039 3.16,-2.679 4.21,-4.73 1.02,-2.199 1.6,-4.77 1.6,-7.848"
         style="fill:#2d2b2e;fill-opacity:1;fill-rule:nonzero;stroke:none"
         id="path36" /><path
         d="m 3448.89,126.219 19.84,-58.1565 21.4,60.6995 c 1.72,4.879 3.35,8.301 4.99,10.359 1.64,2.012 4.05,3.078 7.34,3.078 3.14,0 5.79,-1.129 8.01,-3.34 2.16,-2.187 3.28,-4.668 3.28,-7.609 0,-1.109 -0.23,-2.398 -0.61,-3.867 -0.36,-1.551 -0.82,-2.973 -1.35,-4.301 -0.52,-1.269 -1.04,-2.801 -1.75,-4.461 l -23.56,-60.9999 c -0.66,-1.7422 -1.53,-4 -2.56,-6.6797 -1.08,-2.6719 -2.25,-4.9609 -3.52,-6.9414 -1.31,-1.8711 -2.89,-3.3281 -4.75,-4.3984 -1.91,-1.0508 -4.22,-1.5899 -6.92,-1.5899 -3.47,0 -6.25,0.8086 -8.32,2.4571 -2.09,1.6601 -3.63,3.4531 -4.58,5.4726 -0.99,1.9375 -2.68,5.8477 -5,11.6797 l -23.4,60.3279 c -0.55,1.5 -1.11,3.024 -1.7,4.492 -0.55,1.508 -0.99,3.008 -1.41,4.61 -0.36,1.59 -0.58,2.929 -0.58,4.019 0,1.782 0.5,3.512 1.55,5.219 1.01,1.742 2.44,3.184 4.23,4.242 1.81,1.078 3.72,1.668 5.85,1.668 4.05,0 6.87,-1.238 8.39,-3.726 1.55,-2.422 3.26,-6.5 5.13,-12.254"
         style="fill:#2d2b2e;fill-opacity:1;fill-rule:nonzero;stroke:none"
         id="path38" /><path
         d="m 3549.32,98.3906 h 44.51 c -0.58,8.7504 -2.83,15.3084 -6.78,19.6404 -3.95,4.309 -9.12,6.489 -15.53,6.489 -6.09,0 -11.12,-2.2 -15.03,-6.59 -3.95,-4.399 -6.28,-10.918 -7.17,-19.5394 z m 48.05,-14.5508 h -48.05 c 0.02,-5.871 1.19,-10.9804 3.34,-15.4687 2.23,-4.3984 5.13,-7.7305 8.74,-10 3.63,-2.2891 7.66,-3.3711 12.03,-3.3711 2.92,0 5.63,0.3516 8.04,1.0391 2.43,0.7734 4.78,1.8906 7.09,3.4023 2.24,1.5313 4.33,3.1602 6.26,4.9609 1.89,1.7188 4.45,4.0782 7.45,7.0899 1.29,1.1875 3.09,1.707 5.4,1.707 2.55,0 4.58,-0.6992 6.13,-2.1601 1.58,-1.4375 2.33,-3.4493 2.33,-6.0586 0,-2.3399 -0.86,-5.0586 -2.63,-8.168 -1.72,-3.0703 -4.29,-6.0508 -7.85,-8.9336 -3.53,-2.8164 -7.93,-5.168 -13.23,-7.0898 -5.28,-1.8594 -11.35,-2.7774 -18.29,-2.7774 -15.77,0 -28.03,4.6992 -36.76,14.0586 -8.73,9.4297 -13.11,22.1211 -13.11,38.1602 0,7.6797 1.11,14.6405 3.24,21.1015 2.15,6.488 5.29,12.039 9.42,16.66 4.15,4.66 9.22,8.238 15.29,10.668 6.08,2.473 12.77,3.711 20.18,3.711 9.52,0 17.76,-2.109 24.64,-6.371 6.86,-4.211 12.01,-9.609 15.41,-16.309 3.44,-6.711 5.13,-13.531 5.13,-20.5113 0,-6.3984 -1.71,-10.5781 -5.29,-12.4805 -3.57,-1.9375 -8.5,-2.8594 -14.91,-2.8594"
         style="fill:#2d2b2e;fill-opacity:1;fill-rule:nonzero;stroke:none"
         id="path40" /><path
         d="m 3726.33,69.7305 c 0,-3.1797 -0.89,-6.5977 -2.75,-10.2188 -1.84,-3.6328 -4.59,-7.082 -8.36,-10.3594 -3.74,-3.2812 -8.49,-5.9296 -14.2,-7.9023 -5.66,-2.0508 -12.11,-3.0391 -19.21,-3.0391 -15.2,0 -27.04,4.6211 -35.54,13.8204 -8.48,9.2695 -12.78,21.6015 -12.78,37.1289 0,10.5 1.94,19.8198 5.87,27.8598 3.9,8.05 9.5,14.332 16.89,18.722 7.35,4.43 16.2,6.629 26.46,6.629 6.34,0 12.16,-0.98 17.5,-2.891 5.28,-1.949 9.76,-4.48 13.5,-7.507 3.68,-3.071 6.48,-6.34 8.46,-9.801 1.91,-3.481 2.9,-6.723 2.9,-9.731 0,-3.031 -1.08,-5.609 -3.33,-7.761 -2.16,-2.149 -4.81,-3.219 -7.92,-3.219 -2.06,0 -3.74,0.609 -5.05,1.699 -1.39,1.051 -2.9,2.781 -4.6,5.27 -2.99,4.722 -6.1,8.312 -9.36,10.742 -3.28,2.348 -7.43,3.59 -12.5,3.59 -7.2,0 -13.09,-3.012 -17.5,-8.903 -4.47,-5.957 -6.65,-14.0465 -6.65,-24.2887 0,-4.8086 0.59,-9.3008 1.69,-13.3203 1.15,-4.0273 2.81,-7.4375 4.96,-10.3203 2.17,-2.8594 4.78,-5 7.85,-6.457 3,-1.4805 6.37,-2.2422 10.05,-2.2422 4.9,0 9.14,1.1797 12.65,3.582 3.48,2.3867 6.62,6.0195 9.32,10.8594 1.49,2.9297 3.08,5.1601 4.83,6.8281 1.73,1.6094 3.84,2.3906 6.39,2.3906 2.97,0 5.49,-1.1601 7.42,-3.5195 2.02,-2.4297 3.01,-4.9492 3.01,-7.6406"
         style="fill:#2d2b2e;fill-opacity:1;fill-rule:nonzero;stroke:none"
         id="path42" /><path
         d="m 3749.14,140.02 h 2.71 v 15.402 c 0,4.098 0.1,7.359 0.31,9.707 0.22,2.34 0.76,4.32 1.77,6.031 0.94,1.731 2.32,3.172 4.14,4.289 1.77,1.071 3.77,1.602 6,1.602 3.11,0 5.93,-1.219 8.44,-3.629 1.65,-1.66 2.74,-3.633 3.2,-5.953 0.44,-2.34 0.66,-5.707 0.66,-10.008 V 140.02 h 9.03 c 3.46,0 6.11,-0.868 7.94,-2.598 1.87,-1.723 2.76,-3.902 2.76,-6.602 0,-3.437 -1.3,-5.898 -3.94,-7.23 -2.58,-1.36 -6.33,-2.07 -11.19,-2.07 h -4.6 V 74.332 c 0,-4.0117 0.13,-7.082 0.39,-9.2617 0.32,-2.1797 1.07,-3.9375 2.22,-5.25 1.14,-1.3398 3.04,-2.0586 5.68,-2.0586 1.46,0 3.38,0.2696 5.87,0.8203 2.41,0.5391 4.34,0.8008 5.75,0.8008 1.97,0 3.78,-0.8711 5.34,-2.4531 1.57,-1.707 2.39,-3.7188 2.39,-6.168 0,-4.1211 -2.11,-7.2812 -6.47,-9.4804 -4.35,-2.1797 -10.54,-3.2696 -18.61,-3.2696 -7.68,0 -13.51,1.3281 -17.47,4.0274 -3.95,2.7109 -6.57,6.3906 -7.74,11.2109 -1.27,4.75 -1.87,11.082 -1.87,19.0508 V 121.52 h -3.29 c -3.46,0 -6.16,0.871 -8.04,2.66 -1.88,1.742 -2.79,3.941 -2.79,6.64 0,2.7 0.98,4.879 2.9,6.602 1.97,1.73 4.8,2.598 8.51,2.598"
         style="fill:#2d2b2e;fill-opacity:1;fill-rule:nonzero;stroke:none"
         id="path44" /><path
         d="m 3880.21,90.0508 c 0,10.3982 -2.22,18.5512 -6.59,24.3592 -4.45,5.801 -10.32,8.75 -17.79,8.75 -4.79,0 -9.01,-1.328 -12.66,-3.91 -3.68,-2.621 -6.5,-6.437 -8.46,-11.527 -1.97,-5.012 -2.97,-10.9105 -2.97,-17.6722 0,-6.6992 1,-12.5508 2.95,-17.5508 1.93,-4.9883 4.7,-8.8203 8.32,-11.5195 3.63,-2.6094 7.88,-3.918 12.82,-3.918 7.47,0 13.34,2.8789 17.79,8.7383 4.37,5.8203 6.59,13.9297 6.59,24.25 z m 24.65,0 c 0,-7.6211 -1.13,-14.6406 -3.44,-21.1485 -2.26,-6.371 -5.58,-11.9296 -9.87,-16.582 -4.33,-4.6406 -9.49,-8.0781 -15.47,-10.6289 -5.99,-2.4726 -12.71,-3.6797 -20.25,-3.6797 -7.46,0 -14.14,1.2071 -20.05,3.7578 -5.94,2.4805 -11.11,6.0508 -15.41,10.7227 -4.35,4.6875 -7.66,10.1484 -9.89,16.5 -2.23,6.3867 -3.33,13.3672 -3.33,21.0976 0,7.75 1.1,14.8512 3.33,21.2692 2.36,6.461 5.57,11.954 9.83,16.563 4.27,4.527 9.43,8.07 15.47,10.539 6.1,2.461 12.77,3.738 20.05,3.738 7.47,0 14.17,-1.277 20.25,-3.777 6.06,-2.512 11.23,-6.109 15.55,-10.731 4.27,-4.621 7.63,-10.152 9.86,-16.539 2.24,-6.363 3.37,-13.4215 3.37,-21.1012"
         style="fill:#2d2b2e;fill-opacity:1;fill-rule:nonzero;stroke:none"
         id="path46" /><path
         d="M 3948.6,74.9414 V 53.5898 c 0,-5.1679 -1.17,-9.0976 -3.52,-11.7304 -2.34,-2.5469 -5.31,-3.8477 -8.93,-3.8477 -3.5,0 -6.44,1.3281 -8.7,3.9102 -2.28,2.6406 -3.39,6.5078 -3.39,11.6679 v 71.3122 c 0,11.539 3.96,17.297 11.94,17.297 4.03,0 7.01,-1.41 8.82,-4.066 1.78,-2.664 2.72,-6.672 2.98,-11.914 2.92,5.242 5.94,9.25 9.03,11.914 3.1,2.656 7.2,4.066 12.32,4.066 5.21,0 10.19,-1.41 15.07,-4.066 4.83,-2.664 7.29,-6.262 7.29,-10.692 0,-3.121 -1.08,-5.75 -3.14,-7.75 -2.03,-2.019 -4.28,-3.062 -6.7,-3.062 -0.89,0 -3.07,0.601 -6.52,1.781 -3.46,1.141 -6.5,1.731 -9.15,1.731 -3.57,0 -6.5,-0.969 -8.76,-2.981 -2.28,-2 -4.06,-4.879 -5.32,-8.738 -1.26,-3.942 -2.17,-8.5197 -2.61,-13.9103 -0.47,-5.3008 -0.71,-11.8125 -0.71,-19.5703"
         style="fill:#2d2b2e;fill-opacity:1;fill-rule:nonzero;stroke:none"
         id="path48" /><path
         d="m 4079.37,71.4609 c 0,-7.0586 -1.65,-13.0898 -4.99,-18.1406 -3.31,-5.0508 -8.16,-8.8281 -14.61,-11.4687 -6.46,-2.5391 -14.29,-3.8399 -23.57,-3.8399 -8.74,0 -16.34,1.4102 -22.65,4.2188 -6.29,2.832 -10.96,6.3086 -13.93,10.539 -3.01,4.2032 -4.57,8.4414 -4.57,12.6797 0,2.8125 1.01,5.2422 2.96,7.2305 1.91,2.0312 4.35,3.0117 7.25,3.0117 2.59,0 4.59,-0.6601 5.96,-1.9609 1.4,-1.3711 2.66,-3.1914 3.96,-5.5508 2.52,-4.6094 5.51,-8.0078 9.07,-10.25 3.44,-2.2891 8.25,-3.3984 14.35,-3.3984 4.89,0 8.93,1.1406 12.08,3.4609 3.12,2.2383 4.75,4.8789 4.75,7.8086 0,4.5195 -1.66,7.832 -4.89,9.8515 -3.32,2.1094 -8.66,4.0782 -16.18,5.9375 -8.44,2.2305 -15.33,4.5118 -20.63,6.9024 -5.33,2.4101 -9.62,5.6094 -12.77,9.5586 -3.16,3.8982 -4.78,8.7812 -4.78,14.5512 0,5.128 1.47,9.988 4.41,14.507 2.93,4.61 7.32,8.243 13.03,10.954 5.71,2.726 12.63,4.136 20.74,4.136 6.35,0 12.06,-0.75 17.15,-2.09 5.05,-1.379 9.32,-3.226 12.66,-5.527 3.39,-2.332 6,-4.883 7.75,-7.691 1.8,-2.86 2.67,-5.602 2.67,-8.27 0,-2.949 -0.93,-5.301 -2.85,-7.262 -1.89,-1.796 -4.61,-2.777 -8.03,-2.777 -2.54,0 -4.67,0.75 -6.46,2.297 -1.74,1.461 -3.8,3.703 -6.06,6.684 -1.86,2.519 -4.04,4.539 -6.59,6.027 -2.52,1.48 -5.94,2.242 -10.24,2.242 -4.44,0 -8.15,-0.961 -11.04,-2.961 -2.96,-1.961 -4.45,-4.43 -4.45,-7.371 0,-2.687 1.1,-4.898 3.22,-6.629 2.2,-1.719 5.08,-3.141 8.75,-4.281 3.68,-1.129 8.72,-2.52 15.13,-4.141 7.61,-1.9177 13.84,-4.2381 18.67,-6.949 4.83,-2.6602 8.48,-5.8281 10.96,-9.5078 2.52,-3.6992 3.77,-7.8594 3.77,-12.5313"
         style="fill:#2d2b2e;fill-opacity:1;fill-rule:nonzero;stroke:none"
         id="path50" /><path
         d="m 4107.23,38.0117 c -3.7,0 -6.91,1.2071 -9.58,3.7578 -2.75,2.4805 -4.07,6 -4.07,10.4727 0,3.7969 1.26,7.0898 3.81,9.8672 2.59,2.7304 5.8,4.0703 9.57,4.0703 3.75,0 6.99,-1.3399 9.6,-4.0508 2.7,-2.6875 4.06,-6.0469 4.06,-9.8867 0,-4.4492 -1.36,-7.9297 -4.06,-10.4297 -2.61,-2.5508 -5.72,-3.8008 -9.33,-3.8008"
         style="fill:#2d2b2e;fill-opacity:1;fill-rule:nonzero;stroke:none"
         id="path52" /><path
         d="m 4215.81,90.0508 c 0,10.3982 -2.22,18.5512 -6.63,24.3592 -4.4,5.801 -10.3,8.75 -17.73,8.75 -4.8,0 -8.98,-1.328 -12.67,-3.91 -3.67,-2.621 -6.47,-6.437 -8.43,-11.527 -1.96,-5.012 -2.97,-10.9105 -2.97,-17.6722 0,-6.6992 0.95,-12.5508 2.88,-17.5508 2.01,-4.9883 4.77,-8.8203 8.42,-11.5195 3.59,-2.6094 7.87,-3.918 12.77,-3.918 7.43,0 13.33,2.8789 17.73,8.7383 4.41,5.8203 6.63,13.9297 6.63,24.25 z m 24.67,0 c 0,-7.6211 -1.12,-14.6406 -3.44,-21.1485 -2.29,-6.371 -5.57,-11.9296 -9.89,-16.582 -4.33,-4.6406 -9.43,-8.0781 -15.47,-10.6289 -5.97,-2.4726 -12.71,-3.6797 -20.23,-3.6797 -7.43,0 -14.12,1.2071 -20.06,3.7578 -5.93,2.4805 -11.03,6.0508 -15.37,10.7227 -4.4,4.6875 -7.69,10.1484 -9.97,16.5 -2.2,6.3867 -3.33,13.3672 -3.33,21.0976 0,7.75 1.13,14.8512 3.42,21.2692 2.32,6.461 5.53,11.954 9.77,16.563 4.26,4.527 9.43,8.07 15.48,10.539 6.08,2.461 12.72,3.738 20.06,3.738 7.43,0 14.17,-1.277 20.23,-3.777 6.09,-2.512 11.25,-6.109 15.58,-10.731 4.3,-4.621 7.57,-10.152 9.84,-16.539 2.26,-6.363 3.38,-13.4215 3.38,-21.1012"
         style="fill:#2d2b2e;fill-opacity:1;fill-rule:nonzero;stroke:none"
         id="path54" /><path
         d="M 4284.2,74.9414 V 53.5898 c 0,-5.1679 -1.17,-9.0976 -3.49,-11.7304 -2.34,-2.5469 -5.31,-3.8477 -8.88,-3.8477 -3.61,0 -6.46,1.3281 -8.78,3.9102 -2.27,2.6406 -3.41,6.5078 -3.41,11.6679 v 71.3122 c 0,11.539 4.05,17.297 11.99,17.297 4.08,0 6.99,-1.41 8.79,-4.066 1.76,-2.664 2.82,-6.672 3.01,-11.914 2.9,5.242 5.9,9.25 9,11.914 3.08,2.656 7.22,4.066 12.33,4.066 5.23,0 10.24,-1.41 15.04,-4.066 4.87,-2.664 7.31,-6.262 7.31,-10.692 0,-3.121 -1.04,-5.75 -3.08,-7.75 -2.11,-2.019 -4.3,-3.062 -6.75,-3.062 -0.87,0 -3.03,0.601 -6.49,1.781 -3.44,1.141 -6.49,1.731 -9.15,1.731 -3.58,0 -6.49,-0.969 -8.83,-2.981 -2.24,-2 -4.03,-4.879 -5.29,-8.738 -1.24,-3.942 -2.13,-8.5197 -2.59,-13.9103 -0.47,-5.3008 -0.73,-11.8125 -0.73,-19.5703"
         style="fill:#2d2b2e;fill-opacity:1;fill-rule:nonzero;stroke:none"
         id="path56" /><path
         d="m 4355.08,90.9102 c 0,-10.3477 2.18,-18.211 6.56,-23.5704 4.31,-5.2773 9.97,-7.957 16.8,-7.957 4.06,0 7.96,1.1797 11.57,3.457 3.64,2.3008 6.6,5.7227 8.89,10.3008 2.29,4.6211 3.41,10.211 3.41,16.7422 0,10.4492 -2.23,18.5972 -6.63,24.4062 -4.39,5.852 -10.21,8.781 -17.37,8.781 -6.99,0 -12.64,-2.859 -16.84,-8.39 -4.27,-5.59 -6.39,-13.481 -6.39,-23.7698 z m 71.17,32.5198 V 48.9609 c 0,-8.5195 -0.92,-15.8398 -2.63,-21.9296 -1.74,-6.1915 -4.53,-11.2305 -8.36,-15.2305 -3.83,-4.03127 -8.88,-6.96877 -15.05,-8.92971 C 4394,0.992188 4386.26,0 4377.07,0 c -8.51,0 -16.07,1.19141 -22.7,3.65234 -6.66,2.54688 -11.78,5.67969 -15.37,9.60936 -3.61,3.8906 -5.42,7.918 -5.42,12.0899 0,3.1211 1,5.6601 3.09,7.6172 2.02,2.0117 4.48,2.9921 7.35,2.9921 3.62,0 6.73,-1.6601 9.47,-4.9804 1.32,-1.7188 2.7,-3.3985 4.08,-5.1094 1.39,-1.7617 2.95,-3.2305 4.67,-4.4219 1.7,-1.2578 3.79,-2.1601 6.19,-2.7695 2.35,-0.5899 5.13,-0.8789 8.26,-0.8789 6.31,0 11.3,0.9414 14.78,2.7812 3.53,1.8282 5.98,4.3985 7.42,7.7188 1.36,3.3086 2.24,6.8398 2.38,10.6484 0.3,3.8438 0.45,9.8828 0.62,18.2813 -3.77,-5.4688 -8.19,-9.6797 -13.1,-12.5508 -4.93,-2.8672 -10.85,-4.2891 -17.63,-4.2891 -8.27,0 -15.47,2.1407 -21.57,6.5586 -6.18,4.3828 -10.9,10.4922 -14.2,18.4102 -3.26,7.8398 -4.95,16.9531 -4.95,27.2812 0,7.7504 0.99,14.6914 3.05,20.8904 1.96,6.16 4.82,11.391 8.58,15.649 3.68,4.269 8.01,7.48 12.85,9.66 4.89,2.121 10.15,3.242 16.02,3.242 6.93,0 12.97,-1.43 18.05,-4.23 5.15,-2.75 9.84,-7.153 14.21,-13.09 v 3.449 c 0,4.469 1.09,7.871 3.15,10.391 2.1,2.41 4.82,3.648 8.09,3.648 4.76,0 7.91,-1.598 9.49,-4.828 1.52,-3.231 2.32,-7.922 2.32,-13.992"
         style="fill:#2d2b2e;fill-opacity:1;fill-rule:nonzero;stroke:none"
         id="path58" /><path
         d="m 3362.13,372.922 h 36.44 c -2.59,-19.652 -10.62,-34.973 -24,-46 -12.4,-10.781 -27.4,-16.109 -44.92,-16.109 -23.78,0 -42.74,8.339 -56.92,25.019 -13.44,15.848 -20.14,36.328 -20.14,61.359 0,25.622 6.66,46.11 19.96,61.629 13.27,15.45 32.05,23.219 56.3,23.219 18.05,0 33.32,-4.879 45.72,-14.578 13.14,-10.461 21.15,-25.172 24,-44.031 h -36.44 c -3.12,16.429 -13.17,24.633 -30.26,24.633 -28.13,0 -42.25,-16.672 -42.25,-50.024 0,-15.637 3.64,-28.398 10.87,-38.359 7.26,-9.969 17.44,-14.961 30.63,-14.961 19.62,0 29.97,9.402 31.01,28.203 z m -143.35,22.969 c 0,-32.59 10.35,-60.18 30.99,-82.641 20.65,-22.488 45.93,-33.738 75.95,-33.738 29.89,0 55.2,11.25 75.84,33.738 20.68,22.461 30.96,50.051 30.96,82.641 0,32.578 -10.28,60.14 -30.96,82.629 -20.64,22.492 -45.95,33.75 -75.84,33.75 -30.02,0 -55.3,-11.258 -75.95,-33.75 -20.64,-22.489 -30.99,-50.051 -30.99,-82.629 z m -36.98,0 c 0,41.468 14.02,76.859 42.12,106.289 28.13,29.332 62.06,44.011 101.8,44.011 39.68,0 73.56,-14.679 101.71,-44.011 28.11,-29.43 42.18,-64.821 42.18,-106.289 0,-41.5 -14.07,-76.95 -42.18,-106.282 -28.15,-29.379 -62.03,-44.078 -101.71,-44.078 -39.74,0 -73.67,14.699 -101.8,44.078 -28.1,29.332 -42.12,64.782 -42.12,106.282"
         style="fill:#2d2b2e;fill-opacity:1;fill-rule:nonzero;stroke:none"
         id="path60" /><path
         d="m 3240.03,301.621 20.98,-17.801 154.36,198.192 -20.99,17.777 -154.35,-198.168"
         style="fill:#2d2b2e;fill-opacity:1;fill-rule:nonzero;stroke:none"
         id="path62" /><path
         d="m 3155.16,944 c 1508.25,0 2738.37,63.05 2738.37,140.31 0,77.28 -1230.12,140.32 -2738.37,140.32 -1508.23,0 -2738.367,-63.04 -2738.367,-140.32 C 416.793,1007.05 1646.93,944 3155.16,944"
         style="fill:#77132a;fill-opacity:1;fill-rule:evenodd;stroke:none"
         id="path64" /><path
         d="m 3653.42,4588.23 c 188.25,0 373.27,-30.84 550.22,-87.72 176.92,56.88 361.95,87.72 550.2,87.72 970.71,0 1658.38,-816.99 1535.98,-1824.78 -113.53,-798.13 -685.37,-1599.42 -1525.16,-1676.87 -50.85,-4.69 -1068.42,1.48 -1122.06,6.44 -617.2,57.09 -1063.88,473.06 -1331.33,1020.2 -106.7,218.28 -159.67,410.04 -193.83,650.23 -122.41,1007.79 565.26,1824.78 1535.98,1824.78"
         style="fill:#9a1735;fill-opacity:1;fill-rule:evenodd;stroke:none"
         id="path66" /><path
         d="m 6227.34,3509.16 c 70.65,-227.67 94.74,-480.04 62.48,-745.71 -113.53,-798.13 -685.37,-1599.42 -1525.16,-1676.87 -50.85,-4.69 -1068.42,1.48 -1122.06,6.44 -617.2,57.09 -1063.88,473.06 -1331.33,1020.2 -106.7,218.28 -159.67,410.04 -193.83,650.23 -100.31,825.86 343.45,1523.46 1041.1,1748.47 736.49,-225.01 1300.7,-922.61 1342.96,-1748.47 2.83,-93.04 -0.65,-186.11 -10.16,-278.08 l 0.08,-0.04 11.05,-218.5 c 10.71,-211.79 128.08,-403.72 311.73,-509.75 183.66,-106.03 408.56,-111.72 597.34,-15.09 396.87,203.15 689.2,564.82 804.59,995.47 68.34,255.05 70.82,520.16 11.21,771.7"
         style="fill:#77132a;fill-opacity:1;fill-rule:evenodd;stroke:none"
         id="path68" /><path
         d="m 3762.25,4525.96 37,28.18 c 93.68,71.31 148.67,182.27 148.67,299.99 0,117.71 -54.99,228.68 -148.67,299.98 l 46.97,10.43 c 85.42,18.98 174.73,-4.93 239.21,-64.09 l 3.38,53.66 c 4.69,74.33 50.39,137.33 114.83,166.66 64.41,-29.33 110.12,-92.33 114.79,-166.66 l 3.39,-53.66 c 64.48,59.16 153.79,83.07 239.22,64.09 l 46.95,-10.43 c -93.67,-71.3 -148.66,-182.27 -148.66,-299.98 0,-117.72 54.99,-228.68 148.66,-299.99 L 4645,4525.96 4469.74,4368.6 h -532.23 l -175.26,157.36"
         style="fill:#9a1735;fill-opacity:1;fill-rule:evenodd;stroke:none"
         id="path70" /><path
         d="m 1550.08,4588.23 c 188.25,0 373.28,-30.84 550.21,-87.72 176.94,56.88 361.97,87.72 550.21,87.72 970.71,0 1658.39,-816.99 1535.98,-1824.78 -113.53,-798.13 -685.36,-1599.42 -1525.16,-1676.87 -50.83,-4.69 -1068.41,1.48 -1122.04,6.44 C 922.066,1150.11 475.387,1566.08 207.938,2113.22 101.227,2331.5 48.2656,2523.26 14.1055,2763.45 -108.301,3771.24 579.379,4588.23 1550.08,4588.23"
         style="fill:#9a1735;fill-opacity:1;fill-rule:evenodd;stroke:none"
         id="path72" /><path
         d="m 1658.92,4525.96 37.01,28.18 c 93.67,71.31 148.66,182.27 148.66,299.99 0,117.71 -54.99,228.68 -148.66,299.98 l 46.95,10.43 c 85.43,18.98 174.73,-4.93 239.21,-64.09 l 3.39,53.66 c 4.68,74.33 50.4,137.33 114.81,166.66 64.43,-29.33 110.13,-92.33 114.82,-166.66 l 3.38,-53.66 c 64.49,59.16 153.79,83.07 239.22,64.09 l 46.94,-10.43 C 2410.99,5082.81 2356,4971.84 2356,4854.13 c 0,-117.72 54.99,-228.68 148.65,-299.99 l 37.02,-28.18 -175.26,-157.36 h -532.23 l -175.26,157.36"
         style="fill:#9a1735;fill-opacity:1;fill-rule:evenodd;stroke:none"
         id="path74" /><path
         d="m 1881.14,4425.01 45.65,58.7 c 100.24,128.88 100.24,309.35 0,438.24 l 114.78,-37.82 57.86,137.5 57.86,-137.5 114.79,37.82 c -100.25,-128.89 -100.25,-309.36 0,-438.24 l 45.64,-58.7 -218.29,-56.19 -218.29,56.19"
         style="fill:#6b1126;fill-opacity:1;fill-rule:evenodd;stroke:none"
         id="path76" /><path
         d="m 1574.41,4528.05 c 179.92,0 356.78,-28.4 525.88,-80.76 169.11,52.36 345.97,80.76 525.89,80.76 927.79,0 1585.07,-752.12 1468.08,-1679.92 -110,-739.63 -653.1,-1462.1 -1437.97,-1537.43 -126.49,-12.13 -1067.02,-1.23 -1175.37,12.8 -752.311,97.33 -1268.611,811.99 -1374.588,1524.63 -116.9961,927.8 540.285,1679.92 1468.078,1679.92"
         style="fill:#c51745;fill-opacity:1;fill-rule:evenodd;stroke:none"
         id="path78" /><path
         d="m 3843.83,3098.31 c 2.85,897.46 -552.4,1446.15 -1460.97,1218.96 -490.72,-122.71 -277.05,-53.43 -755.79,22.89 -517.41,82.48 -888.222,-38.53 -1127.3,-522.35 l -33.422,-67.65 C 296.363,3292.82 331.02,2709.31 484.141,2249.61 c 223.043,-669.65 760.809,-833.2 1408.629,-816.96 473.58,11.86 877.73,-36.97 1329.74,195.36 61.57,31.62 96.19,56.13 151.19,96.58 361.7,293.73 444.99,863.87 466.57,1301.39 l 3.56,72.33"
         style="fill:#e8b0cb;fill-opacity:1;fill-rule:evenodd;stroke:none"
         id="path80" /><path
         d="m 924.625,2595.96 c 0.363,-6.17 0.941,-12.3 1.723,-18.39 -5.926,1.7 -11.914,3.19 -17.946,4.46 5.547,4.52 10.961,9.16 16.223,13.93 z m 173.775,270.53 c -26.05,-14.6 -49.99,-31 -71.01,-48.85 -0.25,6.03 -0.72,12.02 -1.41,18 -1.97,17.08 -5.61,33.71 -10.69,49.85 27.45,-8.26 55.52,-14.39 83.11,-19 z m -99.353,739.75 c 13.093,-9.69 26.643,-18.68 40.613,-26.77 -13.21,-7.51 -26.11,-15.86 -38.62,-24.97 0.33,17.32 -0.32,34.65 -1.993,51.74 z m 409.293,48.58 c 11.99,-54.8 37.71,-104.26 81.7,-142.38 47.39,-41.08 107.04,-61.31 169.06,-69.41 -54.82,-22.72 -101.07,-63.85 -137.39,-114.63 -34.67,106.28 -100.18,205.18 -190.35,256.84 11.3,7.63 22.2,16.02 32.72,25.07 15.35,13.24 30.17,28.17 44.26,44.51 z m 0.78,-1482.24 c -5.36,-22.66 -9,-45.11 -10.77,-66.92 -53.9,38.97 -116.56,60.99 -182.16,53.24 0.89,12.52 0.91,25.19 0.11,37.96 36.13,-18.56 74.95,-30.7 116.16,-32.74 26.63,-1.33 52.23,1.75 76.66,8.46 z m 1633.71,76.15 c 11.86,7.71 23.38,16.03 34.57,24.81 0.2,-13.46 1.37,-26.78 3.62,-39.86 -12.54,5.77 -25.27,10.84 -38.19,15.05 z m 85.25,649.51 c 7.18,2.53 14.3,5.2 21.33,8.05 -0.57,-6.74 -0.83,-13.49 -0.85,-20.23 -6.68,4.18 -13.51,8.25 -20.48,12.18 z m -603.02,-580.61 c 1.95,2.02 3.88,4.11 5.77,6.24 25.03,27.91 42.74,60.32 54.9,95.07 30.72,-59.38 70.68,-111.89 115.08,-150.15 28.27,-24.38 59.47,-43.94 93.13,-56.6 -41.06,-29.66 -75.01,-70.16 -101.56,-116.53 -31.43,91.98 -88.9,176.71 -167.32,221.97 z m -406.02,-42.82 c 20.42,-7.93 41.59,-14.84 63.2,-20.52 -14.42,-13.74 -28.07,-28.56 -40.8,-44.15 -6.13,21.74 -13.62,43.41 -22.4,64.67 z m -213.8,509.39 c -32.17,-45.62 -53.93,-96.36 -60.12,-150.18 -1.99,-17.3 -2.33,-34.78 -0.95,-52.16 1.21,-15.12 3.66,-29.82 7.21,-44.09 -16.05,3.81 -32.58,6.18 -49.53,7 -38.65,1.87 -75.82,-4.59 -110.92,-17.55 17.75,80.93 15.92,163.95 -14.54,235.01 46.54,-4.66 94.35,-1.81 138.85,4.14 29.51,3.93 60.04,9.58 90,17.83 z m 49.79,687.94 c -9.16,-24.02 -15.22,-49.3 -18.49,-75.31 -28.7,21.4 -59.64,38.59 -92.12,49.97 36.95,5.2 74.67,13.14 110.61,25.34 z m 233.32,181.07 c -15.23,-2.64 -30.17,-6.11 -44.72,-10.47 4.48,13.09 7.86,26.5 10.24,40.15 11.11,-10.35 22.62,-20.25 34.48,-29.68 z m 285.28,-701.83 c 41.16,30.05 77.95,67.01 109.74,103.93 0.39,0.44 0.8,0.92 1.21,1.38 14.69,-50.35 41.5,-95.26 83.96,-129.72 -27.95,-15.64 -53.29,-35.78 -74.97,-60.92 -10.42,-12.09 -19.59,-24.88 -27.54,-38.21 -19.05,45.29 -46.19,86.33 -84.76,117.59 -2.52,2.04 -5.07,4.03 -7.64,5.95 z m 379.51,666.26 c -76.15,-21.49 -139.02,-74.96 -186,-143.3 -15.65,22.85 -34.83,43.64 -56.61,62.44 -11.65,10.02 -24.22,19.6 -37.55,28.66 7.32,3.4 14.55,7.2 21.68,11.43 72.59,42.98 116.62,118.71 144.46,198.07 29.72,-61.53 69.41,-116.57 114.02,-157.3 z m 275.33,-64.77 c 20.05,7 39.4,16.17 58.01,26.97 -6.55,-20.98 -11.19,-42.9 -14.02,-65.28 -14,13.74 -28.71,26.56 -43.99,38.31 z m -2665.56,187.8 c -33.496,-91.98 -58.816,-188.95 -76.625,-288.91 31.629,-67.73 94.93,-119.34 157.25,-157.9 80.391,-49.73 169.102,-80.89 248.578,-66.48 -1.605,-8.18 -2.937,-16.31 -4,-24.35 -3.468,-26.46 -4.121,-52.68 -1.367,-78.26 -50.308,24.39 -105.531,41.37 -160.164,45.72 -66.148,5.26 -130.156,-8.6 -182.473,-51 -44.109,-35.75 -71.945,-85.17 -89.429,-138.77 4.883,-147.48 22.605,-294.76 51.238,-436.25 44.203,-45.08 102.203,-66.71 165.027,-71.74 22.629,-1.79 46.297,-1.46 70.438,0.88 -75.938,-95.95 -112.305,-234.53 -97.711,-343.61 3.031,-22.67 8.297,-44.58 16.109,-65.23 8.856,-17.85 17.985,-35.26 27.403,-52.2 11.593,-16.55 25.574,-31.67 42.187,-45.04 78.488,-63.11 189.02,-65.2 284.238,-52.46 20.805,2.78 42.129,6.43 63.371,11.31 -20.089,-60.92 -27.328,-125.15 -19.835,-181.14 24.183,-180.84 180.675,-218.55 337.325,-197.6 154.72,20.69 294.23,96.57 274.34,272.66 61.75,-25.71 131.72,-35.64 196.2,-38.77 95.48,-4.59 204.38,4.52 285.19,60.63 6.58,-16.07 15.12,-31.56 25.83,-46.33 60.09,-82.8 168.05,-114.37 264.78,-127.29 96.73,-12.94 209.18,-10.89 288.94,53.25 1.71,1.39 3.43,2.78 5.09,4.22 16.07,-64.59 49.26,-121.08 105.65,-158.8 66.42,-44.45 148.68,-51.87 227.89,-43.76 83.53,26.22 167.96,60.27 254.13,104.56 38.1,19.56 65.88,36.4 94.57,56 3.33,4.75 6.5,9.62 9.51,14.64 36.31,60.6 41.17,129.07 25.94,196.97 -10.02,44.67 -29.28,91.05 -55.63,135.22 27.89,-7.51 56.25,-12.71 83.73,-16.37 79.55,-10.63 169.76,-10.93 243.06,26.05 51.98,100 91.75,208.89 122.22,321.23 -12.96,70.41 -41.69,141.57 -83.96,199.31 43.91,11.89 83.59,34.15 115.36,69.61 12.18,13.61 22.49,28.33 31.13,43.92 15.14,108.48 24.29,215.48 29.96,316.2 -13.99,78.58 -43.82,156.72 -106.32,207.38 -15.62,12.65 -32.28,22.76 -49.7,30.57 55.33,43.12 103.12,98.14 117.65,167.52 12.52,59.68 -2.8,117.96 -34.44,169.11 -74.14,119.83 -247.24,220.19 -392.82,191.84 54.28,73.64 97.02,161.19 87.92,253.08 -7.22,72.77 -45.4,132.4 -99.96,179.43 -151.98,130.98 -461.77,185.88 -606.55,17.86 -6.81,-7.9 -13.09,-16.1 -18.83,-24.56 -0.34,0.52 -0.68,1.03 -1.02,1.55 -40.35,60.99 -101.93,95.94 -172.14,112.07 -186.33,42.82 -467.37,-42.34 -536.26,-237.71 -64.5,74.43 -147.94,129.04 -239.63,138.07 -17.21,1.69 -34.53,1.74 -51.74,0.08 -80.05,-7.7 -148.58,-50.29 -202.39,-110.91 -10.53,44.43 -30.22,85.84 -60.87,121.41 -144.79,168.02 -454.56,113.12 -606.55,-17.86 -54.562,-47.03 -92.734,-106.66 -99.949,-179.43 -5.09,-51.32 5.992,-101.27 26.222,-148.21 -82.3,13.81 -171.011,-13.24 -242.101,-55.67 -30.41,-18.15 -59.863,-40.33 -86.012,-65.74 v 0"
         style="fill:#cb86a5;fill-opacity:1;fill-rule:evenodd;stroke:none"
         id="path82" /><path
         d="m 2086.3,4013.58 c -38.55,-167.77 152.65,-354.9 320.43,-393.45 167.79,-38.57 248.63,86.05 287.18,253.84 38.55,167.77 20.25,315.19 -147.55,353.75 -167.79,38.56 -421.5,-46.33 -460.06,-214.14"
         style="fill:#db183e;fill-opacity:1;fill-rule:evenodd;stroke:none"
         id="path84" /><path
         d="m 2155.62,3997.67 c -27.11,-117.94 122.62,-253.03 252.13,-282.78 129.51,-29.75 189.75,57.06 216.85,174.99 27.11,117.97 10.82,222.36 -118.7,252.13 -129.51,29.76 -323.18,-26.39 -350.28,-144.34"
         style="fill:#ec1345;fill-opacity:1;fill-rule:evenodd;stroke:none"
         id="path86" /><path
         d="m 2205.53,4081.21 c -10.32,-44.92 68.94,-84.91 135.04,-87.63 66.1,-2.72 93.99,32.91 104.31,77.82 10.32,44.92 -0.84,82.14 -66.94,84.85 -66.09,2.71 -162.09,-30.11 -172.41,-75.04"
         style="fill:#f46886;fill-opacity:1;fill-rule:evenodd;stroke:none"
         id="path88" /><path
         d="m 2807.75,4161.41 c -112.39,-130.4 -30.59,-385.14 99.82,-497.53 130.41,-112.38 260.06,-39.88 372.45,90.55 112.38,130.39 164.96,269.34 34.55,381.72 -130.41,112.39 -394.43,155.68 -506.82,25.26"
         style="fill:#db183e;fill-opacity:1;fill-rule:evenodd;stroke:none"
         id="path90" /><path
         d="m 2861.62,4115 c -79.01,-91.69 -9.6,-281.01 91.07,-367.77 100.66,-86.75 194.46,-38.05 273.47,53.63 79,91.65 113.29,191.6 12.62,278.35 -100.67,86.76 -298.16,127.45 -377.16,35.79"
         style="fill:#ec1345;fill-opacity:1;fill-rule:evenodd;stroke:none"
         id="path92" /><path
         d="m 2944.75,4165.6 c -30.1,-34.92 21.35,-107.28 78.55,-140.53 57.19,-33.23 98.47,-14.74 128.57,20.17 30.1,34.91 37.58,73.04 -19.62,106.28 -57.18,33.23 -157.41,49 -187.5,14.08"
         style="fill:#f46886;fill-opacity:1;fill-rule:evenodd;stroke:none"
         id="path94" /><path
         d="m 2057.54,3508.47 c -112.39,-130.41 -30.6,-385.16 99.81,-497.55 130.42,-112.38 260.06,-39.88 372.45,90.55 112.38,130.39 164.96,269.35 34.55,381.72 -130.41,112.39 -394.42,155.69 -506.81,25.28"
         style="fill:#db183e;fill-opacity:1;fill-rule:evenodd;stroke:none"
         id="path96" /><path
         d="m 2111.41,3462.05 c -79.01,-91.69 -9.59,-281.02 91.07,-367.76 100.65,-86.77 194.45,-38.06 273.45,53.61 79.01,91.68 113.3,191.6 12.64,278.35 -100.65,86.75 -298.15,127.46 -377.16,35.8"
         style="fill:#ec1345;fill-opacity:1;fill-rule:evenodd;stroke:none"
         id="path98" /><path
         d="m 2194.54,3512.64 c -30.09,-34.92 21.35,-107.28 78.55,-140.53 57.18,-33.22 98.49,-14.74 128.57,20.17 30.1,34.93 37.58,73.05 -19.61,106.28 -57.19,33.24 -157.43,49 -187.51,14.08"
         style="fill:#f46886;fill-opacity:1;fill-rule:evenodd;stroke:none"
         id="path100" /><path
         d="m 1914.67,2587.49 c 13.69,-171.61 252.31,-292.6 423.93,-278.92 171.61,13.69 211.23,156.86 197.54,328.47 -13.68,171.61 -75.49,306.7 -247.1,293.01 -171.62,-13.69 -388.06,-170.95 -374.37,-342.56"
         style="fill:#db183e;fill-opacity:1;fill-rule:evenodd;stroke:none"
         id="path102" /><path
         d="m 1985.56,2593.14 c 9.62,-120.64 193.04,-204.42 325.5,-193.85 132.48,10.54 163.81,111.45 154.18,232.1 -9.61,120.64 -56.54,215.31 -189.01,204.74 -132.46,-10.57 -300.29,-122.34 -290.67,-242.99"
         style="fill:#ec1345;fill-opacity:1;fill-rule:evenodd;stroke:none"
         id="path104" /><path
         d="m 2008.04,2687.84 c 3.66,-45.96 91.29,-60.27 155.14,-42.99 63.86,17.31 79.75,59.66 76.08,105.6 -3.65,45.94 -25.5,78.09 -89.34,60.78 -63.86,-17.29 -145.54,-77.45 -141.88,-123.39"
         style="fill:#f46886;fill-opacity:1;fill-rule:evenodd;stroke:none"
         id="path106" /><path
         d="m 2900.78,3555.46 c -170.7,-22.45 -279.32,-266.94 -256.87,-437.64 22.42,-170.69 167.42,-202.94 338.14,-180.51 170.67,22.45 302.42,91.07 279.97,261.76 -22.42,170.69 -190.55,378.8 -361.24,356.39"
         style="fill:#db183e;fill-opacity:1;fill-rule:evenodd;stroke:none"
         id="path108" /><path
         d="m 2910.05,3484.94 c -119.98,-15.77 -194.3,-203.25 -176.98,-335 17.33,-131.74 119.7,-157.89 239.7,-142.11 119.98,15.76 212.13,67.49 194.82,199.24 -17.31,131.76 -137.56,293.63 -257.54,277.87"
         style="fill:#ec1345;fill-opacity:1;fill-rule:evenodd;stroke:none"
         id="path110" /><path
         d="m 3005.75,3467.31 c -45.69,-6 -55.5,-94.24 -34.98,-157.12 20.54,-62.89 63.65,-76.6 109.36,-70.58 45.69,6.01 76.66,29.45 56.15,92.33 -20.55,62.89 -84.81,141.39 -130.53,135.37"
         style="fill:#f46886;fill-opacity:1;fill-rule:evenodd;stroke:none"
         id="path112" /><path
         d="m 3331.78,3666.76 c -114.97,-71.16 -113.86,-281.27 -42.72,-396.24 71.16,-114.99 185.38,-91.3 300.37,-20.14 114.99,71.14 187.17,162.79 116.03,277.76 -71.14,114.99 -258.69,209.78 -373.68,138.62"
         style="fill:#db183e;fill-opacity:1;fill-rule:evenodd;stroke:none"
         id="path114" /><path
         d="m 3361.17,3619.28 c -80.82,-50.03 -73.54,-208.25 -18.62,-297 54.93,-88.75 136.66,-74.42 217.5,-24.42 80.82,50.01 130.12,116.78 75.2,205.53 -54.92,88.77 -193.24,165.89 -274.08,115.89"
         style="fill:#ec1345;fill-opacity:1;fill-rule:evenodd;stroke:none"
         id="path116" /><path
         d="m 3435.4,3637.55 c -30.8,-19.06 -9.34,-85.42 25.66,-123.8 34.98,-38.42 70.27,-34.33 101.06,-15.28 30.8,19.05 45.41,45.84 10.41,84.24 -35,38.4 -106.34,73.88 -137.13,54.84"
         style="fill:#f46886;fill-opacity:1;fill-rule:evenodd;stroke:none"
         id="path118" /><path
         d="m 2647.14,2819.89 c -112.37,-130.42 -30.59,-385.14 99.83,-497.53 130.43,-112.39 260.07,-39.87 372.45,90.53 112.39,130.42 164.95,269.34 34.56,381.74 -130.43,112.39 -394.45,155.66 -506.84,25.26"
         style="fill:#db183e;fill-opacity:1;fill-rule:evenodd;stroke:none"
         id="path120" /><path
         d="m 2701.01,2773.47 c -79,-91.67 -9.58,-281 91.09,-367.75 100.65,-86.75 194.44,-38.08 273.44,53.59 79.01,91.67 113.31,191.63 12.66,278.38 -100.68,86.76 -298.17,127.45 -377.19,35.78"
         style="fill:#ec1345;fill-opacity:1;fill-rule:evenodd;stroke:none"
         id="path122" /><path
         d="m 2784.16,2824.07 c -30.1,-34.91 21.34,-107.29 78.53,-140.52 57.2,-33.25 98.5,-14.75 128.59,20.17 30.09,34.91 37.58,73.04 -19.61,106.28 -57.2,33.23 -157.42,48.99 -187.51,14.07"
         style="fill:#f46886;fill-opacity:1;fill-rule:evenodd;stroke:none"
         id="path124" /><path
         d="m 3219.84,2871.78 c 12.25,-153.74 226.02,-262.13 379.76,-249.87 153.75,12.26 189.24,140.51 176.99,294.26 -12.27,153.75 -67.63,274.77 -221.38,262.5 -153.74,-12.26 -347.64,-153.14 -335.37,-306.89"
         style="fill:#db183e;fill-opacity:1;fill-rule:evenodd;stroke:none"
         id="path126" /><path
         d="m 3283.33,2876.83 c 8.62,-108.07 172.94,-183.12 291.62,-173.68 118.67,9.49 146.74,99.89 138.12,207.94 -8.61,108.08 -50.66,192.91 -169.32,183.45 -118.7,-9.47 -269.03,-109.62 -260.42,-217.71"
         style="fill:#ec1345;fill-opacity:1;fill-rule:evenodd;stroke:none"
         id="path128" /><path
         d="m 3303.47,2961.67 c 3.28,-41.16 81.78,-53.99 139,-38.5 57.19,15.5 71.44,53.44 68.15,94.61 -3.28,41.14 -22.85,69.95 -80.05,54.45 -57.2,-15.49 -130.37,-69.4 -127.1,-110.56"
         style="fill:#f46886;fill-opacity:1;fill-rule:evenodd;stroke:none"
         id="path130" /><path
         d="m 3460.92,2614.77 c -146.38,19.58 -291.05,-158.65 -310.64,-305.07 -19.59,-146.41 93.32,-205.54 239.72,-225.13 146.41,-19.59 270.89,7.78 290.47,154.21 19.59,146.4 -73.12,356.39 -219.55,375.99"
         style="fill:#db183e;fill-opacity:1;fill-rule:evenodd;stroke:none"
         id="path132" /><path
         d="m 3452.84,2554.29 c -102.91,13.77 -206.39,-124.9 -221.51,-237.9 -15.11,-113.04 63.84,-157.56 166.77,-171.34 102.92,-13.77 190.82,8.45 205.94,121.47 15.12,113.01 -48.28,274.01 -151.2,287.77"
         style="fill:#ec1345;fill-opacity:1;fill-rule:evenodd;stroke:none"
         id="path134" /><path
         d="m 3528.19,2518.28 c -39.19,5.26 -67.06,-65.64 -64.12,-122.32 2.94,-56.67 35.59,-77.69 74.79,-82.93 39.19,-5.24 70.1,7.26 67.16,63.93 -2.95,56.69 -38.63,136.09 -77.83,141.32"
         style="fill:#f46886;fill-opacity:1;fill-rule:evenodd;stroke:none"
         id="path136" /><path
         d="m 1798.44,2474.14 c -171.77,8.29 -321.98,-212.71 -330.27,-384.45 -8.28,-171.75 128.5,-229.22 300.25,-237.51 171.75,-8.29 313.43,35.73 321.72,207.5 8.28,171.74 -119.95,406.18 -291.7,414.46"
         style="fill:#db183e;fill-opacity:1;fill-rule:evenodd;stroke:none"
         id="path138" /><path
         d="m 1795.01,2403.2 c -120.73,5.81 -227.09,-165.22 -233.48,-297.77 -6.4,-132.59 89.58,-176.49 210.32,-182.3 120.73,-5.84 220.48,28.62 226.89,161.18 6.39,132.57 -83,313.05 -203.73,318.89"
         style="fill:#ec1345;fill-opacity:1;fill-rule:evenodd;stroke:none"
         id="path140" /><path
         d="m 1885.95,2368.87 c -45.98,2.22 -71.32,-82.76 -62.32,-148.22 9.01,-65.45 48.94,-86.59 94.93,-88.8 45.98,-2.22 80.59,15.32 71.59,80.78 -9.01,65.44 -58.22,154.03 -104.2,156.24"
         style="fill:#f46886;fill-opacity:1;fill-rule:evenodd;stroke:none"
         id="path142" /><path
         d="m 2908.95,2188.48 c -160.62,-36.01 -243.06,-278.17 -207.04,-438.77 36.02,-160.63 176.87,-178.87 337.47,-142.85 160.62,36.02 280.18,112.68 244.14,273.3 -36.01,160.6 -213.98,344.35 -374.57,308.32"
         style="fill:#db183e;fill-opacity:1;fill-rule:evenodd;stroke:none"
         id="path144" /><path
         d="m 2923.82,2122.14 c -112.9,-25.33 -167.57,-210.22 -139.76,-334.19 27.81,-123.96 127.54,-140.07 240.44,-114.74 112.9,25.3 196.22,82.47 168.41,206.45 -27.8,123.97 -156.19,267.8 -269.09,242.48"
         style="fill:#ec1345;fill-opacity:1;fill-rule:evenodd;stroke:none"
         id="path146" /><path
         d="m 3016.48,2113.58 c -43,-9.65 -44.79,-94.51 -19.83,-152.62 24.97,-58.12 67.18,-67.48 110.18,-57.84 43,9.65 70.48,34.65 45.55,92.77 -24.96,58.11 -92.89,127.33 -135.9,117.69"
         style="fill:#f46886;fill-opacity:1;fill-rule:evenodd;stroke:none"
         id="path148" /><path
         d="m 1417.73,4161.41 c 112.4,-130.4 30.59,-385.14 -99.82,-497.53 -130.41,-112.38 -260.06,-39.88 -372.441,90.55 -112.395,130.39 -164.961,269.34 -34.551,381.72 130.412,112.39 394.422,155.68 506.812,25.26"
         style="fill:#db183e;fill-opacity:1;fill-rule:evenodd;stroke:none"
         id="path150" /><path
         d="m 1363.87,4115 c 79,-91.69 9.58,-281.01 -91.08,-367.77 -100.66,-86.75 -194.45,-38.05 -273.45,53.63 -79.004,91.65 -113.309,191.6 -12.645,278.35 100.655,86.76 298.165,127.45 377.175,35.79"
         style="fill:#ec1345;fill-opacity:1;fill-rule:evenodd;stroke:none"
         id="path152" /><path
         d="m 1280.74,4165.6 c 30.08,-34.92 -21.35,-107.28 -78.56,-140.53 -57.19,-33.23 -98.48,-14.74 -128.58,20.17 -30.08,34.91 -37.58,73.04 19.62,106.28 57.2,33.23 157.42,49 187.52,14.08"
         style="fill:#f46886;fill-opacity:1;fill-rule:evenodd;stroke:none"
         id="path154" /><path
         d="m 1219.49,3550.17 c 170.68,-22.43 279.3,-266.92 256.87,-437.61 -22.43,-170.7 -167.43,-202.94 -338.13,-180.51 -170.691,22.45 -302.429,91.06 -279.992,261.76 22.43,170.69 190.552,378.8 361.252,356.36"
         style="fill:#db183e;fill-opacity:1;fill-rule:evenodd;stroke:none"
         id="path156" /><path
         d="m 1210.21,3479.68 c 119.99,-15.78 194.3,-203.26 176.98,-335 -17.32,-131.74 -119.7,-157.89 -239.69,-142.11 -119.99,15.75 -212.133,67.49 -194.82,199.24 17.32,131.74 137.54,293.63 257.53,277.87"
         style="fill:#ec1345;fill-opacity:1;fill-rule:evenodd;stroke:none"
         id="path158" /><path
         d="m 1114.5,3462.05 c 45.7,-6.02 55.52,-94.24 34.99,-157.13 -20.53,-62.88 -63.65,-76.59 -109.35,-70.58 -45.691,6.02 -76.667,29.45 -56.148,92.34 20.538,62.89 84.808,141.38 130.508,135.37"
         style="fill:#f46886;fill-opacity:1;fill-rule:evenodd;stroke:none"
         id="path160" /><path
         d="m 838.395,3770.39 c 114.98,-71.16 113.867,-281.27 42.718,-396.24 -71.14,-115.01 -185.386,-91.3 -300.367,-20.15 -114.984,71.13 -187.168,162.81 -116.023,277.78 71.144,114.97 258.683,209.75 373.672,138.61"
         style="fill:#db183e;fill-opacity:1;fill-rule:evenodd;stroke:none"
         id="path162" /><path
         d="m 809.004,3722.89 c 80.832,-50.02 73.547,-208.22 18.629,-296.98 -54.914,-88.75 -136.664,-74.44 -217.496,-24.42 -80.824,50.01 -130.121,116.77 -75.211,205.53 54.914,88.75 193.25,165.88 274.078,115.87"
         style="fill:#ec1345;fill-opacity:1;fill-rule:evenodd;stroke:none"
         id="path164" /><path
         d="m 734.781,3741.16 c 30.789,-19.03 9.352,-85.4 -25.656,-123.8 -34.988,-38.4 -70.285,-34.3 -101.066,-15.27 -30.789,19.05 -45.407,45.86 -10.418,84.25 35.004,38.4 106.359,73.88 137.14,54.82"
         style="fill:#f46886;fill-opacity:1;fill-rule:evenodd;stroke:none"
         id="path166" /><path
         d="m 1578.33,2787.6 c 112.39,-130.43 30.59,-385.16 -99.82,-497.53 -130.41,-112.4 -260.06,-39.88 -372.44,90.51 -112.394,130.43 -164.965,269.35 -34.56,381.74 130.42,112.4 394.43,155.67 506.82,25.28"
         style="fill:#db183e;fill-opacity:1;fill-rule:evenodd;stroke:none"
         id="path168" /><path
         d="m 1524.46,2741.16 c 79.01,-91.67 9.59,-281 -91.08,-367.74 -100.65,-86.75 -194.44,-38.08 -273.44,53.59 -79.01,91.68 -113.31,191.62 -12.65,278.39 100.66,86.75 298.16,127.44 377.17,35.76"
         style="fill:#ec1345;fill-opacity:1;fill-rule:evenodd;stroke:none"
         id="path170" /><path
         d="m 1441.32,2791.78 c 30.1,-34.93 -21.34,-107.31 -78.53,-140.54 -57.2,-33.23 -98.49,-14.76 -128.59,20.15 -30.08,34.93 -37.58,73.07 19.62,106.28 57.2,33.26 157.42,49.02 187.5,14.11"
         style="fill:#f46886;fill-opacity:1;fill-rule:evenodd;stroke:none"
         id="path172" /><path
         d="M 956.348,2793.09 C 944.086,2639.36 730.313,2530.98 576.566,2543.24 422.82,2555.49 387.34,2683.75 399.59,2837.49 c 12.262,153.76 67.629,274.76 221.371,262.5 153.746,-12.26 347.648,-153.14 335.387,-306.9"
         style="fill:#db183e;fill-opacity:1;fill-rule:evenodd;stroke:none"
         id="path174" /><path
         d="m 892.836,2798.15 c -8.617,-108.07 -172.934,-183.13 -291.602,-173.66 -118.675,9.46 -146.746,99.86 -138.136,207.94 8.617,108.08 50.668,192.89 169.336,183.43 118.675,-9.46 269.027,-109.62 260.402,-217.71"
         style="fill:#ec1345;fill-opacity:1;fill-rule:evenodd;stroke:none"
         id="path176" /><path
         d="m 872.699,2883.01 c -3.289,-41.18 -81.781,-54.01 -138.988,-38.52 -57.195,15.49 -71.441,53.44 -68.16,94.61 3.289,41.14 22.844,69.95 80.051,54.46 57.203,-15.49 130.378,-69.39 127.097,-110.55"
         style="fill:#f46886;fill-opacity:1;fill-rule:evenodd;stroke:none"
         id="path178" /><path
         d="m 833.305,2515.36 c 146.418,19.6 291.075,-158.65 310.655,-305.05 19.58,-146.42 -93.32,-205.56 -239.726,-225.16 -146.406,-19.56 -270.882,7.82 -290.472,154.22 -19.582,146.42 73.136,356.43 219.543,375.99"
         style="fill:#db183e;fill-opacity:1;fill-rule:evenodd;stroke:none"
         id="path180" /><path
         d="m 841.395,2454.9 c 102.925,13.76 206.405,-124.91 221.525,-237.93 15.11,-113.01 -63.854,-157.57 -166.775,-171.33 -102.918,-13.77 -190.825,8.47 -205.934,121.47 -15.117,113.02 48.269,274.02 151.184,287.79"
         style="fill:#ec1345;fill-opacity:1;fill-rule:evenodd;stroke:none"
         id="path182" /><path
         d="m 766.055,2418.89 c 39.195,5.24 67.074,-65.65 64.117,-122.34 -2.945,-56.69 -35.586,-77.67 -74.789,-82.91 -39.199,-5.24 -70.11,7.24 -67.16,63.93 2.945,56.69 38.632,136.08 77.832,141.32"
         style="fill:#f46886;fill-opacity:1;fill-rule:evenodd;stroke:none"
         id="path184" /><path
         d="m 1741.34,4126.69 c -169.53,-16.3 -285.32,-254.26 -269.01,-423.79 16.3,-169.52 158.54,-206.38 328.06,-190.07 169.51,16.3 302.11,79.61 285.8,249.12 -16.3,169.52 -175.35,381.05 -344.85,364.74"
         style="fill:#db183e;fill-opacity:1;fill-rule:evenodd;stroke:none"
         id="path186" /><path
         d="M 1748.07,4056.67 C 1628.9,4045.21 1549,3862.44 1561.59,3731.6 c 12.58,-130.85 112.9,-160.21 232.06,-148.75 119.16,11.46 212.03,59.42 199.45,190.26 -12.59,130.83 -125.87,295.02 -245.03,283.56"
         style="fill:#ec1345;fill-opacity:1;fill-rule:evenodd;stroke:none"
         id="path188" /><path
         d="m 1842.08,4035.97 c -45.38,-4.38 -58.13,-91.27 -40,-154.14 18.14,-62.87 60.28,-77.92 105.68,-73.54 45.38,4.35 76.81,26.46 58.68,89.35 -18.14,62.87 -78.97,142.69 -124.36,138.33"
         style="fill:#f46886;fill-opacity:1;fill-rule:evenodd;stroke:none"
         id="path190" /><path
         d="m 1731.81,3390.06 c 152.88,20.45 303.91,-165.67 324.36,-318.53 20.45,-152.86 -97.44,-214.61 -250.31,-235.06 -152.86,-20.45 -282.83,8.14 -303.29,161 -20.44,152.88 76.37,372.14 229.24,392.59"
         style="fill:#db183e;fill-opacity:1;fill-rule:evenodd;stroke:none"
         id="path192" /><path
         d="m 1740.26,3326.9 c 107.45,14.39 215.5,-130.4 231.29,-248.39 15.78,-118.01 -66.67,-164.53 -174.14,-178.9 -107.45,-14.37 -199.23,8.84 -215.02,126.83 -15.78,117.99 50.41,286.1 157.87,300.46"
         style="fill:#ec1345;fill-opacity:1;fill-rule:evenodd;stroke:none"
         id="path194" /><path
         d="m 1661.58,3289.33 c 40.93,5.47 70.03,-68.55 66.96,-127.74 -3.08,-59.19 -37.17,-81.11 -78.1,-86.58 -40.92,-5.47 -73.19,7.58 -70.12,66.75 3.07,59.2 40.33,142.09 81.26,147.57"
         style="fill:#f46886;fill-opacity:1;fill-rule:evenodd;stroke:none"
         id="path196" /><path
         d="m 2422.54,2279.61 c -149.38,19.98 -296.98,-161.89 -316.96,-311.27 -19.98,-149.38 95.22,-209.72 244.6,-229.71 149.39,-19.97 276.39,7.97 296.38,157.35 19.97,149.4 -74.62,363.65 -224.02,383.63"
         style="fill:#db183e;fill-opacity:1;fill-rule:evenodd;stroke:none"
         id="path198" /><path
         d="m 2414.29,2217.91 c -105.01,14.04 -210.58,-127.46 -226.01,-242.76 -15.42,-115.3 65.15,-160.76 170.15,-174.8 105.02,-14.06 194.7,8.62 210.11,123.94 15.44,115.31 -49.24,279.57 -154.25,293.62"
         style="fill:#ec1345;fill-opacity:1;fill-rule:evenodd;stroke:none"
         id="path200" /><path
         d="m 2491.17,2181.17 c -39.99,5.35 -68.43,-66.98 -65.43,-124.82 3.01,-57.83 36.32,-79.24 76.32,-84.61 39.99,-5.35 71.53,7.4 68.52,65.25 -3.02,57.8 -39.41,138.83 -79.41,144.18"
         style="fill:#f46886;fill-opacity:1;fill-rule:evenodd;stroke:none"
         id="path202" /><path
         d="m 1222.13,2088.38 c 129.97,17.39 258.37,-140.84 275.77,-270.81 17.38,-129.97 -82.84,-182.46 -212.81,-199.86 -129.97,-17.37 -240.47,6.94 -257.85,136.91 -17.38,129.96 64.93,316.36 194.89,333.76"
         style="fill:#db183e;fill-opacity:1;fill-rule:evenodd;stroke:none"
         id="path204" /><path
         d="m 1229.31,2034.68 c 91.36,12.22 183.21,-110.86 196.64,-211.19 13.42,-100.31 -56.68,-139.87 -148.04,-152.08 -91.36,-12.22 -169.39,7.51 -182.81,107.83 -13.42,100.32 42.85,243.23 134.21,255.44"
         style="fill:#ec1345;fill-opacity:1;fill-rule:evenodd;stroke:none"
         id="path206" /><path
         d="m 1162.43,2002.75 c 34.8,4.65 59.54,-58.29 56.92,-108.6 -2.61,-50.32 -31.6,-68.98 -66.39,-73.62 -34.8,-4.66 -62.23,6.45 -59.62,56.75 2.61,50.32 34.29,120.79 69.09,125.47"
         style="fill:#f46886;fill-opacity:1;fill-rule:evenodd;stroke:none"
         id="path208" /><path
         d="m 4991.48,4216.97 c 280.17,112.32 796.87,-134.11 990.12,-616.13 193.25,-482.04 -10.12,-1017.16 -290.29,-1129.46 -280.18,-112.33 -531.05,240.66 -724.3,722.68 -193.25,482.04 -255.69,910.59 24.47,1022.91"
         style="fill:#a7173a;fill-opacity:1;fill-rule:evenodd;stroke:none"
         id="path210" /></g></g></svg>
