<?xml version="1.0" encoding="UTF-8" standalone="no"?>
<!-- Created with Inkscape (http://www.inkscape.org/) -->
<svg xmlns:inkscape="http://www.inkscape.org/namespaces/inkscape" xmlns:rdf="http://www.w3.org/1999/02/22-rdf-syntax-ns#" xmlns="http://www.w3.org/2000/svg" xmlns:xlink="http://www.w3.org/1999/xlink" xmlns:ns1="http://sozi.baierouge.fr" xmlns:cc="http://creativecommons.org/ns#" xmlns:sodipodi="http://sodipodi.sourceforge.net/DTD/sodipodi-0.dtd" xmlns:dc="http://purl.org/dc/elements/1.1/" id="svg2" xml:space="preserve" viewBox="0 0 44.853 18.756" version="1.1" inkscape:version="0.91 r13725">
  <defs id="defs6">
    <linearGradient id="linearGradient24" y2="21.158" gradientUnits="userSpaceOnUse" x2="22.251" gradientTransform="matrix(.6604 .45152 .45152 -.6604 -.097352 15.006)" y1="21.158" x1="10.956">
      <stop id="stop26" style="stop-color:#f59300" offset="0"/>
      <stop id="stop28" style="stop-color:#c25100" offset="1"/>
    </linearGradient>
    <linearGradient id="linearGradient42" y2="10.588" gradientUnits="userSpaceOnUse" x2="-4.5062" gradientTransform="matrix(.66096 .45064 .45064 -.66096 -.09732 15.006)" y1="10.588" x1="-5.1719">
      <stop id="stop44" style="stop-color:#f59300" offset="0"/>
      <stop id="stop46" style="stop-color:#c25100" offset="1"/>
    </linearGradient>
    <linearGradient id="linearGradient60" y2="12.92" gradientUnits="userSpaceOnUse" x2="-4.715" gradientTransform="matrix(.67168 .43464 .43464 -.67168 -.09724 15.006)" y1="12.92" x1="-5.2212">
      <stop id="stop62" style="stop-color:#f59300" offset="0"/>
      <stop id="stop64" style="stop-color:#c25100" offset="1"/>
    </linearGradient>
    <linearGradient id="linearGradient78" y2="12.705" gradientUnits="userSpaceOnUse" x2="-3.415" gradientTransform="matrix(.64 .48 .48 -.64 -.096936 15.006)" y1="12.705" x1="-3.665">
      <stop id="stop80" style="stop-color:#f59300" offset="0"/>
      <stop id="stop82" style="stop-color:#c25100" offset="1"/>
    </linearGradient>
    <linearGradient id="linearGradient96" y2="14.322" gradientUnits="userSpaceOnUse" x2="-2.3783" gradientTransform="matrix(.66568 .44376 .44376 -.66568 -.097032 15.006)" y1="14.322" x1="-2.5586">
      <stop id="stop98" style="stop-color:#f59300" offset="0"/>
      <stop id="stop100" style="stop-color:#c25100" offset="1"/>
    </linearGradient>
    <linearGradient id="linearGradient114" y2="18.506" gradientUnits="userSpaceOnUse" x2="1.65" gradientTransform="matrix(.66288 .44792 .44792 -.66288 -.097576 15.006)" y1="18.506" x1=".53370">
      <stop id="stop116" style="stop-color:#f59300" offset="0"/>
      <stop id="stop118" style="stop-color:#c25100" offset="1"/>
    </linearGradient>
    <linearGradient id="linearGradient132" y2="17.82" gradientUnits="userSpaceOnUse" x2="-.80270" gradientTransform="matrix(.6592 .4532 .4532 -.6592 -.097504 15.006)" y1="17.82" x1="-1.2881">
      <stop id="stop134" style="stop-color:#f59300" offset="0"/>
      <stop id="stop136" style="stop-color:#c25100" offset="1"/>
    </linearGradient>
    <linearGradient id="linearGradient150" y2="10.235" gradientUnits="userSpaceOnUse" x2="-2.8851" gradientTransform="matrix(.6536 .46136 .46136 -.6536 -.097416 15.006)" y1="10.235" x1="-3.4053">
      <stop id="stop152" style="stop-color:#f59300" offset="0"/>
      <stop id="stop154" style="stop-color:#c25100" offset="1"/>
    </linearGradient>
    <linearGradient id="linearGradient168" y2="9.8325" gradientUnits="userSpaceOnUse" x2="-6.4351" gradientTransform="matrix(.64 .48 .48 -.64 -.096936 15.006)" y1="9.8325" x1="-6.6851">
      <stop id="stop170" style="stop-color:#f59300" offset="0"/>
      <stop id="stop172" style="stop-color:#c25100" offset="1"/>
    </linearGradient>
    <linearGradient id="linearGradient186" y2="16.506" gradientUnits="userSpaceOnUse" x2="-3.4263" gradientTransform="matrix(.65536 .4588 .4588 -.65536 -.097792 15.006)" y1="16.506" x1="-4.0366">
      <stop id="stop188" style="stop-color:#f59300" offset="0"/>
      <stop id="stop190" style="stop-color:#c25100" offset="1"/>
    </linearGradient>
    <linearGradient id="linearGradient204" y2="23.412" gradientUnits="userSpaceOnUse" x2="8.0862" gradientTransform="matrix(.66216 .44896 .44896 -.66216 -.097408 15.006)" y1="23.412" x1="6.3042">
      <stop id="stop206" style="stop-color:#f59300" offset="0"/>
      <stop id="stop208" style="stop-color:#c25100" offset="1"/>
    </linearGradient>
    <linearGradient id="linearGradient222" y2="25.816" gradientUnits="userSpaceOnUse" x2="9.981" gradientTransform="matrix(.66568 .44376 .44376 -.66568 -.097416 15.006)" y1="25.816" x1="8.6289">
      <stop id="stop224" style="stop-color:#f59300" offset="0"/>
      <stop id="stop226" style="stop-color:#c25100" offset="1"/>
    </linearGradient>
    <linearGradient id="linearGradient240" y2="23.779" gradientUnits="userSpaceOnUse" x2="4.5357" gradientTransform="matrix(.66232 .44864 .44864 -.66232 -.097568 15.006)" y1="23.779" x1="3.5996">
      <stop id="stop242" style="stop-color:#f59300" offset="0"/>
      <stop id="stop244" style="stop-color:#c25100" offset="1"/>
    </linearGradient>
    <linearGradient id="linearGradient258" y2="23.381" gradientUnits="userSpaceOnUse" x2="2.475" gradientTransform="matrix(.66024 .45176 .45176 -.66024 -.097504 15.006)" y1="23.381" x1="1.8994">
      <stop id="stop260" style="stop-color:#f59300" offset="0"/>
      <stop id="stop262" style="stop-color:#c25100" offset="1"/>
    </linearGradient>
    <linearGradient id="linearGradient276" y2="30.866" gradientUnits="userSpaceOnUse" x2="19.024" gradientTransform="matrix(.65992 .45216 .45216 -.65992 -.09712 15.006)" y1="30.866" x1="17.388">
      <stop id="stop278" style="stop-color:#f59300" offset="0"/>
      <stop id="stop280" style="stop-color:#c25100" offset="1"/>
    </linearGradient>
    <linearGradient id="linearGradient294" y2="30.706" gradientUnits="userSpaceOnUse" x2="16.239" gradientTransform="matrix(.66568 .44376 .44376 -.66568 -.097808 15.006)" y1="30.706" x1="15.157">
      <stop id="stop296" style="stop-color:#f59300" offset="0"/>
      <stop id="stop298" style="stop-color:#c25100" offset="1"/>
    </linearGradient>
    <linearGradient id="linearGradient312" y2="30.27" gradientUnits="userSpaceOnUse" x2="12.918" gradientTransform="matrix(.66568 .44376 .44376 -.66568 -.097808 15.006)" y1="30.27" x1="12.377">
      <stop id="stop314" style="stop-color:#f59300" offset="0"/>
      <stop id="stop316" style="stop-color:#c25100" offset="1"/>
    </linearGradient>
    <linearGradient id="linearGradient330" y2="28.327" gradientUnits="userSpaceOnUse" x2="14.561" gradientTransform="matrix(.65672 .45688 .45688 -.65672 -.097224 15.006)" y1="28.327" x1="13.86">
      <stop id="stop332" style="stop-color:#f59300" offset="0"/>
      <stop id="stop334" style="stop-color:#c25100" offset="1"/>
    </linearGradient>
    <linearGradient id="linearGradient348" y2="31.832" gradientUnits="userSpaceOnUse" x2="24.384" gradientTransform="matrix(.66304 .4476 .4476 -.66304 -.097744 15.006)" y1="31.832" x1="23.177">
      <stop id="stop350" style="stop-color:#f59300" offset="0"/>
      <stop id="stop352" style="stop-color:#c25100" offset="1"/>
    </linearGradient>
    <linearGradient id="linearGradient366" y2="33.46" gradientUnits="userSpaceOnUse" x2="25.378" gradientTransform="matrix(.65856 .45416 .45416 -.65856 -.097592 15.006)" y1="33.46" x1="24.498">
      <stop id="stop368" style="stop-color:#f59300" offset="0"/>
      <stop id="stop370" style="stop-color:#c25100" offset="1"/>
    </linearGradient>
    <linearGradient id="linearGradient384" y2="36.572" gradientUnits="userSpaceOnUse" x2="28.427" gradientTransform="matrix(.65976 .4524 .4524 -.65976 -.096992 15.006)" y1="36.572" x1="27.366">
      <stop id="stop386" style="stop-color:#f59300" offset="0"/>
      <stop id="stop388" style="stop-color:#c25100" offset="1"/>
    </linearGradient>
    <linearGradient id="linearGradient402" y2="32.402" gradientUnits="userSpaceOnUse" x2="27.712" gradientTransform="matrix(.6592 .4532 .4532 -.6592 -.097504 15.006)" y1="32.402" x1="27.227">
      <stop id="stop404" style="stop-color:#f59300" offset="0"/>
      <stop id="stop406" style="stop-color:#c25100" offset="1"/>
    </linearGradient>
    <linearGradient id="linearGradient420" y2="33.703" gradientUnits="userSpaceOnUse" x2="28.077" gradientTransform="matrix(.65712 .45632 .45632 -.65712 -.09688 15.006)" y1="33.703" x1="26.981">
      <stop id="stop422" style="stop-color:#f59300" offset="0"/>
      <stop id="stop424" style="stop-color:#c25100" offset="1"/>
    </linearGradient>
    <linearGradient id="linearGradient438" y2="34.983" gradientUnits="userSpaceOnUse" x2="29.43" gradientTransform="matrix(.66152 .44984 .44984 -.66152 -.097232 15.006)" y1="34.983" x1="28.674">
      <stop id="stop440" style="stop-color:#f59300" offset="0"/>
      <stop id="stop442" style="stop-color:#c25100" offset="1"/>
    </linearGradient>
    <linearGradient id="linearGradient456" y2="31.923" gradientUnits="userSpaceOnUse" x2="29.607" gradientTransform="matrix(.66568 .44376 .44376 -.66568 -.097032 15.006)" y1="31.923" x1="29.246">
      <stop id="stop458" style="stop-color:#f59300" offset="0"/>
      <stop id="stop460" style="stop-color:#c25100" offset="1"/>
    </linearGradient>
    <linearGradient id="linearGradient474" y2="34.303" gradientUnits="userSpaceOnUse" x2="22.846" gradientTransform="matrix(.65816 .45472 .45472 -.65816 -.09744 15.006)" y1="34.303" x1="21.175">
      <stop id="stop476" style="stop-color:#f59300" offset="0"/>
      <stop id="stop478" style="stop-color:#c25100" offset="1"/>
    </linearGradient>
    <linearGradient id="linearGradient492" y2="36.816" gradientUnits="userSpaceOnUse" x2="25.431" gradientTransform="matrix(.66024 .45176 .45176 -.66024 -.097504 15.006)" y1="36.816" x1="24.856">
      <stop id="stop494" style="stop-color:#f59300" offset="0"/>
      <stop id="stop496" style="stop-color:#c25100" offset="1"/>
    </linearGradient>
  </defs>
  <g id="g10" transform="matrix(1.25 0 0 -1.25 0 18.756)">
    <g id="g12">
      <g id="g14">
        <g id="g16">
          <g id="g22">
            <path id="path30" style="fill-rule:evenodd;fill:url(#linearGradient24)" d="m32.184 5.966c-0.614-0.535-1.696-1.066-3.243-1.602-3.066-1.039-6.867-1.558-11.398-1.558-5.227 0-9.453 0.574-12.68 1.719-1.629 0.585-2.722 1.175-3.281 1.761 0.934 0.133 2.121 0.664 3.559 1.598 2.617 1.734 4.148 2.723 4.601 2.961 2.481 1.387 4.629 2.773 6.442 4.16 1.144-0.934 3.984-2.559 8.519-4.879 2.961-1.492 5.453-2.879 7.481-4.16z" inkscape:connector-curvature="0"/>
          </g>
        </g>
      </g>
      <g id="g32">
        <g id="g34">
          <g id="g40">
            <path id="path48" style="fill-rule:evenodd;fill:url(#linearGradient42)" d="m1.742 6.286c0.559-0.613 0.52-0.972-0.121-1.082-0.691-0.078-1.094 0.043-1.199 0.363-0.078 0.239 0.066 0.465 0.441 0.68 0.399 0.238 0.692 0.25 0.879 0.039z" inkscape:connector-curvature="0"/>
          </g>
        </g>
      </g>
      <g id="g50">
        <g id="g52">
          <g id="g58">
            <path id="path66" style="fill-rule:evenodd;fill:url(#linearGradient60)" d="m2.184 4.446c0.531-0.214 0.664-0.402 0.398-0.562-0.238-0.133-0.547-0.145-0.918-0.039-0.32 0.055-0.375 0.187-0.16 0.402 0.211 0.211 0.437 0.278 0.68 0.199z" inkscape:connector-curvature="0"/>
          </g>
        </g>
      </g>
      <g id="g68">
        <g id="g70">
          <g id="g76">
            <path id="path84" style="fill-rule:evenodd;fill:url(#linearGradient78)" d="m3.703 5.247c0.293-0.027 0.375-0.109 0.238-0.242-0.132-0.105-0.277-0.121-0.437-0.039-0.16 0.055-0.227 0.121-0.203 0.199 0.054 0.082 0.187 0.106 0.402 0.082z" inkscape:connector-curvature="0"/>
          </g>
        </g>
      </g>
      <g id="g86">
        <g id="g88">
          <g id="g94">
            <path id="path102" style="fill-rule:evenodd;fill:url(#linearGradient96)" d="m4.621 4.446c0.348-0.082 0.27-0.148-0.238-0.199-0.082 0.024-0.094 0.067-0.039 0.117 0.078 0.082 0.172 0.11 0.277 0.082z" inkscape:connector-curvature="0"/>
          </g>
        </g>
      </g>
      <g id="g104">
        <g id="g106">
          <g id="g112">
            <path id="path120" style="fill-rule:evenodd;fill:url(#linearGradient114)" d="m7.023 3.126c-0.32 0.16-0.32 0.305 0 0.441 0.293 0.133 0.559 0.161 0.801 0.079 0.16-0.079 0.664-0.106 1.52-0.079 0.453-0.054 0.664-0.253 0.64-0.601-0.027-0.16-0.054-0.359-0.082-0.602 0.106-0.078 0-0.144-0.32-0.199-0.293-0.051-0.559-0.051-0.801 0-0.183 0.027-0.32 0.121-0.398 0.281-0.082 0.161-0.133 0.254-0.16 0.282l-1.2 0.398z" inkscape:connector-curvature="0"/>
          </g>
        </g>
      </g>
      <g id="g122">
        <g id="g124">
          <g id="g130">
            <path id="path138" style="fill-rule:evenodd;fill:url(#linearGradient132)" d="m7.422 2.845c0.32-0.078 0.441-0.16 0.359-0.238-0.051-0.082-0.199-0.133-0.437-0.161-0.403-0.027-0.68 0.028-0.84 0.161-0.137 0.105-0.055 0.187 0.238 0.238 0.266 0.055 0.492 0.055 0.68 0z" inkscape:connector-curvature="0"/>
          </g>
        </g>
      </g>
      <g id="g140">
        <g id="g142">
          <g id="g148">
            <path id="path156" style="fill-rule:evenodd;fill:url(#linearGradient150)" d="m3.062 6.728c-0.32-0.161-0.585-0.231-0.8-0.203-0.371 0.054-0.532 0.109-0.481 0.16 0.055 0.109 0.121 0.187 0.203 0.242 0.161 0.16 0.36 0.211 0.598 0.16 0.402-0.082 0.563-0.203 0.48-0.359z" inkscape:connector-curvature="0"/>
          </g>
        </g>
      </g>
      <g id="g158">
        <g id="g160">
          <g id="g166">
            <path id="path174" style="fill-rule:evenodd;fill:url(#linearGradient168)" d="m0.664 5.364c-0.055-0.078-0.176-0.105-0.363-0.078-0.293 0.055-0.371 0.172-0.239 0.36 0.055 0.132 0.2 0.16 0.442 0.082 0.105 0 0.16-0.121 0.16-0.364z" inkscape:connector-curvature="0"/>
          </g>
        </g>
      </g>
      <g id="g176">
        <g id="g178">
          <g id="g184">
            <path id="path192" style="fill-rule:evenodd;fill:url(#linearGradient186)" d="m5.145 2.646c0.476-0.051 0.613-0.2 0.398-0.442-0.215-0.238-0.574-0.277-1.082-0.117-0.453 0.16-0.547 0.305-0.277 0.441 0.238 0.129 0.558 0.172 0.961 0.118z" inkscape:connector-curvature="0"/>
          </g>
        </g>
      </g>
      <g id="g194">
        <g id="g196">
          <g id="g202">
            <path id="path210" style="fill-rule:evenodd;fill:url(#linearGradient204)" d="m17.141 2.087c0-0.055-0.383-0.121-1.161-0.203-0.824-0.106-1.503-0.156-2.039-0.156-0.531 0-0.961 0.078-1.277 0.238-0.32 0.133-0.441 0.266-0.363 0.402 0.109 0.371 0.441 0.731 1 1.078 0.347 0.215 0.789 0.266 1.32 0.161 0.453-0.055 0.883-0.2 1.281-0.442 0.293-0.183 0.586-0.414 0.879-0.68 0.242-0.214 0.36-0.347 0.36-0.398z" inkscape:connector-curvature="0"/>
          </g>
        </g>
      </g>
      <g id="g212">
        <g id="g214">
          <g id="g220">
            <path id="path228" style="fill-rule:evenodd;fill:url(#linearGradient222)" d="m17.98 2.407 0.922-0.679c-0.105-0.321-0.453-0.536-1.039-0.645-0.828-0.183-1.574-0.133-2.242 0.16-0.16 0.082-0.133 0.254 0.082 0.524 0.106 0.133 0.277 0.316 0.52 0.558 0.105 0.16 0.347 0.254 0.718 0.282 0.375 0.05 0.723-0.016 1.039-0.2z" inkscape:connector-curvature="0"/>
          </g>
        </g>
      </g>
      <g id="g230">
        <g id="g232">
          <g id="g238">
            <path id="path246" style="fill-rule:evenodd;fill:url(#linearGradient240)" d="m13.383 1.525c0.238-0.051 0.465-0.184 0.679-0.399 0.188-0.215 0.215-0.375 0.079-0.48-0.106-0.106-0.438-0.149-1-0.121-0.453 0.027-0.84 0.082-1.161 0.16-0.21 0.054-0.304 0.132-0.277 0.242 0.027 0.051 0.145 0.172 0.359 0.359 0.321 0.293 0.762 0.371 1.321 0.239z" inkscape:connector-curvature="0"/>
          </g>
        </g>
      </g>
      <g id="g248">
        <g id="g250">
          <g id="g256">
            <path id="path264" style="fill-rule:evenodd;fill:url(#linearGradient258)" d="m12.422 0.525c0.105-0.106 0.094-0.184-0.039-0.239-0.293-0.133-0.707-0.148-1.242-0.043-0.317 0.11-0.184 0.321 0.402 0.641 0.133 0.109 0.293 0.121 0.48 0.043 0.184-0.082 0.321-0.215 0.399-0.402z" inkscape:connector-curvature="0"/>
          </g>
        </g>
      </g>
      <g id="g266">
        <g id="g268">
          <g id="g274">
            <path id="path282" style="fill-rule:evenodd;fill:url(#linearGradient276)" d="m23.504 2.607c0.078 0.132 0.184 0.347 0.32 0.64 0.106 0.266 0.278 0.453 0.516 0.559 0.297 0.133 0.629 0.172 1 0.121 0.375-0.055 0.656-0.176 0.84-0.36 0.215-0.242 0.496-0.429 0.843-0.562 0.157-0.051 0.332-0.211 0.52-0.48 0.16-0.239 0.199-0.387 0.117-0.442-0.105-0.078-0.371-0.156-0.797-0.238-0.453-0.106-0.84-0.172-1.16-0.199-0.027 0-0.363-0.028-1-0.082-0.375-0.024-0.656 0-0.84 0.082-0.187 0.082-0.308 0.226-0.363 0.437-0.051 0.188-0.051 0.363 0.004 0.524z" inkscape:connector-curvature="0"/>
          </g>
        </g>
      </g>
      <g id="g284">
        <g id="g286">
          <g id="g292">
            <path id="path300" style="fill-rule:evenodd;fill:url(#linearGradient294)" d="m24.062 2.165c0.293-0.051 0.575-0.238 0.84-0.558 0.266-0.293 0.309-0.493 0.121-0.602-0.585-0.238-1.082-0.359-1.48-0.359-0.668 0-1.121 0.226-1.363 0.679-0.051 0.11 0.015 0.203 0.203 0.282 0.265 0.16 0.441 0.293 0.519 0.398 0.133 0.16 0.305 0.242 0.52 0.242 0.055 0 0.266-0.027 0.64-0.082z" inkscape:connector-curvature="0"/>
          </g>
        </g>
      </g>
      <g id="g302">
        <g id="g304">
          <g id="g310">
            <path id="path318" style="fill-rule:evenodd;fill:url(#linearGradient312)" d="m21.902 0.685c0.399-0.184 0.481-0.36 0.239-0.52-0.239-0.133-0.516-0.183-0.84-0.16-0.211 0.027-0.344 0.094-0.399 0.203-0.027 0.106-0.011 0.184 0.039 0.238 0.028 0.082 0.149 0.161 0.36 0.239 0.269 0.082 0.469 0.082 0.601 0z" inkscape:connector-curvature="0"/>
          </g>
        </g>
      </g>
      <g id="g320">
        <g id="g322">
          <g id="g328">
            <path id="path336" style="fill-rule:evenodd;fill:url(#linearGradient330)" d="m22.742 3.005c0.215-0.398-0.187-0.598-1.199-0.598-0.426 0-0.469 0.2-0.121 0.598 0.187 0.16 0.414 0.254 0.68 0.281 0.32 0.028 0.535-0.066 0.64-0.281z" inkscape:connector-curvature="0"/>
          </g>
        </g>
      </g>
      <g id="g338">
        <g id="g340">
          <g id="g346">
            <path id="path354" style="fill-rule:evenodd;fill:url(#linearGradient348)" d="m31.062 4.485c-0.507-0.773-1.238-1.093-2.199-0.957-0.613 0.106-0.773 0.356-0.48 0.758 0.055 0.082 0.414 0.414 1.082 1 0.293 0.242 0.531 0.266 0.719 0.082 0.132-0.109 0.425-0.402 0.878-0.883z" inkscape:connector-curvature="0"/>
          </g>
        </g>
      </g>
      <g id="g356">
        <g id="g358">
          <g id="g364">
            <path id="path372" style="fill-rule:evenodd;fill:url(#linearGradient366)" d="m32.223 4.364c-0.133-0.613-0.535-0.918-1.2-0.918-0.429-0.027-0.656 0.067-0.683 0.282 0 0.105 0.082 0.332 0.242 0.679 0.082 0.188 0.266 0.266 0.559 0.239 0.109-0.028 0.468-0.121 1.082-0.282z" inkscape:connector-curvature="0"/>
          </g>
        </g>
      </g>
      <g id="g374">
        <g id="g376">
          <g id="g382">
            <path id="path390" style="fill-rule:evenodd;fill:url(#linearGradient384)" d="m35.344 4.005c0.078-0.027 0.199-0.133 0.359-0.32 0.16-0.211 0.211-0.387 0.16-0.52-0.082-0.211-0.816-0.265-2.199-0.16-0.375 0.055-0.508 0.137-0.402 0.242l0.402 0.36c0.051 0.187 0.238 0.332 0.559 0.441 0.398 0.156 0.773 0.144 1.121-0.043z" inkscape:connector-curvature="0"/>
          </g>
        </g>
      </g>
      <g id="g392">
        <g id="g394">
          <g id="g400">
            <path id="path408" style="fill-rule:evenodd;fill:url(#linearGradient402)" d="m32.824 5.646c-0.402 0.132-0.668 0.238-0.801 0.32l-0.48 0.48 0.117 0.161c0.16 0.078 0.363 0.078 0.602 0 0.398-0.161 0.707-0.403 0.918-0.723 0.402-0.289 0.496-0.438 0.281-0.438-0.051 0-0.266 0.067-0.637 0.2z" inkscape:connector-curvature="0"/>
          </g>
        </g>
      </g>
      <g id="g410">
        <g id="g412">
          <g id="g418">
            <path id="path426" style="fill-rule:evenodd;fill:url(#linearGradient420)" d="m33.223 4.767c-0.215 0-0.52 0.05-0.922 0.16-0.399 0.078-0.625 0.144-0.68 0.199-0.027 0.027 0.027 0.094 0.16 0.199 0.055 0.028 0.121 0.067 0.199 0.121 0.161 0.239 0.375 0.414 0.641 0.52 0.27 0.105 0.52 0.105 0.762 0 0.32-0.16 0.707-0.441 1.16-0.84-0.586-0.242-1.027-0.359-1.32-0.359z" inkscape:connector-curvature="0"/>
          </g>
        </g>
      </g>
      <g id="g428">
        <g id="g430">
          <g id="g436">
            <path id="path444" style="fill-rule:evenodd;fill:url(#linearGradient438)" d="m35.102 5.325c0.48-0.347 0.64-0.586 0.48-0.718-0.133-0.082-0.668-0.094-1.602-0.04-0.289 0.024-0.398 0.106-0.316 0.239l0.277 0.281c0.082 0.105 0.215 0.199 0.403 0.281 0.293 0.106 0.547 0.09 0.758-0.043z" inkscape:connector-curvature="0"/>
          </g>
        </g>
      </g>
      <g id="g446">
        <g id="g448">
          <g id="g454">
            <path id="path462" style="fill-rule:evenodd;fill:url(#linearGradient456)" d="m33.621 7.087c0.133-0.055 0.254-0.137 0.359-0.242 0.11-0.133 0.11-0.227 0-0.278-0.156-0.082-0.464-0.027-0.918 0.161-0.132 0.023-0.093 0.105 0.118 0.238 0.187 0.133 0.336 0.172 0.441 0.121z" inkscape:connector-curvature="0"/>
          </g>
        </g>
      </g>
      <g id="g464">
        <g id="g466">
          <g id="g472">
            <path id="path480" style="fill-rule:evenodd;fill:url(#linearGradient474)" d="m30.98 3.087c0.696-0.746 0.911-1.187 0.645-1.32-0.187-0.106-0.59-0.227-1.203-0.36-0.664-0.132-1.199-0.199-1.598-0.199-0.32 0.024-0.656 0.133-1 0.32l-0.441 0.278 0.558 0.879c0.082 0.16 0.309 0.359 0.684 0.601 0.371 0.293 0.68 0.453 0.918 0.481 0.215 0.027 0.465-0.039 0.758-0.2 0.16-0.109 0.387-0.269 0.679-0.48z" inkscape:connector-curvature="0"/>
          </g>
        </g>
      </g>
      <g id="g482">
        <g id="g484">
          <g id="g490">
            <path id="path498" style="fill-rule:evenodd;fill:url(#linearGradient492)" d="m33.141 2.286c0.453-0.105 0.64-0.242 0.562-0.402-0.082-0.133-0.265-0.211-0.562-0.238-0.399-0.079-0.692-0.028-0.879 0.16-0.106 0.078-0.051 0.199 0.16 0.359 0.242 0.16 0.48 0.199 0.719 0.121z" inkscape:connector-curvature="0"/>
          </g>
        </g>
      </g>
      <path id="path500" style="fill-rule:evenodd;fill:#a65000" d="m26.141 7.525c0.242-0.293 0.363-0.481 0.363-0.559 0-0.055-0.043-0.149-0.121-0.281-0.028-0.188-0.227-0.293-0.602-0.321-0.371 0-0.597 0.176-0.679 0.52-0.079 0.48-0.04 0.828 0.121 1.043 0.187 0.238 0.492 0.105 0.918-0.402z" inkscape:connector-curvature="0"/>
      <path id="path502" style="fill-rule:evenodd;fill:#a65000" d="m28.582 7.286c0.613-0.293 0.785-0.613 0.52-0.961-0.133-0.187-0.36-0.187-0.68 0-0.32 0.188-0.492 0.403-0.52 0.641-0.054 0.535 0.172 0.641 0.68 0.32z" inkscape:connector-curvature="0"/>
      <path id="path504" style="fill-rule:evenodd;fill:#a65000" d="m29.98 6.646c0.215-0.188 0.321-0.293 0.321-0.321 0.054-0.05 0.043-0.117-0.039-0.199-0.16-0.16-0.371-0.121-0.641 0.121-0.16 0.106-0.16 0.227 0 0.36 0.133 0.132 0.254 0.144 0.359 0.039z" inkscape:connector-curvature="0"/>
      <path id="path506" style="fill-rule:evenodd;fill:#a65000" d="m23.621 10.005c0.188-0.16 0.293-0.332 0.32-0.52 0.028-0.238-0.078-0.398-0.32-0.48-0.211-0.105-0.387-0.055-0.519 0.16-0.106 0.293-0.2 0.52-0.278 0.68-0.109 0.215-0.07 0.336 0.117 0.359 0.188 0.055 0.414-0.012 0.68-0.199z" inkscape:connector-curvature="0"/>
      <path id="path508" style="fill-rule:evenodd;fill:#a65000" d="m25.383 9.446c0.426-0.375 0.547-0.668 0.359-0.879-0.16-0.242-0.441-0.082-0.84 0.477-0.187 0.188-0.199 0.348-0.039 0.481 0.16 0.109 0.332 0.082 0.52-0.079z" inkscape:connector-curvature="0"/>
      <path id="path510" style="fill-rule:evenodd;fill:#a65000" d="m26.941 6.607c0.243-0.188 0.387-0.403 0.442-0.641 0.055-0.266-0.055-0.414-0.321-0.441-0.265-0.028-0.437 0.066-0.519 0.281-0.105 0.215-0.105 0.398 0 0.558 0.133 0.293 0.266 0.375 0.398 0.243z" inkscape:connector-curvature="0"/>
      <path id="path512" style="fill-rule:evenodd;fill:#a65000" d="m20.023 12.204c0.211-0.16 0.317-0.332 0.317-0.519 0.027-0.211-0.09-0.36-0.36-0.438-0.238-0.082-0.437 0.028-0.597 0.32-0.137 0.239-0.203 0.504-0.203 0.797 0.004 0.348 0.281 0.297 0.843-0.16z" inkscape:connector-curvature="0"/>
      <path id="path514" style="fill-rule:evenodd;fill:#a65000" d="m18.664 12.685c0.106-0.133 0.16-0.266 0.16-0.399-0.027-0.105-0.082-0.187-0.16-0.242-0.109-0.051-0.215 0-0.32 0.16-0.137 0.137-0.203 0.27-0.203 0.403 0 0.132 0.066 0.199 0.203 0.199 0.105 0.027 0.211-0.012 0.32-0.121z" inkscape:connector-curvature="0"/>
      <path id="path516" style="fill-rule:evenodd;fill:#a65000" d="m22.941 8.126c0.403-0.773 0.254-1.242-0.437-1.398-0.215-0.055-0.336 0.066-0.363 0.359 0 0.078 0.015 0.371 0.043 0.879 0 0.238 0.105 0.371 0.32 0.398 0.184 0.055 0.332-0.023 0.437-0.238z" inkscape:connector-curvature="0"/>
      <path id="path518" style="fill-rule:evenodd;fill:#a65000" d="m24.023 7.044c0.211-0.238 0.266-0.504 0.157-0.797-0.024-0.109-0.133-0.133-0.317-0.082-0.187 0.055-0.336 0.199-0.441 0.442-0.082 0.238-0.012 0.398 0.199 0.48 0.188 0.051 0.32 0.039 0.402-0.043z" inkscape:connector-curvature="0"/>
      <path id="path520" style="fill-rule:evenodd;fill:#a65000" d="m22.781 5.247c0.188-0.215 0.321-0.469 0.403-0.762 0.05-0.347-0.028-0.558-0.243-0.64-0.238-0.078-0.414-0.067-0.519 0.039-0.106 0.082-0.238 0.281-0.399 0.601-0.16 0.321-0.121 0.575 0.118 0.762 0.242 0.211 0.453 0.211 0.64 0z" inkscape:connector-curvature="0"/>
      <path id="path522" style="fill-rule:evenodd;fill:#a65000" d="m20.141 5.325c0.109 0.028 0.242-0.082 0.402-0.32 0.187-0.211 0.266-0.387 0.238-0.52-0.051-0.238-0.316-0.32-0.801-0.238-0.21 0.024-0.277 0.199-0.199 0.52 0.055 0.32 0.176 0.504 0.36 0.558z" inkscape:connector-curvature="0"/>
      <path id="path524" style="fill-rule:evenodd;fill:#a65000" d="m26.621 5.087c0.16-0.16 0.254-0.32 0.281-0.48 0.028-0.215-0.039-0.36-0.199-0.442-0.265-0.133-0.519 0.039-0.762 0.52-0.078 0.187-0.039 0.347 0.121 0.48 0.188 0.106 0.376 0.082 0.559-0.078z" inkscape:connector-curvature="0"/>
      <path id="path526" style="fill-rule:evenodd;fill:#a65000" d="m27.344 8.364c0.051-0.48-0.067-0.773-0.364-0.879-0.183-0.054-0.304 0.016-0.355 0.2-0.027 0.242-0.082 0.425-0.16 0.562-0.164 0.32 0.129 0.36 0.879 0.117z" inkscape:connector-curvature="0"/>
      <path id="path528" style="fill-rule:evenodd;fill:#ffa621" d="m13.621 12.567c0.481 0.184 0.613-0.042 0.402-0.683-0.054-0.211-0.187-0.371-0.402-0.477-0.266-0.082-0.559-0.027-0.879 0.16-0.426 0.211-0.133 0.543 0.879 1z" inkscape:connector-curvature="0"/>
      <path id="path530" style="fill-rule:evenodd;fill:#ffa621" d="m12.383 11.044c0.215 0 0.332-0.094 0.359-0.277 0.028-0.16-0.039-0.293-0.199-0.403-0.242-0.183-0.441-0.117-0.602 0.203-0.16 0.317-0.011 0.477 0.442 0.477z" inkscape:connector-curvature="0"/>
      <path id="path532" style="fill-rule:evenodd;fill:#ffa621" d="m17.062 12.567c0.133-0.347 0-0.617-0.398-0.8-0.269-0.133-0.348 0.05-0.242 0.558 0.027 0.106 0.121 0.215 0.281 0.321 0.188 0.082 0.305 0.054 0.359-0.079z" inkscape:connector-curvature="0"/>
      <path id="path534" style="fill-rule:evenodd;fill:#ffa621" d="m15.383 11.286 0.441 0.121c0.024 0 0.039-0.066 0.039-0.203 0-0.293-0.133-0.41-0.402-0.359-0.133 0.027-0.199 0.094-0.199 0.199-0.028 0.109 0.015 0.188 0.121 0.242z" inkscape:connector-curvature="0"/>
      <path id="path536" style="fill-rule:evenodd;fill:#ffa621" d="m9.184 9.884c0.32 0.082 0.519 0.043 0.597-0.117 0.055-0.133 0.016-0.321-0.117-0.563-0.187-0.32-0.602-0.371-1.242-0.16-0.238 0.082-0.215 0.231 0.082 0.441 0.238 0.188 0.465 0.321 0.68 0.399z" inkscape:connector-curvature="0"/>
      <path id="path538" style="fill-rule:evenodd;fill:#ffa621" d="m10.781 10.087c0.375 0.16 0.535 0.105 0.481-0.16-0.055-0.293-0.188-0.508-0.399-0.641-0.32-0.187-0.574-0.16-0.761 0.078-0.161 0.215 0.066 0.453 0.679 0.723z" inkscape:connector-curvature="0"/>
      <path id="path540" style="fill-rule:evenodd;fill:#ffa621" d="m6.383 7.728c0.215 0.023 0.332-0.082 0.359-0.321 0.055-0.215-0.051-0.429-0.32-0.64-0.238-0.188-0.453-0.27-0.641-0.242-0.105 0-0.293 0.093-0.558 0.281-0.239 0.133-0.2 0.304 0.121 0.519 0.32 0.215 0.664 0.348 1.039 0.403z" inkscape:connector-curvature="0"/>
      <path id="path542" style="fill-rule:evenodd;fill:#ffa621" d="m7.543 8.005c0.215 0.055 0.348 0 0.398-0.16 0.055-0.133-0.023-0.293-0.238-0.481-0.187-0.132-0.336-0.199-0.441-0.199-0.078 0.055-0.16 0.082-0.239 0.082-0.132 0.028-0.132 0.145 0 0.36 0.133 0.21 0.305 0.343 0.52 0.398z" inkscape:connector-curvature="0"/>
      <path id="path544" style="fill-rule:evenodd;fill:#ffa621" d="m12.184 7.966c0.343 0.027 0.531-0.082 0.558-0.32 0.028-0.188-0.094-0.442-0.359-0.762-0.188-0.266-0.336-0.371-0.442-0.317-0.132 0.161-0.265 0.266-0.398 0.317-0.242 0.082-0.266 0.281-0.082 0.601 0.16 0.293 0.402 0.454 0.723 0.481z" inkscape:connector-curvature="0"/>
      <path id="path546" style="fill-rule:evenodd;fill:#ffa621" d="m14.742 7.646c0.16 0.027 0.293-0.039 0.399-0.2 0.136-0.132 0.175-0.242 0.121-0.32-0.078-0.187-0.348-0.226-0.801-0.121-0.211 0.027-0.293 0.133-0.238 0.32 0.078 0.16 0.254 0.266 0.519 0.321z" inkscape:connector-curvature="0"/>
      <path id="path548" style="fill-rule:evenodd;fill:#ffa621" d="m14.582 6.607c0.398-0.082 0.465-0.227 0.199-0.442-0.133-0.105-0.332-0.082-0.597 0.082-0.11 0.106-0.11 0.199 0 0.281 0.105 0.079 0.238 0.106 0.398 0.079z" inkscape:connector-curvature="0"/>
      <path id="path550" style="fill-rule:evenodd;fill:#ffa621" d="m10.902 5.364c0.536 0.188 0.813 0.067 0.84-0.359 0-0.426-0.133-0.719-0.398-0.879-0.27-0.16-0.547-0.027-0.84 0.399-0.082 0.16-0.082 0.32 0 0.48 0.078 0.187 0.211 0.309 0.398 0.359z" inkscape:connector-curvature="0"/>
      <path id="path552" style="fill-rule:evenodd;fill:#ffa621" d="m7.543 6.204c0.293 0.16 0.508 0.203 0.641 0.121 0.132-0.054 0.183-0.133 0.16-0.242-0.055-0.289-0.282-0.476-0.68-0.558-0.242-0.051-0.363 0.027-0.363 0.242 0 0.211 0.082 0.359 0.242 0.437z" inkscape:connector-curvature="0"/>
      <path id="path554" style="fill-rule:evenodd;fill:#ffa621" d="m16.703 4.767c0.641 0.027 0.664-0.2 0.078-0.684-0.105-0.078-0.199-0.105-0.277-0.078-0.055 0.078-0.109 0.133-0.16 0.16-0.082 0.051-0.094 0.16-0.043 0.32 0.082 0.188 0.215 0.282 0.402 0.282z" inkscape:connector-curvature="0"/>
      <path id="path556" style="fill-rule:evenodd;fill:#ffa621" d="m13.781 3.446c0.266-0.027 0.414-0.187 0.442-0.48 0-0.293-0.149-0.508-0.442-0.641-0.238-0.133-0.386-0.16-0.437-0.082-0.055 0.16-0.137 0.297-0.242 0.403-0.106 0.16-0.067 0.347 0.121 0.558 0.215 0.215 0.398 0.293 0.558 0.242z" inkscape:connector-curvature="0"/>
      <path id="path558" style="fill-rule:evenodd;fill:#ffa621" d="m16.543 2.325c0.105-0.054 0.187-0.148 0.238-0.281 0.082-0.16 0.082-0.293 0-0.398-0.078-0.133-0.16-0.176-0.238-0.121-0.105 0.109-0.227 0.214-0.359 0.32-0.188 0.16-0.215 0.293-0.082 0.398 0.132 0.137 0.281 0.164 0.441 0.082z" inkscape:connector-curvature="0"/>
      <path id="path560" style="fill-rule:evenodd;fill:#ffa621" d="m24.504 3.607c0.398 0.05 0.586-0.082 0.558-0.403 0-0.293-0.093-0.547-0.281-0.758-0.133-0.16-0.293-0.175-0.48-0.039-0.16 0.106-0.293 0.239-0.399 0.399-0.054 0.133-0.039 0.281 0.039 0.441 0.11 0.211 0.293 0.332 0.563 0.36z" inkscape:connector-curvature="0"/>
      <path id="path562" style="fill-rule:evenodd;fill:#ffa621" d="m1.062 6.204c0.188 0.055 0.239-0.051 0.161-0.32-0.078-0.238-0.227-0.344-0.442-0.317-0.211 0.028-0.265 0.133-0.16 0.317 0.109 0.137 0.254 0.242 0.441 0.32z" inkscape:connector-curvature="0"/>
      <path id="path564" style="fill-rule:evenodd;fill:#ffa621" d="m1.941 4.286c0.137 0 0.176-0.054 0.121-0.16-0.054-0.082-0.16-0.121-0.32-0.121-0.265 0-0.199 0.094 0.199 0.281z" inkscape:connector-curvature="0"/>
      <path id="path566" style="fill-rule:evenodd;fill:#ffa621" d="m7.262 3.485c0.105-0.027 0.172-0.078 0.199-0.16 0-0.078-0.094-0.117-0.277-0.117-0.161 0-0.215 0.051-0.161 0.16 0.079 0.106 0.161 0.145 0.239 0.117z" inkscape:connector-curvature="0"/>
      <path id="path568" style="fill-rule:evenodd;fill:#ffa621" d="m8.742 3.364c0.16-0.023 0.281-0.117 0.36-0.281 0.054-0.133 0.015-0.25-0.122-0.355-0.105-0.082-0.21-0.082-0.316 0-0.137 0.132-0.269 0.25-0.402 0.355-0.188 0.188-0.028 0.281 0.48 0.281z" inkscape:connector-curvature="0"/>
      <path id="path570" style="fill-rule:evenodd;fill:#ffa621" d="m23.262 1.767c0.133 0 0.215-0.094 0.242-0.282 0.023-0.16 0.012-0.281-0.043-0.359-0.133-0.187-0.438-0.121-0.918 0.199-0.215 0.133-0.215 0.242 0 0.321 0.16 0.082 0.398 0.121 0.719 0.121z" inkscape:connector-curvature="0"/>
      <path id="path572" style="fill-rule:evenodd;fill:#ffa621" d="m28.461 2.845c0.16 0.055 0.32-0.028 0.48-0.238 0.188-0.215 0.27-0.415 0.243-0.602 0-0.16-0.149-0.266-0.442-0.32-0.265-0.024-0.508 0-0.719 0.082-0.187 0.05-0.226 0.226-0.121 0.519 0.106 0.293 0.293 0.481 0.559 0.559z" inkscape:connector-curvature="0"/>
      <path id="path574" style="fill-rule:evenodd;fill:#ffa621" d="m29.141 4.646c0.242 0 0.308-0.118 0.203-0.36-0.055-0.16-0.176-0.254-0.364-0.281-0.183 0-0.316 0.039-0.398 0.121-0.051 0.078-0.012 0.188 0.121 0.32 0.133 0.133 0.277 0.2 0.438 0.2z" inkscape:connector-curvature="0"/>
      <path id="path576" style="fill-rule:evenodd;fill:#ffa621" d="m30.781 4.407c0.11 0.024 0.199 0 0.281-0.082 0.083-0.082 0.122-0.172 0.122-0.281 0-0.238-0.204-0.332-0.602-0.277-0.16 0.027-0.199 0.117-0.121 0.277 0.055 0.188 0.16 0.309 0.32 0.363z" inkscape:connector-curvature="0"/>
      <path id="path578" style="fill-rule:evenodd;fill:#ffa621" d="m34.023 3.728c0.157 0.023 0.266-0.028 0.317-0.161 0.055-0.082 0.043-0.16-0.039-0.242-0.051-0.054-0.172-0.082-0.36-0.082l-0.238 0.043v0.199c0.051 0.133 0.16 0.215 0.32 0.243z" inkscape:connector-curvature="0"/>
      <path id="path580" style="fill-rule:evenodd;fill:#ffa621" d="m34.301 5.126c0.109 0.027 0.176-0.016 0.203-0.121 0.023-0.078 0-0.16-0.082-0.238-0.082-0.11-0.254-0.121-0.52-0.039-0.105 0.023-0.093 0.089 0.039 0.199 0.11 0.105 0.227 0.172 0.36 0.199z" inkscape:connector-curvature="0"/>
      <path id="path582" style="fill-rule:evenodd;fill:#ffa621" d="m32.461 5.685c0.133 0.082 0.242 0.015 0.32-0.2 0.055-0.238 0.043-0.398-0.039-0.48-0.054-0.051-0.133-0.039-0.242 0.039l-0.238 0.242c-0.16 0.078-0.094 0.211 0.199 0.399z" inkscape:connector-curvature="0"/>
      <path id="path584" style="fill-rule:evenodd;fill:#ffa621" d="m32.262 6.364c0.133-0.238 0.133-0.347 0-0.32-0.133 0.055-0.239 0.148-0.321 0.281-0.05 0.082-0.011 0.121 0.121 0.121 0.106 0 0.172-0.027 0.2-0.082z" inkscape:connector-curvature="0"/>
      <path id="path586" style="fill-rule:evenodd;fill:#ffa621" d="m12.504 1.485c0.211 0 0.332-0.011 0.359-0.039 0.028-0.027 0.051-0.105 0.078-0.242 0.082-0.133 0.094-0.211 0.039-0.238-0.05-0.027-0.25 0-0.597 0.078-0.321 0.082-0.414 0.176-0.281 0.281 0.105 0.106 0.242 0.16 0.402 0.16z" inkscape:connector-curvature="0"/>
      <path id="path588" style="fill-rule:evenodd;fill:#ffa621" d="m11.664 0.767c0.16-0.028 0.172-0.082 0.039-0.16-0.133-0.079-0.281-0.094-0.441-0.04-0.16 0.024-0.172 0.079-0.039 0.161 0.132 0.05 0.281 0.066 0.441 0.039z" inkscape:connector-curvature="0"/>
    </g>
  </g>
<metadata><rdf:RDF><cc:Work><dc:format>image/svg+xml</dc:format><dc:type rdf:resource="http://purl.org/dc/dcmitype/StillImage"/><cc:license rdf:resource="http://creativecommons.org/licenses/publicdomain/"/><dc:publisher><cc:Agent rdf:about="http://openclipart.org/"><dc:title>Openclipart</dc:title></cc:Agent></dc:publisher></cc:Work><cc:License rdf:about="http://creativecommons.org/licenses/publicdomain/"><cc:permits rdf:resource="http://creativecommons.org/ns#Reproduction"/><cc:permits rdf:resource="http://creativecommons.org/ns#Distribution"/><cc:permits rdf:resource="http://creativecommons.org/ns#DerivativeWorks"/></cc:License></rdf:RDF></metadata></svg>
