<?xml version="1.0" encoding="UTF-8" standalone="no"?>
<!-- Created with Serif DrawPlus 11, 0, 0, 18 (Mar 20, 15:09:53) (http://www.serif.com) -->
<svg xmlns:inkscape="http://www.inkscape.org/namespaces/inkscape" xmlns:rdf="http://www.w3.org/1999/02/22-rdf-syntax-ns#" xmlns="http://www.w3.org/2000/svg" xmlns:sodipodi="http://sodipodi.sourceforge.net/DTD/sodipodi-0.dtd" xmlns:cc="http://creativecommons.org/ns#" xmlns:xlink="http://www.w3.org/1999/xlink" xmlns:dc="http://purl.org/dc/elements/1.1/" id="svg2" viewBox="0 0 297.90455 443.01674" version="1.1" inkscape:version="0.48.3.1 r9886" sodipodi:docname="_svgclean2.svg">
  <defs id="defs64">
    <linearGradient id="linearGradient4244" y2="657.31" gradientUnits="userSpaceOnUse" x2="383.06" y1="127.46" x1="367.09" inkscape:collect="always">
      <stop id="stop4238" style="stop-color:#008000" offset="0"/>
      <stop id="stop4240" style="stop-color:#008000;stop-opacity:0" offset="1"/>
    </linearGradient>
    <linearGradient id="linearGradient3102" y2="657.31" xlink:href="#linearGradient4244" gradientUnits="userSpaceOnUse" x2="383.06" y1="127.46" x1="367.09" inkscape:collect="always"/>
  </defs>
  <sodipodi:namedview id="namedview62" bordercolor="#666666" inkscape:pageshadow="2" guidetolerance="10" pagecolor="#ffffff" gridtolerance="10" inkscape:zoom="0.79220101" inkscape:window-maximized="0" objecttolerance="10" inkscape:window-height="766" showgrid="false" borderopacity="1" inkscape:current-layer="svg2" inkscape:cx="157.28545" inkscape:cy="172.27609" inkscape:window-y="0" inkscape:window-x="683" inkscape:window-width="681" inkscape:pageopacity="0"/>
  <g id="g4360" transform="translate(-48.003 -97.853)">
    <g id="dp_group001" transform="matrix(.76798 0 0 .76798 -97.416 11.512)">
      <g id="dp_group002">
        <path id="dp_path003" d="m292.5 667.96 4.564-37.583 3.647-29.833-5.831 28.981-2.288 42.232-0.092-3.797z" style="fill-rule:evenodd;stroke:#97e987;stroke-width:1.3333;fill:#224928" inkscape:connector-curvature="0"/>
        <path id="dp_path004" d="m294.14 671.23s-34.369-48.116-34.369-48.116l-13.747 29.082 14.276-21.15s36.484 44.944 36.484 44.944l-2.644-4.76z" style="fill-rule:evenodd;stroke:#97e987;stroke-width:1.3333;fill:#224928" inkscape:connector-curvature="0"/>
        <path id="dp_path005" d="m294.14 675.46-20.621-48.645-16.391-38.599 17.977 35.956s19.6 52.092 19.6 52.092l-0.565-0.804z" style="fill-rule:evenodd;stroke:#97e987;stroke-width:1.3333;fill:#224928" inkscape:connector-curvature="0"/>
        <path id="dp_path006" d="m295.2 674.93s-2.768-15.411-8.46-37.012c-5.69-21.603-14.805-51.288-14.805-51.288" style="fill-rule:evenodd;stroke:#97e987;stroke-width:1.3333;fill:#224928" inkscape:connector-curvature="0"/>
        <path id="dp_path007" d="m294.67 668.59s20.622-48.646 20.622-48.646l16.39-38.598-17.977 35.954-20.621 56.576 1.586-5.286z" style="fill-rule:evenodd;stroke:#97e987;stroke-width:1.3333;fill:#224928" inkscape:connector-curvature="0"/>
        <path id="dp_path008" d="m295.2 669.82 20.62-37.248 16.392-29.556-17.978 27.532s-20.621 43.322-20.621 43.322l1.587-4.05z" style="fill-rule:evenodd;stroke:#97e987;stroke-width:1.3333;fill:#224928" inkscape:connector-curvature="0"/>
        <path id="dp_path009" d="m292.03 666.7s-20.621-31.966-20.621-31.966-16.391-25.364-16.391-25.364l17.978 23.628s20.62 37.177 20.62 37.177-1.586-3.475-1.586-3.475z" style="fill-rule:evenodd;stroke:#97e987;stroke-width:1.3333;fill:#224928" inkscape:connector-curvature="0"/>
        <path id="dp_path010" d="m290.84 664.8-9.816-33.657-7.815-26.716 9.828 25.803 8.252 38.008-0.449-3.438z" style="fill-rule:evenodd;stroke:#97e987;stroke-width:1.3333;fill:#224928" inkscape:connector-curvature="0"/>
        <path id="dp_path011" d="m292.78 671.24s6.291-8.324 16.79-19.321c10.5-10.998 26.129-25.634 26.129-25.634" style="fill-rule:evenodd;stroke:#97e987;stroke-width:1.3333;fill:#224928" inkscape:connector-curvature="0"/>
        <path id="dp_path012" d="m296.44 667.36 34.72-31.553 13.747 18.321s-14.301-14.818-14.301-14.818l-36.958 30.709 2.792-2.659z" style="fill-rule:evenodd;stroke:#97e987;stroke-width:1.3333;fill:#224928" inkscape:connector-curvature="0"/>
        <path id="dp_path013" d="m294.35 671.78 9.179-36.852 7.31-29.25-9.373 28.124-7.495 41.771 0.379-3.793z" style="fill-rule:evenodd;stroke:#97e987;stroke-width:1.3333;fill:#224928" inkscape:connector-curvature="0"/>
        <path id="dp_path014" d="m294.67 668.06s-0.529-96.76-0.529-96.76l-0.529-45.473s2.29 44.755 2.29 44.755l-1.232 102.24" style="fill-rule:evenodd;stroke:#97e987;stroke-width:1.3333;fill:#224928" inkscape:connector-curvature="0"/>
        <path id="dp_path015" d="m295.9 561.14-1.329-35.361s-0.961 1.038-0.961 4.804c0 3.768 0.164 30.424 0.164 30.424l2.126 0.133z" style="fill-rule:evenodd;stroke:#97e987;stroke-width:1.3333;fill:#224928" inkscape:connector-curvature="0"/>
        <path id="dp_path016" d="m292.09 666.49-2.947-39.245s12.211 14.053 12.211 14.053l-10.51-11s1.94 39.699 1.94 39.699l-0.689-3.499z" style="fill-rule:evenodd;stroke:#97e987;stroke-width:1.3333;fill:#224928" inkscape:connector-curvature="0"/>
        <path id="dp_path017" d="m294.23 678.32-1.708-52.808s-1.381-41.91-1.381-41.91l3.813 40.017s-0.485 55.655-0.485 55.655-0.239-0.954-0.239-0.954z" style="fill-rule:evenodd;stroke:#97e987;stroke-width:1.3333;fill:#224928" inkscape:connector-curvature="0"/>
        <path id="dp_path018" d="m264.14 678s0.505-0.418 1.36-1.013c2.325-1.62 7.229-4.54 11.509-3.831 5.849 0.968-4.68-3.876 9.36-3.392 14.039 0.486 17.549-0.484 19.889 1.454s15.21-6.782 15.21-1.454c0 5.33 0 8.236-7.02 8.236-7.019 0-8.19-0.969-24.57 0.97-16.38 1.94-25.74-0.97-25.74-0.97z" style="fill-rule:evenodd;stroke:#97e987;stroke-width:1.3333;fill:#224928" inkscape:connector-curvature="0"/>
        <path id="dp_path019" d="m274.63 676.3c-0.665-0.67-1.995-5.696-1.995-5.025 0 0.669 5.986 6.7 5.32 5.695-0.665-1.004 0.332-9.38 0.998-5.026 0.665 4.356 3.99 3.351 3.99 2.011s1.663-8.04 1.995-6.365c0.332 1.674 0 7.705 1.663 5.36 1.662-2.346 4.322-5.36 4.988-3.015 0.665 2.345 0.997 5.695 3.325 3.685 0.34-0.293 0.868-0.753 1.448-1.214 0.979-0.778 2.107-1.558 2.732-1.558 0.997 0 5.131-2.661 5.131-2.253" style="fill-rule:evenodd;stroke:#97e987;stroke-width:1.3333;fill:#224928" inkscape:connector-curvature="0"/>
        <path id="dp_path020" d="m308.32 669.14c-1.006 0.678-6.377 5.43-4.364 4.073 2.015-1.357 12.086-7.807 12.086-7.128s-2.686 5.431-2.686 5.431-11.414-1.358-12.085-1.019c-0.671 0.34 0 0 0 0" style="fill-rule:evenodd;stroke:#97e987;stroke-width:1.3333;fill:#224928" inkscape:connector-curvature="0"/>
      </g>
      <g id="dp_group021">
        <path id="dp_path022" d="m490.16 645.27-8.52-70.161-6.808-55.695 10.884 54.104 4.272 78.84s0.172-7.088 0.172-7.088z" style="fill-rule:evenodd;stroke:#71c560;stroke-width:.66667;stroke-dasharray:1.6, 1.6;fill:#6dc97b" inkscape:connector-curvature="0"/>
        <path id="dp_path023" d="m487.1 651.36s64.162-89.826 64.162-89.826l25.664 54.29s-26.652-39.484-26.652-39.484-68.11 83.904-68.11 83.904 4.936-8.884 4.936-8.884z" style="fill-rule:evenodd;stroke:#71c560;stroke-width:.66667;stroke-dasharray:1.6, 1.6;fill:#4fff69" inkscape:connector-curvature="0"/>
        <path id="dp_path024" d="m487.1 659.26s38.497-90.813 38.497-90.813 30.6-72.059 30.6-72.059-33.561 67.124-33.561 67.124-36.592 97.25-36.592 97.25 1.056-1.502 1.056-1.502z" style="fill-rule:evenodd;stroke:#71c560;stroke-width:.66667;stroke-dasharray:1.6, 1.6;fill:#4a9855" inkscape:connector-curvature="0"/>
        <path id="dp_path025" d="m485.13 658.28s5.168-28.772 15.794-69.098c10.625-40.329 27.638-95.749 27.638-95.749" style="fill-rule:evenodd;stroke:#71c560;stroke-width:.66667;stroke-dasharray:1.6, 1.6;fill:#eece4e" inkscape:connector-curvature="0"/>
        <path id="dp_path026" d="m486.12 646.43-38.498-90.813s-30.6-72.059-30.6-72.059 33.562 67.123 33.562 67.123l38.497 105.62-2.961-9.872z" style="fill-rule:evenodd;stroke:#71c560;stroke-width:.66667;stroke-dasharray:1.6, 1.6;fill:#4fff69" inkscape:connector-curvature="0"/>
        <path id="dp_path027" d="m485.13 648.74s-38.497-69.538-38.497-69.538-30.6-55.176-30.6-55.176 33.561 51.398 33.561 51.398l38.497 80.874-2.961-7.558z" style="fill-rule:evenodd;stroke:#71c560;stroke-width:.66667;stroke-dasharray:1.6, 1.6;fill:#4fff69" inkscape:connector-curvature="0"/>
        <path id="dp_path028" d="m491.05 642.9s38.497-59.677 38.497-59.677l30.6-47.354s-33.561 44.111-33.561 44.111-38.498 69.407-38.498 69.407 2.962-6.487 2.962-6.487z" style="fill-rule:evenodd;stroke:#71c560;stroke-width:.66667;stroke-dasharray:1.6, 1.6;fill:#4fff69" inkscape:connector-curvature="0"/>
        <path id="dp_path029" d="m493.28 639.36 18.324-62.833 14.59-49.876s-18.35 48.17-18.35 48.17l-15.406 70.955 0.842-6.416z" style="fill-rule:evenodd;stroke:#71c560;stroke-width:.66667;stroke-dasharray:1.6, 1.6;fill:#4fff69" inkscape:connector-curvature="0"/>
        <path id="dp_path030" d="m489.65 651.38s-11.742-15.54-31.344-36.069c-19.601-20.532-48.778-47.855-48.778-47.855" style="fill-rule:evenodd;stroke:#71c560;stroke-width:.66667;stroke-dasharray:1.6, 1.6;fill:#eece4e" inkscape:connector-curvature="0"/>
        <path id="dp_path031" d="m482.82 644.14-64.817-58.906s-25.665 34.203-25.665 34.203 26.7-27.663 26.7-27.663l68.994 57.328-5.212-4.962z" style="fill-rule:evenodd;stroke:#71c560;stroke-width:.66667;stroke-dasharray:1.6, 1.6;fill:#4fff69" inkscape:connector-curvature="0"/>
        <path id="dp_path032" d="m486.72 652.39s-17.136-68.797-17.136-68.797-13.648-54.605-13.648-54.605 17.497 52.504 17.497 52.504 13.992 77.981 13.992 77.981-0.705-7.083-0.705-7.083z" style="fill-rule:evenodd;stroke:#71c560;stroke-width:.66667;stroke-dasharray:1.6, 1.6;fill:#4fff69" inkscape:connector-curvature="0"/>
        <path id="dp_path033" d="m486.12 645.44 0.987-180.64 0.986-84.89s-4.276 83.55-4.276 83.55l2.303 190.87" style="fill-rule:evenodd;stroke:#71c560;stroke-width:.66667;stroke-dasharray:1.6, 1.6;fill:#9be0a5" inkscape:connector-curvature="0"/>
        <path id="dp_path034" d="m483.81 445.84s2.483-66.015 2.483-66.015 1.793 1.939 1.793 8.97c0 7.033-0.305 56.797-0.305 56.797l-3.971 0.248z" style="fill-rule:evenodd;stroke:#71c560;stroke-width:.66667;stroke-dasharray:1.6, 1.6;fill:#96a698" inkscape:connector-curvature="0"/>
        <path id="dp_path035" d="m490.93 642.52 5.503-73.267s-22.797 26.236-22.797 26.236l19.63-20.551s-3.621 74.114-3.621 74.114l1.285-6.532z" style="fill-rule:evenodd;stroke:#71c560;stroke-width:.66667;stroke-dasharray:1.6, 1.6;fill:#55db69" inkscape:connector-curvature="0"/>
        <path id="dp_path036" d="m486.94 664.61 3.189-98.585 2.58-78.244-7.121 74.706 0.908 103.9 0.444-1.779z" style="fill-rule:evenodd;stroke:#71c560;stroke-width:.66667;stroke-dasharray:1.6, 1.6;fill:#4fff69" inkscape:connector-curvature="0"/>
        <path id="dp_path037" d="m543.13 664s-0.945-0.782-2.54-1.892c-4.341-3.023-13.499-8.475-21.487-7.152-10.921 1.809 8.738-7.235-17.473-6.331s-32.764-0.904-37.132 2.713c-4.368 3.618-28.395-12.661-28.395-2.713s0 15.375 13.106 15.375c13.105 0 15.29-1.808 45.869 1.809 30.58 3.62 48.05-1.81 48.05-1.81z" style="fill-rule:evenodd;stroke:#71c560;stroke-width:.66667;stroke-dasharray:1.6, 1.6;fill:#ae5511" inkscape:connector-curvature="0"/>
        <path id="dp_path038" d="m523.53 660.84c1.242-1.251 3.726-10.633 3.726-9.381 0 1.25-11.175 12.508-9.934 10.632 1.242-1.876-0.62-17.512-1.862-9.382-1.242 8.131-7.45 6.255-7.45 3.754 0-2.503-3.104-15.012-3.724-11.884-0.621 3.126 0 14.385-3.104 10.006-3.104-4.378-8.069-10.006-9.312-5.629-1.241 4.379-1.862 10.633-6.208 6.88-0.633-0.548-1.62-1.405-2.704-2.267-1.826-1.45-3.932-2.908-5.1-2.908-1.862 0-9.577-4.968-9.577-4.206" style="fill-rule:evenodd;stroke:#71c560;stroke-width:.66667;stroke-dasharray:1.6, 1.6;fill:#11ae50" inkscape:connector-curvature="0"/>
        <path id="dp_path039" d="m460.64 647.45c1.88 1.268 11.906 10.139 8.146 7.604-3.76-2.534-22.561-14.573-22.561-13.306 0 1.268 5.013 10.138 5.013 10.138s21.31-2.534 22.562-1.901c1.253 0.633 0 0 0 0" style="fill-rule:evenodd;stroke:#71c560;stroke-width:.66667;stroke-dasharray:1.6, 1.6;fill:#6ed33c" inkscape:connector-curvature="0"/>
      </g>
      <g id="dp_group040">
        <path id="dp_path041" d="m363.74 645.26 17.092-140.75 13.659-111.73-21.835 108.54-8.569 158.16-0.347-14.221z" style="fill-rule:evenodd;stroke:#3cb923;stroke-width:.66667;fill:#6dc97b" inkscape:connector-curvature="0"/>
        <path id="dp_path042" d="m369.88 657.49s-128.71-180.2-128.71-180.2l-51.484 108.91 53.465-79.208s136.64 168.32 136.64 168.32l-9.903-17.823z" style="fill-rule:evenodd;stroke:#3cb923;stroke-width:.66667;fill:#4fff69" inkscape:connector-curvature="0"/>
        <path id="dp_path043" d="m369.88 673.33-77.228-182.18-61.386-144.56 67.328 134.66 73.405 195.09s-2.119-3.011-2.119-3.011z" style="fill-rule:evenodd;stroke:#3cb923;stroke-width:.66667;fill:#4a9855" inkscape:connector-curvature="0"/>
        <path id="dp_path044" d="m373.84 671.35s-10.368-57.72-31.683-138.62c-21.32-80.9-55.45-192.08-55.45-192.08" style="fill-rule:evenodd;stroke:#3cb923;stroke-width:.66667;fill:#eece4e" inkscape:connector-curvature="0"/>
        <path id="dp_path045" d="m371.86 647.59 77.229-182.18 61.386-144.56-67.327 134.66-77.229 211.88 5.941-19.802z" style="fill-rule:evenodd;stroke:#3cb923;stroke-width:.66667;fill:#4fff69" inkscape:connector-curvature="0"/>
        <path id="dp_path046" d="m373.84 652.23 77.228-139.5 61.387-110.69-67.328 103.11-77.228 162.24 5.941-15.164z" style="fill-rule:evenodd;stroke:#3cb923;stroke-width:.66667;fill:#4fff69" inkscape:connector-curvature="0"/>
        <path id="dp_path047" d="m361.96 640.52-77.23-119.72s-61.385-94.995-61.385-94.995 67.326 88.49 67.326 88.49l77.23 139.24-5.942-13.013z" style="fill-rule:evenodd;stroke:#3cb923;stroke-width:.66667;fill:#4fff69" inkscape:connector-curvature="0"/>
        <path id="dp_path048" d="m357.5 633.41-36.76-126.05-29.269-100.05 36.812 96.632 30.904 142.34-1.687-12.871z" style="fill-rule:evenodd;stroke:#3cb923;stroke-width:.66667;fill:#4fff69" inkscape:connector-curvature="0"/>
        <path id="dp_path049" d="m364.76 657.51s23.558-31.175 62.878-72.359c39.322-41.189 97.856-96.001 97.856-96.001" style="fill-rule:evenodd;stroke:#3cb923;stroke-width:.66667;fill:#eece4e" inkscape:connector-curvature="0"/>
        <path id="dp_path050" d="m378.47 642.98 130.03-118.17s51.484 68.615 51.484 68.615-53.562-55.495-53.562-55.495l-138.41 115.01 10.456-9.957z" style="fill-rule:evenodd;stroke:#3cb923;stroke-width:.66667;fill:#4fff69" inkscape:connector-curvature="0"/>
        <path id="dp_path051" d="m370.64 659.54 34.377-138.01 27.38-109.54-35.102 105.33-28.07 156.44 1.415-14.208z" style="fill-rule:evenodd;stroke:#3cb923;stroke-width:.66667;fill:#4fff69" inkscape:connector-curvature="0"/>
        <path id="dp_path052" d="m371.86 645.61s-1.982-362.38-1.982-362.38l-1.978-170.3 8.577 167.61-4.617 382.89" style="fill-rule:evenodd;stroke:#3cb923;stroke-width:.66667;fill:#9be0a5" inkscape:connector-curvature="0"/>
        <path id="dp_path053" d="m376.48 245.19-4.979-132.43s-3.598 3.888-3.598 17.993c0 14.11 0.612 113.94 0.612 113.94l7.965 0.497z" style="fill-rule:evenodd;stroke:#3cb923;stroke-width:.66667;fill:#96a698" inkscape:connector-curvature="0"/>
        <path id="dp_path054" d="m362.19 639.75-11.04-146.98s45.733 52.632 45.733 52.632-39.381-41.226-39.381-41.226l7.265 148.68-2.58-13.104z" style="fill-rule:evenodd;stroke:#3cb923;stroke-width:.66667;fill:#55db69" inkscape:connector-curvature="0"/>
        <path id="dp_path055" d="m370.2 684.06-6.399-197.77-5.176-156.96 14.286 149.87-1.82 208.44-0.891-3.571z" style="fill-rule:evenodd;stroke:#3cb923;stroke-width:.66667;fill:#4fff69" inkscape:connector-curvature="0"/>
        <path id="dp_path056" d="m257.49 682.83s1.896-1.569 5.095-3.797c8.709-6.064 27.077-17.001 43.104-14.347 21.908 3.63-17.527-14.514 35.053-12.7 52.58 1.815 65.727-1.814 74.489 5.443 8.763 7.257 56.963-25.4 56.963-5.443 0 19.958-0.001 30.844-26.291 30.844-26.289 0-30.673-3.629-92.017 3.628-61.343 7.258-96.396-3.628-96.396-3.628z" style="fill-rule:evenodd;stroke:#3cb923;stroke-width:.66667;fill:#ae5511" inkscape:connector-curvature="0"/>
        <path id="dp_path057" d="m296.8 676.5c-2.491-2.509-7.473-21.331-7.473-18.821 0 2.509 22.417 25.094 19.926 21.33-2.49-3.764 1.244-35.132 3.735-18.821 2.491 16.312 14.945 12.548 14.945 7.529 0-5.02 6.227-30.113 7.472-23.84 1.244 6.274 0 28.858 6.226 20.075s16.189-20.075 18.68-11.292c2.49 8.783 3.737 21.331 12.453 13.801 1.273-1.098 3.252-2.818 5.427-4.546 3.664-2.91 7.886-5.835 10.23-5.835 3.736 0 19.212-9.965 19.212-8.439" style="fill-rule:evenodd;stroke:#3cb923;stroke-width:.66667;fill:#11ae50" inkscape:connector-curvature="0"/>
        <path id="dp_path058" d="m422.98 649.64c-3.772 2.543-23.888 20.34-16.344 15.255 7.544-5.084 45.26-29.237 45.26-26.695 0 2.543-10.059 20.339-10.059 20.339s-42.745-5.084-45.258-3.813c-2.515 1.27 0 0 0 0" style="fill-rule:evenodd;stroke:#3cb923;stroke-width:.66667;fill:#6ed33c" inkscape:connector-curvature="0"/>
      </g>
    </g>
    <g id="g3320" style="fill:url(#linearGradient3102)" transform="matrix(.76798 0 0 .76798 -97.416 11.512)">
      <g id="g3322" style="fill:url(#linearGradient3102)">
        <path id="path3324" d="m292.5 667.96 4.564-37.583 3.647-29.833-5.831 28.981-2.288 42.232-0.092-3.797z" style="fill-rule:evenodd;stroke:#97e987;stroke-width:1.3333;fill:url(#linearGradient3102)" inkscape:connector-curvature="0"/>
        <path id="path3326" d="m294.14 671.23s-34.369-48.116-34.369-48.116l-13.747 29.082 14.276-21.15s36.484 44.944 36.484 44.944l-2.644-4.76z" style="stroke:#97e987;stroke-width:1.3333;fill:url(#linearGradient3102);fill-rule:evenodd" inkscape:connector-curvature="0"/>
        <path id="path3328" d="m294.14 675.46-20.621-48.645-16.391-38.599 17.977 35.956s19.6 52.092 19.6 52.092l-0.565-0.804z" style="stroke:#97e987;stroke-width:1.3333;fill:url(#linearGradient3102);fill-rule:evenodd" inkscape:connector-curvature="0"/>
        <path id="path3330" d="m295.2 674.93s-2.768-15.411-8.46-37.012c-5.69-21.603-14.805-51.288-14.805-51.288" style="stroke:#97e987;stroke-width:1.3333;fill:url(#linearGradient3102);fill-rule:evenodd" inkscape:connector-curvature="0"/>
        <path id="path3332" d="m294.67 668.59s20.622-48.646 20.622-48.646l16.39-38.598-17.977 35.954-20.621 56.576 1.586-5.286z" style="stroke:#97e987;stroke-width:1.3333;fill:url(#linearGradient3102);fill-rule:evenodd" inkscape:connector-curvature="0"/>
        <path id="path3334" d="m295.2 669.82 20.62-37.248 16.392-29.556-17.978 27.532s-20.621 43.322-20.621 43.322l1.587-4.05z" style="stroke:#97e987;stroke-width:1.3333;fill:url(#linearGradient3102);fill-rule:evenodd" inkscape:connector-curvature="0"/>
        <path id="path3336" d="m292.03 666.7s-20.621-31.966-20.621-31.966-16.391-25.364-16.391-25.364l17.978 23.628s20.62 37.177 20.62 37.177-1.586-3.475-1.586-3.475z" style="stroke:#97e987;stroke-width:1.3333;fill:url(#linearGradient3102);fill-rule:evenodd" inkscape:connector-curvature="0"/>
        <path id="path3338" d="m290.84 664.8-9.816-33.657-7.815-26.716 9.828 25.803 8.252 38.008-0.449-3.438z" style="stroke:#97e987;stroke-width:1.3333;fill:url(#linearGradient3102);fill-rule:evenodd" inkscape:connector-curvature="0"/>
        <path id="path3340" d="m292.78 671.24s6.291-8.324 16.79-19.321c10.5-10.998 26.129-25.634 26.129-25.634" style="stroke:#97e987;stroke-width:1.3333;fill:url(#linearGradient3102);fill-rule:evenodd" inkscape:connector-curvature="0"/>
        <path id="path3342" d="m296.44 667.36 34.72-31.553 13.747 18.321s-14.301-14.818-14.301-14.818l-36.958 30.709 2.792-2.659z" style="stroke:#97e987;stroke-width:1.3333;fill:url(#linearGradient3102);fill-rule:evenodd" inkscape:connector-curvature="0"/>
        <path id="path3344" d="m294.35 671.78 9.179-36.852 7.31-29.25-9.373 28.124-7.495 41.771 0.379-3.793z" style="stroke:#97e987;stroke-width:1.3333;fill:url(#linearGradient3102);fill-rule:evenodd" inkscape:connector-curvature="0"/>
        <path id="path3346" d="m294.67 668.06s-0.529-96.76-0.529-96.76l-0.529-45.473s2.29 44.755 2.29 44.755l-1.232 102.24" style="stroke:#97e987;stroke-width:1.3333;fill:url(#linearGradient3102);fill-rule:evenodd" inkscape:connector-curvature="0"/>
        <path id="path3348" d="m295.9 561.14-1.329-35.361s-0.961 1.038-0.961 4.804c0 3.768 0.164 30.424 0.164 30.424l2.126 0.133z" style="stroke:#97e987;stroke-width:1.3333;fill:url(#linearGradient3102);fill-rule:evenodd" inkscape:connector-curvature="0"/>
        <path id="path3350" d="m292.09 666.49-2.947-39.245s12.211 14.053 12.211 14.053l-10.51-11s1.94 39.699 1.94 39.699l-0.689-3.499z" style="stroke:#97e987;stroke-width:1.3333;fill:url(#linearGradient3102);fill-rule:evenodd" inkscape:connector-curvature="0"/>
        <path id="path3352" d="m294.23 678.32-1.708-52.808s-1.381-41.91-1.381-41.91l3.813 40.017s-0.485 55.655-0.485 55.655-0.239-0.954-0.239-0.954z" style="stroke:#97e987;stroke-width:1.3333;fill:url(#linearGradient3102);fill-rule:evenodd" inkscape:connector-curvature="0"/>
        <path id="path3354" d="m264.14 678s0.505-0.418 1.36-1.013c2.325-1.62 7.229-4.54 11.509-3.831 5.849 0.968-4.68-3.876 9.36-3.392 14.039 0.486 17.549-0.484 19.889 1.454s15.21-6.782 15.21-1.454c0 5.33 0 8.236-7.02 8.236-7.019 0-8.19-0.969-24.57 0.97-16.38 1.94-25.74-0.97-25.74-0.97z" style="stroke:#97e987;stroke-width:1.3333;fill:url(#linearGradient3102);fill-rule:evenodd" inkscape:connector-curvature="0"/>
        <path id="path3356" d="m274.63 676.3c-0.665-0.67-1.995-5.696-1.995-5.025 0 0.669 5.986 6.7 5.32 5.695-0.665-1.004 0.332-9.38 0.998-5.026 0.665 4.356 3.99 3.351 3.99 2.011s1.663-8.04 1.995-6.365c0.332 1.674 0 7.705 1.663 5.36 1.662-2.346 4.322-5.36 4.988-3.015 0.665 2.345 0.997 5.695 3.325 3.685 0.34-0.293 0.868-0.753 1.448-1.214 0.979-0.778 2.107-1.558 2.732-1.558 0.997 0 5.131-2.661 5.131-2.253" style="stroke:#97e987;stroke-width:1.3333;fill:url(#linearGradient3102);fill-rule:evenodd" inkscape:connector-curvature="0"/>
        <path id="path3358" d="m308.32 669.14c-1.006 0.678-6.377 5.43-4.364 4.073 2.015-1.357 12.086-7.807 12.086-7.128s-2.686 5.431-2.686 5.431-11.414-1.358-12.085-1.019c-0.671 0.34 0 0 0 0" style="stroke:#97e987;stroke-width:1.3333;fill:url(#linearGradient3102);fill-rule:evenodd" inkscape:connector-curvature="0"/>
      </g>
      <g id="g3360" style="fill:url(#linearGradient3102)">
        <path id="path3362" d="m490.16 645.27-8.52-70.161-6.808-55.695 10.884 54.104 4.272 78.84s0.172-7.088 0.172-7.088z" style="fill:url(#linearGradient3102);stroke:#71c560;stroke-width:.66667;stroke-dasharray:1.6, 1.6;fill-rule:evenodd" inkscape:connector-curvature="0"/>
        <path id="path3364" d="m487.1 651.36s64.162-89.826 64.162-89.826l25.664 54.29s-26.652-39.484-26.652-39.484-68.11 83.904-68.11 83.904 4.936-8.884 4.936-8.884z" style="fill:url(#linearGradient3102);stroke:#71c560;stroke-width:.66667;stroke-dasharray:1.6, 1.6;fill-rule:evenodd" inkscape:connector-curvature="0"/>
        <path id="path3366" d="m487.1 659.26s38.497-90.813 38.497-90.813 30.6-72.059 30.6-72.059-33.561 67.124-33.561 67.124-36.592 97.25-36.592 97.25 1.056-1.502 1.056-1.502z" style="fill:url(#linearGradient3102);stroke:#71c560;stroke-width:.66667;stroke-dasharray:1.6, 1.6;fill-rule:evenodd" inkscape:connector-curvature="0"/>
        <path id="path3368" d="m485.13 658.28s5.168-28.772 15.794-69.098c10.625-40.329 27.638-95.749 27.638-95.749" style="fill:url(#linearGradient3102);stroke:#71c560;stroke-width:.66667;stroke-dasharray:1.6, 1.6;fill-rule:evenodd" inkscape:connector-curvature="0"/>
        <path id="path3370" d="m486.12 646.43-38.498-90.813s-30.6-72.059-30.6-72.059 33.562 67.123 33.562 67.123l38.497 105.62-2.961-9.872z" style="fill:url(#linearGradient3102);stroke:#71c560;stroke-width:.66667;stroke-dasharray:1.6, 1.6;fill-rule:evenodd" inkscape:connector-curvature="0"/>
        <path id="path3372" d="m485.13 648.74s-38.497-69.538-38.497-69.538-30.6-55.176-30.6-55.176 33.561 51.398 33.561 51.398l38.497 80.874-2.961-7.558z" style="fill:url(#linearGradient3102);stroke:#71c560;stroke-width:.66667;stroke-dasharray:1.6, 1.6;fill-rule:evenodd" inkscape:connector-curvature="0"/>
        <path id="path3374" d="m491.05 642.9s38.497-59.677 38.497-59.677l30.6-47.354s-33.561 44.111-33.561 44.111-38.498 69.407-38.498 69.407 2.962-6.487 2.962-6.487z" style="fill:url(#linearGradient3102);stroke:#71c560;stroke-width:.66667;stroke-dasharray:1.6, 1.6;fill-rule:evenodd" inkscape:connector-curvature="0"/>
        <path id="path3376" d="m493.28 639.36 18.324-62.833 14.59-49.876s-18.35 48.17-18.35 48.17l-15.406 70.955 0.842-6.416z" style="fill:url(#linearGradient3102);stroke:#71c560;stroke-width:.66667;stroke-dasharray:1.6, 1.6;fill-rule:evenodd" inkscape:connector-curvature="0"/>
        <path id="path3378" d="m489.65 651.38s-11.742-15.54-31.344-36.069c-19.601-20.532-48.778-47.855-48.778-47.855" style="fill:url(#linearGradient3102);stroke:#71c560;stroke-width:.66667;stroke-dasharray:1.6, 1.6;fill-rule:evenodd" inkscape:connector-curvature="0"/>
        <path id="path3380" d="m482.82 644.14-64.817-58.906s-25.665 34.203-25.665 34.203 26.7-27.663 26.7-27.663l68.994 57.328-5.212-4.962z" style="fill:url(#linearGradient3102);stroke:#71c560;stroke-width:.66667;stroke-dasharray:1.6, 1.6;fill-rule:evenodd" inkscape:connector-curvature="0"/>
        <path id="path3382" d="m486.72 652.39s-17.136-68.797-17.136-68.797-13.648-54.605-13.648-54.605 17.497 52.504 17.497 52.504 13.992 77.981 13.992 77.981-0.705-7.083-0.705-7.083z" style="fill:url(#linearGradient3102);stroke:#71c560;stroke-width:.66667;stroke-dasharray:1.6, 1.6;fill-rule:evenodd" inkscape:connector-curvature="0"/>
        <path id="path3384" d="m486.12 645.44 0.987-180.64 0.986-84.89s-4.276 83.55-4.276 83.55l2.303 190.87" style="fill:url(#linearGradient3102);stroke:#71c560;stroke-width:.66667;stroke-dasharray:1.6, 1.6;fill-rule:evenodd" inkscape:connector-curvature="0"/>
        <path id="path3386" d="m483.81 445.84s2.483-66.015 2.483-66.015 1.793 1.939 1.793 8.97c0 7.033-0.305 56.797-0.305 56.797l-3.971 0.248z" style="fill:url(#linearGradient3102);stroke:#71c560;stroke-width:.66667;stroke-dasharray:1.6, 1.6;fill-rule:evenodd" inkscape:connector-curvature="0"/>
        <path id="path3388" d="m490.93 642.52 5.503-73.267s-22.797 26.236-22.797 26.236l19.63-20.551s-3.621 74.114-3.621 74.114l1.285-6.532z" style="fill:url(#linearGradient3102);stroke:#71c560;stroke-width:.66667;stroke-dasharray:1.6, 1.6;fill-rule:evenodd" inkscape:connector-curvature="0"/>
        <path id="path3390" d="m486.94 664.61 3.189-98.585 2.58-78.244-7.121 74.706 0.908 103.9 0.444-1.779z" style="fill:url(#linearGradient3102);stroke:#71c560;stroke-width:.66667;stroke-dasharray:1.6, 1.6;fill-rule:evenodd" inkscape:connector-curvature="0"/>
        <path id="path3392" d="m543.13 664s-0.945-0.782-2.54-1.892c-4.341-3.023-13.499-8.475-21.487-7.152-10.921 1.809 8.738-7.235-17.473-6.331s-32.764-0.904-37.132 2.713c-4.368 3.618-28.395-12.661-28.395-2.713s0 15.375 13.106 15.375c13.105 0 15.29-1.808 45.869 1.809 30.58 3.62 48.05-1.81 48.05-1.81z" style="fill:url(#linearGradient3102);stroke:#71c560;stroke-width:.66667;stroke-dasharray:1.6, 1.6;fill-rule:evenodd" inkscape:connector-curvature="0"/>
        <path id="path3394" d="m523.53 660.84c1.242-1.251 3.726-10.633 3.726-9.381 0 1.25-11.175 12.508-9.934 10.632 1.242-1.876-0.62-17.512-1.862-9.382-1.242 8.131-7.45 6.255-7.45 3.754 0-2.503-3.104-15.012-3.724-11.884-0.621 3.126 0 14.385-3.104 10.006-3.104-4.378-8.069-10.006-9.312-5.629-1.241 4.379-1.862 10.633-6.208 6.88-0.633-0.548-1.62-1.405-2.704-2.267-1.826-1.45-3.932-2.908-5.1-2.908-1.862 0-9.577-4.968-9.577-4.206" style="fill:url(#linearGradient3102);stroke:#71c560;stroke-width:.66667;stroke-dasharray:1.6, 1.6;fill-rule:evenodd" inkscape:connector-curvature="0"/>
        <path id="path3396" d="m460.64 647.45c1.88 1.268 11.906 10.139 8.146 7.604-3.76-2.534-22.561-14.573-22.561-13.306 0 1.268 5.013 10.138 5.013 10.138s21.31-2.534 22.562-1.901c1.253 0.633 0 0 0 0" style="fill:url(#linearGradient3102);stroke:#71c560;stroke-width:.66667;stroke-dasharray:1.6, 1.6;fill-rule:evenodd" inkscape:connector-curvature="0"/>
      </g>
      <g id="g3398" style="fill:url(#linearGradient3102)">
        <path id="path3400" d="m363.74 645.26 17.092-140.75 13.659-111.73-21.835 108.54-8.569 158.16-0.347-14.221z" style="stroke:#3cb923;stroke-width:.66667;fill:url(#linearGradient3102);fill-rule:evenodd" inkscape:connector-curvature="0"/>
        <path id="path3402" d="m369.88 657.49s-128.71-180.2-128.71-180.2l-51.484 108.91 53.465-79.208s136.64 168.32 136.64 168.32l-9.903-17.823z" style="stroke:#3cb923;stroke-width:.66667;fill:url(#linearGradient3102);fill-rule:evenodd" inkscape:connector-curvature="0"/>
        <path id="path3404" d="m369.88 673.33-77.228-182.18-61.386-144.56 67.328 134.66 73.405 195.09s-2.119-3.011-2.119-3.011z" style="stroke:#3cb923;stroke-width:.66667;fill:url(#linearGradient3102);fill-rule:evenodd" inkscape:connector-curvature="0"/>
        <path id="path3406" d="m373.84 671.35s-10.368-57.72-31.683-138.62c-21.32-80.9-55.45-192.08-55.45-192.08" style="stroke:#3cb923;stroke-width:.66667;fill:url(#linearGradient3102);fill-rule:evenodd" inkscape:connector-curvature="0"/>
        <path id="path3408" d="m371.86 647.59 77.229-182.18 61.386-144.56-67.327 134.66-77.229 211.88 5.941-19.802z" style="stroke:#3cb923;stroke-width:.66667;fill:url(#linearGradient3102);fill-rule:evenodd" inkscape:connector-curvature="0"/>
        <path id="path3410" d="m373.84 652.23 77.228-139.5 61.387-110.69-67.328 103.11-77.228 162.24 5.941-15.164z" style="stroke:#3cb923;stroke-width:.66667;fill:url(#linearGradient3102);fill-rule:evenodd" inkscape:connector-curvature="0"/>
        <path id="path3412" d="m361.96 640.52-77.23-119.72s-61.385-94.995-61.385-94.995 67.326 88.49 67.326 88.49l77.23 139.24-5.942-13.013z" style="stroke:#3cb923;stroke-width:.66667;fill:url(#linearGradient3102);fill-rule:evenodd" inkscape:connector-curvature="0"/>
        <path id="path3414" d="m357.5 633.41-36.76-126.05-29.269-100.05 36.812 96.632 30.904 142.34-1.687-12.871z" style="stroke:#3cb923;stroke-width:.66667;fill:url(#linearGradient3102);fill-rule:evenodd" inkscape:connector-curvature="0"/>
        <path id="path3416" d="m364.76 657.51s23.558-31.175 62.878-72.359c39.322-41.189 97.856-96.001 97.856-96.001" style="stroke:#3cb923;stroke-width:.66667;fill:url(#linearGradient3102);fill-rule:evenodd" inkscape:connector-curvature="0"/>
        <path id="path3418" d="m378.47 642.98 130.03-118.17s51.484 68.615 51.484 68.615-53.562-55.495-53.562-55.495l-138.41 115.01 10.456-9.957z" style="stroke:#3cb923;stroke-width:.66667;fill:url(#linearGradient3102);fill-rule:evenodd" inkscape:connector-curvature="0"/>
        <path id="path3420" d="m370.64 659.54 34.377-138.01 27.38-109.54-35.102 105.33-28.07 156.44 1.415-14.208z" style="stroke:#3cb923;stroke-width:.66667;fill:url(#linearGradient3102);fill-rule:evenodd" inkscape:connector-curvature="0"/>
        <path id="path3422" d="m371.86 645.61s-1.982-362.38-1.982-362.38l-1.978-170.3 8.577 167.61-4.617 382.89" style="stroke:#3cb923;stroke-width:.66667;fill:url(#linearGradient3102);fill-rule:evenodd" inkscape:connector-curvature="0"/>
        <path id="path3424" d="m376.48 245.19-4.979-132.43s-3.598 3.888-3.598 17.993c0 14.11 0.612 113.94 0.612 113.94l7.965 0.497z" style="fill-rule:evenodd;stroke:#3cb923;stroke-width:.66667;fill:#d38d5f" inkscape:connector-curvature="0"/>
        <path id="path3426" d="m362.19 639.75-11.04-146.98s45.733 52.632 45.733 52.632-39.381-41.226-39.381-41.226l7.265 148.68-2.58-13.104z" style="stroke:#3cb923;stroke-width:.66667;fill:url(#linearGradient3102);fill-rule:evenodd" inkscape:connector-curvature="0"/>
        <path id="path3428" d="m370.2 684.06-6.399-197.77-5.176-156.96 14.286 149.87-1.82 208.44-0.891-3.571z" style="stroke:#3cb923;stroke-width:.66667;fill:url(#linearGradient3102);fill-rule:evenodd" inkscape:connector-curvature="0"/>
        <path id="path3430" d="m257.49 682.83s1.896-1.569 5.095-3.797c8.709-6.064 27.077-17.001 43.104-14.347 21.908 3.63-17.527-14.514 35.053-12.7 52.58 1.815 65.727-1.814 74.489 5.443 8.763 7.257 56.963-25.4 56.963-5.443 0 19.958-0.001 30.844-26.291 30.844-26.289 0-30.673-3.629-92.017 3.628-61.343 7.258-96.396-3.628-96.396-3.628z" style="stroke:#3cb923;stroke-width:.66667;fill:url(#linearGradient3102);fill-rule:evenodd" inkscape:connector-curvature="0"/>
        <path id="path3432" d="m296.8 676.5c-2.491-2.509-7.473-21.331-7.473-18.821 0 2.509 22.417 25.094 19.926 21.33-2.49-3.764 1.244-35.132 3.735-18.821 2.491 16.312 14.945 12.548 14.945 7.529 0-5.02 6.227-30.113 7.472-23.84 1.244 6.274 0 28.858 6.226 20.075s16.189-20.075 18.68-11.292c2.49 8.783 3.737 21.331 12.453 13.801 1.273-1.098 3.252-2.818 5.427-4.546 3.664-2.91 7.886-5.835 10.23-5.835 3.736 0 19.212-9.965 19.212-8.439" style="stroke:#3cb923;stroke-width:.66667;fill:url(#linearGradient3102);fill-rule:evenodd" inkscape:connector-curvature="0"/>
        <path id="path3434" d="m422.98 649.64c-3.772 2.543-23.888 20.34-16.344 15.255 7.544-5.084 45.26-29.237 45.26-26.695 0 2.543-10.059 20.339-10.059 20.339s-42.745-5.084-45.258-3.813c-2.515 1.27 0 0 0 0" style="stroke:#3cb923;stroke-width:.66667;fill:url(#linearGradient3102);fill-rule:evenodd" inkscape:connector-curvature="0"/>
      </g>
    </g>
  </g>
  <metadata id="metadata125">
    <rdf:RDF>
      <cc:Work>
        <dc:format>image/svg+xml</dc:format>
        <dc:type rdf:resource="http://purl.org/dc/dcmitype/StillImage"/>
        <cc:license rdf:resource="http://creativecommons.org/licenses/publicdomain/"/>
        <dc:publisher>
          <cc:Agent rdf:about="http://openclipart.org/">
            <dc:title>Openclipart</dc:title>
          </cc:Agent>
        </dc:publisher>
      </cc:Work>
      <cc:License rdf:about="http://creativecommons.org/licenses/publicdomain/">
        <cc:permits rdf:resource="http://creativecommons.org/ns#Reproduction"/>
        <cc:permits rdf:resource="http://creativecommons.org/ns#Distribution"/>
        <cc:permits rdf:resource="http://creativecommons.org/ns#DerivativeWorks"/>
      </cc:License>
    </rdf:RDF>
  </metadata>
</svg>
