<?xml version="1.0" encoding="UTF-8" standalone="no"?>
<svg
   xmlns:dc="http://purl.org/dc/elements/1.1/"
   xmlns:cc="http://creativecommons.org/ns#"
   xmlns:rdf="http://www.w3.org/1999/02/22-rdf-syntax-ns#"
   xmlns:svg="http://www.w3.org/2000/svg"
   xmlns="http://www.w3.org/2000/svg"
   xmlns:sodipodi="http://sodipodi.sourceforge.net/DTD/sodipodi-0.dtd"
   xmlns:inkscape="http://www.inkscape.org/namespaces/inkscape"
   version="1.1"
   id="svg2"
   inkscape:version="0.48.4 r9939"
   width="12.2"
   height="12.2"
   sodipodi:docname="equal.svg">
  <metadata
     id="metadata30">
    <rdf:RDF>
      <cc:Work
         rdf:about="">
        <dc:format>image/svg+xml</dc:format>
        <dc:type
           rdf:resource="http://purl.org/dc/dcmitype/StillImage" />
      </cc:Work>
    </rdf:RDF>
  </metadata>
  <sodipodi:namedview
     pagecolor="#ffffff"
     bordercolor="#666666"
     borderopacity="1"
     objecttolerance="10"
     gridtolerance="10"
     guidetolerance="10"
     inkscape:pageopacity="0"
     inkscape:pageshadow="2"
     inkscape:window-width="1920"
     inkscape:window-height="985"
     id="namedview28"
     showgrid="false"
     fit-margin-top="0"
     fit-margin-left="0"
     fit-margin-right="0"
     fit-margin-bottom="0"
     inkscape:zoom="65.32787"
     inkscape:cx="6.0999999"
     inkscape:cy="6.0999999"
     inkscape:window-x="-4"
     inkscape:window-y="-4"
     inkscape:window-maximized="1"
     inkscape:current-layer="svg2" />
  <defs
     id="defs4">
    <radialGradient
       id="gradRed"
       cx="4.9000001"
       cy="4.9000001"
       r="6.6000003"
       fx="4.9000001"
       fy="4.9000001"
       gradientUnits="userSpaceOnUse">
      <stop
         offset="0%"
         style="stop-color:rgb(255,0,0);       stop-opacity:1"
         id="stop7" />
      <stop
         offset="100%"
         style="stop-color:rgb(140,0,0);stop-opacity:1"
         id="stop9" />
    </radialGradient>
    <radialGradient
       id="gradGreen"
       cx="4.9000001"
       cy="4.9000001"
       r="6.6000003"
       fx="4.9000001"
       fy="4.9000001"
       gradientUnits="userSpaceOnUse">
      <stop
         offset="0%"
         style="stop-color:rgb(0,255,0);       stop-opacity:1"
         id="stop12" />
      <stop
         offset="100%"
         style="stop-color:rgb(0,140,0);stop-opacity:1"
         id="stop14" />
    </radialGradient>
  </defs>
  <g
     transform="matrix(0.7,0,0,0.7,-0.35,4.15)"
     id="g16">
    <circle
       cx="6"
       cy="6"
       r="5.5"
       id="circle18"
       d="M 11.5,6 C 11.5,9.0375661 9.0375661,11.5 6,11.5 2.9624339,11.5 0.5,9.0375661 0.5,6 0.5,2.9624339 2.9624339,0.5 6,0.5 c 3.0375661,0 5.5,2.4624339 5.5,5.5 z"
       sodipodi:cx="6"
       sodipodi:cy="6"
       sodipodi:rx="5.5"
       sodipodi:ry="5.5"
       style="fill:url(#gradRed);stroke:#000000;stroke-width:0" />
    <polygon
       points="3,7 3,5 9,5 9,7 5,7 "
       style="fill:#ffffff;stroke-width:0"
       id="polygon20" />
  </g>
  <g
     transform="matrix(0.7,0,0,0.7,4.15,-0.35)"
     id="g22">
    <circle
       cx="6"
       cy="6"
       r="5.5"
       id="circle24"
       d="M 11.5,6 C 11.5,9.0375661 9.0375661,11.5 6,11.5 2.9624339,11.5 0.5,9.0375661 0.5,6 0.5,2.9624339 2.9624339,0.5 6,0.5 c 3.0375661,0 5.5,2.4624339 5.5,5.5 z"
       sodipodi:cx="6"
       sodipodi:cy="6"
       sodipodi:rx="5.5"
       sodipodi:ry="5.5"
       style="fill:url(#gradGreen);stroke:#000000;stroke-width:0" />
    <polygon
       points="9,5 9,7 7,7 7,9 5,9 5,7 3,7 3,5 5,5 5,3 7,3 7,5 "
       style="fill:#ffffff;stroke-width:0"
       id="polygon26" />
  </g>
</svg>
